<svg width="18" height="18" viewBox="0 0 18 18" fill="none" xmlns="http://www.w3.org/2000/svg">
<g clip-path="url(#clip0)">
<path d="M3.46591 10.4594L0.105469 15.3604L3.35001 14.7553L3.95508 18L7.14537 13.3472L3.46591 10.4594Z" fill="#F57F41"/>
<path d="M14.533 10.4594L10.8535 13.3472L14.0439 18L14.6489 14.7553L17.8934 15.3604L14.533 10.4594Z" fill="#EA623C"/>
<path d="M8.99927 0C5.0023 0 1.75049 3.25195 1.75049 7.24933C1.75049 11.2466 5.0023 14.4985 8.99927 14.4985C12.9964 14.4985 16.2483 11.2466 16.2483 7.24919C16.2483 3.25195 12.9964 0 8.99927 0V0Z" fill="#FFE07F"/>
<path d="M8.99927 0V14.4985C12.9964 14.4985 16.2483 11.2466 16.2483 7.24919C16.2483 3.25195 12.9964 0 8.99927 0V0Z" fill="#FFD23A"/>
<path d="M7.70712 10.3417L5.23218 7.86661L5.98227 7.11652L7.70712 8.84137L12.0164 4.53198L12.7665 5.28207L7.70712 10.3417Z" fill="#1D608B"/>
<path d="M8.99927 9.05272L12.7665 5.28207L12.0164 4.53198L8.99927 7.5491V9.05272Z" fill="#0D3954"/>
</g>
<defs>
<clipPath id="clip0">
<rect width="18" height="18" fill="white"/>
</clipPath>
</defs>
</svg>
