<svg width="18" height="18" viewBox="0 0 18 18" fill="none" xmlns="http://www.w3.org/2000/svg">
<g clip-path="url(#clip0)">
<path d="M7.81738 16.9453H8.87207V18H7.81738V16.9453Z" fill="#FFCC66"/>
<path d="M0 9.12793H1.05469V10.1826H0V9.12793Z" fill="#FFE666"/>
<path d="M8.87207 14.8359H9.92675V15.8906H8.87207V14.8359Z" fill="#FFCC66"/>
<path d="M1.16305 17.8664C2.47884 16.594 3.87486 17.9999 3.87486 17.9999C7.5578 17.0033 7.42635 13.2717 7.42635 13.2717L6.07723 10.9282L0.732422 17.2674C0.930633 17.6402 1.16305 17.8664 1.16305 17.8664Z" fill="#FFCC66"/>
<path d="M0.0263672 14.0985L1.05592 14.7671C0.199266 15.7556 0.424512 16.6884 0.732305 17.2674L6.57429 11.4254L4.72799 10.5735C4.72802 10.5735 1.02291 10.4155 0.0263672 14.0985Z" fill="#FFE666"/>
<path d="M7.42663 13.2719L6.07751 10.9285L3.83447 14.1659C6.00685 14.6917 7.42663 13.2719 7.42663 13.2719Z" fill="#CC295F"/>
<path d="M3.83412 14.1656L6.57433 11.4254L4.72803 10.5735C4.72807 10.5735 3.30825 11.9933 3.83412 14.1656Z" fill="#FF3377"/>
<path d="M6.07715 11.9227L7.42627 13.2718L8.2215 12.4765L6.87238 10.1331L6.07715 11.9227Z" fill="#CFCFE6"/>
<path d="M5.52323 9.77832L4.72803 10.5736L6.07711 11.9227L7.36953 10.6303L5.52323 9.77832Z" fill="#ECE6F2"/>
<path d="M9.01687 11.6814L7.66775 9.33789L6.87256 11.1274L8.22167 12.4766L9.01687 11.6814Z" fill="#A3AACC"/>
<path d="M6.31864 8.98315L5.52344 9.77835L6.87256 11.1275L8.16494 9.8351L6.31864 8.98315Z" fill="#CFCFE6"/>
<path d="M13.8797 9.0415C14.4126 11.1061 11.4271 14.0916 11.4271 14.0916L9.81201 12.4766L11.5232 9.43061L13.8797 9.0415Z" fill="#CC295F"/>
<path d="M8.95833 4.12036C6.89374 3.58739 3.9082 6.57296 3.9082 6.57296L5.52325 8.188L8.56922 6.47685L8.95833 4.12036Z" fill="#FF3377"/>
<path d="M17.6608 0.339355L12.1338 4.87201L15.7316 7.4754C17.741 5.70064 18.505 2.89405 17.6608 0.339355Z" fill="#CC295F"/>
<path d="M10.5244 2.26849L12.6306 5.36906L17.6605 0.339254C15.1058 -0.504989 12.2992 0.259027 10.5244 2.26849Z" fill="#FF3377"/>
<path d="M13.1279 4.87183L9.9005 7.10485L7.66748 10.3322L9.8118 12.4766L15.6181 7.5732C15.6563 7.54093 15.6939 7.5082 15.7313 7.47522L13.1279 4.87183Z" fill="#ECE6F2"/>
<path d="M10.5247 2.26855C10.4917 2.30589 10.459 2.34354 10.4267 2.38172L5.52344 8.18802L7.66776 10.3323L13.1281 4.87195L10.5247 2.26855Z" fill="#FFF5F5"/>
<path d="M14.495 6.23867C15.2487 5.48496 15.2487 4.2586 14.495 3.50488L12.6309 4.37458L11.7612 6.23867C12.5149 6.99239 13.7413 6.99239 14.495 6.23867Z" fill="#101040"/>
<path d="M11.7611 3.50497C11.0074 4.25868 11.0074 5.48504 11.7611 6.23875L14.4949 3.50497C13.7412 2.75126 12.5148 2.75129 11.7611 3.50497Z" fill="#283366"/>
<path d="M13.7491 5.49298C14.0915 5.15049 14.0915 4.59322 13.7491 4.25073L12.8794 4.62325L12.5068 5.49294C12.8493 5.83547 13.4066 5.83547 13.7491 5.49298Z" fill="#CFCFE6"/>
<path d="M12.5069 4.25077C12.1644 4.59326 12.1644 5.15049 12.5069 5.49298L13.7491 4.25073C13.4066 3.90828 12.8494 3.90828 12.5069 4.25077Z" fill="#ECE6F2"/>
</g>
<defs>
<clipPath id="clip0">
<rect width="18" height="18" fill="white"/>
</clipPath>
</defs>
</svg>
