<svg width="17" height="17" viewBox="0 0 17 17" fill="none" xmlns="http://www.w3.org/2000/svg">
<path d="M8.5 17C13.1944 17 17 13.1944 17 8.5C17 3.80558 13.1944 0 8.5 0C3.80558 0 0 3.80558 0 8.5C0 13.1944 3.80558 17 8.5 17Z" fill="#FFCA28"/>
<path d="M13.2708 6.91687C12.9775 6.91687 12.7395 6.67887 12.7395 6.38562C12.7395 5.80018 12.2635 5.32312 11.677 5.32312C11.0905 5.32312 10.6145 5.80018 10.6145 6.38562C10.6145 6.67887 10.3765 6.91687 10.0833 6.91687C9.79 6.91687 9.552 6.67887 9.552 6.38562C9.552 5.21368 10.5051 4.26062 11.677 4.26062C12.8489 4.26062 13.802 5.21368 13.802 6.38562C13.802 6.67993 13.564 6.91687 13.2708 6.91687Z" fill="#6D4C41"/>
<path d="M6.89575 6.91687C6.6025 6.91687 6.3645 6.67887 6.3645 6.38562C6.3645 5.80018 5.88744 5.32312 5.302 5.32312C4.71656 5.32312 4.2395 5.80018 4.2395 6.38562C4.2395 6.67887 4.0015 6.91687 3.70825 6.91687C3.415 6.91687 3.177 6.67887 3.177 6.38562C3.177 5.21368 4.13006 4.26062 5.302 4.26062C6.47394 4.26062 7.427 5.21368 7.427 6.38562C7.427 6.67993 7.189 6.91687 6.89575 6.91687Z" fill="#6D4C41"/>
<path d="M14.5328 9.78456C14.4319 9.65174 14.2757 9.57312 14.11 9.57312H2.86872C2.70191 9.57312 2.54572 9.65068 2.44585 9.7835C2.34385 9.91737 2.31197 10.0884 2.3566 10.2489C3.12479 12.9784 5.64716 14.8856 8.48829 14.8856C11.3294 14.8856 13.8518 12.9784 14.62 10.2489C14.6657 10.0884 14.6338 9.91737 14.5328 9.78456Z" fill="#FAFAFA"/>
</svg>
