<svg width="18" height="18" viewBox="0 0 18 18" fill="none" xmlns="http://www.w3.org/2000/svg">
<path d="M9 18C13.9706 18 18 13.9706 18 9C18 4.02944 13.9706 0 9 0C4.02944 0 0 4.02944 0 9C0 13.9706 4.02944 18 9 18Z" fill="#FFCA28"/>
<path d="M5.625 7.875C6.24632 7.875 6.75 7.37132 6.75 6.75C6.75 6.12868 6.24632 5.625 5.625 5.625C5.00368 5.625 4.5 6.12868 4.5 6.75C4.5 7.37132 5.00368 7.875 5.625 7.875Z" fill="#6D4C41"/>
<path d="M12.375 7.875C12.9963 7.875 13.5 7.37132 13.5 6.75C13.5 6.12868 12.9963 5.625 12.375 5.625C11.7537 5.625 11.25 6.12868 11.25 6.75C11.25 7.37132 11.7537 7.875 12.375 7.875Z" fill="#6D4C41"/>
<path d="M8.99995 14.625C7.49695 14.625 6.08508 14.0389 5.02195 12.9769C4.80258 12.7575 4.80258 12.4009 5.02195 12.1815C5.24133 11.9621 5.59795 11.9621 5.81733 12.1815C7.5172 13.8825 10.4805 13.8825 12.1815 12.1815C12.4008 11.9621 12.7575 11.9621 12.9768 12.1815C13.1962 12.4009 13.1962 12.7575 12.9768 12.9769C11.9148 14.0389 10.503 14.625 8.99995 14.625Z" fill="#6D4C41"/>
</svg>
