<svg width="32" height="29" viewBox="0 0 32 29" fill="none" xmlns="http://www.w3.org/2000/svg">
<path d="M19.3282 3.31374L18.2777 3.02574C18.1424 2.98064 18.0092 2.99482 17.8797 3.06816C17.7498 3.14156 17.662 3.25174 17.6169 3.39853L11.2982 25.2682C11.2531 25.4151 11.2672 25.5535 11.3406 25.6833C11.414 25.8132 11.524 25.9007 11.671 25.9458L12.7213 26.2339C12.8568 26.2794 12.9895 26.2651 13.1194 26.1917C13.2493 26.1179 13.3369 26.0081 13.382 25.8615L19.7008 3.99151C19.7459 3.84472 19.7319 3.70623 19.6584 3.57623C19.5849 3.44629 19.4751 3.35878 19.3282 3.31374Z" fill="white"/>
<path d="M9.85932 7.58297C9.85932 7.43617 9.80277 7.30617 9.68986 7.19332L8.84275 6.34627C8.72984 6.23336 8.5999 6.17676 8.4531 6.17676C8.30631 6.17676 8.17631 6.23342 8.06346 6.34627L0.169457 14.2403C0.0563671 14.3532 0 14.4831 0 14.6299C0 14.7767 0.0565451 14.9066 0.169457 15.0195L8.0634 22.9135C8.17625 23.0266 8.30602 23.0828 8.45305 23.0828C8.60007 23.0828 8.72984 23.0264 8.84269 22.9135L9.6898 22.0669C9.80271 21.9541 9.85926 21.8241 9.85926 21.6771C9.85926 21.5305 9.80271 21.4005 9.6898 21.2877L3.03237 14.6299L9.68986 7.97261C9.80295 7.85976 9.85932 7.72976 9.85932 7.58297Z" fill="white"/>
<path d="M30.8309 14.24L22.9367 6.34603C22.8239 6.23318 22.6939 6.17651 22.5473 6.17651C22.4003 6.17651 22.2708 6.23318 22.1575 6.34603L21.3108 7.19302C21.1979 7.30593 21.1416 7.43569 21.1416 7.58266C21.1416 7.72963 21.1978 7.85945 21.3108 7.97231L27.9684 14.6298L21.3108 21.2876C21.1979 21.4005 21.1416 21.5305 21.1416 21.677C21.1416 21.8241 21.1978 21.954 21.3108 22.0668L22.1575 22.9134C22.2708 23.0265 22.4004 23.0828 22.5473 23.0828C22.694 23.0828 22.8239 23.0263 22.9367 22.9134L30.8309 15.0195C30.9438 14.9066 31.0003 14.7765 31.0003 14.6297C31.0003 14.4828 30.9438 14.3529 30.8309 14.24Z" fill="white"/>
</svg>
