<svg width="38" height="38" viewBox="0 0 38 38" fill="none" xmlns="http://www.w3.org/2000/svg">
<path d="M0 8C0 3.58172 3.58172 0 8 0H30C34.4183 0 38 3.58172 38 8V30C38 34.4183 34.4183 38 30 38H8C3.58172 38 0 34.4183 0 30V8Z" fill="#5B79FF"/>
<path d="M26.7283 17.8395L20.589 11.7001C20.4137 11.5248 20.1802 11.4286 19.9311 11.4286C19.6818 11.4286 19.4483 11.5249 19.2731 11.7001L18.7157 12.2576C18.5406 12.4326 18.4441 12.6663 18.4441 12.9155C18.4441 13.1645 18.5406 13.4061 18.7157 13.5811L22.2973 17.1706H10.9184C10.4054 17.1706 10 17.5722 10 18.0854V18.8736C10 19.3868 10.4054 19.8289 10.9184 19.8289H22.3379L18.7158 23.4384C18.5407 23.6136 18.4442 23.841 18.4442 24.0902C18.4442 24.3391 18.5407 24.5698 18.7158 24.7449L19.2732 25.3006C19.4485 25.4759 19.6819 25.5714 19.9312 25.5714C20.1803 25.5714 20.4139 25.4746 20.5891 25.2994L26.7284 19.1601C26.9041 18.9843 27.0007 18.7496 27 18.5001C27.0005 18.2498 26.9041 18.015 26.7283 17.8395Z" fill="white"/>
</svg>
