<svg width="35" height="35" viewBox="0 0 35 35" fill="none" xmlns="http://www.w3.org/2000/svg">
<path d="M35 17.5C35 27.165 27.165 35 17.5 35C12.405 35 7.81857 32.8229 4.62071 29.3479C3.78071 28.4357 3.03714 27.4336 2.40429 26.3586C0.876429 23.76 0 20.7321 0 17.5C0 7.835 7.835 0 17.5 0C20.7329 0 23.7607 0.876428 26.3586 2.405C27.4336 3.03714 28.435 3.78071 29.3471 4.62143C32.8221 7.81786 35 12.405 35 17.5Z" fill="#F0CD00"/>
<path d="M34.9999 17.5C34.9999 26.9471 27.5149 34.6457 18.1513 34.9879C8.78773 34.6457 1.30273 26.9471 1.30273 17.5C1.30273 8.05286 8.78773 0.354289 18.1513 0.012146C27.5149 0.354289 34.9999 8.05286 34.9999 17.5Z" fill="#FFDE50"/>
<path d="M29.3472 4.62143L4.62073 29.3479C3.78073 28.4357 3.03715 27.4336 2.4043 26.3586L26.3586 2.405C27.4336 3.03714 28.435 3.78071 29.3472 4.62143Z" fill="#FFEA94"/>
<path d="M33.793 11.1022L11.1016 33.7936C9.49518 33.1622 8.00447 32.3 6.6709 31.2479L31.248 6.67073C32.3002 8.0043 33.1623 9.49502 33.793 11.1022Z" fill="#FFEA94"/>
<path d="M31.0985 17.5C31.0985 25.01 25.0099 31.0986 17.4999 31.0986C14.8842 31.0986 12.4414 30.36 10.3678 29.08C9.46422 28.5229 8.63137 27.8621 7.88422 27.115C7.33494 26.5664 6.83208 25.97 6.3828 25.3336C5.76422 24.4571 5.24637 23.5043 4.84708 22.4921C4.25565 20.9957 3.9228 19.3686 3.9028 17.6671C3.90137 17.6114 3.90137 17.5557 3.90137 17.5C3.90137 9.99 9.98922 3.90143 17.4999 3.90143C17.5557 3.90143 17.6121 3.90143 17.6678 3.90286C19.3692 3.92286 20.9957 4.25643 22.4921 4.84714C23.5042 5.24714 24.4571 5.76429 25.3335 6.38286C25.9699 6.83286 26.5657 7.335 27.1149 7.88429C27.8621 8.63071 28.5228 9.46429 29.0799 10.3679C30.3599 12.4414 31.0985 14.8843 31.0985 17.5Z" fill="#FAA300"/>
<path d="M27.1149 7.88428L7.88422 27.115C7.33494 26.5664 6.83208 25.97 6.3828 25.3336C5.76422 24.4571 5.24637 23.5043 4.84708 22.4921C4.25565 20.9957 3.9228 19.3686 3.9028 17.6671C3.90137 17.6114 3.90137 17.5557 3.90137 17.5C3.90137 9.99 9.98922 3.90143 17.4999 3.90143C17.5557 3.90143 17.6121 3.90143 17.6678 3.90286C19.3692 3.92286 20.9957 4.25643 22.4921 4.84714C23.5042 5.24714 24.4571 5.76429 25.3335 6.38286C25.9699 6.83286 26.5657 7.335 27.1149 7.88428Z" fill="#FFBD00"/>
<path d="M31.0983 17.5C31.0983 25.01 25.0098 31.0986 17.4998 31.0986C17.2419 31.0986 16.9862 31.0914 16.7319 31.0771C23.8848 30.6793 29.5619 24.7521 29.5619 17.5C29.5619 10.2479 23.8848 4.32071 16.7319 3.92286C16.9862 3.90857 17.2419 3.90143 17.4998 3.90143C25.0098 3.90143 31.0983 9.99 31.0983 17.5Z" fill="#F68E00"/>
<path d="M18.2005 20.433C21.7599 20.433 24.6556 17.5372 24.6556 13.9779C24.6556 10.4187 21.7598 7.52287 18.2005 7.52287H11.0797C10.2907 7.52287 9.65108 8.16244 9.65108 8.95144V17.5759H8.67808C7.88908 17.5759 7.24951 18.2154 7.24951 19.0044C7.24951 19.7934 7.88908 20.433 8.67808 20.433H9.65108V22.0761H8.67808C7.88908 22.0761 7.24951 22.7157 7.24951 23.5047C7.24951 24.2937 7.88908 24.9332 8.67808 24.9332H9.65108V26.3931C9.65108 27.1821 10.2907 27.8217 11.0797 27.8217C11.8687 27.8217 12.5082 27.1821 12.5082 26.3931V24.9332H17.505C18.294 24.9332 18.9336 24.2937 18.9336 23.5047C18.9336 22.7157 18.294 22.0761 17.505 22.0761H12.5082V20.433H18.2005ZM12.5082 10.38H18.2005C20.1844 10.38 21.7984 11.994 21.7984 13.9779C21.7984 15.9618 20.1844 17.5759 18.2005 17.5759H12.5082V10.38Z" fill="#F68E00"/>
<path d="M19.9866 20.433C23.546 20.433 26.4417 17.5372 26.4417 13.9779C26.4417 10.4187 23.5459 7.52287 19.9866 7.52287H12.8658C12.0768 7.52287 11.4372 8.16244 11.4372 8.95144V17.5759H10.4642C9.67522 17.5759 9.03564 18.2154 9.03564 19.0044C9.03564 19.7934 9.67522 20.433 10.4642 20.433H11.4372V22.0761H10.4642C9.67522 22.0761 9.03564 22.7157 9.03564 23.5047C9.03564 24.2937 9.67522 24.9332 10.4642 24.9332H11.4372V26.3931C11.4372 27.1821 12.0768 27.8217 12.8658 27.8217C13.6548 27.8217 14.2944 27.1821 14.2944 26.3931V24.9332H19.2911C20.0801 24.9332 20.7197 24.2937 20.7197 23.5047C20.7197 22.7157 20.0801 22.0761 19.2911 22.0761H14.2944V20.433H19.9866ZM14.2944 10.38H19.9866C21.9706 10.38 23.5846 11.994 23.5846 13.9779C23.5846 15.9618 21.9706 17.5759 19.9866 17.5759H14.2944V10.38Z" fill="#FFEA94"/>
</svg>
