<svg width="32" height="29" viewBox="0 0 32 29" fill="none" xmlns="http://www.w3.org/2000/svg">
<path d="M29.3278 1.8125H2.67222C1.19444 1.8125 0 3.03027 0 4.53125V24.4688C0 25.9697 1.19444 27.1875 2.67222 27.1875H29.3278C30.8056 27.1875 32 25.9697 32 24.4688V4.53125C32 3.03027 30.8056 1.8125 29.3278 1.8125ZM3.00556 4.53125H28.9944C29.1778 4.53125 29.3278 4.68418 29.3278 4.87109V7.25H2.67222V4.87109C2.67222 4.68418 2.82222 4.53125 3.00556 4.53125ZM28.9944 24.4688H3.00556C2.82222 24.4688 2.67222 24.3158 2.67222 24.1289V14.5H29.3278V24.1289C29.3278 24.3158 29.1778 24.4688 28.9944 24.4688ZM10.6667 18.8047V21.0703C10.6667 21.4441 10.3667 21.75 10 21.75H6C5.63333 21.75 5.33333 21.4441 5.33333 21.0703V18.8047C5.33333 18.4309 5.63333 18.125 6 18.125H10C10.3667 18.125 10.6667 18.4309 10.6667 18.8047ZM21.3333 18.8047V21.0703C21.3333 21.4441 21.0333 21.75 20.6667 21.75H13.1111C12.7444 21.75 12.4444 21.4441 12.4444 21.0703V18.8047C12.4444 18.4309 12.7444 18.125 13.1111 18.125H20.6667C21.0333 18.125 21.3333 18.4309 21.3333 18.8047Z" fill="#5B79FF"/>
</svg>
