<svg width="39" height="39" viewBox="0 0 39 39" fill="none" xmlns="http://www.w3.org/2000/svg">
<g clip-path="url(#clip0)">
<path d="M35.867 16.2887C35.867 15.3652 35.4577 14.5359 34.8117 13.9709C35.4577 13.406 35.867 12.5767 35.867 11.6532C35.867 9.95513 34.4855 8.5736 32.7874 8.5736H32.1261C31.7602 8.5736 31.4122 8.6516 31.0973 8.79092V2.91594C31.0973 1.3081 29.7892 0 28.1814 0H15.3547C13.7469 0 12.4388 1.3081 12.4388 2.91594V9.01898C11.6672 8.16227 10.638 7.5609 9.43185 7.32294C8.4458 7.12961 7.50439 7.9138 7.50439 8.91516V18.2597C7.50439 19.4375 7.29484 20.5861 6.88146 21.6737C6.22912 23.3905 5.45514 25.9888 5.40951 28.738L3.28272 31.6054C3.18545 31.7366 3.13281 31.8958 3.13281 32.0591V38.2383C3.13281 38.659 3.47391 39 3.89453 39H15.8513C16.076 39 16.2892 38.9008 16.4339 38.7289L19.0458 35.6272C20.2899 35.4842 24.7291 34.8041 27.1729 32.2007H28.1814C29.7892 32.2007 31.0973 30.8926 31.0973 29.2848V28.422C31.4123 28.5613 31.7602 28.6393 32.1262 28.6393H32.7875C34.4855 28.6393 35.8671 27.2579 35.8671 25.5598C35.8671 24.6362 35.4578 23.8069 34.8118 23.242C35.4578 22.6771 35.8671 21.8478 35.8671 20.9242C35.8671 20.0006 35.4578 19.1713 34.8118 18.6064C35.4577 18.0416 35.867 17.2123 35.867 16.2887V16.2887ZM32.1262 10.0971H32.7875C33.6456 10.0971 34.3436 10.7952 34.3436 11.6532C34.3436 12.5112 33.6456 13.2093 32.7875 13.2093H32.1262C31.5589 13.2093 31.0973 12.7477 31.0973 12.1804V11.126C31.0973 10.5586 31.5589 10.0971 32.1262 10.0971V10.0971ZM23.2022 1.52344V1.69185C23.2022 2.47879 22.562 3.11901 21.775 3.11901C20.9881 3.11901 20.348 2.47879 20.348 1.69185V1.52344H23.2022ZM29.5739 29.2849C29.5739 30.0527 28.9492 30.6774 28.1814 30.6774H15.3547C14.5869 30.6774 13.9622 30.0527 13.9622 29.2849V25.2763C13.9622 24.8556 13.6211 24.5145 13.2005 24.5145C12.7799 24.5145 12.4388 24.8556 12.4388 25.2763V29.2849V29.285C12.4388 30.8929 13.7469 32.2009 15.3547 32.2009H24.7842C22.2311 33.8305 18.6456 34.1376 18.6023 34.1411C18.3991 34.1571 18.2107 34.2538 18.0794 34.4098L15.4969 37.4766H4.65633V32.3109L6.78099 29.4464C6.87826 29.3151 6.93089 29.156 6.93089 28.9926C6.93089 26.3809 7.67845 23.8653 8.30564 22.215C8.78492 20.9539 9.02791 19.6232 9.02791 18.2598V8.91516C9.02791 8.85818 9.07963 8.80646 9.1379 8.81773C11.1123 9.2072 12.4388 10.9726 12.4388 13.2105V18.5735C12.4388 18.9942 12.7799 19.3352 13.2005 19.3352C13.6211 19.3352 13.9622 18.9942 13.9622 18.5735V13.2105V2.91594C13.9622 2.14812 14.5869 1.52344 15.3547 1.52344H18.8244V1.69185C18.8244 3.31881 20.1481 4.64245 21.775 4.64245C23.4019 4.64245 24.7256 3.31881 24.7256 1.69185V1.52344H28.1813C28.9491 1.52344 29.5738 2.14812 29.5738 2.91594V29.2849H29.5739ZM34.3436 25.5599C34.3436 26.418 33.6455 27.116 32.7874 27.116H32.1261C31.5589 27.116 31.0973 26.6544 31.0973 26.0872V25.0328C31.0973 24.4655 31.5589 24.004 32.1261 24.004H32.7874C33.6455 24.0038 34.3436 24.7019 34.3436 25.5599ZM34.3436 20.9243C34.3436 21.7823 33.6455 22.4804 32.7874 22.4804H32.1261C31.5589 22.4804 31.0973 22.0188 31.0973 21.4515V20.3972C31.0973 19.8298 31.5589 19.3683 32.1261 19.3683H32.7874C33.6455 19.3683 34.3436 20.0663 34.3436 20.9243ZM32.1262 17.8449C31.5589 17.8449 31.0973 17.3833 31.0973 16.816V15.7616C31.0973 15.1943 31.5589 14.7328 32.1262 14.7328H32.7875C33.6456 14.7328 34.3436 15.4308 34.3436 16.2889C34.3436 17.1469 33.6456 17.8449 32.7875 17.8449H32.1262V17.8449Z" fill="#5B79FF"/>
<path d="M23.5831 21.827H19.9445C18.4921 21.827 17.3105 23.0086 17.3105 24.4609C17.3105 25.9133 18.4921 27.0949 19.9445 27.0949H23.5831C25.0355 27.0949 26.2171 25.9133 26.2171 24.4609C26.2171 23.0086 25.0356 21.827 23.5831 21.827ZM23.5831 25.5714H19.9445C19.3321 25.5714 18.834 25.0732 18.834 24.4609C18.834 23.8485 19.3321 23.3503 19.9445 23.3503H23.5831C24.1955 23.3503 24.6937 23.8485 24.6937 24.4609C24.6937 25.0732 24.1955 25.5714 23.5831 25.5714Z" fill="#5B79FF"/>
<path d="M27.0183 10.4662C26.9772 10.0788 26.6504 9.78489 26.2608 9.78489H24.2635V9.2219C24.2635 7.84997 23.1474 6.73383 21.7755 6.73383C20.4035 6.73383 19.2874 7.84997 19.2874 9.2219V9.78489H17.2681C16.8785 9.78489 16.5517 10.0788 16.5106 10.4662L15.7489 17.6483C15.7261 17.8631 15.7956 18.0774 15.9401 18.2381C16.0845 18.3986 16.2904 18.4903 16.5064 18.4903H27.0226C27.2387 18.4903 27.4445 18.3986 27.589 18.2381C27.7334 18.0775 27.8029 17.8631 27.7802 17.6483L27.0183 10.4662ZM20.8109 9.2219C20.8109 8.69 21.2436 8.25726 21.7755 8.25726C22.3074 8.25726 22.7401 8.69 22.7401 9.2219V9.78489H20.8109V9.2219ZM17.3531 16.9668L17.9533 11.3083H19.2875V12.0656C19.2875 12.4863 19.6286 12.8273 20.0492 12.8273C20.4699 12.8273 20.811 12.4863 20.811 12.0656V11.3083H22.7402V12.0656C22.7402 12.4863 23.0813 12.8273 23.5019 12.8273C23.9225 12.8273 24.2636 12.4863 24.2636 12.0656V11.3083H25.5757L26.1759 16.9668H17.3531Z" fill="#5B79FF"/>
<path d="M13.9113 21.5886C13.754 21.2048 13.2989 21.0178 12.9164 21.1765C12.5331 21.3357 12.3454 21.7875 12.5044 22.1713C12.6631 22.5544 13.1161 22.7425 13.4992 22.5834C13.8817 22.4246 14.0709 21.9717 13.9113 21.5886Z" fill="#5B79FF"/>
</g>
<defs>
<clipPath id="clip0">
<rect width="39" height="39" fill="white"/>
</clipPath>
</defs>
</svg>
