<svg width="39" height="37" viewBox="0 0 39 37" fill="none" xmlns="http://www.w3.org/2000/svg">
<path d="M39 25.4523C39 23.3975 37.3083 21.7248 35.2314 21.7248C35.1412 21.7248 35.0534 21.7404 34.9657 21.7453C35.3386 20.8727 35.5434 19.9014 35.5434 18.8348C35.5434 16.3462 32.3257 10.6374 30.2257 8.75016C29.0751 8.99481 27.8514 9.12737 26.5826 9.12737C25.2736 9.12737 24.0182 8.98637 22.8359 8.72726C20.7615 10.3843 17.1282 16.2691 17.1282 18.836C17.1282 19.2687 17.1684 19.6808 17.2403 20.0737C16.6138 20.0315 15.9764 20.0074 15.3267 20.0074C13.646 20.0074 12.0274 20.187 10.4965 20.5184C10.4514 19.9677 10.4197 19.6314 10.4197 19.6314H0.437559C0.437559 19.6314 0 23.2469 0 27.7023C0 32.1577 0.437559 35.7708 0.437559 35.7708H10.4185C10.4185 35.7708 10.5063 34.8271 10.6014 33.4882C12.0871 33.2411 13.6082 33.6292 15.3645 34.709C17.5925 36.1456 20.3373 37 23.3088 37C26.3218 37 28.9093 36.1214 31.0606 34.6439L31.063 34.6463C31.0886 34.6283 31.113 34.6102 31.1459 34.5813C31.7553 34.1571 32.3318 33.6883 32.8693 33.1737C33.291 32.747 33.8626 32.2011 34.7195 31.372C37.5971 28.576 37.9518 28.0229 37.9518 28.0229C37.9518 28.0229 37.9457 28.0229 37.9408 28.0229C38.5953 27.3564 39 26.4526 39 25.4523ZM24.1693 15.7533C24.262 15.5315 24.3948 15.3339 24.5581 15.1627C24.7288 14.988 24.9262 14.8446 25.1529 14.7325C25.3821 14.6168 25.6295 14.5421 25.8988 14.5023V13.8552H27.2859V14.6011C27.4906 14.6578 27.6747 14.7373 27.8404 14.8337V14.5421H29.2287V16.5969H27.8319C27.7198 16.4739 27.6089 16.3643 27.504 16.2703C27.3968 16.1763 27.2846 16.0955 27.1676 16.0353C27.047 15.975 26.9202 15.9268 26.7788 15.8943C26.6362 15.8617 26.4717 15.8449 26.2791 15.8449C26.0012 15.8449 25.7904 15.9111 25.6404 16.0401C25.493 16.1715 25.4174 16.3113 25.4174 16.4619C25.4174 16.8861 25.8793 17.1657 26.8069 17.3043C27.3809 17.3887 27.838 17.5284 28.178 17.7189C28.5144 17.9117 28.774 18.1202 28.9544 18.3467C29.1324 18.5709 29.247 18.7939 29.2969 19.0132C29.3469 19.2337 29.3725 19.4085 29.3725 19.5447C29.3725 19.8062 29.3201 20.0508 29.2128 20.2726C29.1068 20.4991 28.963 20.6992 28.7777 20.8655C28.5961 21.0354 28.3731 21.1716 28.122 21.2777C27.8672 21.3813 27.5893 21.4428 27.292 21.4633V22.0803H25.9049V21.2777C25.8294 21.2451 25.7635 21.2138 25.6904 21.1837C25.6197 21.1584 25.5563 21.1246 25.4881 21.0921V21.3934H24.1011V19.3386H25.4881C25.6088 19.4699 25.7221 19.5808 25.8403 19.6772C25.9549 19.7712 26.0719 19.852 26.1975 19.9098C26.3206 19.9737 26.4546 20.0183 26.6021 20.0484C26.752 20.0749 26.9214 20.0894 27.114 20.0894C27.3639 20.0894 27.5711 20.04 27.738 19.9387C27.9038 19.8375 27.9855 19.7074 27.9855 19.5422C27.9855 19.4061 27.9404 19.2868 27.8563 19.1831C27.7722 19.0831 27.6613 18.9987 27.526 18.924C27.3919 18.8529 27.2444 18.7963 27.0823 18.7541C26.919 18.7119 26.7593 18.677 26.5997 18.6504C26.0378 18.5661 25.5905 18.4323 25.2541 18.2576C24.9189 18.0816 24.6593 17.89 24.4765 17.6803C24.2973 17.4706 24.1742 17.2561 24.1194 17.038C24.0621 16.821 24.0353 16.6258 24.0353 16.4571C24.0292 16.2124 24.0767 15.9762 24.1693 15.7533ZM36.7098 26.9117C36.2052 27.4058 34.0723 29.5811 33.4921 30.1427C31.9954 31.5949 31.297 32.2758 30.9704 32.6518L30.9618 32.6458C30.7327 32.8495 30.4926 33.0315 30.2476 33.2098C28.317 34.5005 25.9122 35.2742 23.3076 35.2742C20.6774 35.2742 18.2544 34.4909 16.3164 33.1797H16.3042C14.6259 32.1698 12.6599 31.5479 10.7147 31.7371C10.7927 30.4091 10.8549 28.9544 10.8549 27.7047C10.8549 25.9657 10.733 23.835 10.6221 22.1972C12.1005 21.8682 13.6813 21.6838 15.3231 21.6838C20.341 21.6838 24.7812 23.324 27.5004 25.8946C27.8209 26.2477 28.0233 26.7117 28.0233 27.2226C28.0233 28.3242 27.1164 29.2208 26.0024 29.2208C25.9634 29.2208 25.9232 29.2087 25.8769 29.2063L25.872 29.228C24.8324 29.1931 23.2052 28.7616 20.458 27.7216L19.834 29.3413C22.7384 30.4332 24.652 30.9273 26.0085 30.961V30.949C27.7088 30.9466 29.1434 29.8234 29.6102 28.2964V28.2988C30.1976 27.3335 32.3976 25.3233 33.6469 24.2242V24.2267C33.6615 24.2098 33.6725 24.2013 33.6823 24.1917C33.9126 23.9892 34.1137 23.8157 34.2563 23.694C34.5208 23.5277 34.7938 23.459 35.2302 23.459C36.3417 23.459 37.2485 24.3556 37.2485 25.4571C37.251 26.0054 37.0036 26.5237 36.7098 26.9117Z" fill="#5B79FF"/>
<path d="M23.3124 7.50284C23.3124 7.50284 25.0066 7.90054 26.6666 7.90054C28.3255 7.90054 29.4175 7.66794 29.4175 7.66794C30.3816 7.19914 32.5487 2.25683 31.2775 0.514193C29.8563 -1.42971 27.4808 2.79553 26.3839 2.36168C25.2918 1.92903 22.9614 -0.324589 21.4245 0.593732C20.0886 1.39274 22.2618 6.73034 23.3124 7.50284Z" fill="#5B79FF"/>
</svg>
