<svg width="286" height="112" viewBox="0 0 286 112" fill="none" xmlns="http://www.w3.org/2000/svg">
<path d="M106.442 3.87645C109.047 1.38838 112.51 0 116.112 0H272C279.732 0 286 6.26801 286 14V98C286 105.732 279.732 112 272 112H32.4154C20.1442 112 13.8106 97.3352 22.2235 88.4018L48.5 60.5L77 32L106.442 3.87645Z" fill="#5B79FF"/>
<path d="M217 55.7099V68.5729C216.847 72.4081 211.37 72.4052 211.219 68.5729V62.8626L202.02 72.0621C201.478 72.6042 200.742 72.9088 199.976 72.9088H185.389L166.147 92.1515C165.018 93.2804 163.188 93.2804 162.059 92.1515C160.93 91.0226 160.93 89.1924 162.059 88.0637L182.148 67.9743C182.69 67.4322 183.426 67.1276 184.192 67.1276H198.778L207.305 58.6005H201.102C197.267 58.4479 197.27 52.9707 201.102 52.8194H214.109C215.706 52.8194 217 54.1135 217 55.7099V55.7099ZM214.109 77.2446C212.513 77.2446 211.219 78.5387 211.219 80.1352V90.1076C211.372 93.9428 216.849 93.9399 217 90.1076V80.1352C217 78.5387 215.706 77.2446 214.109 77.2446ZM202.547 77.2446C200.951 77.2446 199.657 78.5387 199.657 80.1352V90.1076C199.809 93.9428 205.287 93.9399 205.438 90.1076V80.1352C205.438 78.5387 204.144 77.2446 202.547 77.2446ZM190.985 77.2446C189.389 77.2446 188.094 78.5387 188.094 80.1352V90.1076C188.247 93.9428 193.724 93.9399 193.876 90.1076V80.1352C193.876 78.5387 192.581 77.2446 190.985 77.2446ZM179.423 86.0608C177.826 86.0608 176.532 87.3549 176.532 88.9514V90.1076C176.685 93.9428 182.162 93.9399 182.313 90.1076V88.9514C182.313 87.3549 181.019 86.0608 179.423 86.0608ZM173.497 67.9948C175.094 67.9948 176.388 66.7007 176.388 65.1043V63.3289C185.449 59.9747 183.261 46.645 173.497 46.4602C169.654 46.3034 169.672 40.8584 173.497 40.6997C174.658 40.6997 175.584 41.3145 176.039 42.3868C176.663 43.8562 178.36 44.5416 179.83 43.9179C181.299 43.2941 181.985 41.5971 181.361 40.1275C180.393 37.8482 178.596 36.1813 176.388 35.4051V33.4525C176.235 29.6173 170.758 29.6202 170.607 33.4525V35.4138C161.558 38.7678 163.716 52.0557 173.497 52.2411C177.319 52.3994 177.343 57.8838 173.497 58.0429C172.373 58.0429 171.258 57.3094 170.786 56.2592C170.132 54.803 168.421 54.1532 166.965 54.8077C165.509 55.4621 164.859 57.173 165.513 58.6291C166.5 60.8241 168.39 62.5103 170.607 63.3111V65.1041C170.607 66.7007 171.901 67.9948 173.497 67.9948V67.9948ZM163.524 77.8914C164.686 77.8914 165.783 77.1851 166.224 76.0348C166.795 74.5442 166.05 72.8725 164.559 72.301C139.392 62.1385 146.151 25.2335 173.353 24.781C185.316 24.781 195.493 33.318 197.553 45.0799C197.828 46.6522 199.326 47.7038 200.899 47.4285C202.471 47.1532 203.523 45.6551 203.248 44.0827C202.031 37.1352 198.383 30.7832 192.977 26.1969C173.491 9.54211 142.915 23.6879 143.002 49.351C142.856 61.6886 150.952 73.413 162.49 77.699C162.83 77.8295 163.18 77.8914 163.524 77.8914Z" fill="white"/>
</svg>
