<svg width="286" height="112" viewBox="0 0 286 112" fill="none" xmlns="http://www.w3.org/2000/svg">
<path d="M106.442 3.87645C109.047 1.38838 112.51 0 116.112 0H272C279.732 0 286 6.26801 286 14V98C286 105.732 279.732 112 272 112H32.4154C20.1442 112 13.8106 97.3352 22.2235 88.4018L48.5 60.5L77 32L106.442 3.87645Z" fill="#5B79FF"/>
<path d="M213.687 87H150.313C146.28 87 143 83.6918 143 79.625V67.3333C143 65.9744 144.09 64.8749 145.438 64.8749C149.47 64.8749 152.75 61.5667 152.75 57.4999C152.75 53.4331 149.47 50.1249 145.438 50.1249C144.09 50.1251 143 49.0256 143 47.6667V35.375C143 31.3082 146.28 28 150.313 28H213.687C217.72 28 221 31.3082 221 35.375V47.6667C221 49.0256 219.91 50.1251 218.562 50.1251C214.53 50.1251 211.25 53.4333 211.25 57.5001C211.25 61.5669 214.53 64.8751 218.562 64.8751C219.91 64.8751 221 65.9746 221 67.3334V79.6251C221 83.6918 217.72 87 213.687 87V87ZM147.875 69.5443V79.625C147.875 80.9813 148.968 82.0833 150.313 82.0833H213.687C215.032 82.0833 216.125 80.9813 216.125 79.625V69.5443C210.569 68.4017 206.375 63.437 206.375 57.4999C206.375 51.5629 210.569 46.5983 216.125 45.4555V35.375C216.125 34.0187 215.032 32.9167 213.687 32.9167H150.313C148.968 32.9167 147.875 34.0187 147.875 35.375V45.4557C153.431 46.5983 157.625 51.563 157.625 57.5001C157.625 63.4371 153.431 68.4017 147.875 69.5443V69.5443Z" fill="white"/>
<path d="M172.407 76.3607L187.027 37.3745L191.592 39.0862L176.972 78.0724L172.407 76.3607Z" fill="white"/>
<path d="M170.5 59C166.364 59 163 55.6357 163 51.5C163 47.3643 166.364 44 170.5 44C174.636 44 178 47.3643 178 51.5C178 55.6357 174.636 59 170.5 59ZM170.5 49C169.121 49 168 50.1206 168 51.5C168 52.8793 169.121 54 170.5 54C171.879 54 173 52.8793 173 51.5C173 50.1206 171.879 49 170.5 49Z" fill="white"/>
<path d="M195.5 74C191.364 74 188 70.6357 188 66.5C188 62.3643 191.364 59 195.5 59C199.636 59 203 62.3643 203 66.5C203 70.6357 199.636 74 195.5 74V74ZM195.5 64C194.121 64 193 65.1206 193 66.5C193 67.8793 194.121 69 195.5 69C196.879 69 198 67.8793 198 66.5C198 65.1206 196.879 64 195.5 64Z" fill="white"/>
</svg>
