<svg width="37" height="37" viewBox="0 0 37 37" fill="none" xmlns="http://www.w3.org/2000/svg">
<g clip-path="url(#clip0)">
<path d="M37 18.3545V24.786C36.9237 26.7036 34.1851 26.7021 34.1095 24.786V21.9308L29.5098 26.5306C29.2388 26.8016 28.8711 26.9539 28.4878 26.9539H21.1947L11.5734 36.5753C11.009 37.1397 10.0939 37.1397 9.52947 36.5753C8.96502 36.0108 8.96502 35.0957 9.52947 34.5314L19.5742 24.4867C19.8451 24.2156 20.2128 24.0633 20.5961 24.0633H27.8891L32.1527 19.7998H29.051C27.1334 19.7235 27.1348 16.9849 29.051 16.9092H35.5548C36.353 16.9092 37 17.5563 37 18.3545ZM35.5548 29.1218C34.7565 29.1218 34.1095 29.7689 34.1095 30.5671V35.5533C34.1858 37.4709 36.9244 37.4695 37 35.5533V30.5671C37 29.7689 36.353 29.1218 35.5548 29.1218ZM29.7736 29.1218C28.9754 29.1218 28.3284 29.7689 28.3284 30.5671V35.5533C28.4047 37.4709 31.1433 37.4695 31.2189 35.5533V30.5671C31.2189 29.7689 30.5719 29.1218 29.7736 29.1218ZM23.9925 29.1218C23.1943 29.1218 22.5472 29.7689 22.5472 30.5671V35.5533C22.6236 37.4709 25.3621 37.4695 25.4378 35.5533V30.5671C25.4378 29.7689 24.7907 29.1218 23.9925 29.1218ZM18.2114 33.5299C17.4132 33.5299 16.7661 34.177 16.7661 34.9752V35.5533C16.8424 37.4709 19.581 37.4695 19.6567 35.5533V34.9752C19.6567 34.177 19.0096 33.5299 18.2114 33.5299ZM15.2486 24.4969C16.0468 24.4969 16.6939 23.8499 16.6939 23.0517V22.164C21.2245 20.4869 20.1304 13.822 15.2485 13.7296C13.3269 13.6512 13.3362 10.9287 15.2486 10.8494C15.8289 10.8494 16.2921 11.1568 16.5197 11.6929C16.8316 12.4276 17.6801 12.7703 18.4149 12.4585C19.1496 12.1466 19.4924 11.2981 19.1805 10.5633C18.6967 9.42361 17.7978 8.59019 16.6939 8.20206V7.22577C16.6176 5.30818 13.879 5.30962 13.8033 7.22577V8.20639C9.27915 9.88342 10.3581 16.5274 15.2487 16.6201C17.1595 16.6992 17.1717 19.4414 15.2486 19.521C14.6865 19.521 14.1291 19.1542 13.8931 18.6291C13.5658 17.901 12.7103 17.5761 11.9823 17.9034C11.2543 18.2306 10.9293 19.086 11.2566 19.8141C11.7499 20.9116 12.6952 21.7547 13.8033 22.1551V23.0516C13.8033 23.8499 14.4504 24.4969 15.2486 24.4969ZM10.2621 29.4452C10.8432 29.4452 11.3914 29.0921 11.6118 28.5169C11.8976 27.7716 11.525 26.9358 10.7797 26.65C-1.80382 21.5688 1.57574 3.11626 15.1765 2.89001C21.1578 2.89001 26.2467 7.15849 27.2766 13.0395C27.4142 13.8256 28.1632 14.3514 28.9495 14.2138C29.7357 14.0761 30.2615 13.3271 30.1238 12.5409C29.5154 9.06713 27.6917 5.89113 24.9885 3.59798C15.2456 -4.72943 -0.0426801 2.34347 0.000967355 15.175C-0.0718747 21.3438 3.97613 27.206 9.74496 29.349C9.91522 29.4143 10.09 29.4452 10.2621 29.4452Z" fill="#5B79FF"/>
</g>
<defs>
<clipPath id="clip0">
<rect width="37" height="37" fill="white"/>
</clipPath>
</defs>
</svg>
