<svg width="32" height="32" viewBox="0 0 32 32" fill="none" xmlns="http://www.w3.org/2000/svg">
<path d="M31.6803 24.2816C31.6803 25.4912 30.8067 26.4672 29.3635 26.4416C28.6403 26.4384 28.6947 26.4544 28.0355 26.4416C26.8771 26.416 26.9539 25.7152 26.5763 24.2816C25.6515 20.752 21.7315 16.1312 20.8387 15.5968C18.4835 14.1888 21.4723 15.1264 21.4723 10.5952C21.4723 9.43365 21.2067 7.97125 20.7331 6.98885C20.3619 6.22085 20.0547 5.50725 21.4723 5.55525C24.2883 5.64485 26.5731 7.81445 26.5731 10.5952C26.5731 12.3424 25.6771 13.8784 24.3107 14.784C24.5763 14.8448 24.8483 14.9088 25.1491 14.9888C28.8995 16.08 31.6803 20.5408 31.6803 24.2816ZM24.2115 26.752C24.2019 27.9072 23.7027 29.0592 21.7411 29.0592C17.3219 29.056 4.93151 29.0752 2.79071 29.0592C0.397112 29.0432 0.320312 27.8624 0.320312 26.752C0.320312 21.4144 3.96191 16.6304 8.85151 15.2544C6.70111 14.1024 5.62271 11.9648 5.62271 9.48805C5.62271 5.87525 8.60191 2.93445 12.2627 2.93445C15.9235 2.93445 18.9027 5.87525 18.9027 9.48805C18.9027 11.9648 17.7219 14.1024 15.5683 15.2544C20.4643 16.6304 24.2659 21.4624 24.2115 26.752Z" fill="#5B79FF"/>
</svg>
