<svg width="32" height="29" viewBox="0 0 32 29" fill="none" xmlns="http://www.w3.org/2000/svg">
<path d="M27.5194 11.5683L25.4043 11.2994C25.23 10.7627 25.0151 10.2453 24.7642 9.75363L26.0704 8.07175C26.5991 7.39112 26.5373 6.43038 25.9331 5.84538L24.1612 4.0735C23.5705 3.46375 22.6097 3.403 21.928 3.93063L20.2483 5.23675C19.7566 4.98588 19.2391 4.771 18.7013 4.59663L18.4324 2.485C18.3312 1.63788 17.6123 1 16.7606 1H14.2405C13.3888 1 12.6699 1.63788 12.5687 2.48163L12.2998 4.59663C11.762 4.771 11.2445 4.98475 10.7529 5.23675L9.07204 3.93063C8.39252 3.403 7.43173 3.46375 6.84558 4.06787L5.07363 5.83863C4.46385 6.43038 4.40197 7.39113 4.93075 8.07288L6.23693 9.75363C5.98492 10.2453 5.77116 10.7627 5.59677 11.2994L3.48506 11.5683C2.6379 11.6695 2 12.3884 2 13.24V15.76C2 16.6116 2.6379 17.3305 3.48169 17.4317L5.59677 17.7006C5.77116 18.2373 5.98604 18.7547 6.23693 19.2464L4.93075 20.9283C4.40197 21.6089 4.46385 22.5696 5.068 23.1546L6.83995 24.9265C7.43173 25.5351 8.39139 25.5959 9.07317 25.0682L10.754 23.7621C11.2456 24.0141 11.7632 24.229 12.2998 24.4023L12.5687 26.5127C12.6699 27.3621 13.3888 28 14.2405 28H16.7606C17.6123 28 18.3312 27.3621 18.4324 26.5184L18.7013 24.4034C19.238 24.229 19.7555 24.0141 20.2471 23.7632L21.9291 25.0694C22.6097 25.5981 23.5705 25.5363 24.1555 24.9321L25.9275 23.1602C26.5373 22.5685 26.5991 21.6089 26.0704 20.9271L24.7642 19.2464C25.0162 18.7547 25.2311 18.2373 25.4043 17.7006L27.5149 17.4317C28.3621 17.3305 29 16.6116 29 15.76V13.24C29.0011 12.3884 28.3632 11.6695 27.5194 11.5683V11.5683ZM15.5006 20.125C12.3988 20.125 9.87533 17.6016 9.87533 14.5C9.87533 11.3984 12.3988 8.875 15.5006 8.875C18.6023 8.875 21.1258 11.3984 21.1258 14.5C21.1258 17.6016 18.6023 20.125 15.5006 20.125Z" fill="#5B79FF"/>
</svg>
