<svg width="32" height="27" viewBox="0 0 32 27" fill="none" xmlns="http://www.w3.org/2000/svg">
<path d="M26.1911 22.2654L24.9854 7.07179C24.9102 6.09293 24.0824 5.32612 23.1007 5.32612H20.719V5.21907C20.719 2.34125 18.3778 0 15.5 0C12.6221 0 10.2809 2.34125 10.2809 5.21907V5.32612H7.89931C6.91756 5.32612 6.08968 6.09288 6.0148 7.06973L4.80866 22.2675C4.71532 23.4843 5.13745 24.6958 5.96676 25.5911C6.79606 26.4864 7.97166 27 9.19209 27H21.8078C23.0282 27 24.2038 26.4865 25.0332 25.5911C25.8625 24.6957 26.2846 23.4843 26.1911 22.2654ZM11.8624 5.21907C11.8624 3.21332 13.4943 1.5815 15.5 1.5815C17.5057 1.5815 19.1375 3.21337 19.1375 5.21907V5.32612H11.8624V5.21907ZM23.8729 24.5165C23.334 25.0981 22.6007 25.4185 21.8078 25.4185H9.19215C8.39923 25.4185 7.66591 25.0981 7.12707 24.5165C6.58828 23.9348 6.32493 23.179 6.38547 22.3905L7.5915 7.19271C7.60374 7.03281 7.73895 6.90762 7.89931 6.90762H10.2809V8.85537C10.2809 9.29206 10.635 9.64612 11.0717 9.64612C11.5083 9.64612 11.8624 9.29206 11.8624 8.85537V6.90762H19.1375V8.85537C19.1375 9.29206 19.4916 9.64612 19.9283 9.64612C20.365 9.64612 20.719 9.29206 20.719 8.85537V6.90762H23.1007C23.261 6.90762 23.3962 7.03287 23.4086 7.19481L24.6144 22.3884C24.6751 23.179 24.4117 23.9347 23.8729 24.5165Z" fill="white"/>
<path d="M26.1911 22.2654L24.9854 7.07179C24.9102 6.09293 24.0824 5.32612 23.1007 5.32612H20.719V5.21907C20.719 2.34125 18.3778 0 15.5 0C12.6221 0 10.2809 2.34125 10.2809 5.21907V5.32612H7.89931C6.91756 5.32612 6.08968 6.09288 6.0148 7.06973L4.80866 22.2675C4.71532 23.4843 5.13745 24.6958 5.96676 25.5911C6.79606 26.4864 7.97166 27 9.19209 27H21.8078C23.0282 27 24.2038 26.4865 25.0332 25.5911C25.8625 24.6957 26.2846 23.4843 26.1911 22.2654ZM11.8624 5.21907C11.8624 3.21332 13.4943 1.5815 15.5 1.5815C17.5057 1.5815 19.1375 3.21337 19.1375 5.21907V5.32612H11.8624V5.21907ZM23.8729 24.5165C23.334 25.0981 22.6007 25.4185 21.8078 25.4185H9.19215C8.39923 25.4185 7.66591 25.0981 7.12707 24.5165C6.58828 23.9348 6.32493 23.179 6.38547 22.3905L7.5915 7.19271C7.60374 7.03281 7.73895 6.90762 7.89931 6.90762H10.2809V8.85537C10.2809 9.29206 10.635 9.64612 11.0717 9.64612C11.5083 9.64612 11.8624 9.29206 11.8624 8.85537V6.90762H19.1375V8.85537C19.1375 9.29206 19.4916 9.64612 19.9283 9.64612C20.365 9.64612 20.719 9.29206 20.719 8.85537V6.90762H23.1007C23.261 6.90762 23.3962 7.03287 23.4086 7.19481L24.6144 22.3884C24.6751 23.179 24.4117 23.9347 23.8729 24.5165Z" fill="white"/>
<path d="M19.0627 13.4096C18.754 13.1008 18.2533 13.1008 17.9445 13.4096L14.4136 16.9405L13.0559 15.5828C12.7472 15.274 12.2465 15.274 11.9377 15.5828C11.6289 15.8916 11.6289 16.3922 11.9377 16.7011L13.8545 18.6179C14.0089 18.7723 14.2113 18.8496 14.4136 18.8496C14.6159 18.8496 14.8183 18.7724 14.9727 18.6179L19.0627 14.5279C19.3715 14.2191 19.3715 13.7184 19.0627 13.4096Z" fill="white"/>
</svg>
