<svg width="32" height="27" viewBox="0 0 32 27" fill="none" xmlns="http://www.w3.org/2000/svg">
<path d="M15.5 21.2783C16.2281 21.2783 16.8184 20.6881 16.8184 19.96C16.8184 19.2319 16.2281 18.6416 15.5 18.6416C14.7719 18.6416 14.1816 19.2319 14.1816 19.96C14.1816 20.6881 14.7719 21.2783 15.5 21.2783Z" fill="#5B79FF"/>
<path d="M15.5 0C8.03893 0 2 6.03793 2 13.5C2 20.9611 8.03793 27 15.5 27C22.9611 27 29 20.9621 29 13.5C29 6.03893 22.9621 0 15.5 0ZM15.5 24.8906C9.20473 24.8906 4.10938 19.7961 4.10938 13.5C4.10938 7.20473 9.20388 2.10938 15.5 2.10938C21.7953 2.10938 26.8906 7.20388 26.8906 13.5C26.8906 19.7953 21.7961 24.8906 15.5 24.8906Z" fill="#5B79FF"/>
<path d="M15.5 6.77637C13.1738 6.77637 11.2812 8.6689 11.2812 10.9951C11.2812 11.5776 11.7534 12.0498 12.3359 12.0498C12.9184 12.0498 13.3906 11.5776 13.3906 10.9951C13.3906 9.83201 14.3369 8.88574 15.5 8.88574C16.6631 8.88574 17.6094 9.83201 17.6094 10.9951C17.6094 12.1582 16.6631 13.1045 15.5 13.1045C14.9175 13.1045 14.4453 13.5767 14.4453 14.1592V16.7959C14.4453 17.3784 14.9175 17.8506 15.5 17.8506C16.0825 17.8506 16.5547 17.3784 16.5547 16.7959V15.0804C18.3722 14.6109 19.7188 12.9573 19.7188 10.9951C19.7188 8.6689 17.8262 6.77637 15.5 6.77637Z" fill="#5B79FF"/>
</svg>
