<svg width="24" height="24" viewBox="0 0 24 24" fill="none" xmlns="http://www.w3.org/2000/svg">
<path d="M12.8966 21.968C12.3655 21.9696 11.856 21.7586 11.4816 21.382L3.64757 13.547C3.23415 13.1348 3.02218 12.5621 3.06757 11.98L3.56757 5.414C3.63886 4.42638 4.42576 3.64162 5.41357 3.573L11.9796 3.073C12.0306 3.062 12.0826 3.062 12.1336 3.062C12.6634 3.06336 13.1713 3.27398 13.5466 3.648L21.3816 11.482C21.7568 11.8571 21.9676 12.3659 21.9676 12.8965C21.9676 13.4271 21.7568 13.9359 21.3816 14.311L14.3106 21.382C13.9364 21.7583 13.4272 21.9693 12.8966 21.968ZM12.1326 5.062L5.56157 5.562L5.06157 12.133L12.8966 19.968L19.9666 12.898L12.1326 5.062ZM8.65357 10.654C7.69941 10.6542 6.87798 9.98036 6.69165 9.04457C6.50531 8.10878 7.00597 7.17168 7.88744 6.80638C8.7689 6.44107 9.78566 6.74931 10.3159 7.54258C10.8461 8.33585 10.7422 9.3932 10.0676 10.068C9.6934 10.4443 9.18424 10.6553 8.65357 10.654Z" fill="#5B79FF"/>
</svg>
