<svg width="362" height="228" viewBox="0 0 362 228" fill="none" xmlns="http://www.w3.org/2000/svg">
<path d="M190.88 196.874L190.699 196.752C190.343 198.133 189.975 199.513 189.581 200.888C189.727 200.866 189.873 200.843 190.019 200.819C190.422 199.391 190.8 197.956 191.162 196.518C191.068 196.636 190.973 196.755 190.88 196.874Z" fill="#FCFDFE"/>
<path d="M243.765 14.1759C251.845 24.9543 242.37 42.4279 254.361 50.5343C266.033 58.4247 280.372 45.4911 291.372 52.2831C307.689 62.3591 304.71 108.464 280.852 137.11C273.677 145.726 267.682 149.077 265.027 158.82C259.326 179.741 279.363 192.186 275.55 202.533C266.964 225.831 134.922 245.38 81.94 175.362C57.1957 142.662 53.4932 95.4408 75.6015 59.5767C115.551 -5.22976 225.633 -10.0082 243.765 14.1759Z" fill="#F4F7FA"/>
<path d="M168.071 122.598C193.124 107.11 230.74 122.813 232.508 117.596C232.644 117.195 233.448 115.318 227.5 112.118C209.042 102.189 194.875 99.076 199.559 76.2224C204.243 53.3688 194.015 36.2176 170.356 32.4319C145.458 28.4503 133.079 -4.6161 110.408 0.545509C70.907 9.53912 93.5734 60.9632 127.896 89.96C148.608 107.458 143.18 131.665 153.362 132.113C158.741 132.349 160.061 127.55 168.071 122.598Z" fill="url(#paint0_linear)"/>
<g opacity="0.4">
<g opacity="0.4">
<path opacity="0.4" d="M189.111 136.625C188.94 136.103 186.58 126.376 186.406 125.855C170.258 77.544 138.292 33.1911 94.8368 1.32788L94.0829 2.12948C137.425 33.9103 169.296 78.1688 185.351 126.37C185.598 126.532 187.628 136.212 187.874 136.376C188.153 136.562 188.834 136.437 189.111 136.625Z" fill="#FCFDFE"/>
<path opacity="0.4" d="M169.966 90.0974L171.137 89.9238C166.208 66.0566 191.047 36.3605 191.298 36.0629L190.342 35.4293C190.087 35.7301 164.945 65.7894 169.966 90.0974Z" fill="#FCFDFE"/>
<path opacity="0.4" d="M142.12 47.7751L142.958 47.0399C120.691 27.3863 78.3809 26.4047 77.9551 26.3975L77.9465 27.4447C78.3663 27.4511 120.201 28.4271 142.12 47.7751Z" fill="#FCFDFE"/>
</g>
</g>
<g opacity="0.5">
<path opacity="0.5" d="M147.987 114.047C151.011 108.641 157.76 95.9298 145.474 92.0818C135.247 88.8785 127.882 88.6569 127.749 76.8793C127.615 65.1017 120.694 57.5465 108.547 57.8777C95.7641 58.2265 86.0641 42.9753 75.3706 47.6529C56.7372 55.8041 71.9162 82.2105 93.6665 90.3881C115.417 98.565 102.37 105.199 101.289 114.8C101.242 115.697 101.245 117.091 101.583 118.735C103.665 128.857 114.862 130.932 122.623 139.406C133.209 150.962 145.544 118.414 147.987 114.047Z" fill="url(#paint1_linear)"/>
<g opacity="0.5">
<path opacity="0.5" d="M140.212 140.614L140.807 140.526C133.88 102.318 105.878 67.4369 67.7287 49.4952L67.441 49.9632C105.43 67.8289 133.313 102.564 140.212 140.614Z" fill="#FCFDFE"/>
<path opacity="0.5" d="M134.404 120.085L135.006 120.102C135.712 104.879 151.069 93.4184 151.224 93.3048L150.84 92.8992C150.684 93.0144 135.122 104.622 134.404 120.085Z" fill="#FCFDFE"/>
<path opacity="0.5" d="M138.719 133.618L139.261 133.381C131.567 119.571 99.7988 116.778 99.4786 116.752L99.4159 117.28C99.7319 117.306 131.171 120.07 138.719 133.618Z" fill="#FCFDFE"/>
<path opacity="0.5" d="M114.557 86.5272L115.12 86.332C110.106 74.9496 119.237 57.8944 119.329 57.7232L118.787 57.4984C118.693 57.6712 109.451 74.9344 114.557 86.5272Z" fill="#FCFDFE"/>
<path opacity="0.5" d="M96.1874 68.1273L96.524 67.6841C83.3611 60.0104 62.2609 63.4744 62.0488 63.5104L62.157 64.0313C62.3665 63.9961 83.2297 60.5728 96.1874 68.1273Z" fill="#FCFDFE"/>
</g>
</g>
<g opacity="0.5">
<path opacity="0.5" d="M158.803 121.435C155.176 112.971 141.172 107.901 133.725 114.866C125.298 122.746 113.281 110.509 109.538 96.0528C105.875 81.9064 76.7701 79.8104 81.6815 111.107C84.6147 129.798 104.184 132.32 113.741 135.783C123.299 139.246 119.851 153.055 133.288 151.665C139.797 150.991 158.21 145.275 161.486 137.602C163.988 131.744 159.844 123.865 158.803 121.435Z" fill="url(#paint2_linear)"/>
<g opacity="0.5">
<path opacity="0.5" d="M155.08 142.639C149.901 141.165 144.496 139.399 139.14 137.293C116.655 128.452 90.4706 111.632 93.4218 81.7121L93.0105 81.6769C91.6968 94.9961 95.947 106.871 105.644 116.971C113.389 125.04 124.608 131.998 138.987 137.651C144.318 139.747 149.698 141.506 154.855 142.976C154.925 142.862 155 142.749 155.08 142.639Z" fill="white"/>
<path opacity="0.5" d="M109.89 121.029L109.957 120.65C96.4004 118.607 79.2757 108.908 79.1039 108.811L78.8884 109.139C79.0602 109.236 96.2553 118.975 109.89 121.029Z" fill="white"/>
<path opacity="0.5" d="M103.628 114.134C99.2159 99.4528 106.84 88.932 106.917 88.8272L106.578 88.6088C106.499 88.7152 98.7651 99.376 103.231 114.238L103.628 114.134Z" fill="white"/>
<path opacity="0.5" d="M155.463 142.758C138.084 133.55 140.922 108.643 140.971 108.403L140.572 108.306C140.5 108.538 137.726 133.803 155.258 143.092L155.463 142.758Z" fill="white"/>
<path opacity="0.5" d="M147.515 140.718L147.548 140.335C134.831 139.396 122.783 149.268 122.663 149.368L122.938 149.655C123.056 149.555 134.976 139.792 147.515 140.718Z" fill="white"/>
</g>
</g>
<path d="M142.39 121.707L142.186 123.897L131.244 130.634L129.567 129.123L135.983 123.063C135.983 123.063 137.257 122.711 135.349 122.115L129.3 121.71L129.758 121.364L137.588 120.792C137.588 120.792 140.308 121.251 142.39 121.707Z" fill="#D8DEE8"/>
<path d="M240.631 130.811V136.572L259.619 153.693H265.461L258.159 139.232C258.159 139.232 254.751 137.335 262.054 137.335L288.344 142.252L287.969 140.72L256.698 131.303C256.698 131.303 246.961 130.811 240.631 130.811Z" fill="#BEFF96"/>
<path d="M274.5 137.619C278.626 138.07 282.029 135.769 282.021 132.484L281.739 14.0943C281.731 10.8095 278.317 8.67829 274.194 9.33269L273.663 9.41669L273.163 10.0207L123.129 34.3287C121.224 34.6311 119.705 35.6479 119.711 37.8383L119.9 116.782C119.905 118.973 121.736 119.934 123.642 120.142L273.007 135.506L273.874 137.551L274.5 137.619Z" fill="#BEFF96"/>
<path d="M272.799 137.527C276.906 137.976 280.293 135.68 280.286 132.403L280.004 14.2866C279.996 11.0098 276.599 8.88179 272.494 9.53459L122.058 33.4362C120.161 33.7378 118.638 35.7594 118.643 37.9458L118.831 116.747C118.837 118.933 120.369 120.879 122.268 121.086L272.799 137.527Z" fill="#D8DEE8"/>
<path opacity="0.3" d="M122.062 35.3033L272.501 12.2593C274.689 11.924 276.481 13.0617 276.486 14.8033L276.704 106.235L276.765 132.062C276.77 133.804 274.983 135.03 272.793 134.804L122.263 119.222C121.243 119.116 120.42 118.078 120.417 116.902L120.374 98.8395L120.228 37.7145C120.225 36.5385 121.044 35.4593 122.062 35.3033Z" fill="#3A8646"/>
<path d="M272.769 124.87C273.62 124.94 274.313 124.448 274.312 123.773L274.053 15.1599C274.051 14.4847 273.356 14.0391 272.506 14.1655L122.066 36.6087C121.668 36.6679 121.346 37.0903 121.347 37.5503L121.524 111.526C121.525 111.986 121.85 112.387 122.247 112.419L272.769 124.87Z" fill="url(#paint3_linear)"/>
<path opacity="0.6" d="M135.047 115.704C145.749 108.48 138.171 87.1495 150.338 76.0774C163.111 64.455 182.076 77.587 191.902 65.1798C199.413 55.695 190.59 45.3838 197.73 36.2654C209.246 21.5597 240.764 37.6702 256.191 21.9933C258.437 19.7117 260.714 16.3525 262.008 11.1997L272.493 9.53412C276.597 8.88212 279.995 11.0093 280.002 14.2861L280.284 132.402C280.292 135.679 276.904 137.975 272.797 137.526L122.266 121.086C120.367 120.879 118.835 118.934 118.83 116.747L118.826 115.346C126.815 118.755 131.798 117.897 135.047 115.704Z" fill="white"/>
<path opacity="0.2" d="M127.832 106.397L265.784 115.787L266.066 22.4169L127.496 43.1265L127.832 106.397Z" fill="white"/>
<path opacity="0.68" d="M128.714 58.9322L148.504 57.0586L148.442 41.7153L128.639 44.5657L128.714 58.9322Z" fill="white"/>
<g opacity="0.68">
<path opacity="0.68" d="M135.845 50.8968C135.853 52.484 136.931 53.6536 138.264 53.5072C139.609 53.36 140.702 51.932 140.695 50.3183C140.688 48.7047 139.582 47.5383 138.238 47.7119C136.904 47.8839 135.838 49.3087 135.845 50.8968Z" fill="url(#paint4_linear)"/>
<path opacity="0.68" d="M137.171 48.968L137.187 52.328L139.973 50.3144L137.171 48.968Z" fill="white"/>
</g>
<path d="M128.728 61.5616L148.515 59.8656L148.511 58.7184L128.722 60.4872L128.728 61.5616Z" fill="white"/>
<path d="M135.903 62.8489L148.524 61.8473L148.519 60.7001L135.898 61.7481L135.903 62.8489Z" fill="white"/>
<path opacity="0.68" d="M128.824 79.9632L148.595 79.5144L148.533 64.2136L128.75 65.6328L128.824 79.9632Z" fill="white"/>
<g opacity="0.68">
<path opacity="0.68" d="M135.949 72.4633C135.957 74.0465 137.034 75.2897 138.366 75.2393C139.709 75.1889 140.801 73.8433 140.794 72.2345C140.787 70.6249 139.683 69.3825 138.339 69.4593C137.006 69.5345 135.942 70.8793 135.949 72.4633Z" fill="url(#paint5_linear)"/>
<path opacity="0.68" d="M137.206 70.7593L137.222 74.1193L140.008 72.1057L137.206 70.7593Z" fill="white"/>
</g>
<path d="M128.838 82.5858L148.606 82.3146L148.602 81.1705L128.833 81.5137L128.838 82.5858Z" fill="white"/>
<path d="M136.007 84.384L148.615 84.2913L148.61 83.1473L136.001 83.2857L136.007 84.384Z" fill="white"/>
<path opacity="0.68" d="M128.934 100.94L148.686 101.911L148.624 86.6505L128.859 86.6465L128.934 100.94Z" fill="white"/>
<g opacity="0.68">
<path opacity="0.68" d="M136.052 93.973C136.06 95.5522 137.136 96.869 138.466 96.9146C139.808 96.9602 140.899 95.6978 140.892 94.093C140.885 92.4882 139.781 91.1698 138.439 91.1498C137.109 91.129 136.044 92.3938 136.052 93.973Z" fill="url(#paint6_linear)"/>
<path opacity="0.68" d="M137.339 92.413L137.355 95.773L140.141 93.7594L137.339 92.413Z" fill="white"/>
</g>
<path d="M128.948 103.556L148.697 104.704L148.692 103.562L128.943 102.488L128.948 103.556Z" fill="white"/>
<path d="M136.11 105.863L148.705 106.674L148.701 105.533L136.105 104.768L136.11 105.863Z" fill="white"/>
<path opacity="0.6" d="M260.07 73.7273C258.895 73.7849 257.753 74.0369 256.687 74.4537C257.171 72.7473 257.468 70.9817 257.546 69.1761C258.09 56.7584 248.259 47.1912 235.586 47.8104C233.231 47.9256 230.943 48.388 228.774 49.1376C225.84 41.304 218.106 36.0536 208.772 36.5096C196.513 37.108 186.147 47.3328 185.622 59.344C185.572 60.4864 185.61 61.6064 185.74 62.6952C183.614 61.9184 181.261 61.5456 178.771 61.6672C168.653 62.1616 160.101 70.5961 159.667 80.5097C159.254 89.9337 166.319 97.2961 175.703 97.5817C176.196 97.5945 176.694 97.5929 177.198 97.5681L261.051 93.2089C265.776 92.1345 269.501 87.9393 269.713 83.1041C269.952 77.6553 265.635 73.4561 260.07 73.7273ZM224.297 72.2793L206.992 83.2673C205.023 84.6937 202.153 83.3857 202.153 81.0609V60.4544C202.153 58.376 204.501 57.0256 206.495 57.956L223.8 67.5745C225.773 68.4953 226.04 71.0185 224.297 72.2793Z" fill="white"/>
<path d="M116.195 216.321C113.177 216.604 110.045 215.276 108.35 212.749L84.4472 177.116C82.2705 173.871 83.3267 169.656 86.8213 167.68C90.3409 165.69 96.5119 166.442 98.7358 169.717L123.156 205.697C125.458 209.089 124.302 213.366 120.591 215.228C119.675 215.687 117.19 216.228 116.195 216.321Z" fill="url(#paint7_linear)"/>
<path opacity="0.3" d="M86.8214 167.68C90.341 165.691 96.512 166.443 98.7359 169.718L121.064 202.616C118.265 202.388 115.097 202.936 111.604 200.914C105.788 197.548 107.341 191.846 102.474 187.731C100.249 185.85 96.4391 184.096 89.387 184.479L84.4481 177.115C82.2706 173.871 83.3267 169.656 86.8214 167.68Z" fill="url(#paint8_linear)"/>
<path d="M75.1765 161.674C75.3233 161.651 75.471 161.639 75.6187 161.635L86.1705 159.896L90.7222 185.506L80.4915 186.95C80.2399 187.052 79.9789 187.126 79.7075 187.168C76.0841 187.727 72.1326 182.473 70.8816 175.433C69.6305 168.393 71.553 162.232 75.1765 161.674Z" fill="url(#paint9_linear)"/>
<path d="M86.1713 159.896C83.683 169.042 85.1925 177.539 90.723 185.506L173.546 196.931L161.584 124.927L86.1713 159.896Z" fill="url(#paint10_linear)"/>
<path opacity="0.3" d="M148.562 179.077C140.616 177.592 136.497 167.844 127.756 168.843C120.897 169.627 119.941 176.105 113.149 176.47C106.196 176.844 103.83 170.158 95.7494 168.92C92.0753 168.356 88.4724 169.121 85.1057 170.596C85.5368 175.761 87.4026 180.724 90.7221 185.506L173.545 196.931L164.556 173.244C157.551 178.653 152.414 179.797 148.562 179.077Z" fill="url(#paint11_linear)"/>
<path d="M151.792 163.07C155.44 183.598 166.962 198.917 177.525 197.288C188.089 195.658 193.696 177.696 190.048 157.168C186.4 136.64 174.878 121.32 164.314 122.95C153.751 124.58 148.144 142.543 151.792 163.07Z" fill="url(#paint12_linear)"/>
<path d="M177.301 196.027C179.544 195.681 181.592 194.464 183.388 192.411C185.216 190.321 186.7 187.477 187.799 183.958C190.108 176.56 190.427 167.12 188.695 157.377C186.963 147.634 183.396 138.793 178.651 132.483C176.394 129.482 174.005 127.235 171.552 125.806C169.141 124.401 166.781 123.865 164.539 124.211C162.296 124.556 160.248 125.773 158.452 127.827C156.624 129.916 155.139 132.76 154.041 136.279C153.076 139.372 152.458 142.823 152.193 146.503C151.824 151.624 156.337 156.215 157.344 161.884C158.416 167.913 155.99 174.571 158.312 179.523C159.742 182.574 161.38 185.347 163.189 187.753C165.446 190.755 167.835 193.001 170.288 194.431C172.699 195.836 175.059 196.373 177.301 196.027Z" fill="url(#paint13_linear)"/>
<path d="M172.581 160.364C174.254 169.781 168.89 178.291 160.718 179.355C152.671 180.404 144.919 173.82 143.293 164.666C141.666 155.511 146.742 147.043 154.743 145.735C162.869 144.406 170.907 150.947 172.581 160.364Z" fill="url(#paint14_linear)"/>
<path opacity="0.3" d="M171.268 160.409C172.51 167.402 170.236 173.457 166.245 173.927C162.316 174.391 158.196 169.25 156.988 162.451C155.78 155.653 157.913 149.618 161.809 148.962C165.765 148.295 170.025 153.416 171.268 160.409Z" fill="url(#paint15_linear)"/>
<path d="M230.917 120.153C230.917 120.153 233.007 118.447 233.988 116.128C231.537 114.255 229.847 111.75 229.337 108.881C228.114 102 234.049 95.1529 242.971 93.5169C252.097 91.8433 260.9 96.1993 262.587 103.373C262.588 103.375 262.588 103.378 262.588 103.38C262.609 103.469 262.629 103.559 262.648 103.649C262.65 103.662 262.653 103.675 262.655 103.688C262.673 103.776 262.691 103.865 262.706 103.954C262.779 104.365 262.827 104.775 262.852 105.182C262.862 105.356 262.868 105.531 262.87 105.704C262.873 106.051 262.86 106.396 262.83 106.739C262.814 106.91 262.795 107.08 262.771 107.25C262.756 107.363 262.738 107.476 262.719 107.588C262.266 110.233 260.824 112.687 258.675 114.684C258.629 114.727 258.583 114.769 258.536 114.811C257.795 115.484 256.972 116.104 256.08 116.659C256.024 116.694 255.968 116.728 255.912 116.763C255.517 117.002 255.11 117.229 254.691 117.443C254.511 117.534 254.328 117.623 254.145 117.71C254.022 117.767 253.898 117.824 253.773 117.879C253.586 117.963 253.397 118.043 253.205 118.121C253.077 118.173 252.949 118.224 252.82 118.274C251.203 118.895 249.446 119.329 247.594 119.537C247.457 119.552 247.32 119.567 247.184 119.579C247.144 119.583 247.105 119.586 247.064 119.59C246.967 119.599 246.869 119.607 246.772 119.614C246.729 119.617 246.686 119.619 246.643 119.623C246.548 119.629 246.454 119.635 246.36 119.64C246.32 119.643 246.279 119.644 246.239 119.646C246.141 119.651 246.043 119.655 245.946 119.659C245.912 119.66 245.877 119.661 245.842 119.662C245.738 119.665 245.633 119.667 245.529 119.67C245.502 119.671 245.476 119.671 245.449 119.671C245.335 119.672 245.22 119.673 245.106 119.672C245.091 119.672 245.076 119.672 245.06 119.672C244.931 119.671 244.803 119.67 244.675 119.667C244.675 119.667 244.674 119.667 244.673 119.667C243.593 119.641 242.538 119.535 241.522 119.352C241.523 119.351 241.523 119.35 241.524 119.348C240.924 119.24 240.337 119.105 239.763 118.946C238.654 120.079 235.684 122.303 230.917 120.153Z" fill="url(#paint16_linear)"/>
<path d="M228.134 109.017C229.357 115.898 237.36 120.687 246.392 119.672C255.877 118.606 262.839 111.607 261.503 104.09C260.167 96.572 251.137 91.9344 241.767 93.6528C232.846 95.2888 226.911 102.137 228.134 109.017Z" fill="url(#paint17_linear)"/>
<path d="M228.134 109.017C229.357 115.898 237.36 120.687 246.392 119.672C255.877 118.606 262.839 111.607 261.503 104.09C260.167 96.572 251.137 91.9344 241.767 93.6528C232.846 95.2888 226.911 102.137 228.134 109.017Z" fill="url(#paint18_linear)"/>
<path d="M239.061 118.503C239.061 118.503 235.899 123.082 229.714 120.29C229.714 120.29 233.69 117.043 233.25 113.423L239.061 118.503Z" fill="url(#paint19_linear)"/>
<path d="M253.124 101.695C252.131 100.008 250.219 98.9825 248.225 99.2673C245.592 99.6433 243.822 102.156 244.305 104.875C243.822 102.156 241.243 100.264 238.51 100.654C236.388 100.958 234.791 102.546 234.381 104.531C232.738 111.723 246.235 115.729 246.235 115.729C246.235 115.729 256.788 107.652 253.124 101.695Z" fill="white"/>
<g opacity="0.3">
<path opacity="0.3" d="M241.784 116.847C243.091 112.785 240.456 109.496 242.696 106.643C245.006 103.702 249.071 105.513 252.702 102.814C254.127 101.755 255.607 99.9105 256.348 96.4569C259.06 98.3489 260.952 100.986 261.504 104.091C262.84 111.608 255.877 118.607 246.393 119.673C244.285 119.91 242.236 119.831 240.321 119.488C241.071 118.579 241.517 117.678 241.784 116.847Z" fill="url(#paint20_linear)"/>
</g>
<path d="M187.696 154.279C187.663 154.282 187.629 154.284 187.597 154.287C187.536 154.291 187.475 154.296 187.415 154.301C187.382 154.303 187.348 154.305 187.315 154.307C187.255 154.311 187.194 154.315 187.134 154.319C187.102 154.32 187.07 154.322 187.038 154.323C186.975 154.327 186.913 154.329 186.85 154.331C186.821 154.332 186.792 154.333 186.763 154.335C186.697 154.337 186.631 154.339 186.566 154.339C186.541 154.34 186.516 154.34 186.491 154.34C186.42 154.341 186.349 154.342 186.279 154.342C186.26 154.342 186.241 154.342 186.223 154.342C186.143 154.342 186.063 154.34 185.984 154.339C185.975 154.339 185.964 154.339 185.955 154.339C185.321 154.326 184.7 154.275 184.099 154.189C184.1 154.188 184.1 154.188 184.101 154.187C179.726 153.556 176.311 151.05 175.715 147.695C174.939 143.332 179.196 139.007 185.38 138.009C191.39 137.039 197.039 139.548 198.333 143.703C198.34 143.726 198.348 143.749 198.354 143.771C198.365 143.806 198.374 143.84 198.384 143.875C198.394 143.907 198.402 143.939 198.411 143.972C198.419 144.002 198.427 144.031 198.433 144.06C198.444 144.101 198.453 144.142 198.462 144.183C198.467 144.206 198.472 144.229 198.477 144.252C198.491 144.318 198.504 144.383 198.516 144.449C198.912 146.675 198.02 148.851 196.268 150.594C196.155 150.707 196.039 150.817 195.918 150.926C195.798 151.035 195.675 151.141 195.548 151.246C195.484 151.299 195.42 151.35 195.354 151.402C195.224 151.504 195.091 151.605 194.954 151.703C194.818 151.802 194.678 151.899 194.534 151.992C194.413 152.071 194.29 152.15 194.164 152.226C193.462 152.653 192.693 153.028 191.869 153.339C191.711 153.399 191.551 153.456 191.389 153.511C190.41 153.842 189.36 154.083 188.259 154.219C188.166 154.231 188.071 154.242 187.978 154.251C187.949 154.255 187.919 154.257 187.89 154.26C187.825 154.266 187.761 154.272 187.696 154.279Z" fill="url(#paint21_linear)"/>
<path d="M175.131 147.784C175.906 152.147 181.365 155.09 187.479 154.338C193.77 153.564 198.344 149.195 197.528 144.599C196.711 140.004 190.848 137.119 184.598 138.127C178.525 139.109 174.355 143.42 175.131 147.784Z" fill="url(#paint22_linear)"/>
<path d="M189.832 147.73C190.264 147.142 190.575 146.384 190.677 145.624C190.741 145.135 190.658 144.613 190.436 144.115C190.088 143.332 189.432 142.864 188.798 142.414C188.325 142.078 187.877 141.76 187.576 141.325L187.522 141.248C187.343 140.992 187.142 140.704 187.122 140.469C187.102 140.232 186.885 140.052 186.634 140.052C186.379 140.053 186.17 140.238 186.153 140.476L185.62 148.524C185.229 148.271 184.738 148.101 184.19 148.07C182.854 147.993 181.713 148.741 181.647 149.737C181.581 150.733 182.615 151.606 183.951 151.683C185.287 151.76 186.428 151.012 186.494 150.016L186.843 144.752C187.554 145.052 188.702 145.781 188.927 147.342C188.86 147.423 188.796 147.509 188.723 147.578C188.533 147.755 188.534 148.041 188.725 148.217C188.914 148.395 189.221 148.392 189.411 148.216C189.55 148.086 189.676 147.932 189.797 147.77C189.81 147.757 189.822 147.744 189.832 147.73Z" fill="white"/>
<g opacity="0.2">
<path opacity="0.2" d="M184.405 152.62C185.322 150.063 183.572 148.02 185.109 146.225C186.684 144.386 189.377 145.503 191.797 143.827C192.741 143.173 193.723 142.039 194.23 139.921C195.981 141.087 197.19 142.702 197.527 144.599C198.344 149.195 193.77 153.564 187.479 154.338C186.063 154.512 184.683 154.488 183.391 154.296C183.907 153.716 184.217 153.146 184.405 152.62Z" fill="url(#paint23_linear)"/>
</g>
<path d="M252.983 197.439C252.907 197.445 252.832 197.451 252.755 197.457C252.618 197.468 252.48 197.48 252.342 197.489C252.266 197.495 252.189 197.499 252.114 197.504C251.977 197.513 251.839 197.522 251.702 197.529C251.629 197.533 251.557 197.536 251.484 197.54C251.342 197.546 251.2 197.552 251.059 197.558C250.993 197.56 250.926 197.562 250.86 197.564C250.711 197.569 250.561 197.572 250.412 197.575C250.355 197.576 250.299 197.577 250.241 197.578C250.079 197.58 249.918 197.581 249.756 197.581C249.713 197.581 249.671 197.581 249.628 197.581C249.447 197.58 249.266 197.579 249.085 197.575C249.062 197.575 249.04 197.574 249.019 197.574C247.576 197.544 246.164 197.429 244.796 197.233C244.797 197.232 244.797 197.231 244.799 197.23C234.843 195.794 227.071 190.09 225.714 182.458C223.95 172.529 233.637 162.686 247.707 160.416C261.385 158.209 274.238 163.919 277.184 173.374C277.201 173.425 277.217 173.477 277.233 173.529C277.256 173.607 277.278 173.685 277.3 173.763C277.321 173.837 277.341 173.911 277.361 173.985C277.378 174.052 277.396 174.119 277.412 174.186C277.435 174.279 277.456 174.371 277.477 174.464C277.489 174.517 277.501 174.57 277.513 174.623C277.545 174.771 277.574 174.92 277.601 175.071C278.501 180.136 276.473 185.088 272.486 189.053C272.228 189.309 271.963 189.56 271.69 189.808C271.417 190.056 271.135 190.299 270.847 190.537C270.703 190.656 270.556 190.775 270.408 190.891C270.112 191.125 269.808 191.355 269.497 191.579C269.186 191.803 268.868 192.022 268.542 192.236C268.267 192.417 267.986 192.594 267.701 192.768C266.103 193.74 264.353 194.593 262.479 195.3C262.119 195.436 261.755 195.566 261.386 195.691C259.157 196.444 256.769 196.995 254.264 197.304C254.05 197.331 253.837 197.355 253.623 197.378C253.557 197.385 253.491 197.391 253.424 197.398C253.277 197.412 253.129 197.426 252.983 197.439Z" fill="url(#paint24_linear)"/>
<path d="M224.388 182.662C226.153 192.591 238.577 199.289 252.488 197.577C266.804 195.817 277.213 185.874 275.354 175.416C273.495 164.959 260.153 158.392 245.933 160.689C232.113 162.921 222.624 172.733 224.388 182.662Z" fill="url(#paint25_linear)"/>
<path d="M241.457 172.016L244.211 187.51C244.522 189.258 246.854 189.908 248.144 188.608L259.688 178.338C260.829 177.188 260.291 175.322 258.686 174.858L244.389 169.633C242.764 169.165 241.179 170.453 241.457 172.016Z" fill="white"/>
<g opacity="0.3">
<path opacity="0.3" d="M245.494 193.667C247.579 187.848 243.6 183.199 247.096 179.114C250.679 174.929 256.809 177.47 262.315 173.657C264.461 172.17 266.696 169.589 267.851 164.769C271.835 167.423 274.586 171.097 275.354 175.417C277.212 185.874 266.804 195.817 252.488 197.577C249.266 197.973 246.127 197.919 243.186 197.482C244.36 196.161 245.065 194.862 245.494 193.667Z" fill="url(#paint26_linear)"/>
</g>
<path d="M198.24 113.932C204.395 111.937 210.926 113.575 213.721 117.601C213.724 117.607 213.728 117.611 213.732 117.617C213.884 117.838 214.025 118.065 214.154 118.3C214.163 118.315 214.171 118.331 214.18 118.347C214.239 118.456 214.297 118.568 214.351 118.681C214.36 118.702 214.371 118.722 214.38 118.743C214.434 118.859 214.487 118.975 214.536 119.095C216.627 124.185 212.635 130.031 205.713 132.125C205.529 132.181 205.345 132.232 205.16 132.282C205.142 132.287 205.124 132.291 205.106 132.296C204.931 132.343 204.756 132.385 204.581 132.426C204.554 132.432 204.527 132.439 204.5 132.445C204.331 132.483 204.161 132.519 203.991 132.551C203.96 132.558 203.928 132.564 203.895 132.57C203.729 132.601 203.562 132.631 203.396 132.657C203.362 132.663 203.328 132.667 203.294 132.672C203.128 132.698 202.963 132.721 202.797 132.741C202.765 132.745 202.733 132.748 202.701 132.752C202.536 132.771 202.372 132.789 202.208 132.803C202.179 132.806 202.15 132.808 202.12 132.811C201.972 132.823 201.824 132.833 201.677 132.842C201.639 132.844 201.602 132.847 201.564 132.848C201.415 132.855 201.265 132.86 201.116 132.864C201.084 132.865 201.051 132.867 201.019 132.867C201.019 132.867 201.02 132.867 201.02 132.866C195.884 132.959 191.31 130.676 189.742 126.859C187.706 121.902 191.472 116.127 198.24 113.932Z" fill="url(#paint27_linear)"/>
<path d="M188.455 127.319C190.492 132.278 197.602 134.647 204.425 132.583C211.348 130.491 215.34 124.644 213.249 119.553C211.158 114.463 203.821 112.164 196.952 114.391C190.184 116.586 186.419 122.361 188.455 127.319Z" fill="url(#paint28_linear)"/>
<path d="M200.31 130.459L199.484 126.98L197.851 127.595L197.157 125.905L199.113 125.176L198.593 123.009L196.878 123.639L196.178 121.933L198.177 121.207L197.374 117.848L199.157 117.214L199.958 120.559L201.767 119.903L200.986 116.564L202.742 115.94L203.522 119.265L205.088 118.696L205.776 120.371L203.937 121.047L204.455 123.187L206.078 122.583L206.759 124.24L204.844 124.962L205.685 128.39L203.913 129.072L203.071 125.63L201.264 126.311L202.108 129.767L200.31 130.459ZM202.703 123.839L202.184 121.69L200.377 122.354L200.896 124.512L202.703 123.839Z" fill="white"/>
<g opacity="0.3">
<path opacity="0.3" d="M200.465 131.185C200.856 128.047 198.321 126.009 199.623 123.648C200.951 121.239 204.307 122.039 206.617 119.683C207.514 118.767 208.329 117.299 208.356 114.792C210.619 115.821 212.385 117.451 213.248 119.554C215.339 124.644 211.347 130.491 204.425 132.584C202.853 133.059 201.267 133.299 199.733 133.327C200.176 132.552 200.384 131.83 200.465 131.185Z" fill="url(#paint29_linear)"/>
</g>
<path d="M201.36 155.007C210.062 153.919 218.209 157.723 220.733 163.738C220.737 163.746 220.74 163.754 220.743 163.762C220.88 164.091 221 164.427 221.103 164.769C221.11 164.791 221.117 164.814 221.124 164.837C221.171 164.997 221.214 165.159 221.253 165.321C221.26 165.351 221.266 165.38 221.273 165.41C221.312 165.576 221.347 165.744 221.377 165.913C222.664 173.158 215.704 179.872 205.961 180.896C205.702 180.923 205.443 180.946 205.186 180.964C205.161 180.966 205.135 180.968 205.11 180.97C204.866 180.987 204.622 180.999 204.38 181.009C204.343 181.011 204.305 181.012 204.267 181.014C204.032 181.022 203.798 181.026 203.565 181.027C203.521 181.027 203.477 181.027 203.432 181.027C203.203 181.027 202.975 181.023 202.748 181.017C202.702 181.015 202.656 181.014 202.61 181.012C202.383 181.004 202.158 180.993 201.934 180.979C201.89 180.975 201.847 180.972 201.804 180.969C201.581 180.953 201.36 180.935 201.139 180.913C201.099 180.909 201.06 180.904 201.02 180.9C200.821 180.879 200.624 180.855 200.427 180.83C200.377 180.823 200.327 180.817 200.277 180.811C200.077 180.783 199.878 180.752 199.681 180.719C199.638 180.712 199.595 180.707 199.552 180.699C199.553 180.699 199.553 180.699 199.553 180.698C192.747 179.531 187.37 175.37 186.405 169.938C185.151 162.881 191.791 156.203 201.36 155.007Z" fill="url(#paint30_linear)"/>
<path d="M184.572 170.22C185.826 177.276 194.526 182.189 204.129 181.179C213.872 180.154 220.832 173.44 219.545 166.196C218.258 158.951 209.238 154.076 199.528 155.29C189.958 156.487 183.318 163.164 184.572 170.22Z" fill="url(#paint31_linear)"/>
<path d="M192.462 166.168L194.03 174.386C194.146 174.988 194.743 175.396 195.393 175.315L210.821 173.066C210.839 173.064 210.857 173.061 210.876 173.058C211.197 173.005 211.483 172.842 211.681 172.596C211.891 172.335 211.973 172.017 211.913 171.7L210.168 162.521C210.123 162.283 209.979 162.079 209.762 161.945C209.544 161.811 209.289 161.767 209.021 161.816L193.434 164.828C192.78 164.953 192.344 165.554 192.462 166.168ZM193.525 165.848C193.603 165.729 193.769 165.69 193.896 165.762L200.302 169.42C200.866 169.742 201.588 169.657 202.059 169.213L208.57 163.072C208.68 162.968 208.859 162.964 208.97 163.063C209.081 163.161 209.081 163.326 208.971 163.43L202.452 169.569C202.154 169.85 201.783 170.027 201.394 170.094C200.929 170.174 200.438 170.098 200.012 169.854L193.612 166.195C193.484 166.124 193.446 165.968 193.525 165.848Z" fill="white"/>
<path opacity="0.3" d="M208.655 171.115C205.538 165.104 200.49 162.064 193.178 162.429C190.904 162.476 189.696 161.209 189.23 159.45C185.719 162.283 183.855 166.188 184.572 170.22C185.826 177.276 194.527 182.189 204.129 181.179C209.867 180.576 214.639 177.998 217.33 174.501C213.722 174.908 210.145 173.743 208.655 171.115Z" fill="url(#paint32_linear)"/>
<path d="M249.777 136.231C249.791 136.282 249.804 136.332 249.818 136.382C249.829 136.424 249.839 136.466 249.85 136.508C249.864 136.569 249.879 136.63 249.893 136.691C249.9 136.725 249.908 136.758 249.915 136.793C249.936 136.89 249.955 136.986 249.972 137.084C250.047 137.509 250.092 137.934 250.107 138.357C250.132 139.098 250.068 139.835 249.919 140.562C249.898 140.666 249.876 140.769 249.851 140.872C249.752 141.286 249.627 141.694 249.475 142.099C249.135 143.009 248.665 143.893 248.079 144.736C247.949 144.923 247.813 145.109 247.672 145.292C247.531 145.475 247.384 145.656 247.232 145.835C246.623 146.55 245.928 147.228 245.157 147.858C245.061 147.938 244.963 148.015 244.865 148.093C244.667 148.247 244.465 148.399 244.259 148.547C243.537 149.066 242.759 149.547 241.934 149.981C241.698 150.105 241.458 150.225 241.215 150.342C240.972 150.458 240.725 150.57 240.474 150.679C240.224 150.788 239.969 150.892 239.712 150.992C238.294 151.542 236.774 151.965 235.176 152.232C235.04 152.255 234.903 152.277 234.767 152.297C234.723 152.303 234.679 152.309 234.635 152.315C234.543 152.329 234.449 152.342 234.356 152.354C234.307 152.361 234.257 152.366 234.207 152.373C234.12 152.384 234.034 152.394 233.948 152.404C233.896 152.41 233.846 152.415 233.795 152.421C233.709 152.43 233.624 152.439 233.538 152.447C233.488 152.452 233.439 152.456 233.39 152.461C233.302 152.469 233.215 152.476 233.129 152.482C233.081 152.486 233.035 152.49 232.988 152.493C232.897 152.499 232.807 152.506 232.716 152.51C232.674 152.513 232.631 152.515 232.589 152.518C232.492 152.522 232.396 152.527 232.3 152.531C232.265 152.533 232.23 152.534 232.194 152.535C232.088 152.539 231.981 152.542 231.875 152.544C231.851 152.545 231.826 152.545 231.802 152.546C231.679 152.548 231.556 152.549 231.434 152.55C231.427 152.55 231.419 152.55 231.412 152.55C230.628 152.55 229.86 152.51 229.11 152.43C229.111 152.429 229.111 152.428 229.112 152.427C222.705 151.738 217.674 148.168 216.783 143.152C215.623 136.63 221.861 129.921 230.894 128.129C239.618 126.398 247.795 129.859 249.7 135.968C249.712 136.008 249.724 136.047 249.736 136.087C249.75 136.136 249.764 136.183 249.777 136.231Z" fill="url(#paint33_linear)"/>
<path d="M215.69 143.322C216.849 149.843 224.847 153.946 233.731 152.455C242.821 150.93 249.364 144.159 248.157 137.363C246.95 130.568 238.488 126.551 229.448 128.353C220.611 130.115 214.531 136.801 215.69 143.322Z" fill="url(#paint34_linear)"/>
<path d="M224.529 143.454C225.514 144.199 226.757 144.719 228.258 145.016C229.759 145.313 231.319 145.336 232.939 145.087C233.424 145.012 233.935 144.903 234.472 144.759L235.139 144.587L235.727 144.931C236.845 145.579 238.05 146.043 239.34 146.323C238.868 145.78 238.477 145.187 238.167 144.543L237.656 143.527L238.594 142.813C239.529 142.106 240.213 141.333 240.647 140.495C241.082 139.656 241.225 138.823 241.078 137.994C240.897 136.98 240.315 136.101 239.33 135.355C238.345 134.611 237.102 134.09 235.601 133.793C234.1 133.496 232.54 133.472 230.92 133.723C229.3 133.972 227.831 134.463 226.513 135.195C225.195 135.927 224.198 136.794 223.523 137.795C222.848 138.795 222.601 139.803 222.781 140.817C222.962 141.829 223.544 142.708 224.529 143.454Z" fill="white"/>
<g opacity="0.3">
<path opacity="0.3" d="M229.258 150.06C230.575 146.176 228.019 143.213 230.242 140.441C232.514 137.607 236.423 139.135 239.906 136.507C241.262 135.485 242.669 133.745 243.384 130.566C245.91 132.216 247.658 134.558 248.157 137.364C249.364 144.159 242.821 150.93 233.731 152.455C231.678 152.8 229.674 152.846 227.792 152.634C228.541 151.732 228.988 150.859 229.258 150.06Z" fill="url(#paint35_linear)"/>
</g>
<defs>
<linearGradient id="paint0_linear" x1="137.728" y1="7.84996" x2="176.753" y2="136.431" gradientUnits="userSpaceOnUse">
<stop stop-color="#A5FF85"/>
<stop offset="1" stop-color="#FB6FBB"/>
</linearGradient>
<linearGradient id="paint1_linear" x1="66.9759" y1="94.3165" x2="152.575" y2="94.3165" gradientUnits="userSpaceOnUse">
<stop offset="0.00359712" stop-color="#8DE3E3"/>
<stop offset="1" stop-color="#9571F6"/>
</linearGradient>
<linearGradient id="paint2_linear" x1="129.043" y1="98.0001" x2="113.382" y2="145.771" gradientUnits="userSpaceOnUse">
<stop stop-color="#96FF44"/>
<stop offset="0.9964" stop-color="#56F3B1"/>
</linearGradient>
<linearGradient id="paint3_linear" x1="84.1981" y1="170.495" x2="222.98" y2="44.0915" gradientUnits="userSpaceOnUse">
<stop offset="0.00359712" stop-color="#A3E38D"/>
<stop offset="1" stop-color="#CAFFA9"/>
</linearGradient>
<linearGradient id="paint4_linear" x1="140.694" y1="50.607" x2="135.845" y2="50.607" gradientUnits="userSpaceOnUse">
<stop stop-color="#75FF44"/>
<stop offset="0.9964" stop-color="#F36F56"/>
</linearGradient>
<linearGradient id="paint5_linear" x1="140.794" y1="72.3481" x2="135.949" y2="72.3481" gradientUnits="userSpaceOnUse">
<stop stop-color="#8BFF44"/>
<stop offset="0.9964" stop-color="#F36F56"/>
</linearGradient>
<linearGradient id="paint6_linear" x1="140.892" y1="94.0323" x2="136.052" y2="94.0323" gradientUnits="userSpaceOnUse">
<stop stop-color="#8BFF44"/>
<stop offset="0.9964" stop-color="#F36F56"/>
</linearGradient>
<linearGradient id="paint7_linear" x1="113.079" y1="177.015" x2="96.3486" y2="207.028" gradientUnits="userSpaceOnUse">
<stop stop-color="#B9DB72"/>
<stop offset="1" stop-color="#DCFFC6"/>
</linearGradient>
<linearGradient id="paint8_linear" x1="109.831" y1="175.205" x2="93.1012" y2="205.218" gradientUnits="userSpaceOnUse">
<stop stop-color="#311944"/>
<stop offset="1" stop-color="#893976"/>
</linearGradient>
<linearGradient id="paint9_linear" x1="70.4995" y1="173.552" x2="90.7223" y2="173.552" gradientUnits="userSpaceOnUse">
<stop stop-color="#4B9937"/>
<stop offset="0.9964" stop-color="#54FF2A"/>
</linearGradient>
<linearGradient id="paint10_linear" x1="115.469" y1="128.763" x2="151.491" y2="237.027" gradientUnits="userSpaceOnUse">
<stop stop-color="#8AF980"/>
<stop offset="0.9964" stop-color="#AAD761"/>
</linearGradient>
<linearGradient id="paint11_linear" x1="108.203" y1="130.086" x2="144.674" y2="239.704" gradientUnits="userSpaceOnUse">
<stop stop-color="#AA80F9"/>
<stop offset="0.9964" stop-color="#6165D7"/>
</linearGradient>
<linearGradient id="paint12_linear" x1="145.522" y1="140.051" x2="193.281" y2="183.523" gradientUnits="userSpaceOnUse">
<stop offset="0.00359712" stop-color="#A1CC87"/>
<stop offset="1" stop-color="#769667"/>
</linearGradient>
<linearGradient id="paint13_linear" x1="146.594" y1="163.282" x2="187.614" y2="157.138" gradientUnits="userSpaceOnUse">
<stop stop-color="#93DC4B"/>
<stop offset="1" stop-color="#C6FFFF"/>
</linearGradient>
<linearGradient id="paint14_linear" x1="144.644" y1="127.829" x2="168.163" y2="198.517" gradientUnits="userSpaceOnUse">
<stop stop-color="#8BFF44"/>
<stop offset="0.9964" stop-color="#1B6C54"/>
</linearGradient>
<linearGradient id="paint15_linear" x1="154.32" y1="135.837" x2="171.674" y2="187.994" gradientUnits="userSpaceOnUse">
<stop stop-color="#A2FF44"/>
<stop offset="0.9964" stop-color="#56F3EA"/>
</linearGradient>
<linearGradient id="paint16_linear" x1="210.515" y1="55.436" x2="273.672" y2="167.342" gradientUnits="userSpaceOnUse">
<stop stop-color="#C172FF"/>
<stop offset="1" stop-color="#893976"/>
</linearGradient>
<linearGradient id="paint17_linear" x1="249.106" y1="94.9435" x2="235.202" y2="138.459" gradientUnits="userSpaceOnUse">
<stop stop-color="#A5FF85"/>
<stop offset="1" stop-color="#A4FB6F"/>
</linearGradient>
<linearGradient id="paint18_linear" x1="258.766" y1="68.6985" x2="244.862" y2="112.214" gradientUnits="userSpaceOnUse">
<stop stop-color="#ACFF85"/>
<stop offset="1" stop-color="#6FFB7D"/>
</linearGradient>
<linearGradient id="paint19_linear" x1="247.561" y1="95.8418" x2="228.535" y2="134.51" gradientUnits="userSpaceOnUse">
<stop stop-color="#96FF85"/>
<stop offset="1" stop-color="#6FFB9F"/>
</linearGradient>
<linearGradient id="paint20_linear" x1="255.661" y1="96.1835" x2="242.463" y2="142.276" gradientUnits="userSpaceOnUse">
<stop stop-color="#41FF11"/>
<stop offset="1" stop-color="#49F365"/>
</linearGradient>
<linearGradient id="paint21_linear" x1="188.102" y1="145.286" x2="192.039" y2="141.659" gradientUnits="userSpaceOnUse">
<stop stop-color="#9FF980"/>
<stop offset="0.9964" stop-color="#31A21F"/>
</linearGradient>
<linearGradient id="paint22_linear" x1="175.038" y1="146.191" x2="197.622" y2="146.191" gradientUnits="userSpaceOnUse">
<stop stop-color="#98F980"/>
<stop offset="0.9964" stop-color="#63D761"/>
</linearGradient>
<linearGradient id="paint23_linear" x1="183.391" y1="147.189" x2="197.622" y2="147.189" gradientUnits="userSpaceOnUse">
<stop stop-color="#98F980"/>
<stop offset="0.9964" stop-color="#6165D7"/>
</linearGradient>
<linearGradient id="paint24_linear" x1="232.206" y1="180.776" x2="270.783" y2="176.177" gradientUnits="userSpaceOnUse">
<stop stop-color="#98F980"/>
<stop offset="0.9964" stop-color="#80D761"/>
</linearGradient>
<linearGradient id="paint25_linear" x1="256.052" y1="162.278" x2="235.977" y2="225.109" gradientUnits="userSpaceOnUse">
<stop stop-color="#8AF980"/>
<stop offset="0.9964" stop-color="#61D766"/>
</linearGradient>
<linearGradient id="paint26_linear" x1="266.173" y1="164.179" x2="247.167" y2="230.554" gradientUnits="userSpaceOnUse">
<stop offset="0.00359712" stop-color="#E38DDD"/>
<stop offset="1" stop-color="#9571F6"/>
</linearGradient>
<linearGradient id="paint27_linear" x1="195.29" y1="137.706" x2="205.004" y2="113.659" gradientUnits="userSpaceOnUse">
<stop stop-color="#8BFF44"/>
<stop offset="0.9964" stop-color="#37C520"/>
</linearGradient>
<linearGradient id="paint28_linear" x1="200.779" y1="123.979" x2="196.781" y2="157.063" gradientUnits="userSpaceOnUse">
<stop stop-color="#8BFF44"/>
<stop offset="0.9964" stop-color="#F36F56"/>
</linearGradient>
<linearGradient id="paint29_linear" x1="-973.372" y1="-169.397" x2="-1012.34" y2="-180.586" gradientUnits="userSpaceOnUse">
<stop stop-color="#5295FE"/>
<stop offset="0.9964" stop-color="#87FF3D"/>
</linearGradient>
<linearGradient id="paint30_linear" x1="175.406" y1="199.059" x2="219.524" y2="143.523" gradientUnits="userSpaceOnUse">
<stop stop-color="#8BFF44"/>
<stop offset="1" stop-color="#6DB840"/>
</linearGradient>
<linearGradient id="paint31_linear" x1="206.286" y1="156.733" x2="192.541" y2="199.752" gradientUnits="userSpaceOnUse">
<stop offset="0.00359712" stop-color="#8BFF44"/>
<stop offset="1" stop-color="#E6FFD7"/>
</linearGradient>
<linearGradient id="paint32_linear" x1="190.313" y1="160.626" x2="218.5" y2="199.719" gradientUnits="userSpaceOnUse">
<stop offset="0.00359712" stop-color="#9EE38D"/>
<stop offset="1" stop-color="#F6F171"/>
</linearGradient>
<linearGradient id="paint33_linear" x1="219.854" y1="129.742" x2="232.447" y2="140.864" gradientUnits="userSpaceOnUse">
<stop stop-color="#44FF4B"/>
<stop offset="0.9964" stop-color="#56F36F"/>
</linearGradient>
<linearGradient id="paint34_linear" x1="236.041" y1="129.175" x2="222.664" y2="171.04" gradientUnits="userSpaceOnUse">
<stop stop-color="#44FFC7"/>
<stop offset="0.9964" stop-color="#C1F356"/>
</linearGradient>
<linearGradient id="paint35_linear" x1="242.507" y1="130.241" x2="229.829" y2="174.517" gradientUnits="userSpaceOnUse">
<stop stop-color="#44FFBC"/>
<stop offset="0.9964" stop-color="#56D7F3"/>
</linearGradient>
</defs>
</svg>
