<svg width="362" height="231" viewBox="0 0 362 231" fill="none" xmlns="http://www.w3.org/2000/svg">
<path d="M216.466 178.287L218.443 178.608C218.607 178.633 218.786 178.621 218.921 178.571L220.592 177.977C220.935 177.853 221.427 177.971 221.42 178.181L221.39 179.178C221.39 179.258 221.472 179.339 221.606 179.382L223.307 179.958C223.658 180.075 223.576 180.335 223.158 180.397L221.166 180.694C221.002 180.719 220.875 180.781 220.823 180.855L220.204 181.808C220.077 182.006 219.532 182.043 219.286 181.876L218.085 181.059C217.988 180.991 217.824 180.954 217.652 180.954L215.571 180.966C215.138 180.966 214.892 180.731 215.145 180.57L216.391 179.772C216.496 179.704 216.518 179.623 216.466 179.543L215.794 178.596C215.668 178.404 216.056 178.219 216.466 178.287Z" fill="#D4D0DD"/>
<path d="M224.926 174.233L226.904 174.555C227.068 174.58 227.247 174.567 227.381 174.518L229.052 173.924C229.395 173.8 229.888 173.918 229.88 174.128L229.851 175.124C229.851 175.205 229.933 175.285 230.067 175.329L231.768 175.904C232.119 176.022 232.037 176.282 231.619 176.344L229.627 176.641C229.463 176.665 229.336 176.727 229.284 176.802L228.664 177.755C228.537 177.953 227.993 177.99 227.747 177.823L226.545 177.006C226.448 176.938 226.284 176.901 226.113 176.901L224.031 176.913C223.598 176.913 223.352 176.678 223.606 176.517L224.852 175.719C224.956 175.65 224.979 175.57 224.926 175.49L224.255 174.543C224.136 174.351 224.524 174.165 224.926 174.233Z" fill="#D4D0DD"/>
<path d="M233.394 170.18L235.371 170.501C235.536 170.526 235.715 170.514 235.849 170.464L237.52 169.87C237.863 169.746 238.356 169.864 238.348 170.074L238.319 171.071C238.319 171.151 238.401 171.232 238.535 171.275L240.236 171.85C240.587 171.968 240.505 172.228 240.087 172.29L238.095 172.587C237.931 172.612 237.804 172.674 237.751 172.748L237.132 173.701C237.005 173.899 236.461 173.936 236.215 173.769L235.013 172.952C234.916 172.884 234.752 172.847 234.581 172.847L232.499 172.859C232.066 172.859 231.82 172.624 232.074 172.463L233.32 171.665C233.424 171.597 233.454 171.516 233.394 171.436L232.723 170.489C232.596 170.297 232.984 170.112 233.394 170.18Z" fill="#D4D0DD"/>
<path d="M241.855 166.126L243.832 166.448C243.996 166.473 244.175 166.46 244.31 166.411L245.981 165.817C246.324 165.693 246.816 165.811 246.809 166.021L246.779 167.017C246.779 167.098 246.861 167.178 246.995 167.222L248.697 167.797C249.047 167.915 248.965 168.175 248.547 168.237L246.555 168.534C246.391 168.558 246.264 168.62 246.212 168.694L245.593 169.648C245.466 169.846 244.921 169.883 244.675 169.716L243.474 168.899C243.377 168.831 243.213 168.794 243.041 168.794L240.96 168.806C240.527 168.806 240.281 168.571 240.534 168.41L241.78 167.611C241.885 167.543 241.907 167.463 241.855 167.383L241.183 166.436C241.064 166.244 241.452 166.058 241.855 166.126Z" fill="#D4D0DD"/>
<path d="M250.323 162.073L252.3 162.395C252.464 162.419 252.643 162.407 252.778 162.357L254.449 161.763C254.792 161.64 255.284 161.757 255.277 161.968L255.247 162.964C255.247 163.044 255.329 163.125 255.463 163.168L257.164 163.744C257.515 163.861 257.433 164.121 257.015 164.183L255.023 164.48C254.859 164.505 254.732 164.567 254.68 164.641L254.061 165.594C253.934 165.792 253.389 165.829 253.143 165.662L251.942 164.845C251.845 164.777 251.681 164.74 251.509 164.74L249.428 164.752C248.995 164.752 248.749 164.517 249.002 164.356L250.248 163.558C250.353 163.49 250.375 163.409 250.323 163.329L249.652 162.382C249.525 162.19 249.913 162.005 250.323 162.073Z" fill="#D4D0DD"/>
<path d="M125.944 227.262L127.921 227.584C128.085 227.609 128.264 227.597 128.399 227.547L130.07 226.953C130.413 226.829 130.906 226.947 130.898 227.157L130.868 228.154C130.868 228.234 130.95 228.315 131.085 228.358L132.786 228.933C133.136 229.051 133.054 229.311 132.637 229.373L130.644 229.67C130.48 229.695 130.354 229.756 130.301 229.831L129.682 230.784C129.555 230.982 129.011 231.019 128.764 230.852L127.563 230.035C127.466 229.967 127.302 229.93 127.13 229.93L125.049 229.942C124.616 229.942 124.37 229.707 124.624 229.546L125.87 228.748C125.974 228.68 125.996 228.599 125.944 228.519L125.273 227.572C125.146 227.386 125.541 227.201 125.944 227.262Z" fill="#D4D0DD"/>
<path d="M134.412 223.209L136.389 223.531C136.553 223.555 136.732 223.543 136.867 223.494L138.538 222.899C138.881 222.776 139.374 222.893 139.366 223.104L139.336 224.1C139.336 224.18 139.418 224.261 139.553 224.304L141.254 224.88C141.604 224.997 141.522 225.257 141.105 225.319L139.112 225.616C138.948 225.641 138.822 225.703 138.769 225.777L138.15 226.73C138.023 226.928 137.479 226.965 137.232 226.798L136.031 225.981C135.934 225.913 135.77 225.876 135.598 225.876L133.517 225.888C133.084 225.888 132.838 225.653 133.092 225.492L134.338 224.694C134.442 224.626 134.464 224.546 134.412 224.465L133.741 223.518C133.614 223.333 134.002 223.147 134.412 223.209Z" fill="#D4D0DD"/>
<path d="M142.873 219.156L144.85 219.477C145.014 219.502 145.193 219.49 145.327 219.44L146.998 218.846C147.342 218.722 147.834 218.84 147.827 219.05L147.797 220.047C147.797 220.127 147.879 220.208 148.013 220.251L149.714 220.826C150.065 220.944 149.983 221.204 149.565 221.266L147.573 221.563C147.409 221.588 147.282 221.649 147.23 221.724L146.611 222.677C146.484 222.875 145.939 222.912 145.693 222.745L144.492 221.928C144.395 221.86 144.231 221.823 144.059 221.823L141.977 221.835C141.545 221.835 141.298 221.6 141.552 221.439L142.798 220.641C142.903 220.573 142.932 220.492 142.873 220.412L142.201 219.465C142.082 219.279 142.47 219.094 142.873 219.156Z" fill="#D4D0DD"/>
<path d="M151.341 215.102L153.318 215.424C153.482 215.449 153.661 215.436 153.795 215.387L155.466 214.793C155.81 214.669 156.302 214.786 156.295 214.997L156.265 215.993C156.265 216.074 156.347 216.154 156.481 216.197L158.182 216.773C158.533 216.891 158.451 217.15 158.033 217.212L156.041 217.509C155.877 217.534 155.75 217.596 155.698 217.67L155.079 218.623C154.952 218.821 154.407 218.859 154.161 218.691L152.96 217.875C152.863 217.806 152.699 217.769 152.527 217.769L150.445 217.782C150.013 217.782 149.766 217.547 150.02 217.386L151.266 216.587C151.371 216.519 151.393 216.439 151.341 216.358L150.669 215.411C150.542 215.226 150.93 215.04 151.341 215.102Z" fill="#D4D0DD"/>
<path d="M159.801 211.049L161.778 211.37C161.942 211.395 162.121 211.383 162.256 211.333L163.927 210.739C164.27 210.615 164.763 210.733 164.755 210.943L164.725 211.94C164.725 212.02 164.807 212.101 164.942 212.144L166.643 212.719C166.993 212.837 166.911 213.097 166.494 213.159L164.501 213.456C164.337 213.481 164.211 213.543 164.158 213.617L163.539 214.57C163.412 214.768 162.868 214.805 162.621 214.638L161.42 213.821C161.323 213.753 161.159 213.716 160.987 213.716L158.906 213.728C158.473 213.728 158.227 213.493 158.481 213.332L159.727 212.534C159.831 212.466 159.853 212.385 159.801 212.305L159.13 211.358C159.01 211.172 159.398 210.987 159.801 211.049Z" fill="#D4D0DD"/>
<path d="M267.457 190.317C270.775 192.073 270.775 194.919 267.457 196.683C264.138 198.439 258.753 198.439 255.435 196.683C252.116 194.927 252.116 192.081 255.435 190.317C258.753 188.561 264.138 188.561 267.457 190.317Z" fill="#EAE8ED"/>
<path d="M144.925 148.068C145.141 149.888 145.559 151.255 146.566 152.92C147.379 154.269 148.834 155.959 150.214 156.955C151.759 158.075 153.631 158.836 155.444 159.653C158.175 160.878 160.704 162.19 163.338 163.496C164.009 163.83 207.259 184.549 207.983 184.791C211.564 186.041 214.228 184.246 214.228 180.861C214.511 81.8948 214.355 100.479 214.459 94.5812C214.489 90.274 214.623 85.9359 214.556 81.6287C214.459 73.1381 214.743 71.7333 214.422 69.4374C213.81 65.8666 211.296 62.6548 208.572 60.8725C207.453 60.1361 206.17 59.5667 204.887 58.9912C202.85 58.0382 200.873 57.0542 198.903 56.1012C192.114 52.8027 185.355 49.7394 176.349 45.358C159.913 37.2449 161.1 38.3402 156.825 36.0567C153.87 34.4724 149.923 31.9104 147.029 33.6556C144.969 34.8747 145.156 37.4429 145.223 39.3304C145.268 40.5186 144.843 146.589 144.925 148.068ZM186.944 53.9909C186.944 54.0466 186.944 54.1271 186.914 54.1828C186.884 54.2632 186.884 54.3189 186.817 54.3437C186.787 54.3994 186.75 54.4241 186.683 54.4551C186.25 54.6345 187.003 54.8821 173.693 48.5079C173.596 48.4522 173.529 48.3965 173.462 48.347C173.298 48.2604 173.119 48.0623 173.067 47.9386C172.731 47.5178 172.806 47.2578 172.806 46.41C172.806 46.1872 172.85 46.0078 173.067 45.9211C173.156 45.8469 173.335 45.8592 173.462 45.8964C173.529 45.8964 173.626 45.9211 173.693 45.9768C175.633 46.9422 186.033 51.8249 186.287 52.0292C186.504 52.2086 186.653 52.2767 186.809 52.6851C186.996 52.9141 186.944 53.3659 186.944 53.9909Z" fill="url(#paint0_linear)"/>
<path d="M173.857 46.0511C187.056 52.3634 186.511 51.924 186.809 52.679C186.877 52.7595 186.906 52.8399 186.906 52.9265C186.936 53.007 186.936 53.0875 186.936 53.1741V53.8301C173.484 47.3755 174.708 47.9943 174.41 47.7468C174.104 47.4931 173.85 47.0846 173.85 46.6824V46.0511H173.857Z" fill="#3F4F5D"/>
<path d="M173.462 45.8902C173.529 45.8902 173.626 45.915 173.693 45.9707L173.858 46.0511C173.858 46.8123 173.843 46.7999 173.925 47.0599C174.096 47.493 174.44 47.821 174.783 47.9881L186.944 53.8239V53.9848C186.944 54.0405 186.944 54.1209 186.914 54.1766C186.884 54.2571 186.884 54.3128 186.817 54.3375C186.787 54.3932 186.75 54.418 186.683 54.4489C186.518 54.517 186.578 54.5046 186.287 54.5046C186.22 54.4798 186.123 54.4489 186.056 54.4242C173.425 48.378 173.268 48.4213 173.067 47.9324C172.724 47.4992 172.806 47.1774 172.806 46.4039C172.806 46.2677 172.813 46.1687 172.903 46.0202C173.082 45.8779 173.216 45.8222 173.462 45.8902Z" fill="#5D6571"/>
<path d="M220.249 72.1418C220.241 73.7323 220.241 75.298 220.234 76.8451C220.226 76.8513 220.234 76.8575 220.234 76.8575C220.152 109.786 220.084 132.288 220.047 147.691C219.943 185.088 219.928 180.508 219.823 181.294C219.585 182.582 218.652 184.079 217.294 184.735C217.294 184.735 213.541 186.474 214.086 186.016C214.108 186.004 214.123 185.985 214.138 185.973C214.228 185.905 214.317 185.83 214.399 185.75C214.564 185.595 214.72 185.422 214.854 185.243C214.922 185.156 214.981 185.075 215.034 184.989C215.131 184.834 215.228 184.679 215.302 184.512C215.384 184.351 215.459 184.184 215.518 184.017C215.556 183.918 215.586 183.825 215.615 183.726C215.63 183.683 215.638 183.64 215.653 183.596C215.847 182.959 215.929 182.303 215.944 181.697V181.573C215.944 181.573 215.944 181.573 215.944 181.567L215.959 177.136L216.033 144.733L216.205 71.4116C216.205 66.7826 212.422 61.0088 207.23 58.49L152.52 32.288C150.058 31.0874 147.849 31.0503 146.253 31.7187C146.715 31.4897 150.513 29.6579 151.736 29.5403C153.676 29.3547 154.937 29.7879 156.541 30.4995L211.243 56.7016C213.803 57.8898 216.317 60.9902 218.033 64.3753V64.3815C219.383 67.0487 220.249 69.9078 220.249 72.1418Z" fill="#5271DD"/>
<path d="M207.222 58.4901L152.52 32.2818C150.028 31.0689 147.804 31.0503 146.208 31.7373C146.208 31.762 146.178 31.762 146.178 31.762C144.283 32.4613 143.515 34.7882 143.515 36.589L143.261 140.407L143.253 140.401V146.862C143.253 151.447 146.902 157.153 152.199 159.789L206.939 185.998C211.572 188.25 215.832 186.734 215.944 181.69L216.205 71.4116C216.197 66.8136 212.445 61.0212 207.222 58.4901ZM214.459 94.5937C214.362 100.2 214.511 82.3591 214.228 180.874C214.228 184.246 211.564 186.053 207.983 184.803C207.282 184.562 163.987 163.824 163.338 163.509C160.704 162.197 158.175 160.891 155.444 159.666C153.639 158.849 151.759 158.081 150.214 156.967C148.842 155.977 147.379 154.282 146.566 152.933C145.559 151.262 145.134 149.9 144.925 148.081C144.843 146.713 144.94 147.295 144.954 142.443C144.954 78.1014 145.208 56.2622 145.186 51.5775C145.051 41.5398 145.328 42.103 145.216 39.3615C145.163 37.8329 145.029 36.162 145.909 34.782C146.529 33.8661 147.372 33.3896 148.207 33.2287C150.804 32.5108 154.534 34.8686 156.817 36.094C159.219 37.375 161.816 38.4641 164.345 39.609C170.351 42.301 174.469 44.6031 188.346 51.1196C203.029 58.0631 201.231 57.3143 204.879 59.0285C207.438 60.1733 209.125 60.9779 210.997 62.9582C212.236 64.3011 212.959 65.4397 213.564 66.696C214.661 69.1962 214.638 70.9537 214.571 73.5281C214.504 76.4181 214.519 78.8007 214.556 81.666C214.623 85.9484 214.489 90.2865 214.459 94.5937Z" fill="#73CDE1"/>
<path d="M245.794 148.372L266.155 162.667C269.303 164.876 268.52 169.072 264.715 170.39C255.217 173.683 240.803 178.596 239.542 178.59C235.64 178.547 232.335 179.382 229.09 180.973C223.084 183.912 222.323 184.073 216.332 187.025C213.87 188.244 211.497 188.027 208.901 186.74C211.169 187.31 212.907 186.938 214.079 186.01C214.101 185.998 214.116 185.979 214.131 185.967C214.22 185.899 214.302 185.824 214.392 185.744C214.556 185.589 214.705 185.416 214.847 185.236C214.907 185.156 214.974 185.069 215.026 184.983C215.123 184.828 215.22 184.673 215.295 184.506C215.369 184.358 215.444 184.203 215.504 184.036C215.504 184.024 215.511 184.017 215.511 184.005C215.548 183.918 215.578 183.819 215.608 183.714C215.623 183.671 215.63 183.627 215.645 183.584C215.795 183.015 215.884 182.309 215.936 181.567C215.936 181.567 215.936 181.567 215.936 181.56C216.093 179.469 215.951 177.13 215.951 177.13L216.026 144.727L216.197 71.4054C216.197 71.4054 216.377 74.017 218.025 64.3691C219.383 67.0488 220.241 69.9016 220.241 72.1357C220.234 73.7261 220.234 75.2918 220.226 76.8389C220.219 76.8451 220.226 76.8513 220.226 76.8513C220.211 76.8946 220.211 76.907 220.211 76.907L220.04 147.679C220.04 147.679 232.499 147.889 238.789 147.802C241.228 147.771 245.794 148.372 245.794 148.372Z" fill="#7C71BF"/>
<path d="M254.446 161C256.931 161 258.946 159.881 258.946 158.5C258.946 157.119 256.931 156 254.446 156C251.961 156 249.946 157.119 249.946 158.5C249.946 159.881 251.961 161 254.446 161Z" fill="#EAE8ED"/>
<path d="M234.782 44.6217C234.782 51.3176 234.894 46.7258 234.23 63.8926L229.731 66.0462C230.373 49.4735 230.291 53.2918 230.291 46.7753C230.291 42.5424 226.687 37.5173 222.42 35.4751C213.631 31.2731 220.689 34.6459 188.854 19.3974C188.018 19.0014 187.115 18.6734 186.138 18.562C185.168 18.4506 184.124 18.5434 183.295 18.9395C188.175 16.6002 188.04 16.6497 188.525 16.5198C190.107 16.099 191.898 16.5569 193.345 17.25L226.919 33.3277C231.231 35.3885 234.782 40.4445 234.782 44.6217Z" fill="#4FFF40"/>
<path d="M222.867 46.7938L223.412 48.6689C223.434 48.7494 223.434 48.8546 223.345 48.8917C222.785 49.1578 222.218 49.4301 221.659 49.6962C221.711 49.6591 221.741 49.5848 221.711 49.4796L221.107 47.4065C221.077 47.3075 221.092 47.1961 221.204 47.1713C222.949 46.7938 222.793 46.8371 222.867 46.7938Z" fill="#059DF2"/>
<path d="M224.524 46.0017C223.971 46.2678 223.419 46.5277 222.867 46.7938V46.7876C222.964 46.6824 222.845 46.3977 222.643 46.3049L220.681 45.3642C220.562 45.3085 220.465 45.191 220.435 45.0734L219.831 43.0002C219.786 42.8331 219.555 42.6104 219.398 42.6908C219.465 42.6599 221.032 41.9049 221.099 41.8801C221.256 41.7997 221.487 42.0225 221.532 42.1895L222.136 44.2627C222.173 44.3803 222.263 44.4979 222.382 44.5535L224.345 45.4942C224.568 45.5932 224.688 45.9274 224.524 46.0017Z" fill="#059DF2"/>
<path d="M218.025 42.5362C218.13 42.4867 218.137 42.5177 219.219 43.0313L218.727 44.2443C218.697 44.3185 218.6 44.3557 218.48 44.3C216.376 43.2912 216.444 43.2974 216.339 43.3408C216.899 43.0746 217.458 42.8085 218.025 42.5362Z" fill="#059DF2"/>
<path d="M218.473 44.2999C218.6 44.3618 218.689 44.3246 218.719 44.2442C219.294 42.8332 219.174 43.1179 219.323 42.7466C219.413 42.5362 219.756 42.7466 219.823 42.9817L220.428 45.0549C220.465 45.1725 220.555 45.29 220.674 45.3457L222.636 46.2864C222.845 46.3854 222.957 46.6639 222.86 46.7691C222.86 46.7753 222.852 46.7815 222.845 46.7815C222.845 46.7815 222.845 46.7877 222.838 46.7877C222.763 46.8186 223.039 46.7567 221.204 47.1528C221.092 47.1775 221.077 47.2951 221.107 47.3879L221.711 49.4611C221.793 49.7334 221.509 49.7891 221.308 49.5477L219.719 47.685C219.652 47.5983 219.517 47.5117 219.413 47.5365L217.831 47.883C217.622 47.9263 217.354 47.6045 217.428 47.4127L218.033 45.9151C218.078 45.8161 218.018 45.6799 217.943 45.5871L216.354 43.7244C216.212 43.5635 216.22 43.3778 216.324 43.3283C216.526 43.3469 216.063 43.155 218.473 44.2999Z" fill="#46F3FE"/>
<path d="M214.631 42.8518L215.175 44.7269C215.198 44.8074 215.198 44.9126 215.108 44.9497C214.549 45.2158 213.989 45.4881 213.429 45.7542C213.482 45.7233 213.512 45.649 213.482 45.5376L212.877 43.4645C212.848 43.3716 212.862 43.2602 212.967 43.2293C214.675 42.858 214.571 42.8889 214.631 42.8518Z" fill="#059DF2"/>
<path d="M211.587 39.0459C211.542 38.8912 211.333 38.6622 211.154 38.7365C213.086 37.8144 212.825 37.932 212.855 37.9258C213.012 37.8453 213.235 38.0681 213.288 38.2352L213.892 40.3083C213.922 40.4259 214.019 40.5435 214.138 40.5992L216.093 41.5337C216.324 41.6451 216.451 41.9792 216.279 42.0535C215.727 42.3134 215.175 42.5795 214.631 42.8456V42.8332C214.728 42.728 214.608 42.4434 214.407 42.3505L212.445 41.4099C212.325 41.3542 212.228 41.2304 212.198 41.119L211.587 39.0459Z" fill="#059DF2"/>
<path d="M210.975 39.0893L210.482 40.3022C210.453 40.3827 210.356 40.4198 210.236 40.3579C208.125 39.343 208.214 39.3678 208.11 39.3925C208.669 39.1264 209.229 38.8541 209.789 38.588C209.886 38.5385 209.915 38.5818 210.975 39.0893Z" fill="#059DF2"/>
<path d="M211.094 38.8107C211.117 38.7488 211.176 38.7179 211.266 38.7302C211.408 38.7488 211.557 38.9283 211.594 39.052L212.198 41.1252C212.236 41.2428 212.325 41.3603 212.445 41.416L214.407 42.3567C214.601 42.4495 214.757 42.7404 214.608 42.8641C214.549 42.8951 214.586 42.8765 212.974 43.2293C212.862 43.2602 212.855 43.3716 212.885 43.4644L213.489 45.5376C213.564 45.7975 213.295 45.8717 213.086 45.6242C211.706 44.0028 211.497 43.7553 211.445 43.6996C211.385 43.6501 211.273 43.5944 211.199 43.6129L209.609 43.9595C209.408 44.0028 209.132 43.681 209.207 43.4892L209.811 41.9916C209.848 41.8925 209.796 41.7564 209.714 41.6698L208.132 39.807C208.028 39.6833 207.961 39.4667 208.117 39.3986C208.222 39.3676 208.095 39.3367 210.244 40.364C210.37 40.4259 210.46 40.3887 210.49 40.3083C211.057 38.8973 210.937 39.182 211.094 38.8107Z" fill="#46F3FE"/>
<path d="M206.401 38.9034L206.946 40.7786C206.968 40.859 206.968 40.9642 206.879 41.0075C206.319 41.2736 205.76 41.5459 205.193 41.812C205.245 41.7749 205.275 41.7006 205.245 41.5954L204.633 39.5223C204.611 39.4233 204.618 39.3119 204.73 39.2871L206.319 38.9406C206.357 38.9344 206.372 38.9096 206.401 38.9034Z" fill="#059DF2"/>
<path d="M202.917 34.7944C202.955 34.7759 204.581 33.9961 204.618 33.9838C204.782 33.9033 205.006 34.1261 205.051 34.2932L205.655 36.3663C205.685 36.4839 205.782 36.6015 205.902 36.6572L207.856 37.5978C208.088 37.7092 208.207 38.0434 208.043 38.1115C207.491 38.3776 206.946 38.6375 206.394 38.8974V38.8912C206.491 38.786 206.372 38.5014 206.163 38.4085L204.208 37.4679C204.089 37.4122 203.992 37.2884 203.962 37.177L203.357 35.1039C203.298 34.9306 203.066 34.714 202.917 34.7944Z" fill="#059DF2"/>
<path d="M199.858 35.4566C200.418 35.1905 200.985 34.9182 201.552 34.6459C201.656 34.5964 201.664 34.6273 202.746 35.1409L202.253 36.3539C202.223 36.4282 202.126 36.4715 202.007 36.4096C199.896 35.4071 199.963 35.4132 199.858 35.4566Z" fill="#059DF2"/>
<path d="M199.888 35.8589C199.746 35.698 199.754 35.5124 199.858 35.4629C200.067 35.4629 199.605 35.271 202.007 36.4159C202.134 36.4778 202.223 36.4407 202.253 36.3602C202.902 34.7636 202.858 34.8193 202.925 34.8007C203.081 34.7141 203.305 34.9431 203.357 35.104L203.962 37.1771C203.992 37.2885 204.089 37.4123 204.208 37.468L206.163 38.4086C206.372 38.5076 206.491 38.7861 206.394 38.8913C206.394 38.8975 206.386 38.9037 206.379 38.9037L206.372 38.9099C206.364 38.9161 206.357 38.9161 206.349 38.9223C206.342 38.9284 206.334 38.9346 206.319 38.9346L204.73 39.2812C204.618 39.3059 204.611 39.4235 204.633 39.5164L205.245 41.5895C205.32 41.868 205.036 41.9175 204.842 41.6761C203.462 40.0486 203.253 39.8072 203.201 39.7515C203.141 39.6958 203.029 39.6463 202.955 39.6649L201.365 40.0114C201.164 40.0547 200.888 39.7329 200.962 39.5411L201.567 38.0435C201.604 37.9445 201.544 37.8083 201.47 37.7155L199.888 35.8589Z" fill="#46F3FE"/>
<path d="M198.157 34.9614L198.702 36.8365C198.724 36.917 198.724 37.016 198.635 37.0593C198.075 37.3254 197.516 37.5977 196.949 37.8638C197.001 37.8329 197.031 37.7586 197.001 37.6472L196.397 35.5741C196.367 35.4813 196.382 35.3637 196.493 35.3389C198.105 34.9862 198.083 35.0047 198.157 34.9614Z" fill="#059DF2"/>
<path d="M196.382 30.0354C196.553 29.955 196.77 30.184 196.814 30.3449L197.419 32.418C197.456 32.548 197.56 32.6594 197.665 32.7089L199.62 33.6433C199.851 33.7547 199.97 34.0889 199.806 34.157C199.254 34.4169 198.702 34.683 198.15 34.9491V34.9367C198.254 34.8253 198.135 34.5468 197.926 34.454L195.971 33.5134C195.852 33.4577 195.755 33.3339 195.725 33.2225L195.121 31.1494C195.068 30.9885 194.852 30.7595 194.688 30.8461C196.613 29.9302 196.359 30.0478 196.382 30.0354Z" fill="#059DF2"/>
<path d="M191.801 31.533C193.882 32.5293 193.837 32.5417 193.942 32.486C194.017 32.455 193.972 32.5046 194.613 30.9203C194.636 30.8584 194.71 30.8275 194.785 30.8398C194.927 30.8584 195.076 31.0379 195.113 31.1617L195.718 33.2348C195.747 33.3524 195.844 33.47 195.964 33.5257L197.919 34.4663C198.112 34.5591 198.277 34.85 198.12 34.9738C198.06 35.0047 198.12 34.98 196.486 35.3389C196.374 35.3636 196.367 35.4812 196.389 35.574L196.993 37.6472C197.068 37.9133 196.799 37.9752 196.59 37.7338L195.009 35.8711C194.949 35.7906 194.807 35.6978 194.695 35.7226L193.114 36.0691C192.912 36.1124 192.636 35.7906 192.711 35.5988L193.315 34.1012C193.353 34.0022 193.293 33.866 193.218 33.7732L191.637 31.9105C191.457 31.6815 191.54 31.4092 191.801 31.533Z" fill="#46F3FE"/>
<path d="M191.801 31.533C191.734 31.5021 191.681 31.4959 191.637 31.5083C192.196 31.2421 192.756 30.9699 193.315 30.7037C193.42 30.6542 193.42 30.679 194.509 31.1988C194.002 32.4489 194.031 32.4489 193.949 32.486C193.845 32.5417 193.897 32.5355 191.801 31.533Z" fill="#059DF2"/>
<path d="M189.921 31.0193L190.465 32.8944C190.488 32.9748 190.488 33.0801 190.398 33.1234C189.838 33.3895 189.271 33.6618 188.712 33.9279C188.764 33.8907 188.794 33.8165 188.764 33.7113L188.16 31.6381C188.137 31.5391 188.145 31.4277 188.257 31.403C190.003 31.0193 189.846 31.0564 189.921 31.0193Z" fill="#059DF2"/>
<path d="M189.921 31.0071C190.018 30.9019 189.898 30.6172 189.697 30.5244L187.742 29.59C187.638 29.5343 187.533 29.4229 187.496 29.2991L186.891 27.2259C186.847 27.0712 186.63 26.8423 186.459 26.9165C187.018 26.6504 187.585 26.3781 188.145 26.112C188.145 26.112 188.152 26.112 188.152 26.1058C188.316 26.0254 188.54 26.2482 188.585 26.4153L189.189 28.4884C189.227 28.6184 189.331 28.7297 189.443 28.7793L191.398 29.7199C191.629 29.8313 191.748 30.1655 191.584 30.2336C191.032 30.4997 190.48 30.7596 189.928 31.0257L189.921 31.0071Z" fill="#059DF2"/>
<path d="M219.212 43.0313L218.204 42.5486C218.145 42.5176 218.07 42.5053 218.018 42.53C217.458 42.8023 216.891 43.0684 216.324 43.3407C216.324 43.3407 216.324 43.3407 216.317 43.3407C216.212 43.3964 216.212 43.5759 216.347 43.7368L217.936 45.5995C218.01 45.6861 218.07 45.8285 218.025 45.9275L217.421 47.4251C217.346 47.6169 217.622 47.9449 217.824 47.8954L219.406 47.5489C219.517 47.5241 219.644 47.6108 219.711 47.6974L221.301 49.5601C221.42 49.6963 221.554 49.7334 221.636 49.6963C221.674 49.6839 222.091 49.4735 223.337 48.8856C223.419 48.8423 223.427 48.7371 223.405 48.6628L222.86 46.7877C223.412 46.5278 223.964 46.2617 224.516 45.9956C224.68 45.9213 224.561 45.5871 224.33 45.4819L222.367 44.5413C222.248 44.4856 222.151 44.3618 222.121 44.2504L221.517 42.1773C221.472 42.0102 221.241 41.7874 221.084 41.8678C221.077 41.8678 221.077 41.874 221.069 41.874C220.51 42.1401 219.943 42.4124 219.383 42.6785C219.323 42.7157 219.323 42.7652 219.212 43.0313ZM211.154 38.7365C211.087 38.7674 211.087 38.8107 210.975 39.083C209.938 38.5879 209.886 38.5384 209.781 38.5879C209.222 38.8541 208.662 39.1202 208.102 39.3924C207.938 39.4605 208.005 39.6771 208.117 39.8009L209.699 41.6636C209.774 41.7503 209.833 41.8864 209.796 41.9854L209.192 43.483C209.117 43.6749 209.393 43.9967 209.595 43.9534L211.184 43.6068C211.288 43.5821 211.423 43.6687 211.49 43.7553L213.071 45.6181C213.191 45.7542 213.332 45.7975 213.415 45.7542C213.422 45.7542 213.422 45.748 213.429 45.748C213.989 45.4819 214.549 45.2096 215.108 44.9435C215.198 44.9002 215.198 44.8012 215.175 44.7207L214.631 42.8456C215.183 42.5795 215.735 42.3196 216.279 42.0535C216.451 41.9792 216.332 41.6451 216.093 41.5337L214.138 40.5992C214.019 40.5435 213.922 40.4197 213.892 40.3083L213.288 38.2352C213.235 38.0743 213.012 37.8453 212.855 37.9258C212.825 37.9382 213.086 37.8206 211.154 38.7365ZM202.917 34.7944C202.887 34.8068 202.865 34.8315 202.85 34.8625L202.738 35.141L201.731 34.6583C201.671 34.6273 201.597 34.6149 201.544 34.6397C200.985 34.912 200.418 35.1781 199.851 35.4504C199.851 35.4504 199.851 35.4504 199.843 35.4504C199.739 35.5061 199.731 35.6855 199.873 35.8464L201.455 37.7092C201.53 37.7958 201.589 37.932 201.552 38.0372L200.948 39.5348C200.873 39.7266 201.149 40.0546 201.35 40.0051L202.94 39.6586C203.022 39.64 203.134 39.6957 203.186 39.7452C203.238 39.7947 203.447 40.0422 204.827 41.6698C204.947 41.806 205.081 41.8431 205.163 41.806C205.185 41.7936 204.932 41.9112 206.864 40.9953C206.954 40.952 206.954 40.8467 206.931 40.7663C206.275 38.4951 206.386 38.9469 206.386 38.8912C206.939 38.6313 207.491 38.3652 208.035 38.1052C208.199 38.031 208.08 37.6968 207.849 37.5916L205.894 36.6509C205.775 36.5953 205.678 36.4715 205.648 36.3601L205.044 34.2869C204.991 34.126 204.775 33.8971 204.611 33.9775C204.581 33.9961 202.955 34.782 202.917 34.7944ZM194.681 30.8523C194.621 30.8771 194.628 30.9018 194.501 31.1989C193.449 30.6976 193.42 30.6543 193.308 30.7038C192.748 30.9699 192.189 31.236 191.629 31.5083C191.465 31.5764 191.532 31.793 191.644 31.9168L193.226 33.7795C193.3 33.8661 193.36 34.0023 193.323 34.1075L192.718 35.6051C192.644 35.7969 192.92 36.1187 193.121 36.0754L194.703 35.7289C194.785 35.7103 194.897 35.766 194.949 35.8155C195.001 35.8588 195.389 36.3168 196.598 37.7401C196.717 37.8763 196.852 37.9196 196.934 37.8763C196.971 37.8577 198.306 37.2203 198.635 37.0656C198.717 37.0223 198.724 36.9232 198.702 36.8428L198.157 34.9677C198.709 34.7016 199.261 34.4417 199.814 34.1756C199.978 34.1013 199.858 33.7671 199.627 33.6619L197.672 32.7275C197.568 32.6718 197.456 32.5604 197.426 32.4366L196.822 30.3635C196.777 30.2087 196.561 29.9798 196.389 30.054C196.359 30.0478 196.613 29.9303 194.681 30.8523ZM186.265 27.2568L185.265 26.7741C185.198 26.7432 185.131 26.7308 185.079 26.7556C184.511 27.0217 183.952 27.294 183.392 27.5601C183.392 27.5601 183.385 27.5601 183.385 27.5663C183.28 27.6158 183.273 27.8014 183.415 27.9623L184.996 29.8251C185.071 29.9117 185.131 30.054 185.093 30.153L184.489 31.6445C184.414 31.8363 184.683 32.1643 184.892 32.1148L186.474 31.7682C186.556 31.7497 186.668 31.8054 186.72 31.8549C186.772 31.8982 187.153 32.3561 188.369 33.7795C188.488 33.9156 188.622 33.9528 188.704 33.9156C188.727 33.9033 188.473 34.027 190.406 33.105C190.488 33.0616 190.495 32.9564 190.473 32.876L189.928 31.0009C190.48 30.7409 191.032 30.4748 191.584 30.2087C191.748 30.1345 191.629 29.8003 191.398 29.6951L189.443 28.7544C189.339 28.7049 189.227 28.5935 189.189 28.4636L188.585 26.3904C188.54 26.2234 188.309 26.0006 188.152 26.081C188.152 26.081 188.145 26.081 188.145 26.0872C187.585 26.3533 187.018 26.6256 186.459 26.8917C186.377 26.935 186.369 27.0031 186.265 27.2568ZM230.291 46.7753C230.291 53.3165 230.403 48.8175 229.731 66.0463L224.725 58.8552C223.106 56.5284 221.032 54.8822 219.167 53.9849L188.854 39.4667C184.452 37.3564 180.99 32.2695 180.99 28.1727V23.1662C180.99 18.989 184.541 17.3429 188.854 19.4036L222.42 35.4813C226.695 37.5235 230.291 42.5424 230.291 46.7753Z" fill="#79CF45"/>
<path d="M186.265 27.2569L185.772 28.4698C185.743 28.5441 185.653 28.5812 185.526 28.5255C183.534 27.5725 183.504 27.523 183.392 27.5663C183.952 27.3002 184.519 27.0279 185.079 26.7618C185.183 26.7123 185.198 26.7433 186.265 27.2569Z" fill="#059DF2"/>
<path d="M185.526 28.5256C185.653 28.5875 185.743 28.5504 185.772 28.4699C186.347 27.0589 186.227 27.3436 186.377 26.9723C186.407 26.9042 186.481 26.8795 186.548 26.8919C186.69 26.9104 186.839 27.0899 186.877 27.2137L187.481 29.2868C187.518 29.4168 187.623 29.5282 187.727 29.5777L189.682 30.5121C189.891 30.6111 190.003 30.8896 189.906 30.9948C189.891 31.0072 189.891 31.0134 189.868 31.0258C189.861 31.032 189.846 31.0381 189.838 31.0381L188.257 31.3847C188.145 31.4095 188.137 31.527 188.16 31.6199L188.764 33.693C188.846 33.9653 188.563 34.021 188.361 33.7797C187.153 32.3563 186.765 31.8983 186.712 31.855C186.653 31.7993 186.548 31.7498 186.466 31.7684L184.885 32.1149C184.676 32.1583 184.407 31.8365 184.482 31.6446L185.086 30.1532C185.123 30.0542 185.064 29.918 184.989 29.8252L183.407 27.9625C183.266 27.8016 183.273 27.6159 183.377 27.5664C183.377 27.5664 183.385 27.5664 183.385 27.5602C183.497 27.5293 183.43 27.5231 185.526 28.5256Z" fill="#46F3FE"/>
<path d="M146.924 0.398803C148.536 -0.374758 150.595 0.0831891 152.229 0.869127L158.69 3.96337C162.457 5.76422 165.606 10.189 165.606 13.8959V18.2959C165.606 19.7502 165.084 21.2911 163.584 22.009C163.576 22.0152 163.562 22.0214 163.554 22.0214C162.002 22.764 160.45 23.5066 158.899 24.2492C159.63 23.8965 160.174 23.2838 160.503 22.6155C160.823 21.9471 160.928 21.2354 160.928 20.5361V16.1361C160.928 12.553 157.906 8.06634 154.012 6.2036L147.558 3.10936C145.462 2.10683 143.574 2.00162 142.246 2.63903C143.805 1.89642 145.365 1.14761 146.924 0.398803Z" fill="#4096E6"/>
<path d="M160.92 16.1423V20.5423C160.92 21.2478 160.823 21.9595 160.495 22.6216C160.174 23.2838 159.63 23.9027 158.891 24.2554C158.16 24.6081 157.242 24.6886 156.392 24.5896C155.534 24.4906 154.743 24.2059 154.004 23.8531L149.864 21.8666C148.864 21.3901 147.924 21.1055 146.775 21.0931C146.402 21.0869 146.051 21.124 145.708 21.2107L140.247 22.5412V11.1172V10.6345V6.23452C140.247 4.47699 141.008 3.23929 142.246 2.6452C143.574 2.00778 145.454 2.11299 147.558 3.11552L154.012 6.20977C157.899 8.0725 160.92 12.553 160.92 16.1423Z" fill="#40FAFA"/>
<path d="M155.825 16.6559L156.31 18.302C156.332 18.3701 156.324 18.4629 156.25 18.5001C155.757 18.7352 155.265 18.9704 154.773 19.2055C154.817 19.1746 154.847 19.1127 154.817 19.0137L154.288 17.1881C154.265 17.1076 154.273 17.0024 154.37 16.9839L155.765 16.6806C155.78 16.6744 155.795 16.6683 155.81 16.6621C155.81 16.6621 155.817 16.6559 155.825 16.6559Z" fill="#059DF2"/>
<path d="M154.25 12.3302C154.258 12.3302 154.258 12.324 154.265 12.324C154.295 12.3116 154.325 12.3116 154.362 12.3116C154.489 12.3302 154.616 12.4849 154.653 12.5901L155.183 14.4157C155.213 14.5271 155.31 14.6261 155.399 14.6756L157.123 15.4987C157.324 15.5977 157.429 15.8886 157.287 15.9505C156.802 16.1795 156.317 16.4146 155.832 16.6436V16.6374C155.922 16.5384 155.817 16.297 155.631 16.2104L153.907 15.3873C153.803 15.3378 153.713 15.2326 153.691 15.1274L153.161 13.3018C153.131 13.1966 152.997 13.0419 152.87 13.0233C152.833 13.0171 152.803 13.0233 152.781 13.0357C153.266 12.8067 153.758 12.5654 154.25 12.3302Z" fill="#059DF2"/>
<path d="M150.237 13.6359L151.96 14.459C152.027 14.4899 152.079 14.4899 152.124 14.4714C152.132 14.4714 152.139 14.4652 152.139 14.4652C152.154 14.4528 152.169 14.4342 152.176 14.4095L152.609 13.3389L152.706 13.0913C152.714 13.0604 152.736 13.0418 152.766 13.0295C152.788 13.0171 152.825 13.0109 152.855 13.0171C152.982 13.0356 153.109 13.1904 153.146 13.2956L153.676 15.1212C153.706 15.2202 153.788 15.3254 153.892 15.3811L155.616 16.2041C155.802 16.2908 155.907 16.5321 155.817 16.6311C155.81 16.6373 155.802 16.6435 155.795 16.6497C155.78 16.6559 155.772 16.6621 155.75 16.6683L154.355 16.9715C154.258 16.9901 154.25 17.0953 154.273 17.1757L154.803 19.0013C154.832 19.0942 154.81 19.1622 154.758 19.1932C154.75 19.1932 154.75 19.1994 154.743 19.1994C154.668 19.2365 154.549 19.1994 154.444 19.0818L153.049 17.4418C153.034 17.4233 153.019 17.4047 152.997 17.3861C152.945 17.3428 152.855 17.2933 152.781 17.3119L151.385 17.6151C151.206 17.6522 150.96 17.3676 151.035 17.2005L151.565 15.8885C151.602 15.8019 151.55 15.6781 151.482 15.6039L150.087 13.9639C149.968 13.8216 149.968 13.6607 150.057 13.6174C150.065 13.6174 150.072 13.6112 150.072 13.6112C150.132 13.605 150.177 13.6112 150.237 13.6359Z" fill="#8BFF44"/>
<path d="M150.237 13.6359C150.177 13.6111 150.132 13.605 150.095 13.6173C150.587 13.3822 151.08 13.147 151.572 12.9118C151.609 12.8933 151.662 12.8933 151.736 12.9242L152.617 13.345L152.184 14.4156C152.176 14.4342 152.161 14.4528 152.146 14.4713C152.139 14.4713 152.132 14.4775 152.132 14.4775C152.094 14.4961 152.035 14.4961 151.967 14.4652L150.237 13.6359Z" fill="#059DF2"/>
<path d="M148.521 13.2153C148.528 13.2153 148.543 13.2091 148.55 13.2029C148.558 13.2029 148.565 13.1967 148.565 13.1967C148.573 13.1905 148.58 13.1905 148.588 13.1843L149.073 14.8305C149.095 14.8985 149.088 14.9914 149.013 15.0285C148.521 15.2637 148.028 15.4988 147.536 15.734C147.58 15.703 147.61 15.635 147.58 15.5421L147.051 13.7165C147.028 13.6299 147.036 13.5309 147.133 13.5123L148.521 13.2153Z" fill="#059DF2"/>
<path d="M148.58 13.178C148.67 13.0852 148.565 12.8376 148.379 12.751L146.655 11.9279C146.558 11.8784 146.469 11.7794 146.439 11.668L145.909 9.8424C145.879 9.7372 145.745 9.58249 145.618 9.56392C145.581 9.55773 145.551 9.56392 145.521 9.5763C146.014 9.34113 146.506 9.09978 147.006 8.86462C147.006 8.86462 147.014 8.86462 147.014 8.85843C147.036 8.84606 147.073 8.83987 147.111 8.84606C147.237 8.86462 147.364 9.01934 147.401 9.12454L147.931 10.9501C147.961 11.0615 148.058 11.1605 148.155 11.2101L149.878 12.0331C150.08 12.1321 150.184 12.423 150.043 12.4849C149.558 12.72 149.073 12.949 148.588 13.178H148.58Z" fill="#059DF2"/>
<path d="M144.493 9.45237L145.373 9.87319L144.94 10.9438C144.91 11.0119 144.836 11.0428 144.724 10.9933L143 10.1702C142.933 10.1393 142.889 10.1393 142.844 10.1517C143.336 9.91651 143.829 9.68134 144.328 9.43999C144.373 9.42143 144.433 9.42762 144.493 9.45237Z" fill="#059DF2"/>
<path d="M143 10.1703L144.723 10.9934C144.835 11.0491 144.917 11.012 144.939 10.9439L145.372 9.8733L145.469 9.62576C145.484 9.59482 145.499 9.57626 145.529 9.56388C145.559 9.5515 145.589 9.54531 145.626 9.5515C145.753 9.57007 145.879 9.72478 145.917 9.82998L146.447 11.6556C146.476 11.767 146.573 11.866 146.663 11.9155L148.386 12.7386C148.565 12.8252 148.67 13.0728 148.588 13.1656C148.58 13.1718 148.58 13.178 148.573 13.1841C148.565 13.1841 148.558 13.1903 148.558 13.1903C148.55 13.1965 148.543 13.1965 148.528 13.2027L147.133 13.5059C147.036 13.5245 147.028 13.6297 147.051 13.7102L147.581 15.5358C147.61 15.6286 147.588 15.6967 147.536 15.7276C147.528 15.7276 147.528 15.7338 147.521 15.7338C147.446 15.7647 147.327 15.7338 147.222 15.6162L145.827 13.9763C145.812 13.9577 145.797 13.9391 145.775 13.9206C145.723 13.8711 145.633 13.8277 145.559 13.8401L144.163 14.1434C143.984 14.1805 143.738 13.8958 143.813 13.7287L144.343 12.4168C144.38 12.3301 144.328 12.2064 144.26 12.1321L142.865 10.4922C142.738 10.3498 142.746 10.1889 142.835 10.1456C142.835 10.1456 142.843 10.1456 142.843 10.1394C142.88 10.1332 142.932 10.1394 143 10.1703Z" fill="#8BFF44"/>
<path d="M169.336 103.462C168.859 103.462 168.374 103.227 167.993 102.812L163.211 97.5334C163.039 97.3477 162.882 97.292 162.838 97.2858L158.093 97.9789C158.033 97.9851 157.966 97.9913 157.899 97.9913C157.406 97.9913 156.884 97.719 156.504 97.2673C156.138 96.8217 156.019 96.3328 156.19 95.9491L158.018 91.9885C158.018 91.9699 158.011 91.7966 157.809 91.5739L154.959 88.4301C153.094 86.3693 152.87 86.128 152.81 86.0228C152.527 85.5772 152.497 85.1193 152.728 84.7789C152.907 84.519 153.236 84.3705 153.601 84.3705C153.825 84.3705 154.056 84.4261 154.28 84.5314L160.144 87.3409L161.883 83.5536C162.032 83.2256 162.398 83.0214 162.838 83.0214C163.181 83.0214 163.547 83.1513 163.86 83.3865C164.188 83.6278 164.442 83.9682 164.561 84.3209C165.143 86.1404 165.539 87.3842 165.815 88.2506C166.24 89.575 166.397 90.07 166.434 90.1505C166.441 90.1629 166.471 90.1938 166.516 90.2743C166.605 90.398 166.755 90.5094 166.859 90.5589L172.768 93.3871C173.074 93.5356 173.343 93.7522 173.544 94.0307L173.574 94.074C173.887 94.5258 173.947 94.9899 173.753 95.3303C173.611 95.5778 173.343 95.7387 173.014 95.7882L168.441 96.4566C168.441 96.4628 170.269 102.181 170.269 102.181C170.425 102.657 170.269 102.961 170.112 103.134C169.955 103.344 169.657 103.462 169.336 103.462Z" fill="url(#paint1_linear)"/>
<path d="M154.676 61.8318C153.183 62.5435 153.079 62.5868 151.587 63.3047C151.721 63.249 151.908 63.2676 152.139 63.3728L157.951 66.1576C158.16 66.2566 158.384 66.2876 158.533 66.2133C158.54 66.2071 158.548 66.2071 158.548 66.2009C158.607 66.17 158.66 66.1205 158.689 66.0462L159.622 64.0164L155.25 61.8813C155.078 61.8071 154.847 61.7514 154.676 61.8318Z" fill="#8BFF44"/>
<path d="M170.918 73.4663C172.402 72.7547 172.485 72.7237 173.969 72.0059C173.984 71.9997 173.999 71.9935 174.014 71.9873C174.462 71.7893 174.111 70.9167 173.439 70.5949L167.62 67.8101C167.292 67.6492 166.986 67.3274 166.881 66.9932L165.091 61.3802C164.979 61.0213 164.546 60.5695 164.121 60.4829C163.987 60.452 163.867 60.4581 163.77 60.5077C163.755 60.5138 163.755 60.52 163.74 60.52C162.248 61.2317 162.144 61.275 160.652 61.9929C160.749 61.9434 160.876 61.9372 161.002 61.9681C161.428 62.0548 161.853 62.5065 161.972 62.8655L163.763 68.4784C163.867 68.8002 164.166 69.1344 164.501 69.2953L170.321 72.0801C170.97 72.3957 171.328 73.2436 170.918 73.4663Z" fill="#8BFF44"/>
<path d="M167.583 80.4222C167.672 80.7068 167.605 80.8987 167.448 80.9791C168.948 80.2675 169.045 80.2241 170.537 79.5063C170.761 79.4011 170.761 79.1411 170.701 78.9307L168.903 73.7757L170.597 73.5282L166.076 74.1904C165.755 74.2337 165.703 74.5369 165.792 74.803L167.583 80.4222Z" fill="#8BFF44"/>
<path d="M166.389 80.5954C166.747 80.9915 167.18 81.109 167.419 80.9976C167.434 80.9915 167.434 80.9853 167.448 80.9853C167.605 80.8986 167.672 80.7068 167.583 80.4283L165.785 74.8154C165.703 74.5492 165.747 74.246 166.068 74.2027L170.589 73.5405L170.769 73.5158C170.813 73.5096 170.858 73.4972 170.895 73.4786C170.903 73.4724 170.91 73.4724 170.91 73.4663C171.321 73.2497 170.97 72.4018 170.313 72.0862L164.494 69.3014C164.151 69.1405 163.86 68.8063 163.755 68.4845L161.965 62.8716C161.853 62.5126 161.42 62.0609 160.995 61.9742C160.861 61.9433 160.741 61.9495 160.644 61.999C160.57 62.0361 160.517 62.0856 160.48 62.1599L160.144 62.8839L158.682 66.0524C158.652 66.1267 158.6 66.1762 158.54 66.2072C158.533 66.2134 158.525 66.2134 158.525 66.2195C158.376 66.2938 158.152 66.2629 157.943 66.1638L152.131 63.379C151.908 63.2676 151.721 63.2552 151.579 63.3109C151.564 63.3171 151.564 63.3233 151.55 63.3233C151.266 63.4595 151.266 63.9174 151.676 64.3692L156.377 69.5613C156.601 69.8089 156.78 70.1802 156.66 70.4401L154.87 74.3327C154.631 74.8401 155.466 75.7374 156.063 75.657L160.764 74.9701C161.084 74.9267 161.465 75.1681 161.674 75.4033L166.389 80.5954Z" fill="#28F6D1"/>
<path d="M154.676 105.448C153.183 106.16 153.079 106.203 151.587 106.921C151.721 106.865 151.908 106.884 152.139 106.989L157.951 109.774C158.16 109.873 158.384 109.904 158.533 109.83C158.54 109.824 158.548 109.824 158.548 109.817C158.607 109.786 158.66 109.737 158.689 109.663L159.622 107.633L155.25 105.498C155.078 105.424 154.847 105.368 154.676 105.448Z" fill="#8BFF44"/>
<path d="M170.918 117.077C172.402 116.365 172.485 116.334 173.969 115.616C173.984 115.61 173.999 115.604 174.014 115.598C174.462 115.4 174.111 114.527 173.439 114.205L167.62 111.42C167.292 111.259 166.986 110.938 166.881 110.603L165.091 104.99C164.979 104.632 164.546 104.18 164.121 104.093C163.987 104.062 163.867 104.068 163.77 104.118C163.755 104.124 163.755 104.13 163.74 104.13C162.248 104.842 162.144 104.885 160.652 105.603C160.749 105.554 160.876 105.547 161.002 105.578C161.428 105.665 161.853 106.117 161.972 106.476L163.763 112.089C163.867 112.41 164.166 112.745 164.501 112.906L170.321 115.69C170.97 116.012 171.328 116.86 170.918 117.077Z" fill="#8BFF44"/>
<path d="M167.583 124.039C167.672 124.323 167.605 124.515 167.448 124.595C168.948 123.884 169.045 123.84 170.537 123.123C170.761 123.017 170.761 122.758 170.701 122.547L168.903 117.392L170.597 117.145L166.076 117.807C165.755 117.85 165.703 118.153 165.792 118.419L167.583 124.039Z" fill="#8BFF44"/>
<path d="M166.389 124.212C166.747 124.608 167.18 124.726 167.419 124.614C167.434 124.608 167.434 124.602 167.448 124.602C167.605 124.515 167.672 124.323 167.583 124.045L165.785 118.432C165.703 118.166 165.747 117.863 166.068 117.819L170.589 117.157L170.769 117.132C170.813 117.126 170.858 117.114 170.895 117.095C170.903 117.089 170.91 117.089 170.91 117.083C171.321 116.866 170.97 116.018 170.313 115.703L164.494 112.918C164.151 112.757 163.86 112.423 163.755 112.101L161.965 106.488C161.853 106.129 161.42 105.677 160.995 105.591C160.861 105.56 160.741 105.566 160.644 105.616C160.57 105.653 160.517 105.702 160.48 105.776L160.144 106.501L158.682 109.669C158.652 109.743 158.6 109.793 158.54 109.824C158.533 109.83 158.525 109.83 158.525 109.836C158.376 109.91 158.152 109.879 157.943 109.78L152.131 106.996C151.908 106.884 151.721 106.872 151.579 106.928C151.564 106.934 151.564 106.94 151.55 106.94C151.266 107.076 151.266 107.534 151.676 107.986L156.377 113.178C156.601 113.425 156.78 113.797 156.66 114.057L154.87 117.949C154.631 118.457 155.466 119.354 156.063 119.274L160.764 118.587C161.084 118.543 161.465 118.785 161.674 119.02L166.389 124.212Z" fill="#28F6D1"/>
<path d="M154.676 126.502C153.183 127.213 153.079 127.257 151.587 127.975C151.721 127.919 151.908 127.937 152.139 128.043L157.951 130.827C158.16 130.927 158.384 130.957 158.533 130.883C158.54 130.877 158.548 130.877 158.548 130.871C158.607 130.84 158.66 130.79 158.689 130.716L159.622 128.686L155.25 126.551C155.078 126.471 154.847 126.415 154.676 126.502Z" fill="#8BFF44"/>
<path d="M170.918 138.13C172.402 137.418 172.485 137.387 173.969 136.669C173.984 136.663 173.999 136.657 174.014 136.651C174.462 136.453 174.111 135.58 173.439 135.258L167.62 132.474C167.292 132.313 166.986 131.991 166.881 131.657L165.091 126.044C164.979 125.685 164.546 125.233 164.121 125.146C163.987 125.116 163.867 125.122 163.77 125.171C163.755 125.177 163.755 125.184 163.74 125.184C162.248 125.895 162.144 125.939 160.652 126.656C160.749 126.607 160.876 126.601 161.002 126.632C161.428 126.718 161.853 127.17 161.972 127.529L163.763 133.142C163.867 133.464 164.166 133.798 164.501 133.959L170.321 136.744C170.97 137.065 171.328 137.913 170.918 138.13Z" fill="#8BFF44"/>
<path d="M167.583 145.092C167.672 145.377 167.605 145.568 167.448 145.649C168.948 144.937 169.045 144.894 170.537 144.176C170.761 144.071 170.761 143.811 170.701 143.601L168.903 138.446L170.597 138.198L166.076 138.86C165.755 138.903 165.703 139.207 165.792 139.473L167.583 145.092Z" fill="#8BFF44"/>
<path d="M166.389 145.265C166.747 145.661 167.18 145.779 167.419 145.667C167.434 145.661 167.434 145.655 167.448 145.655C167.605 145.568 167.672 145.376 167.583 145.098L165.785 139.485C165.703 139.219 165.747 138.916 166.068 138.872L170.589 138.21L170.769 138.185C170.813 138.179 170.858 138.167 170.895 138.148C170.903 138.142 170.91 138.142 170.91 138.136C171.321 137.919 170.97 137.072 170.313 136.756L164.494 133.971C164.151 133.81 163.86 133.476 163.755 133.154L161.965 127.541C161.853 127.182 161.42 126.731 160.995 126.644C160.861 126.613 160.741 126.619 160.644 126.669C160.57 126.706 160.517 126.755 160.48 126.83L160.144 127.554L158.682 130.722C158.652 130.796 158.6 130.846 158.54 130.877C158.533 130.883 158.525 130.883 158.525 130.889C158.376 130.963 158.152 130.933 157.943 130.834L152.131 128.049C151.908 127.937 151.721 127.925 151.579 127.981C151.564 127.987 151.564 127.993 151.55 127.993C151.266 128.129 151.266 128.587 151.676 129.039L156.377 134.231C156.601 134.479 156.78 134.85 156.66 135.11L154.87 139.002C154.631 139.51 155.466 140.407 156.063 140.327L160.764 139.64C161.084 139.596 161.465 139.838 161.674 140.073L166.389 145.265Z" fill="#28F6D1"/>
<path d="M157.988 97.4715C157.376 97.5643 156.541 96.6484 156.772 96.1286L158.6 92.1741C158.682 91.9823 158.637 91.6296 158.309 91.2706C153.086 85.503 153.43 85.8928 153.385 85.8062C152.967 85.1812 153.325 84.6675 153.989 84.9831L159.906 87.8174C160.249 87.9845 160.547 87.9288 160.659 87.7061L162.48 83.7454C162.591 83.4917 163.032 83.4484 163.464 83.7764C163.718 83.962 163.905 84.2157 163.987 84.4695C166.165 91.2582 165.77 90.1319 165.979 90.5032C166.128 90.726 166.352 90.9117 166.568 91.0107L172.477 93.8388C172.708 93.9502 172.895 94.1173 173.037 94.303C173.052 94.3215 173.051 94.3277 173.066 94.3463C173.35 94.7609 173.357 95.2313 172.94 95.287L168.157 95.9862C167.926 96.0172 167.747 96.2214 167.874 96.6113L169.694 102.317C169.94 103.066 169.09 103.165 168.478 102.497L163.696 97.2178C163.367 96.8588 162.987 96.7412 162.763 96.7722L157.988 97.4715Z" fill="url(#paint2_linear)"/>
<path d="M175.76 155.006V171.028L150.431 183.157V177.761L158.876 173.714V168.577L167.314 164.53V159.047L175.76 155.006Z" fill="#40FF53"/>
<path d="M175.76 155.006L167.314 159.047L144.656 148.198L153.102 144.151L175.76 155.006Z" fill="url(#paint3_linear)"/>
<path d="M167.314 159.047V164.53L144.656 153.681V148.198L167.314 159.047Z" fill="#8FE681"/>
<path d="M167.314 164.53L158.876 168.577L136.218 157.722L144.656 153.681L167.314 164.53Z" fill="url(#paint4_linear)"/>
<path d="M158.876 168.577V173.714L136.218 162.865V157.723L158.876 168.577Z" fill="#8FE681"/>
<path d="M158.876 173.714L150.431 177.761L127.772 166.906L136.218 162.865L158.876 173.714Z" fill="url(#paint5_linear)"/>
<path d="M150.431 177.761V183.157L127.772 172.302V166.906L150.431 177.761Z" fill="#8FE681"/>
<path d="M150.946 183L185.946 176.315L175.221 155L167.127 159.019V164.473L159.04 168.498V173.607L150.946 177.633V183Z" fill="#7BC079"/>
<path d="M202.338 93.5004L181.554 82.7317C179.564 81.7015 177.946 79.4173 177.946 77.6257V70.8689C177.946 69.0837 179.557 68.4695 181.554 69.4996L202.338 80.2683C204.327 81.2985 205.946 83.5827 205.946 85.3743V92.1311C205.946 93.9163 204.327 94.5305 202.338 93.5004Z" fill="url(#paint6_linear)"/>
<path d="M202.338 115.499L181.554 104.731C179.564 103.701 177.946 101.417 177.946 99.6252V92.8688C177.946 91.0837 179.557 90.4695 181.554 91.4996L202.338 102.268C204.327 103.298 205.946 105.582 205.946 107.373V114.13C205.946 115.921 204.327 116.529 202.338 115.499Z" fill="url(#paint7_linear)"/>
<path d="M202.338 136.52L181.554 126.182C179.564 125.193 177.946 123.001 177.946 121.281V114.794C177.946 113.08 179.557 112.491 181.554 113.48L202.338 123.818C204.327 124.807 205.946 126.999 205.946 128.719V135.206C205.946 136.92 204.327 137.509 202.338 136.52Z" fill="url(#paint8_linear)"/>
<path d="M202.338 158.519L181.554 148.182C179.564 147.193 177.946 145 177.946 143.28V136.794C177.946 135.08 179.557 134.491 181.554 135.48L202.338 145.817C204.327 146.806 205.946 148.999 205.946 150.718V157.205C205.946 158.924 204.327 159.508 202.338 158.519Z" fill="url(#paint9_linear)"/>
<path d="M201.492 65.1861C199.918 64.4311 198.635 64.8767 198.635 66.1886C198.635 67.4944 199.91 69.1715 201.492 69.9265C203.066 70.6814 204.35 70.2359 204.35 68.9239C204.35 67.612 203.074 65.9411 201.492 65.1861ZM201.492 65.8049C202.656 66.3619 203.604 67.5996 203.604 68.565C203.604 69.5304 202.664 69.8646 201.492 69.3076C200.328 68.7506 199.381 67.5129 199.381 66.5475C199.381 65.5821 200.328 65.2418 201.492 65.8049ZM201.492 70.7433C199.455 69.7656 197.568 69.7779 196.561 70.7619C196.464 70.8609 196.523 71.0837 196.71 71.257C196.77 71.3189 196.837 71.356 196.896 71.3869C197.023 71.4488 197.157 71.4612 197.217 71.3869C198.083 70.5267 199.724 70.5206 201.485 71.3622C203.245 72.2038 204.887 73.7819 205.767 75.4837C205.864 75.6756 206.088 75.8365 206.275 75.8426C206.446 75.8426 206.513 75.6879 206.409 75.4837C205.417 73.5405 203.529 71.7211 201.492 70.7433Z" fill="#E9E2EB"/>
<path d="M161.241 49.4611L156.309 47.0971C155.877 46.8867 155.526 46.4287 155.526 46.0698C155.526 45.7109 155.877 45.5871 156.309 45.7975L161.241 48.1615C161.674 48.3719 162.024 48.8299 162.024 49.1888C162.032 49.5477 161.674 49.6715 161.241 49.4611Z" fill="#E9E2EB"/>
<path d="M161.241 51.7879L156.309 49.4239C155.877 49.2135 155.526 48.7555 155.526 48.3966C155.526 48.0377 155.877 47.9139 156.309 48.1243L161.241 50.4883C161.674 50.6987 162.024 51.1566 162.024 51.5156C162.032 51.8745 161.674 51.9983 161.241 51.7879Z" fill="#E9E2EB"/>
<path d="M161.241 54.1149L156.309 51.7509C155.877 51.5405 155.526 51.0825 155.526 50.7236C155.526 50.3647 155.877 50.2409 156.309 50.4513L161.241 52.8153C161.674 53.0257 162.024 53.4837 162.024 53.8426C162.032 54.1954 161.674 54.3191 161.241 54.1149Z" fill="#E9E2EB"/>
<path d="M219.465 198.016L217.272 197.322C217.152 197.285 217.07 197.23 217.033 197.168V197.019L220.651 190.763V195.967L219.465 198.016Z" fill="#6CFF5F"/>
<path d="M201.022 197.347V197.539C200.985 197.582 200.925 197.626 200.835 197.657L198.053 198.715L198.03 198.721L196.269 196.462V191.258L201.022 197.347Z" fill="#72EB28"/>
<path d="M196.24 191.171C196.24 191.208 196.247 191.239 196.277 191.27V196.475C196.255 196.444 196.24 196.413 196.24 196.382C196.24 194.637 196.24 192.904 196.24 191.171Z" fill="#72EB28"/>
<path d="M190.622 202.199C190.368 202.205 190.144 202.131 190.055 202.02C190.04 202.007 190.032 201.989 190.032 201.976C190.025 201.958 190.017 201.939 190.017 201.921C190.017 201.84 190.1 201.76 190.241 201.704L198.045 198.727L198.068 198.721L200.85 197.663C200.933 197.632 201 197.589 201.037 197.545C201.059 197.514 201.074 197.483 201.074 197.452C201.074 197.415 201.059 197.391 201.037 197.36L196.292 191.283C196.27 191.252 196.255 191.221 196.255 191.184C196.255 191.103 196.329 191.016 196.471 190.967C196.665 190.893 196.941 190.886 197.15 190.955L208.453 194.538C208.662 194.606 208.938 194.6 209.132 194.525L219.741 190.484C219.935 190.41 220.211 190.404 220.42 190.472C220.584 190.528 220.681 190.608 220.681 190.701C220.681 190.726 220.674 190.75 220.659 190.775L217.04 197.032C217.025 197.056 217.018 197.081 217.018 197.106C217.018 197.131 217.025 197.155 217.04 197.18C217.078 197.242 217.16 197.298 217.279 197.335L219.473 198.028L228.522 200.899L228.575 200.918C228.739 200.974 228.836 201.054 228.836 201.147C228.836 201.159 228.836 201.172 228.828 201.184C228.828 201.196 228.821 201.209 228.813 201.221C228.746 201.339 228.53 201.419 228.284 201.425L214.742 201.71C214.489 201.716 214.272 201.797 214.205 201.914L210.587 208.171C210.52 208.288 210.303 208.369 210.057 208.375C209.803 208.381 209.58 208.307 209.49 208.196L204.745 202.119C204.655 202.007 204.424 201.933 204.171 201.939L190.622 202.199Z" fill="url(#paint10_linear)"/>
<path d="M190.025 201.976C190.032 201.989 190.04 202.007 190.047 202.02C190.137 202.131 190.368 202.205 190.614 202.199L204.155 201.914C204.409 201.908 204.633 201.983 204.73 202.094L209.475 208.171C209.565 208.282 209.796 208.357 210.042 208.35C210.296 208.344 210.505 208.264 210.572 208.146L214.19 201.89C214.257 201.778 214.474 201.692 214.727 201.685L228.269 201.401C228.522 201.395 228.731 201.314 228.798 201.197C228.806 201.184 228.813 201.172 228.813 201.159C228.813 201.147 228.821 201.135 228.821 201.122C228.821 202.855 228.821 204.594 228.821 206.327C228.821 206.475 228.575 206.599 228.269 206.605L214.727 206.89C214.474 206.896 214.257 206.977 214.19 207.094L210.572 213.351C210.505 213.468 210.288 213.549 210.042 213.555C209.788 213.561 209.565 213.487 209.475 213.376L204.73 207.298C204.64 207.187 204.409 207.113 204.155 207.119L190.614 207.404C190.457 207.41 190.301 207.379 190.189 207.329C190.077 207.28 190.01 207.206 190.01 207.131C190.01 205.399 190.01 203.66 190.01 201.927C190.01 201.939 190.017 201.958 190.025 201.976Z" fill="#72EB28"/>
<path d="M142.679 216.86L166.411 218.518L189.092 220.771L190.107 220.585L194.3 222.429L197.262 226.873L215.817 220.907L228.828 206.339L214.198 201.896L211.072 201.97L207.99 207.348L206.133 209.687L212.027 218.134L163.83 207.373L142.679 216.86Z" fill="#AEA5C0"/>
<path d="M201.716 205.708C201.716 207.441 201.716 209.18 201.716 210.912C201.716 211.024 201.581 211.123 201.373 211.166L189.719 213.66L189.711 213.623L188.659 208.889C188.659 208.876 188.659 208.87 188.659 208.858C188.659 208.746 188.794 208.647 189.003 208.604L201.373 205.955C201.529 205.918 201.649 205.856 201.693 205.782C201.708 205.764 201.716 205.739 201.716 205.708Z" fill="#667A51"/>
<path d="M163.83 202.168L172.917 206.989C173.014 207.038 173.066 207.106 173.066 207.174C173.066 207.218 173.044 207.267 172.992 207.311L169.388 210.312L169.38 210.318L163.837 207.379C163.74 207.329 163.688 207.261 163.688 207.193C163.688 205.46 163.688 203.721 163.688 201.989C163.688 202.019 163.703 202.05 163.725 202.081C163.733 202.106 163.777 202.137 163.83 202.168Z" fill="#667A51"/>
<path d="M166.963 218.537C166.784 218.574 166.575 218.568 166.411 218.518C166.247 218.462 166.143 218.376 166.143 218.283C166.143 216.55 166.143 214.811 166.143 213.078C166.143 213.091 166.143 213.109 166.15 213.122C166.15 213.146 166.173 213.171 166.195 213.19C166.217 213.214 166.255 213.245 166.292 213.264C166.456 213.357 166.725 213.382 166.956 213.332L179.326 210.683C179.557 210.634 179.826 210.665 179.99 210.751L189.077 215.572C189.241 215.659 189.51 215.69 189.741 215.64C189.928 215.603 190.047 215.523 190.077 215.43C190.077 215.418 190.084 215.399 190.084 215.387C190.084 217.119 190.084 218.852 190.084 220.591C190.084 220.696 189.95 220.802 189.741 220.845C189.51 220.894 189.241 220.863 189.077 220.777L179.99 215.962C179.826 215.869 179.557 215.845 179.326 215.894L166.963 218.537Z" fill="#667A51"/>
<path d="M172.917 206.989L163.83 202.168C163.778 202.137 163.74 202.106 163.718 202.075C163.696 202.044 163.681 202.013 163.681 201.982C163.681 201.97 163.681 201.958 163.688 201.945C163.688 201.939 163.688 201.927 163.696 201.921C163.696 201.908 163.703 201.896 163.718 201.883C163.725 201.865 163.74 201.852 163.763 201.84C163.815 201.797 163.89 201.766 163.972 201.741C163.994 201.735 164.016 201.729 164.039 201.722C164.143 201.704 164.263 201.698 164.375 201.704L177.64 203.047C177.886 203.072 178.14 203.016 178.259 202.917L185.019 197.292C185.145 197.186 185.399 197.137 185.638 197.162C185.884 197.186 186.071 197.285 186.093 197.403L187.533 203.858C187.555 203.975 187.742 204.074 187.988 204.099L201.253 205.436C201.29 205.436 201.328 205.448 201.365 205.454C201.387 205.46 201.41 205.467 201.432 205.473C201.455 205.479 201.477 205.485 201.499 205.491C201.544 205.51 201.589 205.528 201.619 205.553C201.619 205.553 201.626 205.559 201.634 205.566C201.671 205.596 201.701 205.634 201.708 205.671C201.708 205.683 201.716 205.695 201.716 205.708C201.716 205.733 201.708 205.764 201.693 205.782C201.649 205.856 201.537 205.924 201.373 205.955L189.003 208.604C188.794 208.647 188.659 208.746 188.659 208.858C188.659 208.87 188.659 208.876 188.659 208.889L189.711 213.623L189.719 213.66L190.092 215.35C190.092 215.362 190.092 215.368 190.092 215.38C190.092 215.393 190.092 215.411 190.084 215.424C190.055 215.517 189.928 215.597 189.749 215.634C189.517 215.684 189.249 215.653 189.085 215.566L179.997 210.745C179.833 210.659 179.565 210.628 179.333 210.677L166.963 213.326C166.732 213.375 166.464 213.344 166.299 213.258C166.255 213.239 166.225 213.208 166.202 213.184C166.18 213.165 166.165 213.14 166.158 213.115C166.15 213.103 166.15 213.085 166.15 213.072C166.15 213.023 166.173 212.979 166.225 212.936L169.373 210.318L169.381 210.312L172.984 207.311C173.037 207.267 173.059 207.218 173.059 207.175C173.066 207.106 173.014 207.038 172.917 206.989Z" fill="#A0D481"/>
<path d="M167.613 194.686L170.157 199.983L169.739 200.819L164.904 200.825C164.837 200.825 164.778 200.819 164.733 200.8L164.658 200.639L167.613 194.686Z" fill="#6CFF5F"/>
<path d="M147.275 206.636L147.23 206.661L147.2 206.63L144.656 201.333L149.58 205.002L149.625 205.083C149.625 205.145 149.558 205.225 149.438 205.299L147.275 206.636Z" fill="#72EB28"/>
<path d="M144.812 201.036C144.992 200.924 145.253 200.85 145.454 200.85L156.377 200.838C156.578 200.838 156.839 200.763 157.018 200.652L166.725 194.692C166.904 194.581 167.165 194.507 167.366 194.507C167.501 194.507 167.59 194.544 167.62 194.6C167.62 194.606 167.62 194.606 167.628 194.612C167.635 194.63 167.628 194.661 167.613 194.692L164.658 200.646C164.643 200.683 164.636 200.714 164.651 200.739C164.651 200.745 164.658 200.751 164.658 200.757C164.673 200.776 164.695 200.794 164.733 200.8C164.778 200.819 164.83 200.825 164.904 200.825L169.739 200.819L175.827 200.813C175.931 200.813 176.006 200.831 176.051 200.868C176.058 200.875 176.066 200.881 176.073 200.887C176.081 200.893 176.081 200.906 176.088 200.912C176.096 200.937 176.095 200.961 176.081 200.986V200.992C176.028 201.104 175.827 201.221 175.596 201.295L162.845 204.99C162.614 205.058 162.412 205.182 162.36 205.287L159.406 211.24C159.354 211.352 159.152 211.469 158.921 211.544C158.682 211.612 158.466 211.612 158.369 211.544L153.445 207.874C153.355 207.806 153.131 207.806 152.892 207.874L140.135 211.568C139.903 211.636 139.694 211.636 139.597 211.581C139.59 211.581 139.59 211.575 139.582 211.575C139.582 211.575 139.575 211.568 139.575 211.562C139.568 211.556 139.56 211.55 139.553 211.544V211.537V211.531C139.545 211.519 139.545 211.506 139.545 211.494C139.545 211.463 139.56 211.426 139.59 211.389C139.605 211.37 139.627 211.352 139.65 211.333C139.672 211.315 139.694 211.296 139.732 211.278L147.23 206.673L147.275 206.649L149.438 205.318C149.558 205.244 149.625 205.169 149.625 205.101C149.625 205.07 149.617 205.04 149.58 205.021L144.656 201.351C144.641 201.339 144.633 201.326 144.626 201.314C144.589 201.227 144.656 201.128 144.812 201.036Z" fill="url(#paint11_linear)"/>
<path d="M142.678 216.86C142.395 216.94 142.141 216.928 142.097 216.822C141.253 215.059 140.403 213.301 139.56 211.537C139.567 211.544 139.575 211.556 139.582 211.556C139.582 211.556 139.59 211.562 139.59 211.568C139.59 211.568 139.597 211.575 139.605 211.575C139.702 211.63 139.911 211.63 140.142 211.562L152.892 207.868C153.124 207.8 153.347 207.8 153.444 207.868L158.369 211.537C158.458 211.606 158.682 211.606 158.921 211.537C159.159 211.469 159.353 211.346 159.406 211.234L162.36 205.281C162.412 205.17 162.614 205.052 162.845 204.984L175.595 201.289C175.834 201.221 176.028 201.097 176.08 200.986V200.98C176.095 200.955 176.095 200.924 176.088 200.906C176.931 202.669 177.781 204.427 178.625 206.184C178.647 206.24 178.61 206.314 178.52 206.395C178.423 206.469 178.281 206.537 178.132 206.587L165.382 210.281C165.143 210.349 164.949 210.473 164.897 210.578L161.942 216.532C161.883 216.643 161.689 216.761 161.45 216.835C161.219 216.903 160.995 216.903 160.898 216.835L155.974 213.165C155.884 213.097 155.66 213.097 155.422 213.165L142.678 216.86Z" fill="#72EB28"/>
<path d="M206.767 209.483L210.915 202.242L211.072 201.976C210.46 203.307 209.848 204.637 209.236 205.968L209.229 205.986L206.968 209.929L206.961 209.922C206.789 209.817 206.707 209.669 206.744 209.545C206.744 209.532 206.752 209.52 206.759 209.508L206.767 209.483Z" fill="#40FF48"/>
<path d="M202.111 219.186C201.865 219.149 201.649 219.224 201.567 219.36L201.194 219.211L203.409 215.343C203.491 215.207 203.708 215.133 203.954 215.17L217.115 217.082C217.301 217.113 217.466 217.076 217.57 217.002C217.607 216.977 217.637 216.946 217.652 216.909C217.04 218.24 216.428 219.57 215.817 220.907C215.75 221.055 215.518 221.136 215.265 221.099L202.111 219.186Z" fill="#6CFF5F"/>
<path d="M179.99 211.241V211.234C179.997 211.21 180.012 211.191 180.035 211.166C180.05 211.154 180.057 211.148 180.072 211.135C180.109 211.104 180.162 211.08 180.214 211.061L188.182 208.505L191.01 207.602C191.032 207.595 191.047 207.589 191.062 207.583C191.129 207.552 191.181 207.509 191.211 207.459C191.211 207.453 191.218 207.441 191.226 207.435C191.256 207.373 191.256 207.305 191.226 207.224L187.399 198.529C187.369 198.467 187.369 198.399 187.384 198.344C187.384 198.338 187.391 198.331 187.391 198.325C187.406 198.288 187.436 198.251 187.473 198.226C187.496 198.208 187.525 198.189 187.563 198.17C187.578 198.164 187.6 198.152 187.615 198.152C187.637 198.146 187.667 198.133 187.697 198.133C187.884 198.102 188.107 198.146 188.271 198.251L198.769 204.804C198.963 204.928 199.231 204.965 199.433 204.897L210.229 201.438C210.43 201.376 210.691 201.413 210.893 201.531C211.079 201.648 211.161 201.815 211.094 201.952C211.094 201.958 211.087 201.964 211.087 201.97L210.93 202.236L206.782 209.477L206.774 209.495C206.767 209.508 206.759 209.52 206.759 209.532C206.729 209.662 206.804 209.811 206.976 209.91L206.983 209.916L217.465 216.47C217.577 216.538 217.645 216.618 217.674 216.705C217.682 216.717 217.682 216.73 217.682 216.742C217.689 216.798 217.689 216.847 217.667 216.891C217.667 216.897 217.667 216.897 217.659 216.903C217.659 216.903 217.659 216.903 217.659 216.909C217.637 216.946 217.615 216.971 217.577 217.002C217.473 217.076 217.301 217.113 217.122 217.082L203.961 215.17C203.715 215.133 203.499 215.207 203.417 215.343L201.201 219.211L199.112 222.856C199.03 222.992 198.814 223.067 198.567 223.03C198.321 222.992 198.112 222.862 198.038 222.702L194.218 214.007C194.143 213.846 193.934 213.71 193.688 213.679L180.535 211.767C180.288 211.729 180.08 211.599 180.005 211.439C179.997 211.42 179.99 211.395 179.983 211.37C179.968 211.327 179.975 211.284 179.99 211.241Z" fill="url(#paint12_linear)"/>
<path d="M187.391 198.523L191.219 207.218L191.062 207.577C191.047 207.583 191.032 207.595 191.01 207.595L188.182 208.499L185.556 202.533C185.526 202.459 185.518 202.391 185.556 202.323C186.168 200.992 186.779 199.662 187.391 198.331C187.361 198.393 187.361 198.461 187.391 198.523Z" fill="#72EB28"/>
<path d="M178.147 215.245C178.759 213.914 179.371 212.583 179.983 211.253C179.968 211.29 179.968 211.327 179.975 211.371C179.975 211.389 179.983 211.414 179.997 211.439C180.065 211.599 180.281 211.736 180.527 211.767L193.681 213.679C193.927 213.716 194.136 213.846 194.21 214.007L198.03 222.702C198.097 222.863 198.314 222.999 198.56 223.03C198.806 223.067 199.022 222.992 199.105 222.856L201.194 219.211L201.567 219.36L197.262 226.873C197.18 227.015 196.963 227.083 196.717 227.046C196.471 227.009 196.262 226.879 196.187 226.718L192.36 218.023C192.293 217.862 192.076 217.732 191.83 217.695L178.677 215.783C178.498 215.758 178.341 215.684 178.237 215.573C178.132 215.473 178.102 215.35 178.147 215.245Z" fill="#6CFF5F"/>
<path d="M163.681 204.749L178.52 206.407L177.088 202.997L185.899 208.01L188.182 208.505L180.453 210.987L179.751 210.232L172.902 212.063L167.038 212.261L161.935 216.544L159.391 211.247L162.301 205.38C162.383 205.207 162.554 205.077 162.763 205.015L163.681 204.749Z" fill="#AEA5C0"/>
<path d="M275.204 94.8476L263.267 89.1294L260.977 92.5145C260.723 92.8858 259.895 92.5083 259.604 91.8957L256.903 86.0847L255.008 85.175C253.098 84.2591 251.546 82.2292 251.546 80.645V72.0554C251.546 70.4711 253.098 69.9265 255.008 70.8424L275.204 80.515C277.114 81.4309 278.666 83.4608 278.666 85.045V93.6346C278.666 95.2189 277.114 95.7635 275.204 94.8476Z" fill="#4096E6"/>
<path d="M272.272 96.2401L260.335 90.522L258.045 93.9071C257.791 94.2784 256.963 93.9009 256.672 93.2882L253.971 87.4772L252.076 86.5675C250.166 85.6516 248.614 83.6218 248.614 82.0376V73.4479C248.614 71.8637 250.166 71.3191 252.076 72.235L272.272 81.9076C274.182 82.8235 275.734 84.8533 275.734 86.4376V95.0272C275.734 96.6114 274.182 97.1498 272.272 96.2401Z" fill="#59DCEE"/>
<path opacity="0.5" d="M265.364 84.8594L256.075 80.4098C255.172 79.9767 254.441 79.0236 254.441 78.2748C254.441 77.526 255.172 77.2723 256.075 77.7055L265.364 82.155C266.267 82.5882 266.998 83.5412 266.998 84.29C266.998 85.0326 266.267 85.2864 265.364 84.8594Z" fill="#616161"/>
<path opacity="0.5" d="M262.156 87.3903L256.075 84.4755C255.172 84.0423 254.441 83.0893 254.441 82.3405C254.441 81.5917 255.172 81.338 256.075 81.7712L262.156 84.6859C263.058 85.1191 263.79 86.0722 263.79 86.821C263.79 87.5636 263.058 87.8235 262.156 87.3903Z" fill="#616161"/>
<path d="M90.1922 92.8733L102.129 98.5915L104.42 104.167C104.674 104.78 105.502 105.201 105.793 104.854L108.493 101.636L110.389 102.546C112.298 103.462 113.85 102.917 113.85 101.333V92.7434C113.85 91.1591 112.298 89.1293 110.389 88.2134L90.1922 78.5408C88.2822 77.6249 86.7304 78.1695 86.7304 79.7537V88.3434C86.7304 89.9338 88.2822 91.9574 90.1922 92.8733Z" fill="#83AE6A"/>
<path d="M86.4618 93.8759L98.399 99.594L100.69 105.17C100.943 105.783 101.771 106.203 102.062 105.857L104.763 102.639L106.658 103.548C108.568 104.464 110.12 103.92 110.12 102.336V93.7459C110.12 92.1617 108.568 90.1318 106.658 89.216L86.4618 79.5434C84.5518 78.6275 83 79.172 83 80.7563V89.3459C83 90.9364 84.5518 92.96 86.4618 93.8759Z" fill="#A0D481"/>
<path opacity="0.5" d="M87.8793 86.4867L97.168 90.9363C98.0708 91.3694 98.8019 91.1095 98.8019 90.3669C98.8019 89.6181 98.0708 88.6651 97.168 88.2319L87.8793 83.7824C86.9766 83.3492 86.2454 83.6091 86.2454 84.3517C86.2454 85.1005 86.9766 86.0535 87.8793 86.4867Z" fill="#616161"/>
<path opacity="0.5" d="M87.8793 90.5589L93.9599 93.4737C94.8626 93.9069 95.5938 93.6469 95.5938 92.9043C95.5938 92.1555 94.8626 91.2025 93.9599 90.7693L87.8793 87.8545C86.9766 87.4213 86.2454 87.6812 86.2454 88.4239C86.2454 89.1665 86.9766 90.1257 87.8793 90.5589Z" fill="#616161"/>
<defs>
<linearGradient id="paint0_linear" x1="139.802" y1="30.6495" x2="197.733" y2="196.247" gradientUnits="userSpaceOnUse">
<stop stop-color="#6587FE"/>
<stop offset="0.4166" stop-color="#769EB5"/>
<stop offset="1" stop-color="#A1B7D1"/>
</linearGradient>
<linearGradient id="paint1_linear" x1="147.436" y1="56.4855" x2="184.131" y2="175.259" gradientUnits="userSpaceOnUse">
<stop stop-color="#8D80B3"/>
<stop offset="0.4166" stop-color="#7E9AA9"/>
<stop offset="1" stop-color="#BA90A5"/>
</linearGradient>
<linearGradient id="paint2_linear" x1="148.183" y1="58.1493" x2="183.214" y2="171.535" gradientUnits="userSpaceOnUse">
<stop stop-color="#B1A1E1"/>
<stop offset="0.4166" stop-color="#A0C3D7"/>
<stop offset="1" stop-color="#E8B3CE"/>
</linearGradient>
<linearGradient id="paint3_linear" x1="144.657" y1="151.601" x2="175.76" y2="151.601" gradientUnits="userSpaceOnUse">
<stop stop-color="#94FA70"/>
<stop offset="1" stop-color="#81EC17"/>
</linearGradient>
<linearGradient id="paint4_linear" x1="136.215" y1="161.127" x2="167.318" y2="161.127" gradientUnits="userSpaceOnUse">
<stop stop-color="#91FD53"/>
<stop offset="1" stop-color="#8AFF9D"/>
</linearGradient>
<linearGradient id="paint5_linear" x1="127.773" y1="170.311" x2="158.875" y2="170.311" gradientUnits="userSpaceOnUse">
<stop stop-color="#C8FFB5"/>
<stop offset="1" stop-color="#79FC28"/>
</linearGradient>
<linearGradient id="paint6_linear" x1="163.329" y1="20.612" x2="226.947" y2="188.704" gradientUnits="userSpaceOnUse">
<stop stop-color="#B6A6E7"/>
<stop offset="0.4166" stop-color="#A5C8DD"/>
<stop offset="1" stop-color="#EEB7D4"/>
</linearGradient>
<linearGradient id="paint7_linear" x1="154.354" y1="23.522" x2="217.966" y2="191.607" gradientUnits="userSpaceOnUse">
<stop stop-color="#B6A6E7"/>
<stop offset="0.4166" stop-color="#A5C8DD"/>
<stop offset="1" stop-color="#EEB7D4"/>
</linearGradient>
<linearGradient id="paint8_linear" x1="145.379" y1="29.8813" x2="204.591" y2="192.85" gradientUnits="userSpaceOnUse">
<stop stop-color="#B6A6E7"/>
<stop offset="0.4166" stop-color="#A5C8DD"/>
<stop offset="1" stop-color="#EEB7D4"/>
</linearGradient>
<linearGradient id="paint9_linear" x1="136.403" y1="33.5568" x2="195.61" y2="196.519" gradientUnits="userSpaceOnUse">
<stop stop-color="#B6A6E7"/>
<stop offset="0.4166" stop-color="#A5C8DD"/>
<stop offset="1" stop-color="#EEB7D4"/>
</linearGradient>
<linearGradient id="paint10_linear" x1="190.013" y1="199.38" x2="228.829" y2="199.38" gradientUnits="userSpaceOnUse">
<stop stop-color="#BCFF78"/>
<stop offset="1" stop-color="#28F6DD"/>
</linearGradient>
<linearGradient id="paint11_linear" x1="139.542" y1="203.062" x2="176.088" y2="203.062" gradientUnits="userSpaceOnUse">
<stop stop-color="#83FF78"/>
<stop offset="1" stop-color="#28F6DD"/>
</linearGradient>
<linearGradient id="paint12_linear" x1="234.383" y1="228.745" x2="191.737" y2="194.41" gradientUnits="userSpaceOnUse">
<stop stop-color="#83FF78"/>
<stop offset="1" stop-color="#28F69F"/>
</linearGradient>
</defs>
</svg>
