<svg width="362" height="228" viewBox="0 0 362 228" fill="none" xmlns="http://www.w3.org/2000/svg">
<path d="M78.1745 206.869C80.8374 208.378 80.8374 210.821 78.1745 212.331C75.5116 213.84 71.1934 213.84 68.5305 212.331C65.8677 210.821 65.8677 208.378 68.5305 206.869C71.1934 205.359 75.5116 205.359 78.1745 206.869Z" fill="#FFB000"/>
<path d="M264.233 197.123C267.234 198.822 267.234 201.58 264.233 203.28C261.232 204.979 256.372 204.979 253.371 203.28C250.37 201.58 250.37 198.822 253.371 197.123C256.372 195.423 261.232 195.423 264.233 197.123Z" fill="#FFB000"/>
<path d="M68.2316 152.173C69.8869 153.112 69.8869 154.627 68.2316 155.567C66.5763 156.506 63.8968 156.506 62.2415 155.567C60.5862 154.627 60.5862 153.112 62.2415 152.173C63.8968 151.234 66.5763 151.234 68.2316 152.173Z" fill="#FFB000"/>
<path d="M164.234 199.463C165.38 200.115 165.38 201.168 164.234 201.814C163.088 202.465 161.228 202.465 160.082 201.814C158.936 201.162 158.936 200.109 160.082 199.463C161.228 198.811 163.088 198.811 164.234 199.463Z" fill="#FFB000"/>
<path d="M151.932 158.911L110.66 182.29C109.321 183.05 107.145 183.05 105.805 182.29C104.466 181.53 104.466 180.297 105.805 179.537L147.072 156.158C148.411 155.398 150.587 155.398 151.927 156.158C153.272 156.919 153.272 158.151 151.932 158.911Z" fill="#FFB000"/>
<path d="M183.81 140.848L162.003 153.205C160.663 153.965 158.487 153.965 157.148 153.205C155.808 152.445 155.808 151.212 157.148 150.452L178.954 138.095C180.294 137.335 182.47 137.335 183.81 138.095C185.149 138.861 185.149 140.093 183.81 140.848Z" fill="#77008F"/>
<path d="M164.167 139.713L122.901 163.092C121.561 163.852 119.385 163.852 118.046 163.092C116.706 162.332 116.706 161.099 118.046 160.339L159.312 136.96C160.652 136.2 162.828 136.2 164.167 136.96C165.507 137.72 165.507 138.953 164.167 139.713Z" fill="#FFB000"/>
<path d="M216.932 109.819L175.666 133.198C174.326 133.958 172.15 133.958 170.811 133.198C169.471 132.438 169.471 131.205 170.811 130.445L212.077 107.066C213.417 106.306 215.592 106.306 216.932 107.066C218.277 107.827 218.277 109.059 216.932 109.819Z" fill="#77008F"/>
<path d="M240.632 120.922L199.366 144.301C198.026 145.061 195.851 145.061 194.511 144.301C193.171 143.541 193.171 142.308 194.511 141.548L235.777 118.169C237.117 117.409 239.293 117.409 240.632 118.169C241.978 118.935 241.978 120.167 240.632 120.922Z" fill="#77008F"/>
<path d="M162.756 165.046L150.676 171.887C149.336 172.647 147.16 172.647 145.82 171.887C144.481 171.127 144.481 169.895 145.82 169.135L157.9 162.294C159.24 161.534 161.416 161.534 162.756 162.294C164.095 163.054 164.095 164.286 162.756 165.046Z" fill="#77008F"/>
<path d="M266.326 106.371L254.246 113.212C252.906 113.972 250.73 113.972 249.391 113.212C248.051 112.452 248.051 111.22 249.391 110.46L261.47 103.619C262.81 102.859 264.986 102.859 266.326 103.619C267.665 104.379 267.665 105.611 266.326 106.371Z" fill="#FFB000"/>
<path d="M172.372 122.795L131.106 146.174C129.766 146.934 127.59 146.934 126.25 146.174C124.911 145.414 124.911 144.181 126.25 143.421L167.517 120.042C168.856 119.282 171.032 119.282 172.372 120.042C173.717 120.802 173.717 122.035 172.372 122.795Z" fill="#77008F"/>
<path d="M198.065 108.239L185.985 115.08C184.645 115.84 182.47 115.84 181.13 115.08C179.79 114.32 179.79 113.087 181.13 112.327L193.21 105.486C194.55 104.726 196.725 104.726 198.065 105.486C199.405 106.252 199.405 107.479 198.065 108.239Z" fill="#77008F"/>
<path d="M218.349 203.812L177.083 227.19C175.743 227.951 173.568 227.951 172.228 227.19C170.888 226.43 170.888 225.198 172.228 224.438L213.494 201.059C214.834 200.299 217.01 200.299 218.349 201.059C219.695 201.825 219.695 203.057 218.349 203.812Z" fill="#FFB000"/>
<path d="M250.232 185.754L228.425 198.111C227.085 198.871 224.91 198.871 223.57 198.111C222.23 197.351 222.23 196.118 223.57 195.358L245.377 183.001C246.717 182.241 248.892 182.241 250.232 183.001C251.572 183.761 251.572 184.994 250.232 185.754Z" fill="#77008F"/>
<path d="M230.584 184.614L189.318 207.992C187.978 208.752 185.802 208.752 184.463 207.992C183.123 207.232 183.123 206 184.463 205.24L225.729 181.861C227.069 181.101 229.245 181.101 230.584 181.861C231.924 182.626 231.924 183.853 230.584 184.614Z" fill="#FFB000"/>
<path d="M283.355 154.719L242.088 178.098C240.749 178.858 238.573 178.858 237.233 178.098C235.893 177.338 235.893 176.106 237.233 175.346L278.5 151.967C279.839 151.207 282.015 151.207 283.355 151.967C284.695 152.727 284.695 153.959 283.355 154.719Z" fill="#77008F"/>
<path d="M307.055 165.828L265.789 189.207C264.449 189.967 262.273 189.967 260.933 189.207C259.594 188.447 259.594 187.214 260.933 186.454L302.2 163.075C303.54 162.315 305.715 162.315 307.055 163.075C308.395 163.835 308.395 165.068 307.055 165.828Z" fill="#FFB000"/>
<path d="M229.178 209.947L217.098 216.788C215.759 217.548 213.583 217.548 212.243 216.788C210.903 216.028 210.903 214.795 212.243 214.035L224.323 207.194C225.663 206.434 227.838 206.434 229.178 207.194C230.518 207.96 230.518 209.187 229.178 209.947Z" fill="#FFB000"/>
<path d="M238.794 167.696L197.528 191.074C196.188 191.834 194.013 191.834 192.673 191.074C191.333 190.314 191.333 189.082 192.673 188.322L233.939 164.943C235.279 164.183 237.455 164.183 238.794 164.943C240.134 165.708 240.134 166.935 238.794 167.696Z" fill="#77008F"/>
<path d="M264.482 153.145L252.402 159.986C251.063 160.746 248.887 160.746 247.547 159.986C246.207 159.226 246.207 157.993 247.547 157.233L259.627 150.392C260.967 149.632 263.142 149.632 264.482 150.392C265.822 151.152 265.822 152.385 264.482 153.145Z" fill="#77008F"/>
<path d="M190.043 172.946L148.777 196.325C147.437 197.085 145.261 197.085 143.922 196.325C142.582 195.565 142.582 194.332 143.922 193.572L185.188 170.193C186.528 169.433 188.703 169.433 190.043 170.193C191.383 170.954 191.383 172.186 190.043 172.946Z" fill="#FFB000"/>
<path d="M221.92 154.883L200.113 167.24C198.774 168 196.598 168 195.258 167.24C193.919 166.48 193.919 165.247 195.258 164.487L217.065 152.13C218.405 151.37 220.581 151.37 221.92 152.13C223.266 152.89 223.266 154.123 221.92 154.883Z" fill="#77008F"/>
<path d="M202.278 153.748L161.012 177.127C159.672 177.887 157.496 177.887 156.156 177.127C154.817 176.367 154.817 175.134 156.156 174.374L197.423 150.995C198.763 150.235 200.938 150.235 202.278 150.995C203.618 151.755 203.618 152.988 202.278 153.748Z" fill="#77008F"/>
<path d="M255.049 123.848L213.782 147.227C212.442 147.987 210.267 147.987 208.927 147.227C207.587 146.467 207.587 145.235 208.927 144.474L250.193 121.096C251.533 120.336 253.709 120.336 255.049 121.096C256.388 121.861 256.388 123.088 255.049 123.848Z" fill="#77008F"/>
<path d="M278.749 134.957L237.482 158.336C236.143 159.096 233.967 159.096 232.627 158.336C231.287 157.575 231.287 156.343 232.627 155.583L273.894 132.204C275.233 131.444 277.409 131.444 278.749 132.204C280.088 132.964 280.088 134.197 278.749 134.957Z" fill="#77008F"/>
<path d="M200.872 179.076L188.792 185.917C187.452 186.677 185.277 186.677 183.937 185.917C182.597 185.157 182.597 183.924 183.937 183.164L196.017 176.323C197.356 175.563 199.532 175.563 200.872 176.323C202.212 177.089 202.212 178.321 200.872 179.076Z" fill="#77008F"/>
<path d="M304.436 120.406L292.356 127.247C291.017 128.007 288.841 128.007 287.501 127.247C286.162 126.487 286.162 125.255 287.501 124.495L299.581 117.654C300.921 116.893 303.097 116.893 304.436 117.654C305.776 118.414 305.776 119.646 304.436 120.406Z" fill="#FFB000"/>
<path d="M210.488 136.825L169.222 160.203C167.882 160.963 165.706 160.963 164.367 160.203C163.027 159.443 163.027 158.211 164.367 157.451L205.633 134.072C206.973 133.312 209.148 133.312 210.488 134.072C211.828 134.837 211.828 136.07 210.488 136.825Z" fill="#77008F"/>
<path d="M236.176 122.274L224.096 129.115C222.756 129.875 220.581 129.875 219.241 129.115C217.901 128.355 217.901 127.122 219.241 126.362L231.321 119.521C232.66 118.761 234.836 118.761 236.176 119.521C237.516 120.281 237.516 121.514 236.176 122.274Z" fill="#77008F"/>
<path d="M112.355 145.18L73.3138 167.3C72.046 168.016 69.9921 168.016 68.7188 167.3C67.451 166.583 67.451 165.416 68.7188 164.699L107.76 142.58C109.027 141.863 111.081 141.863 112.355 142.58C113.622 143.296 113.622 144.464 112.355 145.18Z" fill="#FFB000"/>
<path d="M142.516 128.094L121.882 139.783C120.615 140.5 118.561 140.5 117.287 139.783C116.02 139.067 116.02 137.899 117.287 137.183L137.921 125.493C139.188 124.777 141.242 124.777 142.516 125.493C143.783 126.21 143.783 127.372 142.516 128.094Z" fill="#77008F"/>
<path d="M123.931 127.014L84.8898 149.133C83.622 149.85 81.5681 149.85 80.2948 149.133C79.0271 148.416 79.0271 147.249 80.2948 146.532L119.336 124.413C120.603 123.696 122.657 123.696 123.931 124.413C125.198 125.135 125.198 126.297 123.931 127.014Z" fill="#FFB000"/>
<path d="M173.856 98.7322L134.815 120.851C133.547 121.568 131.493 121.568 130.22 120.851C128.952 120.135 128.952 118.967 130.22 118.251L169.261 96.1315C170.528 95.4148 172.582 95.4148 173.856 96.1315C175.123 96.8482 175.123 98.0155 173.856 98.7322Z" fill="#77008F"/>
<path d="M196.277 109.243L157.236 131.363C155.968 132.079 153.914 132.079 152.641 131.363C151.373 130.646 151.373 129.479 152.641 128.762L191.682 106.643C192.95 105.926 195.004 105.926 196.277 106.643C197.545 107.359 197.545 108.521 196.277 109.243Z" fill="#77008F"/>
<path d="M122.596 150.984L111.17 157.456C109.902 158.173 107.848 158.173 106.575 157.456C105.307 156.739 105.307 155.572 106.575 154.855L118.001 148.384C119.269 147.667 121.323 147.667 122.596 148.384C123.864 149.1 123.864 150.262 122.596 150.984Z" fill="#FFB000"/>
<path d="M220.581 95.4745L209.154 101.946C207.886 102.663 205.832 102.663 204.559 101.946C203.291 101.23 203.291 100.062 204.559 99.3456L215.986 92.8738C217.253 92.1571 219.307 92.1571 220.581 92.8738C221.848 93.5905 221.848 94.7524 220.581 95.4745Z" fill="#77008F"/>
<path d="M131.698 111.008L92.657 133.127C91.3893 133.844 89.3353 133.844 88.062 133.127C86.7943 132.41 86.7943 131.243 88.062 130.526L127.103 108.407C128.371 107.691 130.425 107.691 131.698 108.407C132.966 109.129 132.966 110.291 131.698 111.008Z" fill="#FFB000"/>
<path d="M155.996 97.2391L144.569 103.711C143.302 104.428 141.248 104.428 139.974 103.711C138.707 102.994 138.707 101.827 139.974 101.11L151.401 94.6385C152.669 93.9218 154.723 93.9218 155.996 94.6385C157.269 95.3606 157.269 96.5224 155.996 97.2391Z" fill="#77008F"/>
<path d="M292.943 179.624L243.256 207.753C237.095 211.239 227.108 211.239 220.951 207.753L102.135 140.484C95.9731 136.998 95.9731 131.341 102.135 127.855L151.822 99.7257C157.983 96.24 167.971 96.24 174.127 99.7257L292.943 167.001C299.105 170.481 299.105 176.138 292.943 179.624Z" fill="#E7E7E8"/>
<path d="M97.6396 115.411C98.3427 116.313 99.2949 116.997 100.28 117.561L219.728 185.227C221.112 186.02 222.612 186.574 224.218 186.91C225.757 187.231 227.401 187.41 229.051 187.415C232.339 187.426 235.683 186.753 238.385 185.222L295.224 153.026C296.83 152.119 298.574 150.55 298.989 148.78C299.055 148.482 299.089 148.183 299.089 147.879C299.089 151.489 299.089 152.57 299.089 156.191C299.094 158.477 297.289 160.307 295.224 161.474L238.385 193.675C237.001 194.457 235.5 195.022 233.895 195.353C229.283 196.325 223.792 195.977 219.728 193.675L100.28 126.009C99.7655 125.711 99.2617 125.385 98.7856 125.01C97.4901 124.006 96.4272 122.312 96.4272 120.689H96.4216C96.4216 117.04 96.4216 115.922 96.4216 112.273H96.4272C96.4548 113.392 96.931 114.51 97.6396 115.411Z" fill="#EBEBEB"/>
<path d="M271.613 168.999C271.978 168.793 272.305 168.765 272.554 168.879C272.836 169.01 273.013 169.325 273.013 169.792V170.383C273.013 171.268 272.377 172.333 271.613 172.767L261.996 178.213C261.609 178.435 261.26 178.451 261.011 178.31C260.751 178.169 260.596 177.86 260.596 177.42V176.823C260.596 175.948 261.232 174.879 261.996 174.445L271.613 168.999Z" fill="#1C1A2A"/>
<path d="M250.276 180.938C251.616 179.602 252.9 180.135 252.862 181.514C252.806 183.582 250.714 185.602 249.584 184.907C249.435 184.815 249.308 184.679 249.197 184.494C249.009 184.174 249.003 183.778 249.047 183.403C249.103 182.947 249.241 182.507 249.446 182.1C249.446 182.1 249.446 182.095 249.451 182.095C249.557 181.932 249.656 181.769 249.745 181.59C249.894 181.351 250.072 181.134 250.276 180.938Z" fill="#1C1A2A"/>
<path d="M99.96 114.895C100.94 116.057 101.726 116.367 105.164 118.332C105.225 118.37 221.567 184.299 222.17 184.592C224.147 185.537 226.605 186.009 229.068 186.009L229.057 187.415C227.407 187.41 225.769 187.231 224.224 186.91C222.613 186.568 221.118 186.014 219.734 185.227L100.281 117.561C99.2957 117.002 98.3434 116.312 97.6404 115.411C96.9373 114.51 96.4556 113.386 96.4279 112.268C96.4113 111.915 96.439 111.573 96.5221 111.231C96.9428 109.461 98.6811 107.892 100.287 106.985L157.126 74.7888C159.833 73.2577 163.166 72.5899 166.455 72.5954L166.443 74.0016C165.231 74.0016 163.985 74.121 162.767 74.3708C160.309 74.8811 159.119 75.6195 157.287 76.6945C155.432 77.7858 161.511 74.2676 135.95 88.7477C131.793 91.104 127.652 93.5092 123.494 95.8601C119.336 98.211 115.157 100.519 111.005 102.902C109.272 103.896 107.55 104.9 105.812 105.866C103.78 106.99 101.887 107.973 100.918 108.733C98.7531 110.438 98.1884 112.8 99.96 114.895Z" fill="#E1DFEA"/>
<path d="M128.62 138.084L129.572 137.547L119.092 131.612L118.14 132.15L128.62 138.084Z" fill="#E1DFEA"/>
<path d="M129.572 138.844V137.547L128.62 138.084V139.387L129.572 138.844Z" fill="#7C7CA0"/>
<path d="M128.62 139.387V138.084L118.14 132.15V133.448L128.62 139.387Z" fill="#7C7CA0"/>
<path d="M244.142 186.411C244.347 186.297 244.513 186.02 244.513 185.803C244.513 185.58 244.347 185.493 244.142 185.607C243.937 185.721 243.771 185.998 243.771 186.215C243.777 186.443 243.943 186.53 244.142 186.411Z" fill="#1C1A2A"/>
<path d="M292.179 161.148C292.495 160.969 292.75 160.545 292.75 160.203V157.532C292.75 157.19 292.495 157.054 292.179 157.233C291.864 157.413 291.609 157.836 291.609 158.178V160.849C291.609 161.191 291.864 161.327 292.179 161.148Z" fill="#1C1A2A"/>
<path d="M289.893 162.446C290.209 162.267 290.463 161.843 290.463 161.501V158.83C290.463 158.488 290.209 158.352 289.893 158.531C289.577 158.71 289.323 159.134 289.323 159.476V162.147C289.323 162.489 289.577 162.625 289.893 162.446Z" fill="#1C1A2A"/>
<path d="M287.606 163.738C287.922 163.559 288.177 163.135 288.177 162.793V160.122C288.177 159.78 287.922 159.644 287.606 159.823C287.291 160.002 287.036 160.426 287.036 160.768V163.439C287.036 163.781 287.291 163.917 287.606 163.738Z" fill="#1C1A2A"/>
<path d="M285.32 165.035C285.636 164.856 285.89 164.433 285.89 164.091V161.419C285.89 161.077 285.636 160.942 285.32 161.121C285.005 161.3 284.75 161.723 284.75 162.065V164.737C284.75 165.079 285.005 165.214 285.32 165.035Z" fill="#1C1A2A"/>
<path d="M283.034 166.333C283.349 166.154 283.604 165.73 283.604 165.388V162.717C283.604 162.375 283.349 162.239 283.034 162.419C282.718 162.598 282.463 163.021 282.463 163.363V166.034C282.463 166.377 282.718 166.507 283.034 166.333Z" fill="#1C1A2A"/>
<path d="M280.747 167.625C281.063 167.446 281.317 167.023 281.317 166.681V164.009C281.317 163.667 281.063 163.532 280.747 163.711C280.432 163.89 280.177 164.313 280.177 164.655V167.327C280.177 167.669 280.432 167.804 280.747 167.625Z" fill="#1C1A2A"/>
<path d="M295.23 153.031L238.39 185.227C235.683 186.758 232.345 187.431 229.056 187.421L229.067 186.014C231.254 186.014 233.458 185.634 235.329 184.869C236.431 184.418 237.25 183.897 238.23 183.327C240.084 182.236 234.006 185.754 259.566 171.274C263.724 168.917 267.865 166.512 272.022 164.161C276.186 161.81 280.365 159.497 284.512 157.119C286.245 156.126 287.966 155.121 289.71 154.155C293.154 152.255 294.776 151.511 295.839 150.012C297.228 148.047 296.907 145.457 293.475 143.459C293.342 143.378 173.889 75.69 173.346 75.4294C171.453 74.5281 169.006 74.0069 166.443 74.0069L166.454 72.6007C168.104 72.6061 169.742 72.7853 171.292 73.1056C172.903 73.4477 174.398 74.0015 175.793 74.7887L295.235 142.455C296.232 143.019 297.173 143.703 297.882 144.605C298.618 145.544 299.094 146.722 299.094 147.884C299.094 148.188 299.061 148.487 298.994 148.785C298.574 150.555 296.83 152.124 295.23 153.031Z" fill="#E1DFEA"/>
<path d="M175.539 76.6673C174.149 75.88 173.379 75.4402 173.335 75.424C171.442 74.5227 168.995 74.0069 166.432 74.0015C165.219 74.0069 163.974 74.1209 162.761 74.3761C160.303 74.8865 159.107 75.6194 157.28 76.6944C155.559 77.7097 160.696 74.7344 140.832 85.9732L135.944 88.7421C131.786 91.1039 127.645 93.5037 123.493 95.8546C122.353 96.5007 121.212 97.1413 120.066 97.7766C117.044 99.476 114.01 101.165 110.998 102.896C109.271 103.895 107.549 104.9 105.811 105.861C103.785 106.985 101.886 107.967 100.917 108.728C98.7578 110.432 98.1821 112.794 99.9592 114.89C100.945 116.052 101.731 116.361 105.163 118.332L155.686 146.956C187.192 164.807 221.843 184.429 222.175 184.592C224.146 185.537 226.609 186.014 229.067 186.014C231.254 186.014 233.458 185.629 235.323 184.863C236.425 184.413 237.25 183.897 238.224 183.321C240.079 182.23 234.006 185.748 259.566 171.274C263.724 168.912 267.865 166.512 272.022 164.156C276.185 161.805 280.365 159.492 284.517 157.114C286.239 156.12 287.966 155.111 289.705 154.15C293.148 152.249 294.77 151.505 295.833 150.007C297.173 148.118 296.929 145.653 293.851 143.693C293.73 143.611 293.597 143.53 293.464 143.454C293.342 143.383 191.887 85.8863 175.539 76.6673Z" fill="#E1DFEA"/>
<path d="M293.846 143.694C296.918 145.654 297.167 148.119 295.828 150.008C294.765 151.512 293.143 152.25 289.699 154.151C287.961 155.112 286.234 156.121 284.512 157.115C280.36 159.499 276.18 161.806 272.017 164.157C267.859 166.513 263.718 168.913 259.56 171.275C234 185.749 240.079 182.231 238.219 183.323C237.244 183.898 236.425 184.414 235.318 184.864C231.321 186.504 225.856 186.363 222.169 184.593C221.616 184.327 120.454 127.004 105.158 118.339C101.72 116.368 100.939 116.058 99.9536 114.896C98.1765 112.806 98.7523 110.439 100.911 108.734C102.091 107.811 155.619 77.6783 157.28 76.701C159.107 75.626 160.298 74.893 162.761 74.3826C166.526 73.5954 170.567 74.1057 173.335 75.4305C173.413 75.4577 170.168 73.628 293.846 143.694Z" fill="url(#paint0_linear)"/>
<path d="M138.38 90.3819C138.895 90.0833 139.725 90.0833 140.24 90.3819L140.932 90.7728L128.282 97.9396C127.767 98.2382 126.931 98.2273 126.411 97.9396L125.724 97.5487L138.38 90.3819Z" fill="#090000"/>
<path d="M140.24 89.1168L141.115 89.6109C141.635 89.9095 141.624 90.3764 141.115 90.6642L140.932 90.7673L140.24 90.3764C139.725 90.0778 138.895 90.0778 138.38 90.3764L125.73 97.5431L125.547 97.44C125.298 97.2988 125.165 97.1088 125.16 96.9242C125.16 96.9188 125.16 96.9188 125.16 96.9133C125.16 96.7233 125.293 96.5333 125.547 96.3867L138.38 89.1168C138.895 88.8236 139.731 88.829 140.24 89.1168Z" fill="#1A2738"/>
<g opacity="0.27">
<path opacity="0.27" d="M151.318 103.895L125.414 118.571C124.573 119.049 123.211 119.049 122.369 118.571C121.528 118.093 121.528 117.322 122.369 116.844L148.273 102.169C149.115 101.691 150.476 101.691 151.318 102.169C152.159 102.647 152.159 103.418 151.318 103.895Z" fill="#F2F8FF"/>
<path opacity="0.27" d="M149.585 111.779L131.504 122.018C130.663 122.496 129.301 122.496 128.459 122.018C127.618 121.541 127.618 120.77 128.459 120.292L146.54 110.052C147.382 109.574 148.744 109.574 149.585 110.052C150.427 110.53 150.427 111.301 149.585 111.779Z" fill="#F2F8FF"/>
<path opacity="0.27" d="M155.675 115.232L137.594 125.472C136.752 125.949 135.39 125.949 134.549 125.472C133.707 124.994 133.707 124.223 134.549 123.745L152.63 113.505C153.471 113.028 154.833 113.028 155.675 113.505C156.516 113.983 156.516 114.754 155.675 115.232Z" fill="#F2F8FF"/>
</g>
<g opacity="0.27">
<path opacity="0.27" d="M191.128 128.539L165.225 143.215C164.383 143.693 163.021 143.693 162.18 143.215C161.338 142.737 161.338 141.966 162.18 141.488L188.083 126.813C188.925 126.335 190.287 126.335 191.128 126.813C191.97 127.29 191.97 128.061 191.128 128.539Z" fill="#F2F8FF"/>
<path opacity="0.27" d="M189.395 136.423L171.314 146.663C170.473 147.14 169.111 147.14 168.27 146.663C167.428 146.185 167.428 145.414 168.27 144.936L186.351 134.696C187.192 134.218 188.554 134.218 189.395 134.696C190.237 135.174 190.237 135.95 189.395 136.423Z" fill="#F2F8FF"/>
<path opacity="0.27" d="M195.485 139.876L177.404 150.115C176.563 150.593 175.201 150.593 174.359 150.115C173.518 149.638 173.518 148.867 174.359 148.389L192.44 138.149C193.282 137.671 194.644 137.671 195.485 138.149C196.327 138.627 196.327 139.398 195.485 139.876Z" fill="#F2F8FF"/>
</g>
<g opacity="0.27">
<path opacity="0.27" d="M244.17 121.476L218.266 136.151C217.425 136.629 216.063 136.629 215.222 136.151C214.38 135.674 214.38 134.903 215.222 134.425L241.125 119.749C241.967 119.271 243.329 119.271 244.17 119.749C245.011 120.227 245.011 121.003 244.17 121.476Z" fill="#F2F8FF"/>
<path opacity="0.27" d="M242.432 129.365L224.351 139.605C223.509 140.082 222.147 140.082 221.306 139.605C220.464 139.127 220.464 138.356 221.306 137.878L239.387 127.638C240.228 127.16 241.59 127.16 242.432 127.638C243.273 128.116 243.273 128.887 242.432 129.365Z" fill="#F2F8FF"/>
<path opacity="0.27" d="M248.527 132.812L230.446 143.052C229.604 143.53 228.242 143.53 227.401 143.052C226.559 142.574 226.559 141.803 227.401 141.326L245.482 131.086C246.323 130.608 247.685 130.608 248.527 131.086C249.368 131.564 249.368 132.34 248.527 132.812Z" fill="#F2F8FF"/>
</g>
<g opacity="0.27">
<path opacity="0.27" d="M238.612 154.111L212.708 168.787C211.867 169.265 210.505 169.265 209.663 168.787C208.822 168.309 208.822 167.538 209.663 167.06L235.567 152.385C236.408 151.907 237.77 151.907 238.612 152.385C239.453 152.863 239.453 153.639 238.612 154.111Z" fill="#F2F8FF"/>
<path opacity="0.27" d="M236.879 162L218.798 172.24C217.956 172.718 216.594 172.718 215.753 172.24C214.911 171.762 214.911 170.991 215.753 170.513L233.834 160.274C234.675 159.796 236.037 159.796 236.879 160.274C237.72 160.752 237.72 161.522 236.879 162Z" fill="#F2F8FF"/>
<path opacity="0.27" d="M242.969 165.448L224.888 175.688C224.046 176.165 222.684 176.165 221.843 175.688C221.001 175.21 221.001 174.439 221.843 173.961L239.924 163.721C240.765 163.244 242.127 163.244 242.969 163.721C243.81 164.199 243.81 164.976 242.969 165.448Z" fill="#F2F8FF"/>
</g>
<g opacity="0.27">
<path opacity="0.27" d="M201.857 96.6527L175.954 111.328C175.112 111.806 173.75 111.806 172.909 111.328C172.067 110.85 172.067 110.08 172.909 109.602L198.812 94.9262C199.654 94.4484 201.016 94.4484 201.857 94.9262C202.699 95.404 202.699 96.175 201.857 96.6527Z" fill="#717F90"/>
<path opacity="0.27" d="M200.119 104.536L182.038 114.776C181.196 115.254 179.835 115.254 178.993 114.776C178.152 114.298 178.152 113.527 178.993 113.05L197.074 102.81C197.916 102.332 199.277 102.332 200.119 102.81C200.96 103.288 200.96 104.064 200.119 104.536Z" fill="#717F90"/>
<path opacity="0.27" d="M206.214 107.989L188.133 118.229C187.292 118.707 185.93 118.707 185.088 118.229C184.247 117.751 184.247 116.98 185.088 116.503L203.169 106.263C204.011 105.785 205.373 105.785 206.214 106.263C207.056 106.741 207.056 107.512 206.214 107.989Z" fill="#717F90"/>
</g>
<path d="M124.678 38.0645C124.678 42.7663 124.678 47.4682 124.678 52.1645C124.678 57.0998 121.146 63.1047 116.789 65.575C116.175 65.9225 115.56 66.27 114.945 66.6175L110.566 76.9604L106.187 71.5799C105.573 71.9274 104.958 72.2749 104.344 72.6223C104.167 72.7255 103.989 72.8178 103.812 72.8992C101.841 73.8711 100.075 73.9037 98.7578 73.1598C98.7246 73.1381 98.6914 73.1218 98.6526 73.1001C97.2852 72.2694 96.4437 70.5592 96.4437 68.1486C96.4437 63.4522 96.4437 58.7503 96.4437 54.054C96.4437 49.1133 99.9758 43.1084 104.338 40.6435C108.485 38.298 112.631 35.9471 116.778 33.5962C118.915 32.3854 120.853 32.2497 122.27 33.0044C122.297 33.0152 122.325 33.0369 122.353 33.0532C123.798 33.8622 124.678 35.5942 124.678 38.0645Z" fill="#FFC700"/>
<path d="M92.3691 69.5386C90.9408 68.7296 90.0605 66.9922 90.0605 64.5273C90.0605 59.8309 90.0605 55.1291 90.0605 50.4273C90.0605 45.492 93.5926 39.4871 97.9495 37.0168C102.096 34.6713 106.243 32.3204 110.389 29.964C112.57 28.7316 114.541 28.6176 115.97 29.4265C118.079 30.6156 120.183 31.81 122.286 33.0045C120.869 32.2444 118.931 32.3855 116.795 33.5963C112.648 35.9418 108.501 38.2927 104.355 40.6436C99.9979 43.1139 96.4603 49.1134 96.4603 54.0541C96.4603 58.7504 96.4603 63.4523 96.4603 68.1487C96.4603 70.5593 97.3018 72.2695 98.6692 73.1002C96.5655 71.9112 94.4673 70.7276 92.3691 69.5386Z" fill="#FFB000"/>
<path d="M106.193 71.58L110.572 76.9604L104.172 73.3336L103.823 72.8993C103.995 72.8179 104.178 72.7201 104.355 72.6224C104.964 72.2749 105.578 71.922 106.193 71.58Z" fill="#A68EFE"/>
<path d="M115.056 47.4085C113.39 45.9426 110.129 47.1099 107.771 50.0092C105.418 52.9139 104.859 56.4538 106.525 57.9198C107.97 59.1902 110.605 58.4844 112.814 56.3887L115.837 59.0436C116.18 59.3477 116.872 59.0871 117.381 58.4573C117.891 57.8329 118.024 57.0782 117.675 56.7742L114.652 54.1192C116.28 51.5023 116.501 48.679 115.056 47.4085ZM113.085 54.6784C111.297 56.8828 108.823 57.7677 107.56 56.6547C106.293 55.5417 106.719 52.8542 108.501 50.6499C110.29 48.4456 112.764 47.5606 114.027 48.6736C115.294 49.7866 114.874 52.4741 113.085 54.6784Z" fill="white"/>
<path d="M91.882 80.0987C94.5175 80.0987 96.6541 78.8881 96.6541 77.3949C96.6541 75.9016 94.5175 74.691 91.882 74.691C89.2464 74.691 87.1098 75.9016 87.1098 77.3949C87.1098 78.8881 89.2464 80.0987 91.882 80.0987Z" fill="#FFB000"/>
<path d="M314.601 68.1596C316.466 69.2129 316.466 70.9286 314.601 71.9819C312.735 73.0406 309.712 73.0406 307.852 71.9819C305.987 70.9286 305.987 69.2129 307.852 68.1596C309.718 67.1063 312.741 67.1063 314.601 68.1596Z" fill="#FFB000"/>
<path d="M96.787 91.4296L97.4735 92.4069C97.5288 92.4884 97.6395 92.5047 97.7669 92.4504L99.3059 91.7988C99.6215 91.6631 99.7488 91.978 99.5218 92.3255L98.4091 94.0249C98.315 94.166 98.2762 94.3126 98.2983 94.4267L98.5641 95.784C98.6194 96.0663 98.2873 96.4898 97.9994 96.5061L96.6209 96.5767C96.5102 96.5821 96.3718 96.6581 96.261 96.783L94.8825 98.2761C94.6002 98.5855 94.268 98.5367 94.3179 98.1946L94.5836 96.5387C94.6057 96.4029 94.5615 96.2998 94.4729 96.2672L93.3601 95.8329C93.1276 95.7406 93.2549 95.2899 93.576 95.0619L95.1151 93.9706C95.2424 93.8837 95.3531 93.7426 95.4085 93.596L96.095 91.8369C96.2334 91.4622 96.643 91.2288 96.787 91.4296Z" fill="#FFC773"/>
<path d="M104.598 87.0047L105.285 87.982C105.34 88.0634 105.451 88.0797 105.578 88.0254L107.117 87.3739C107.433 87.2382 107.56 87.5531 107.333 87.9006L106.221 89.6C106.126 89.7411 106.088 89.8877 106.11 90.0017L106.376 91.3591C106.431 91.6414 106.099 92.0649 105.811 92.0812L104.432 92.1517C104.322 92.1572 104.183 92.2332 104.073 92.3581L102.694 93.8511C102.412 94.1606 102.08 94.1117 102.129 93.7697L102.395 92.1137C102.417 91.978 102.373 91.8749 102.284 91.8423L101.172 91.4079C100.939 91.3156 101.066 90.865 101.387 90.637L102.927 89.5457C103.054 89.4588 103.165 89.3176 103.22 89.171L103.906 87.4119C104.045 87.0373 104.455 86.8038 104.598 87.0047Z" fill="#FFC773"/>
<path d="M112.415 82.5798L113.102 83.5571C113.157 83.6386 113.268 83.6548 113.395 83.6005L114.934 82.949C115.25 82.8133 115.377 83.1282 115.15 83.4757L114.038 85.1751C113.943 85.3162 113.905 85.4628 113.927 85.5768L114.193 86.9342C114.248 87.2165 113.916 87.64 113.628 87.6563L112.249 87.7269C112.139 87.7323 112 87.8083 111.89 87.9332L110.511 89.4263C110.229 89.7357 109.897 89.6869 109.946 89.3448L110.212 87.6889C110.234 87.5531 110.19 87.45 110.101 87.4174L108.989 86.983C108.756 86.8907 108.883 86.4401 109.204 86.2121L110.744 85.1208C110.871 85.0285 110.982 84.8927 111.037 84.7461L111.723 82.987C111.862 82.607 112.272 82.3735 112.415 82.5798Z" fill="#FFC773"/>
<path d="M120.227 78.1494L120.913 79.1267C120.969 79.2081 121.079 79.2244 121.207 79.1701L122.746 78.5186C123.061 78.3828 123.189 78.6977 122.962 79.0452L121.849 80.7446C121.755 80.8858 121.716 81.0324 121.738 81.1464L122.004 82.5037C122.059 82.7861 121.727 83.2095 121.439 83.2258L120.061 83.2964C119.95 83.3018 119.812 83.3778 119.701 83.5027L118.322 84.9958C118.04 85.3053 117.708 85.2564 117.758 84.9144L118.024 83.2584C118.046 83.1227 118.001 83.0195 117.913 82.9869L116.8 82.5526C116.568 82.4603 116.695 82.0097 117.016 81.7816L118.555 80.6903C118.682 80.6034 118.793 80.4623 118.848 80.3157L119.535 78.5566C119.673 78.182 120.083 77.9485 120.227 78.1494Z" fill="#979797"/>
<path d="M128.038 73.7246L128.725 74.7018C128.78 74.7833 128.891 74.7996 129.018 74.7453L130.557 74.0938C130.873 73.958 131 74.2729 130.773 74.6204L129.661 76.3198C129.566 76.461 129.528 76.6075 129.55 76.7216L129.816 78.0789C129.871 78.3612 129.539 78.7847 129.251 78.801L127.872 78.8716C127.762 78.877 127.623 78.953 127.513 79.0779L126.134 80.571C125.852 80.8804 125.52 80.8316 125.569 80.4895L125.835 78.8336C125.857 78.6978 125.813 78.5947 125.724 78.5621L124.612 78.1278C124.379 78.0355 124.506 77.5848 124.827 77.3568L126.367 76.2655C126.494 76.1732 126.605 76.0375 126.66 75.8909L127.346 74.1318C127.485 73.7571 127.9 73.5237 128.038 73.7246Z" fill="#979797"/>
<path d="M211.667 14.1158C211.667 18.0032 211.667 21.8906 211.667 25.7781C211.667 29.8609 214.585 34.8234 218.189 36.8648C218.698 37.1525 219.202 37.4403 219.711 37.7281L223.332 46.2793L226.953 41.8326C227.462 42.1204 227.971 42.4082 228.475 42.6959C228.625 42.7774 228.768 42.8588 228.912 42.9239C230.54 43.7275 232.007 43.7546 233.092 43.1411C233.12 43.1248 233.148 43.1085 233.175 43.0923C234.305 42.4027 235.002 40.9911 235.002 38.9985C235.002 35.1111 235.002 31.2291 235.002 27.3417C235.002 23.2588 232.079 18.291 228.475 16.2496C225.048 14.3058 221.616 12.3621 218.189 10.4239C216.423 9.42486 214.817 9.31085 213.649 9.93522C213.627 9.94608 213.599 9.96237 213.577 9.97323C212.393 10.641 211.667 12.0798 211.667 14.1158Z" fill="#FFC700"/>
<path d="M238.385 40.1441C239.564 39.4762 240.295 38.0375 240.295 36.0015C240.295 32.114 240.295 28.2321 240.295 24.3392C240.295 20.2563 237.377 15.2939 233.773 13.2525C230.346 11.3088 226.914 9.36507 223.487 7.42137C221.682 6.40065 220.055 6.30835 218.875 6.97616C217.132 7.95887 215.393 8.94701 213.649 9.93515C214.823 9.31078 216.423 9.41937 218.189 10.4238C221.616 12.3675 225.048 14.3112 228.475 16.2495C232.079 18.2909 235.002 23.2533 235.002 27.3416C235.002 31.2291 235.002 35.111 235.002 38.9985C235.002 40.991 234.305 42.4027 233.175 43.0922C234.914 42.1095 236.646 41.1322 238.385 40.1441Z" fill="#FFB000"/>
<path d="M226.953 41.8325L223.332 46.2792L228.625 43.2822L228.912 42.9238C228.768 42.8532 228.619 42.7772 228.475 42.6958C227.971 42.408 227.462 42.1203 226.953 41.8325Z" fill="#FFB000"/>
<path d="M222.474 21.9774C222.358 21.9123 222.252 21.896 222.169 21.9286L221.865 22.0534L220.21 21.1142C219.573 20.7558 219.025 20.9078 218.936 21.4779L218.787 22.4118L219.656 22.9058L219.789 22.0806C219.817 21.8906 219.999 21.8417 220.215 21.9611L222.048 22.9981C222.164 23.0633 222.269 23.0796 222.352 23.047L222.657 22.9221L224.018 23.6931L224.323 24.1655C224.406 24.2903 224.511 24.3935 224.627 24.4586L226.46 25.4956C226.67 25.6151 226.859 25.8757 226.886 26.0983L227.019 27.0756L227.888 27.5697L227.739 26.4621C227.65 25.7888 227.102 25.0124 226.465 24.6541L224.81 23.7148L224.506 23.2425C224.428 23.1176 224.317 23.0144 224.201 22.9493L222.474 21.9774ZM218.178 22.9113C217.94 22.7755 217.746 22.857 217.746 23.0904V23.932C217.746 24.1655 217.94 24.4641 218.178 24.5944L218.25 24.6378L218.92 28.9487C218.986 29.3939 219.346 29.8934 219.767 30.1323L226.897 34.1717C227.318 34.4106 227.678 34.3129 227.744 33.9491L228.414 30.3983L228.486 30.4364C228.724 30.5721 228.918 30.4906 228.918 30.2572V29.4156C228.918 29.1822 228.724 28.8836 228.486 28.7533L218.178 22.9113ZM225.48 29.155C225.718 29.2908 225.912 29.5894 225.912 29.8174V31.924C225.912 32.1575 225.718 32.2389 225.48 32.1032C225.242 31.9674 225.048 31.6688 225.048 31.4408V29.3342C225.048 29.1007 225.242 29.0247 225.48 29.155ZM223.332 27.9389C223.57 28.0746 223.764 28.3732 223.764 28.6012V30.7078C223.764 30.9413 223.57 31.0173 223.332 30.887C223.094 30.7513 222.9 30.4526 222.9 30.2246V28.118C222.906 27.8846 223.094 27.8085 223.332 27.9389ZM221.184 26.7227C221.422 26.8584 221.616 27.157 221.616 27.3851V29.4916C221.616 29.7251 221.422 29.8011 221.184 29.6708C220.946 29.5351 220.752 29.2365 220.752 29.0084V26.9018C220.758 26.6684 220.951 26.5869 221.184 26.7227Z" fill="#FBFAFC"/>
<path d="M248.09 143.676L220.724 159.172C218.023 160.703 213.638 160.703 210.937 159.172L160.685 130.716C157.983 129.185 157.983 126.704 160.685 125.173L188.05 109.678C190.752 108.147 195.136 108.147 197.838 109.678L248.09 138.133C250.791 139.664 250.791 142.145 248.09 143.676Z" fill="#CDC3E2"/>
<path d="M256.228 158.46C255.586 157.337 253.797 156.566 252.48 156.316C250.764 155.985 249.042 156.283 247.807 156.978C246.855 157.516 246.379 158.135 246.379 158.83C246.379 159.09 246.379 159.356 246.379 159.617C246.379 160.567 247.331 161.284 248.167 161.756C249.341 162.424 251.057 162.82 252.779 162.587C254.063 162.413 255.696 161.783 256.278 160.654C256.388 160.442 256.444 160.225 256.444 160.008C256.444 159.747 256.444 159.481 256.444 159.215C256.444 158.971 256.372 158.716 256.228 158.46ZM252.347 155.339L259.317 159.286L260.175 158.802V158.01L258.431 157.022L262.445 157.51L263.502 156.913V156.12L258.221 155.529C258.265 153.883 258.259 154.367 258.259 153.373L257.152 154.003C257.152 154.996 257.147 154.486 257.169 156.31L253.205 154.063L252.352 154.546V155.339H252.347ZM266.813 163.901C261.775 167.164 254.013 167.717 248.095 166.186C245.238 165.448 242.028 164.009 240.19 161.729C238.169 159.22 238.302 156.462 240.178 154.144C244.796 148.416 258.127 147.032 266.065 151.5C266.071 151.5 266.071 151.505 266.076 151.505C267.294 152.189 268.429 153.042 269.304 154.122C272.116 157.619 270.683 161.398 266.813 163.901Z" fill="#AA9BC3"/>
<path d="M235.196 157.005C236.071 158.091 237.211 158.944 238.429 159.628C243.882 162.701 251.998 163.043 258.032 160.974C260.352 160.182 262.788 158.873 264.316 156.989C265.207 155.887 265.766 154.638 265.772 153.205H265.778C265.778 154.568 265.778 155.93 265.778 157.293C265.778 160.605 262.755 163.054 259.677 164.433C253.858 167.033 245.632 167.033 239.808 164.422C236.735 163.037 233.734 160.594 233.734 157.293C233.734 155.936 233.734 154.584 233.734 153.227H233.74C233.734 154.638 234.327 155.925 235.196 157.005Z" fill="#B4AAD1"/>
<path d="M258.509 151.402V152.195L257.451 152.787V151.999L258.509 151.402Z" fill="#E9A50E"/>
<path d="M257.451 152V152.787L253.438 152.304L253.199 152.168V151.484L257.451 152Z" fill="#E9A50E"/>
<path d="M255.176 153.286V154.079L254.323 154.562V153.775L255.176 153.286Z" fill="#E9A50E"/>
<path d="M254.336 153.747L254.342 154.534L247.341 150.643L247.334 149.85L254.336 153.747Z" fill="#E9A50E"/>
<path d="M255.176 153.286L254.318 153.769L247.348 149.822L248.2 149.339L252.164 151.581C252.181 151.592 252.175 151.766 252.148 149.274L253.255 148.644L253.199 150.8C253.626 150.838 251.71 150.631 258.503 151.397L257.446 151.994L253.194 151.478L253.172 152.146C253.211 152.173 253.349 152.249 255.176 153.286Z" fill="#FFB000"/>
<path d="M251.234 153.737C250.592 152.613 248.804 151.842 247.486 151.592C245.77 151.261 244.048 151.56 242.814 152.255C241.861 152.792 241.385 153.411 241.385 154.106C241.385 154.367 241.385 154.633 241.385 154.893C241.385 155.844 242.338 156.56 243.174 157.033C244.347 157.7 246.063 158.097 247.785 157.863C249.07 157.689 250.703 157.06 251.284 155.93C251.395 155.719 251.45 155.501 251.45 155.284C251.45 155.024 251.45 154.758 251.45 154.492C251.45 154.242 251.378 153.992 251.234 153.737ZM247.353 150.615L254.323 154.562L255.181 154.079V153.286L253.438 152.298L257.451 152.787L258.509 152.19V151.397L253.227 150.805C253.271 149.16 253.266 149.643 253.266 148.65L252.159 149.279C252.159 150.273 252.153 149.763 252.175 151.587L248.211 149.345L247.359 149.828V150.615H247.353ZM261.819 159.172C256.781 162.435 249.02 162.989 243.102 161.457C240.245 160.719 237.034 159.28 235.196 157C233.175 154.492 233.308 151.734 235.185 149.415C239.802 143.687 253.133 142.303 261.072 146.771C261.077 146.771 261.077 146.777 261.083 146.777C262.301 147.461 263.436 148.313 264.31 149.393C267.123 152.89 265.683 156.674 261.819 159.172Z" fill="#ECE7F2"/>
<path d="M250.215 154.643C250.249 153.9 249.463 153.33 248.809 152.955C246.921 151.885 244.901 151.978 243.616 152.7C242.963 153.069 242.625 153.514 242.603 154.035C242.576 154.73 243.528 155.36 244.142 155.708C245.908 156.707 247.935 156.631 249.23 155.898C249.734 155.615 250.188 155.214 250.215 154.643ZM251.45 154.497C251.45 155.284 250.725 155.947 250.022 156.343C248.012 157.478 245.144 157.358 243.173 156.24C242.332 155.762 241.385 155.051 241.385 154.101C241.385 153.406 241.861 152.792 242.814 152.249C244.74 151.158 247.541 151.158 249.761 152.412C250.548 152.863 251.45 153.601 251.45 154.497Z" fill="#FFB000"/>
<path d="M248.804 153.742C249.529 154.15 249.972 154.568 250.138 154.991C249.673 156.175 246.783 157.201 244.137 155.708C243.345 155.257 242.858 154.834 242.681 154.427C243.168 153.205 246.025 152.162 248.804 153.742Z" fill="#ECE7F2"/>
<path d="M250.21 154.513C250.221 154.655 250.199 154.834 250.138 154.997C249.972 154.573 249.529 154.155 248.804 153.748C246.03 152.173 243.168 153.205 242.681 154.432C242.62 154.302 242.592 154.171 242.598 154.041C242.62 153.52 242.958 153.075 243.611 152.705C244.895 151.978 246.916 151.891 248.804 152.961C249.706 153.46 250.171 153.981 250.21 154.513Z" fill="#E9A50E"/>
<path d="M243.179 156.24C245.133 157.347 248.001 157.483 250.027 156.343C250.73 155.947 251.455 155.279 251.455 154.497C251.455 154.763 251.455 155.024 251.455 155.29C251.455 155.507 251.4 155.724 251.289 155.936C250.708 157.06 249.08 157.689 247.791 157.869C246.08 158.102 244.364 157.711 243.179 157.038C242.343 156.566 241.391 155.849 241.391 154.899C241.391 154.638 241.391 154.372 241.391 154.111C241.391 155.051 242.337 155.767 243.179 156.24Z" fill="#E9A50E"/>
<path d="M196.21 98.3359L211.994 88.9649L210.184 88.1776L194.201 97.25L196.21 98.3359Z" fill="#E1DFEA"/>
<path d="M187.358 93.0099L203.147 83.6442L201.337 82.8516L185.349 91.924L187.358 93.0099Z" fill="#E1DFEA"/>
<path d="M173.291 76.1136L174.548 85.3435L182.536 81.3747L173.291 76.1136Z" fill="#F8AB01"/>
<path d="M169.737 44.5856V70.4564C170.44 70.8582 185.653 79.404 185.653 79.404L191.588 76.2495L192.009 50.5362V39.0042V35.3557V31.9786L169.737 44.5856Z" fill="#F8AB01"/>
<path d="M168.701 9.49537C171.06 11.1785 173.158 14.2949 173.916 17.3734C174.929 21.4345 175.943 25.4957 176.95 29.5568L179.464 28.1343C178.517 24.3338 177.57 20.5278 176.624 16.7273C175.727 13.1059 173.302 9.40308 170.346 7.29649C168.757 6.15632 167.168 5.02159 165.573 3.876C165.573 3.876 165.573 3.876 165.568 3.876C161.399 0.840991 154.374 0.298056 150.067 2.7847C150.067 2.7847 150.067 2.7847 150.061 2.7847C146.49 4.80442 142.925 6.82413 139.354 8.84928C135.789 10.869 132.218 12.8887 128.653 14.9084C128.653 14.9084 128.653 14.9084 128.647 14.9084C126.45 16.1246 124.905 18.2203 125.032 20.669C125.149 22.9113 126.621 24.855 128.454 26.1472C128.454 26.1472 128.459 26.1526 128.465 26.158C130.059 27.2982 131.642 28.4384 133.237 29.5785C135.573 31.2399 137.682 34.3401 138.452 37.4511C139.736 42.5981 141.021 47.7506 142.305 52.903C142.305 52.8867 142.394 52.8813 142.41 52.8813C142.742 52.8704 143.263 52.979 143.584 53.055C144.038 53.1636 144.392 53.2776 144.619 53.2016C144.957 53.093 145.079 52.5773 144.996 52.1918C144.929 51.9257 144.863 51.6597 144.796 51.3937C143.584 46.529 142.371 41.6697 141.159 36.805C140.262 33.1728 137.826 29.47 134.881 27.3688C133.287 26.2286 131.698 25.0885 130.109 23.9483C128.73 22.9764 127.529 21.4291 127.878 19.8166C128.121 18.7144 129.046 17.8294 130.042 17.2756H130.048C133.619 15.2505 137.19 13.2308 140.755 11.211C144.326 9.19133 147.897 7.17161 151.462 5.14646H151.467C154.728 3.26248 160.536 3.60996 163.924 6.08031C165.518 7.20962 167.107 8.35521 168.701 9.49537Z" fill="#E1DFEA"/>
<path d="M151.993 50.965C151.44 51.2799 150.886 51.5893 150.332 51.9042C150.654 54.6081 150.975 57.3064 151.296 60.0103C151.927 60.3686 152.558 60.7269 153.195 61.0853C152.79 57.7136 152.392 54.3366 151.993 50.965Z" fill="#E1DFEA"/>
<path d="M155.276 77.8456C154.628 77.4764 153.975 77.1126 153.322 76.7434C153.693 78.3288 154.59 79.8653 155.697 80.9566C155.559 79.9141 155.415 78.8771 155.276 77.8456Z" fill="#E1DFEA"/>
<path d="M160.071 58.6637C158.21 59.717 156.356 60.7703 154.496 61.8236C155.57 62.4317 156.644 63.0397 157.718 63.6478C158.504 63.2026 159.29 62.7574 160.076 62.3122V58.6637H160.071Z" fill="#E1DFEA"/>
<path d="M154.534 72.3621C154.247 70.223 153.953 68.0838 153.66 65.9392C153.139 66.2324 152.619 66.5256 152.104 66.8188C152.342 68.8113 152.58 70.8039 152.813 72.7965C153.455 73.1602 154.097 73.524 154.739 73.8878C154.673 73.3828 154.601 72.8725 154.534 72.3621Z" fill="#E1DFEA"/>
<path d="M158.166 86.0493C158.21 86.3751 158.327 86.7551 158.57 86.9832C158.93 87.3198 159.484 87.2329 159.943 87.0483C162.407 85.6856 161.748 86.0548 162.988 85.3544C161.217 84.3499 159.445 83.3455 157.668 82.3411C157.828 83.579 158 84.8169 158.166 86.0493ZM171.851 88.3894V88.6283L173.335 89.4644C173.418 90.0996 173.507 90.7294 173.59 91.3647C170.639 89.6924 167.694 88.0256 164.743 86.3534C164.079 86.728 163.409 87.1081 162.744 87.4881C162.307 87.8139 160.469 88.7423 159.932 88.8563C159.821 88.8835 159.716 88.8997 159.611 88.9106C157.923 89.1278 156.649 88.031 156.422 86.2774C156.184 84.502 155.941 82.732 155.697 80.9566C155.559 79.9196 155.415 78.8826 155.276 77.8456C155.918 78.2093 156.561 78.5731 157.197 78.9315C157.253 79.3224 157.302 79.7133 157.358 80.1042C157.557 80.2671 157.762 80.4137 157.978 80.5331C160.231 81.809 162.484 83.0849 164.738 84.3608C165.081 84.1653 165.418 83.9753 165.762 83.7799C166.349 84.111 166.935 84.4422 167.517 84.7734C167.173 84.9635 166.836 85.1589 166.492 85.3544C168.281 86.3697 170.069 87.3795 171.851 88.3894Z" fill="#E1DFEA"/>
<path d="M155.315 75.9073C155.658 76.0159 156.151 75.7824 156.433 75.5815C156.577 75.4784 156.721 75.3481 156.694 75.2123C156.682 75.1363 156.671 75.0603 156.66 74.9789C156.256 71.9873 155.846 68.9957 155.442 66.0096C154.8 65.6458 154.163 65.282 153.521 64.9237C153.566 65.2658 153.615 65.6024 153.66 65.9444C153.948 68.0836 154.241 70.2228 154.534 72.3673C154.601 72.8777 154.673 73.3881 154.739 73.8984C154.811 74.4142 154.878 74.9246 154.95 75.4403C154.95 75.4512 154.95 75.4621 154.955 75.4675C154.983 75.663 155.11 75.8421 155.315 75.9073Z" fill="#E1DFEA"/>
<path d="M160.07 68.6265V76.9062C163.293 78.7305 166.515 80.5602 169.742 82.379V74.0992C166.515 72.275 163.293 70.4562 160.07 68.6265Z" fill="#FCFF73"/>
<path d="M160.07 62.3123V64.9781C163.293 66.8023 166.515 68.6266 169.742 70.4509V44.5855L160.07 39.1127V42.7449V46.3934V58.6692V62.3123Z" fill="#FCFF73"/>
<path d="M160.07 39.1127L169.737 44.5855L192.003 31.9785L182.337 26.5057L179.464 28.1291L176.95 29.5516L160.07 39.1127Z" fill="#FFBD2B"/>
<path d="M161.178 39.1127L182.337 27.1301L190.896 31.9785L169.737 43.9611L161.178 39.1127Z" fill="#FCFF73"/>
<path d="M162.994 130.651C163.702 130.255 164.405 129.853 165.114 129.457C165.441 129.272 165.701 128.99 165.889 128.664C166.426 127.752 166.376 126.454 166.138 125.423C165.352 124.978 164.571 124.532 163.785 124.087L163.818 126.145C164.483 128.344 164.045 129.994 162.994 130.651Z" fill="#1A293B"/>
<path d="M155.952 123.463C155.952 125.906 157.629 128.876 159.783 130.25C161.067 131.069 162.202 131.135 162.994 130.646C164.051 129.989 164.483 128.339 163.818 126.145L163.846 127.844L163.525 128.034L156.223 123.908L156.19 122.046C156.018 122.486 155.952 122.98 155.952 123.463Z" fill="#3F4F5D"/>
<path d="M164.278 121.791C164.566 121.481 165.042 121.134 165.468 121.155C165.59 121.161 165.717 121.193 165.823 121.253L165.828 121.242C163.398 119.863 160.962 118.484 158.532 117.111C158.299 116.98 158.006 117.018 157.734 117.121C157.679 117.143 157.624 117.165 157.574 117.192C156.865 117.55 156.134 118.652 156.151 119.603V119.771L156.19 122.046L156.223 123.908L163.52 128.04L163.448 123.734C163.437 123.045 163.807 122.29 164.278 121.791Z" fill="#FFB000"/>
<path d="M165.463 121.15C165.036 121.134 164.566 121.476 164.272 121.785C163.802 122.285 163.431 123.045 163.442 123.729L163.514 128.035L163.835 127.844L163.807 126.145L163.774 124.087L163.763 123.295C163.796 123.061 163.813 122.958 163.924 122.725C164.14 122.247 164.555 121.742 165.042 121.568C165.38 121.449 165.529 121.552 165.618 121.584C165.618 121.584 165.618 121.584 165.623 121.584C165.823 121.698 166.022 121.812 166.221 121.921C166.193 121.731 166.138 121.53 166.005 121.384C165.955 121.329 165.895 121.28 165.823 121.248C165.712 121.188 165.585 121.156 165.463 121.15Z" fill="#9B346C"/>
<path d="M169.737 74.1047V82.3845C170.44 82.7808 171.143 83.1826 171.851 83.5789V78.5622C171.691 77.3841 171.53 76.2059 171.37 75.0277C170.827 74.7183 170.279 74.4088 169.737 74.1047Z" fill="#F8AB01"/>
<path d="M171.851 78.5623V83.579C172.101 83.7201 172.344 83.8559 172.588 83.997C172.344 82.1836 172.095 80.3757 171.851 78.5623Z" fill="#D2448D"/>
<path d="M184.352 106.067V107.978L191.649 112.11V107.739C190.968 107.327 190.564 106.545 190.569 105.524C190.569 105.524 190.569 105.524 190.569 105.519C190.569 104.786 190.575 104.053 190.575 103.32C189.29 102.592 188.006 101.865 186.722 101.137C186.489 101.007 186.19 101.045 185.924 101.148C185.875 101.165 185.819 101.192 185.769 101.213C185.066 101.566 184.341 102.658 184.341 103.597V103.792V106.067H184.352Z" fill="#FFB000"/>
<path d="M176.419 97.0927C176.867 97.5216 177.642 97.2773 178.179 96.9678C179.015 96.4954 180.045 95.9145 180.831 95.4639C179.059 94.4594 177.282 93.455 175.511 92.4506C175.682 93.683 175.849 94.9209 176.015 96.1534C176.053 96.4846 176.175 96.8646 176.419 97.0927ZM184.562 95.5887C186.572 96.7235 188.576 97.8636 190.586 98.9984C190.586 99.6607 190.58 100.323 190.58 100.986C187.917 99.4762 185.254 97.9668 182.586 96.4574C181.412 97.1252 180.233 97.7931 179.054 98.4554C176.734 99.7856 174.57 98.7486 174.265 96.376C174.038 94.7038 173.811 93.0315 173.584 91.3593C173.501 90.724 173.413 90.0942 173.33 89.459C173.263 88.9541 173.191 88.4491 173.125 87.9442C173.767 88.308 174.409 88.6717 175.046 89.0301C175.112 89.535 175.184 90.0399 175.251 90.5449L184.352 95.6973L184.562 95.5887Z" fill="#E1DFEA"/>
<path d="M193.254 113.511C193.559 113.337 193.813 113.076 194.002 112.778C194.583 111.844 194.522 110.47 194.262 109.406C193.498 108.972 192.734 108.543 191.97 108.109V110.242C192.634 112.468 192.164 114.13 191.067 114.749C191.804 114.336 192.529 113.929 193.254 113.511Z" fill="#1A293B"/>
<path d="M191.97 107.902C191.854 107.859 191.748 107.805 191.643 107.745V112.116L191.97 111.931V110.248V108.114V107.902Z" fill="#9B346C"/>
<path d="M191.97 111.926L191.643 112.11L184.347 107.979V106.067C184.164 106.523 184.092 107.034 184.092 107.528C184.092 109.966 185.764 112.936 187.912 114.315C189.163 115.118 190.276 115.205 191.062 114.754C192.158 114.135 192.623 112.474 191.964 110.248V111.926H191.97Z" fill="#3F4F5D"/>
<path d="M194.013 105.269C193.453 104.954 192.889 104.634 192.33 104.319C192.33 104.721 192.33 105.123 192.33 105.53V105.535V105.541C192.33 105.552 192.33 105.568 192.33 105.584C192.33 105.693 192.341 105.823 192.374 105.948C192.629 105.649 193.005 105.324 193.393 105.231C193.597 105.172 193.83 105.172 194.013 105.269Z" fill="#D2448D"/>
<path d="M193.847 105.633C193.703 105.541 193.52 105.524 193.332 105.573C193 105.655 192.695 105.915 192.479 106.181C192.49 106.203 192.507 106.219 192.523 106.236C192.579 106.29 192.64 106.328 192.8 106.339C193.193 106.371 193.708 106.149 194.051 105.953C194.112 105.921 194.173 105.883 194.234 105.85C194.107 105.774 193.979 105.704 193.847 105.633Z" fill="#E1DFEA"/>
<path d="M193.841 140.94C193.824 139.995 194.555 138.882 195.258 138.529C195.308 138.502 195.363 138.481 195.419 138.459C185.686 132.948 175.948 127.437 166.216 121.926C166.016 121.812 165.817 121.698 165.618 121.59C165.618 121.59 165.618 121.59 165.612 121.59C165.524 121.557 165.374 121.454 165.037 121.574C164.549 121.747 164.134 122.252 163.918 122.73C163.813 122.969 163.796 123.072 163.758 123.3L163.769 124.093C164.555 124.538 165.335 124.983 166.122 125.428C175.356 130.657 184.596 135.885 193.83 141.119L193.841 140.94Z" fill="#E1DFEA"/>
<path d="M190.569 105.524C190.569 104.786 190.575 104.053 190.575 103.32C190.575 102.544 190.575 101.767 190.58 100.985C190.58 100.323 190.586 99.6607 190.586 98.9983C190.586 98.6128 190.586 98.2273 190.586 97.8364C191.173 98.1676 191.754 98.4988 192.341 98.83C192.341 99.2155 192.341 99.601 192.341 99.9919C194.378 101.148 196.421 102.299 198.458 103.456C198.801 103.26 199.145 103.07 199.482 102.875C200.124 103.228 200.861 103.478 201.652 103.64C201.171 103.912 200.695 104.183 200.213 104.455C202.832 105.937 205.456 107.419 208.069 108.901C208.606 109.211 209.381 109.45 209.829 109.026C210.067 108.798 210.189 108.424 210.233 108.098C210.372 107.088 210.51 106.084 210.649 105.074C210.837 103.711 211.02 102.348 211.208 100.985C211.85 100.622 212.492 100.258 213.134 99.8996C212.902 101.572 212.675 103.239 212.448 104.911C212.293 106.051 212.132 107.191 211.977 108.331C211.662 110.726 209.481 111.719 207.189 110.405C204.277 108.76 201.37 107.11 198.453 105.459C197.628 105.926 196.808 106.388 195.983 106.855C195.629 107.055 195.275 107.256 194.926 107.457C193.78 108.114 192.745 108.217 191.97 107.919C191.853 107.875 191.748 107.821 191.643 107.761C190.968 107.332 190.564 106.551 190.569 105.524ZM194.383 105.763C195.159 105.329 195.928 104.889 196.703 104.449C195.247 103.624 193.797 102.804 192.341 101.979C192.341 102.755 192.335 103.532 192.335 104.314C192.335 104.715 192.335 105.117 192.335 105.524V105.53V105.535C192.335 105.546 192.335 105.562 192.335 105.579C192.335 105.687 192.346 105.818 192.379 105.942C192.402 106.035 192.435 106.116 192.485 106.187C192.496 106.208 192.512 106.225 192.529 106.241C192.584 106.295 192.645 106.333 192.806 106.344C193.199 106.377 193.714 106.154 194.057 105.959C194.118 105.926 194.179 105.888 194.24 105.856C194.284 105.823 194.334 105.796 194.383 105.763Z" fill="#E1DFEA"/>
<path d="M192.479 106.181C192.695 105.915 192.999 105.655 193.332 105.573C193.52 105.524 193.703 105.541 193.847 105.633C193.974 105.709 194.101 105.78 194.234 105.85C194.284 105.823 194.334 105.796 194.378 105.769C194.323 105.573 194.195 105.378 194.018 105.275C194.013 105.275 194.013 105.269 194.007 105.269C193.824 105.171 193.592 105.171 193.387 105.22C192.999 105.318 192.617 105.638 192.368 105.937C192.396 106.029 192.429 106.116 192.479 106.181Z" fill="#9B346C"/>
<path d="M195.314 40.8772C194.987 43.657 193.016 62.2254 192.689 65.0052L194.3 65.9934C194.55 63.8814 196.725 43.9285 196.974 41.8219C196.421 41.5016 195.867 41.1921 195.314 40.8772Z" fill="#E1DFEA"/>
<path d="M200.794 152.124C201.525 151.717 202.25 151.305 202.976 150.892C203.872 150.387 204.171 149.307 204.171 148.297C204.171 147.51 203.994 146.695 203.729 145.946C203.014 145.908 202.25 145.729 201.47 145.381L201.497 147.048C201.796 147.819 201.99 148.709 201.99 149.529C201.996 150.881 201.503 151.723 200.794 152.124Z" fill="#1A293B"/>
<path d="M193.891 144.062C193.381 146.706 195.452 150.604 198.115 151.962C198.597 152.206 199.128 152.391 199.671 152.396C200.075 152.402 200.457 152.315 200.794 152.125C201.503 151.723 201.996 150.881 201.996 149.535C201.996 148.715 201.796 147.825 201.503 147.054L201.542 149.193L201.221 149.383L193.924 145.251L193.891 144.062Z" fill="#3F4F5D"/>
<path d="M201.47 145.381C202.25 145.729 203.014 145.908 203.728 145.946C206.563 146.093 208.705 143.943 208.678 140.484C208.678 140.484 208.678 140.484 208.678 140.479C208.678 140.414 208.678 140.343 208.678 140.278C208.678 140.278 208.678 140.278 208.678 140.272C208.694 136.852 206.64 132.91 203.989 130.624C191.455 119.722 178.921 108.82 166.382 97.918C164.167 96.0069 162.733 92.847 162.744 90.5667C162.744 89.5405 162.744 88.5089 162.744 87.4828C162.307 87.8085 160.469 88.737 159.932 88.851C159.821 88.8781 159.716 88.8944 159.611 88.9053C159.611 89.4591 159.611 90.0074 159.611 90.5612C159.594 93.7591 161.455 97.7551 164.3 100.215C176.834 111.117 189.373 122.019 201.907 132.921C204.077 134.794 205.555 137.943 205.544 140.272C205.544 140.343 205.544 140.414 205.544 140.479V140.484C205.555 141.38 205.301 142.607 204.387 142.835C204.199 142.878 203.994 142.884 203.789 142.862C203.551 142.84 203.313 142.781 203.103 142.71L203.097 142.705C202.201 143.085 201.68 143.747 201.503 144.491C201.47 144.616 201.459 144.746 201.459 144.876L201.47 145.381Z" fill="#E1DFEA"/>
<path d="M203.789 142.873C203.723 142.753 203.629 142.656 203.513 142.585C203.474 142.563 203.43 142.542 203.391 142.525C203.164 142.449 202.904 142.504 202.677 142.601C202.278 142.77 201.985 143.068 201.741 143.41C201.387 143.904 201.127 144.485 201.138 145.072L201.215 149.377L201.536 149.187L201.497 147.048L201.47 145.381L201.459 144.882C201.459 144.751 201.47 144.621 201.503 144.496C201.68 143.752 202.201 143.09 203.097 142.71L203.103 142.715C203.313 142.791 203.551 142.851 203.789 142.873Z" fill="#9B346C"/>
<path d="M203.391 142.525C203.435 142.542 203.474 142.558 203.513 142.585C201.077 141.206 198.646 139.832 196.216 138.453C195.983 138.323 195.69 138.361 195.419 138.464C195.363 138.486 195.308 138.508 195.258 138.535C194.555 138.893 193.824 140.001 193.841 140.945V141.114L193.891 144.062L193.913 145.251L201.21 149.383L201.132 145.077C201.121 144.491 201.381 143.91 201.736 143.416C201.985 143.074 202.273 142.775 202.671 142.607C202.904 142.504 203.158 142.449 203.391 142.525Z" fill="#FFB000"/>
<path d="M211.811 63.6315C211.734 63.5338 211.701 63.4035 211.712 63.2895C211.712 63.284 211.712 63.2786 211.712 63.2732C211.745 63.0071 211.773 62.7357 211.806 62.4696C211.058 62.0462 195.247 53.7935 194.494 53.3646V55.7318L208.573 63.4252C209.47 63.4144 211.363 63.8216 212.243 63.941L212.26 63.8324C212.077 63.8216 211.916 63.7618 211.811 63.6315Z" fill="#E1DFEA"/>
<path d="M212.249 63.9409C213.633 64.1201 214.972 64.4512 216.185 64.9507C215.282 64.435 214.369 63.9246 213.467 63.4088C213.467 63.4305 213.461 63.4468 213.461 63.4685C213.461 63.4957 213.444 63.5174 213.406 63.5445C213.356 63.5771 213.278 63.6151 213.223 63.6368C212.963 63.7454 212.581 63.854 212.271 63.8377L212.249 63.9409Z" fill="#E1DFEA"/>
<path d="M213.467 63.409C213.921 59.5813 214.369 55.7482 214.817 51.9205C214.264 51.6056 213.71 51.2961 213.157 50.9812C212.703 54.8089 212.254 58.642 211.806 62.4697C211.772 62.7357 211.745 63.0072 211.712 63.2732C211.712 63.2787 211.712 63.2841 211.712 63.2895C211.701 63.409 211.734 63.5338 211.811 63.6316C211.911 63.7619 212.077 63.8216 212.265 63.8325C212.581 63.8542 212.957 63.7402 213.217 63.6316C213.273 63.6099 213.35 63.5719 213.4 63.5393C213.439 63.5121 213.455 63.4904 213.455 63.4633C213.461 63.447 213.467 63.4307 213.467 63.409Z" fill="#E1DFEA"/>
<path d="M220.73 90.8489C220.73 91.2181 220.73 91.5818 220.73 91.9456C221.25 91.6524 221.776 91.3538 222.297 91.0606C222.352 90.6643 222.407 90.2679 222.463 89.8716C221.881 90.1919 221.306 90.5177 220.73 90.8489Z" fill="#E1DFEA"/>
<path d="M222.042 124.94C222.042 123.995 222.767 122.909 223.47 122.556C223.52 122.529 223.57 122.507 223.625 122.491V122.486C214.413 117.273 205.207 112.056 196 106.844C195.646 107.045 195.291 107.245 194.943 107.446C193.797 108.103 192.761 108.206 191.986 107.908V108.114C192.75 108.548 193.514 108.977 194.278 109.412C203.54 114.656 212.797 119.901 222.059 125.141V124.94H222.042Z" fill="#E1DFEA"/>
<path d="M226.56 84.9581C226.299 86.0059 225.53 87.3741 224.428 88.4654C224.362 88.9649 224.29 89.4699 224.223 89.9694C225.02 89.5187 225.818 89.0627 226.62 88.612C227.34 87.6728 227.988 86.5 228.27 85.3761C228.863 83.0578 229.455 80.7395 230.042 78.4211C229.333 78.8175 228.63 79.2193 227.927 79.6156C227.467 81.3964 227.013 83.1772 226.56 84.9581Z" fill="#E1DFEA"/>
<path d="M231.121 134.951C232.007 134.457 232.323 133.382 232.323 132.356C232.323 131.781 232.228 131.189 232.073 130.619C232.013 130.402 231.946 130.184 231.869 129.973C231.171 129.929 230.429 129.745 229.671 129.408V131.156C229.959 131.927 230.147 132.785 230.147 133.594C230.147 134.941 229.654 135.788 228.946 136.184V136.189C229.671 135.782 230.396 135.37 231.121 134.951Z" fill="#1A293B"/>
<path d="M222.042 128.11C221.522 130.776 223.62 134.696 226.294 136.037C226.775 136.282 227.301 136.455 227.844 136.455C228.237 136.455 228.613 136.368 228.94 136.184C229.649 135.782 230.141 134.94 230.141 133.594C230.141 132.785 229.953 131.927 229.665 131.156V133.268L229.344 133.453L222.048 129.321V128.11H222.042Z" fill="#3F4F5D"/>
<path d="M212.902 101.887C217.796 106.138 225.22 112.707 230.114 116.959C232.284 118.832 233.762 121.981 233.751 124.31C233.751 124.381 233.751 124.451 233.751 124.516V124.522C233.762 125.428 233.502 126.645 232.594 126.873C232.406 126.916 232.201 126.922 231.996 126.9C231.753 126.873 231.509 126.813 231.293 126.742V126.748C230.728 126.992 230.297 127.345 230.009 127.812C229.815 128.121 229.665 128.523 229.665 128.892V129.414C230.424 129.75 231.166 129.935 231.863 129.978C231.941 129.984 232.007 129.989 232.085 129.989C234.842 130.054 236.907 127.926 236.885 124.522C236.885 124.522 236.885 124.522 236.885 124.516C236.885 124.451 236.885 124.381 236.885 124.315C236.901 120.846 234.797 116.915 232.195 114.667C228.414 111.377 224.633 108.092 220.846 104.802C219.983 105.172 218.881 105.085 217.752 104.439C217.746 104.439 217.746 104.439 217.741 104.433C217.347 104.211 214.303 99.6498 213.915 99.4272L213.151 99.8996C212.775 100.052 213.278 101.751 212.902 101.887Z" fill="#E1DFEA"/>
<path d="M230.402 73.8986C230.667 73.8606 230.961 73.7737 231.121 73.6977C231.171 73.6705 231.254 73.6325 231.265 73.5782C231.271 73.5511 231.276 73.5294 231.282 73.5022C232.19 69.9297 233.103 66.3626 234.011 62.7901C233.485 62.4915 232.954 62.1929 232.428 61.8943C231.52 65.4614 230.612 69.0339 229.699 72.6064C229.643 72.8344 229.582 73.057 229.527 73.2796C229.444 73.5131 229.56 73.8171 229.926 73.8986C230.081 73.9257 230.247 73.9203 230.402 73.8986Z" fill="#E1DFEA"/>
<path d="M231.121 73.6922C230.961 73.7682 230.662 73.8605 230.402 73.8931C230.252 73.9148 230.086 73.9257 229.931 73.8931C229.566 73.8171 229.455 73.5076 229.532 73.2742C229.588 73.0461 229.649 72.8235 229.704 72.6009C226.028 70.5215 222.352 68.4366 218.676 66.3572C220.06 67.4485 195.751 52.6209 195.707 53.9565C195.707 54.3094 195.302 55.9708 195.302 56.3237C197.915 57.8005 225.945 74.1211 228.558 75.5979C229.632 74.9898 230.706 74.3817 231.78 73.7736C231.614 73.6814 231.453 73.589 231.287 73.4967C231.282 73.5239 231.276 73.5456 231.271 73.5728C231.254 73.6271 231.171 73.6705 231.121 73.6922Z" fill="#E1DFEA"/>
<path d="M230.889 126.628C230.496 126.797 230.202 127.09 229.953 127.432C229.599 127.915 229.339 128.491 229.339 129.072V133.448L229.66 133.263V131.151V129.403V128.882C229.66 128.512 229.809 128.111 230.003 127.801C230.291 127.334 230.717 126.981 231.287 126.737V126.731C231.503 126.808 231.747 126.867 231.99 126.889C231.93 126.775 231.83 126.672 231.719 126.607C231.68 126.579 231.642 126.563 231.597 126.547C231.37 126.482 231.11 126.536 230.889 126.628Z" fill="#9B346C"/>
<path d="M231.714 126.612C229.278 125.233 226.847 123.859 224.417 122.48C224.185 122.35 223.886 122.388 223.62 122.491C223.57 122.507 223.515 122.535 223.465 122.556C222.762 122.909 222.036 124 222.036 124.94V125.135V128.111V129.321L229.333 133.453V129.077C229.333 128.496 229.593 127.92 229.948 127.437C230.197 127.095 230.485 126.802 230.883 126.634C231.11 126.536 231.365 126.482 231.592 126.563C231.636 126.574 231.675 126.596 231.714 126.612Z" fill="#FFB000"/>
<path d="M231.78 77.4275C232.417 77.7858 233.053 78.1496 233.69 78.508C233.795 77.7261 233.906 76.9443 234.011 76.1625C233.269 76.586 232.522 77.0095 231.78 77.4275Z" fill="#E1DFEA"/>
<path d="M231.863 129.978C231.941 130.19 232.007 130.407 232.068 130.624L232.079 129.984C232.007 129.984 231.935 129.984 231.863 129.978Z" fill="#9B346C"/>
<path d="M233.137 85.8051C233.53 86.0494 234.089 86.2448 234.371 85.8865C234.432 85.8159 234.471 85.7236 234.487 85.6259C234.493 85.6042 234.498 85.5824 234.498 85.5553C234.565 85.0449 234.637 84.54 234.709 84.0297C234.919 82.4986 235.13 80.9729 235.34 79.4419C235.495 78.3126 235.65 77.1832 235.805 76.0594C235.849 75.7336 235.899 75.4079 235.943 75.0767C235.301 75.4404 234.659 75.8042 234.017 76.168C233.912 76.9498 233.801 77.7316 233.696 78.5134C233.391 80.7178 233.092 82.9221 232.788 85.1264C232.777 85.2133 232.766 85.3055 232.755 85.3924C232.755 85.4739 232.815 85.5553 232.91 85.6367C232.97 85.691 233.059 85.7562 233.137 85.8051Z" fill="#E1DFEA"/>
<path d="M205.234 47.9242C203.834 48.7169 202.439 49.5096 201.038 50.2968C201.038 49.3087 201.032 48.3205 201.032 47.3215C202.428 47.5224 203.834 47.7233 205.234 47.9242Z" fill="#FAC152"/>
<path d="M200.966 53.5493C201.077 53.4733 201.193 53.4081 201.326 53.3973C201.403 53.3592 201.658 53.4027 201.807 53.5547C201.996 53.761 201.996 54.1356 201.94 54.3854C201.63 54.0053 201.182 53.6579 200.966 53.5493Z" fill="#A23042"/>
<path d="M199.975 44.9437C200.573 46.2956 200.894 47.0286 201.027 47.3218C201.027 48.3153 201.032 49.3089 201.032 50.2971C200.59 50.5522 200.147 50.802 199.704 51.0517C199.892 46.8277 199.914 46.4748 199.975 44.9437Z" fill="#FDE86B"/>
<path d="M200.822 55.6558C200.617 55.6883 200.407 55.5906 200.296 55.3734C200.379 55.3517 200.468 55.33 200.534 55.292C200.661 55.4169 200.722 55.5037 200.822 55.6558Z" fill="#A23042"/>
<path d="M200.296 55.3735C200.257 55.3029 200.213 55.1563 200.213 55.0043C200.291 55.064 200.457 55.1834 200.54 55.292C200.462 55.33 200.379 55.3572 200.296 55.3735Z" fill="#A23042"/>
<path d="M200.141 53.8911C200.706 52.8758 201.924 52.3166 202.344 53.3862C202.499 53.7934 202.378 54.3635 202.223 54.7707L202.217 54.7761C202.134 54.6349 202.04 54.5101 201.935 54.3798C202.046 53.902 201.913 53.4025 201.409 53.3753C201.381 53.3753 201.348 53.3753 201.326 53.3862C201.193 53.397 201.077 53.4622 200.966 53.5382C200.822 53.6251 200.59 53.8477 200.418 54.1626C200.246 54.4775 200.208 54.7218 200.208 54.9987C200.235 55.5036 200.54 55.6882 200.816 55.6448C200.872 55.7588 200.894 55.7479 201.055 56.1063C199.914 56.6275 199.327 55.3679 200.141 53.8911Z" fill="#EF4F25"/>
<path d="M199.975 44.9437C199.914 46.4748 199.892 46.8549 199.709 51.0517C194.024 54.2659 188.333 57.4855 182.647 60.7051C182.354 60.0427 181.656 58.4574 181.601 58.3271C180.194 58.1316 178.794 57.9307 177.399 57.7353C184.917 53.4732 192.446 49.2112 199.975 44.9437Z" fill="#FAC152"/>
<path d="M199.77 55.254C199.781 55.6232 199.897 55.9978 200.241 56.1553C200.052 56.0684 199.87 55.9707 199.682 55.8784C199.604 55.8404 199.538 55.7807 199.471 55.7101C198.99 55.1346 199.233 54.2116 199.648 53.5329C199.859 53.18 200.108 52.876 200.495 52.6859C200.778 52.5448 201.121 52.4742 201.387 52.6099C201.558 52.6859 201.713 52.7782 201.879 52.8597C201.47 52.6968 200.673 52.9465 200.141 53.8913C199.909 54.3093 199.748 54.7817 199.77 55.254Z" fill="#FA7800"/>
<path d="M190.348 59.5433C190.519 59.5216 190.696 59.5759 190.818 59.6899C191.007 59.8853 191.012 60.2437 190.957 60.5151C190.846 60.3848 190.73 60.2654 190.608 60.1514C190.326 59.907 190.486 60.0862 190.414 59.717C190.392 59.6573 190.37 59.5921 190.348 59.5433Z" fill="#A23042"/>
<path d="M190.525 60.1512C190.381 60.0372 190.132 59.7766 189.971 59.6897C190.076 59.6137 190.215 59.5431 190.342 59.5431C190.409 59.668 190.536 60.01 190.525 60.1512Z" fill="#A23042"/>
<path d="M189.977 59.6898C190.464 59.9667 190.857 60.3631 191.195 60.8083C191.217 60.8354 191.228 60.8571 191.245 60.8843C191.245 60.8843 191.25 60.8843 191.245 60.8897C192.64 62.7357 193.321 66.7751 194.876 67.7035C195.253 67.9316 195.585 67.9207 196 67.8556C196.46 67.7578 196.77 67.5895 197.124 67.4158C197.124 67.4104 197.129 67.4104 197.129 67.4104C197.19 67.3886 197.788 67.0194 198.065 66.786C201.918 63.8107 202.538 56.7634 200.208 55.0043C200.185 54.4994 200.473 53.9401 200.872 53.6144C200.983 53.5329 200.944 53.5438 201.01 53.5764C204.304 55.5309 204.094 63.8976 199.305 67.9044C198.048 68.9523 196.21 69.897 194.638 69.3866C191.51 68.4256 191.272 62.6325 189.218 61.1449C189.218 60.5694 189.556 59.9613 189.977 59.6898Z" fill="#C2485C"/>
<path d="M189.866 61.7963C189.678 61.8235 189.434 61.742 189.301 61.514C189.401 61.4977 189.445 61.4868 189.562 61.4271C189.578 61.4434 189.866 61.7692 189.866 61.7963Z" fill="#A23042"/>
<path d="M189.556 61.4219C189.434 61.4924 189.379 61.4979 189.296 61.5087C189.235 61.4001 189.218 61.2644 189.218 61.1395C189.401 61.2698 189.479 61.3458 189.556 61.4219Z" fill="#A23042"/>
<path d="M206.679 47.6963C191.604 56.2258 187.497 58.5604 182.248 61.5303L183.704 91.826L208.135 77.9975L206.679 47.6963ZM200.534 66.6556C199.72 67.6383 199.017 68.1812 198.043 68.7785C197.977 68.7785 197.08 69.3865 195.972 69.506C192.202 69.9078 191.582 64.5653 190.143 62.2198C189.905 62.3501 189.578 62.4261 189.329 62.3284C189.296 62.3175 189.263 62.3012 189.24 62.285L189.235 62.2904C189.169 62.2578 188.969 62.1492 188.692 62.0135C188.366 61.8452 188.211 61.5411 188.222 61.0959C188.255 60.1892 188.632 59.4617 189.362 58.9133C189.683 58.669 190.032 58.5713 190.398 58.745C190.586 58.8427 190.768 58.9296 190.957 59.0273L190.951 59.0491C191.538 59.2608 191.505 60.2598 191.245 60.8788C191.245 60.8788 191.25 60.8787 191.245 60.8842C192.291 62.2687 192.933 64.8965 193.913 66.623C194.522 67.6329 195.159 68.1486 196.288 67.7795C197.235 67.5134 198.768 66.4873 199.82 64.8585C201.724 61.9483 201.974 58.0772 201.066 56.1172C200.479 56.3778 200.307 56.1769 199.682 55.8837C199.604 55.8457 199.538 55.786 199.471 55.7154C198.99 55.1399 199.233 54.2169 199.648 53.5383C199.859 53.1854 200.108 52.8813 200.495 52.6913C200.778 52.5501 201.121 52.4795 201.387 52.6153C201.558 52.6913 201.713 52.7836 201.879 52.865C202.095 52.9519 202.256 53.1636 202.35 53.3971C202.505 53.8043 202.383 54.3744 202.228 54.7816L202.223 54.787C202.25 54.8142 202.261 54.8467 202.284 54.8685C204.05 57.7189 203.297 63.4088 200.534 66.6556Z" fill="#FAC152"/>
<path d="M190.326 59.0004C190.641 58.9298 190.957 59.0113 191.134 59.1579C191.544 59.5216 191.472 60.3523 191.245 60.879C191.195 60.8138 191.217 60.8138 190.951 60.5098C191.007 60.2383 190.995 59.8745 190.813 59.6845C190.696 59.5705 190.514 59.5162 190.342 59.5379C190.159 59.5379 189.988 59.6628 189.855 59.7714C189.235 60.3143 189.113 61.1667 189.296 61.5088C189.423 61.7314 189.672 61.8182 189.861 61.7911C189.921 61.8725 189.982 61.9431 190.143 62.22C189.207 62.7195 188.515 61.9594 188.82 60.8735C189.085 59.7931 189.822 59.1144 190.326 59.0004Z" fill="#EF4F25"/>
<path d="M189.622 59.4346C189.202 59.8473 188.958 60.3142 188.82 60.8789C188.759 61.1449 188.737 61.4272 188.814 61.6933C188.881 61.9376 189.03 62.1656 189.235 62.2851L189.229 62.2905C189.163 62.2579 188.953 62.1439 188.687 62.0136C188.36 61.8453 188.205 61.5412 188.216 61.096C188.249 60.1893 188.626 59.4618 189.357 58.9134C189.678 58.6691 190.027 58.5714 190.392 58.7451C190.58 58.8429 190.763 58.9297 190.951 59.0274L190.946 59.0492C190.757 58.9677 190.525 58.9514 190.32 59.0003C190.043 59.0655 189.816 59.2338 189.622 59.4346Z" fill="#FA7800"/>
<path d="M182.248 61.5304L183.71 91.8262L180.986 88.1505V58.6746L182.248 61.5304Z" fill="#FDE86B"/>
<path d="M180.986 58.6746L175.948 57.9579L200.379 44.1294L201.636 46.9798L206.679 47.6965C191.604 56.226 187.497 58.5606 182.248 61.5305L180.986 58.6746ZM177.393 57.7353C178.794 57.9308 180.189 58.1317 181.595 58.3271C181.656 58.4629 182.348 60.0428 182.641 60.7052C186.616 58.452 202.738 49.3307 205.229 47.9245C203.828 47.7182 202.422 47.5227 201.027 47.3273C200.894 47.0395 200.695 46.5835 199.975 44.9492C192.446 49.2113 184.917 53.4733 177.393 57.7353Z" fill="#FFEC8E"/>
<path d="M180.986 58.6744V88.1504L174.492 86.6139L175.948 57.9578L180.986 58.6744Z" fill="#FAC152"/>
<path d="M216.6 73.2632C212.315 72.7746 207.842 72.085 207.842 72.085L206.679 47.6964C206.679 47.6964 195.458 54.0922 191.355 56.3454C189.661 57.2738 188.045 58.3542 186.173 59.0003C186.317 58.6528 187.912 57.7298 187.912 57.7298L199.709 51.0517L201.038 50.2971C201.038 50.2971 200.064 45.1772 199.975 44.9437L177.393 57.7353C177.609 57.6864 181.412 58.5605 182.647 60.7106C183.638 62.4425 183.394 66.2322 183.034 72.8072C182.99 73.6433 182.215 74.2622 181.368 74.1319C180.023 73.9202 180.089 74.9897 180.089 74.9897L180.986 75.2558L183.466 85.9679L183.704 91.837C183.704 91.837 195.596 93.9219 199.338 93.7699C201.763 93.6721 203.994 93.0369 206.015 91.7013C207.05 91.0118 207.87 90.1702 207.903 88.8454C209.071 88.1831 210.2 87.5153 211.341 86.88C214.059 85.3598 216.583 83.4541 219.783 82.9166C219.999 82.884 220.193 82.7754 220.398 82.6994C220.985 82.4877 221.433 82.1999 221.655 81.5375C221.699 81.4018 221.787 80.6037 221.865 79.5613C222.109 76.4068 219.789 73.627 216.6 73.2632ZM190.818 92.0542C191.782 91.6687 195.064 91.4352 197.329 91.6687C195.253 92.4668 193.149 92.988 190.818 92.0542ZM202.068 62.3719C202.012 62.095 201.918 61.8019 201.907 61.525C201.863 59.5324 201.719 57.5615 201.115 55.6395C200.927 55.0369 200.972 54.494 201.581 54.0922C202.228 54.7763 202.66 55.6613 202.66 55.6613C203.031 57.985 203.025 60.0808 202.068 62.3719Z" fill="#DBD0F2"/>
<path d="M185.243 59.082C184.662 59.4078 184.695 59.3915 184.69 59.3915C184.867 58.8811 185.077 58.5716 185.243 59.082Z" fill="#D64A78"/>
<path d="M184.23 75.3535C184.214 75.4078 184.208 75.4404 184.175 75.4838C184.108 75.5598 184.009 75.587 183.926 75.5761C179.901 74.9626 180.139 75.006 180.095 74.9898C180.034 74.968 179.995 74.9192 179.973 74.8703C179.801 74.1862 179.602 71.7104 179.552 70.9992C179.325 67.6656 179.347 64.1691 179.929 60.8626C180.039 60.2436 180.3 58.8863 180.599 58.3108C180.709 58.1045 180.853 57.9307 181.086 57.9688C185.216 58.5931 184.933 58.5225 185.072 58.642C185.188 58.7506 185.238 58.9189 185.277 59.0655L185.238 59.0872C185.016 58.3922 184.723 59.2066 184.529 59.9125C184.241 60.9929 184.014 62.486 183.893 63.6098C183.3 69.2129 184.186 75.511 184.23 75.3535Z" fill="#F50054"/>
<path d="M221.156 63.7563V68.1324L218.837 65.9389L221.156 63.7563Z" fill="#FFB000"/>
<path d="M220.021 64.1202C219.872 64.2614 218.239 65.7979 218.089 65.9391C218.089 66.5472 218.095 67.1552 218.095 67.7633C210.145 67.7633 202.201 67.7633 194.251 67.7633C194.256 67.1552 194.256 66.5472 194.256 65.9391C193.614 65.331 192.972 64.7229 192.324 64.1202C201.558 64.1202 210.793 64.1202 220.021 64.1202Z" fill="#FFF971"/>
<path d="M220.021 67.7687C219.379 67.7687 218.743 67.7687 218.095 67.7687C218.095 67.1606 218.089 66.5525 218.089 65.9445C218.737 66.5525 219.379 67.1606 220.021 67.7687Z" fill="#FFB000"/>
<path d="M214.148 71.7864C214.148 71.6126 214.159 71.542 214.159 71.4226C214.159 70.7656 214.192 70.7005 214.114 70.5376C214.07 70.4453 214.015 70.3693 213.932 70.3096C214.673 70.6516 214.69 71.3954 214.148 71.7864Z" fill="#E95950"/>
<path d="M211.822 71.0861C211.833 70.2934 212.863 69.4573 214.015 69.8428C214.696 70.0654 215.05 70.5595 215.067 71.097C215.067 71.6833 214.585 72.1502 214.12 72.324C214.12 72.3023 214.148 71.9602 214.148 71.7811C214.275 71.6888 214.391 71.5584 214.458 71.4119C214.801 70.63 213.777 69.9405 212.974 70.2934H212.968C212.265 70.6355 212.177 71.3467 212.703 71.7485C212.703 71.8028 212.692 72.1177 212.675 72.2914C212.177 72.0742 211.822 71.6182 211.822 71.0861Z" fill="#F5B538"/>
<path d="M212.73 69.8915C212.238 70.1141 211.828 70.5864 211.822 71.0859C211.822 70.9773 211.822 70.8579 211.822 70.7493C211.822 70.4833 211.944 70.0706 212.359 69.7394C212.946 69.2888 213.926 69.2671 214.541 69.7503C214.845 69.9946 215.067 70.3692 215.067 70.7384C215.067 70.8579 215.067 70.9773 215.067 71.0913C215.044 70.0218 213.682 69.468 212.73 69.8915Z" fill="#F8E150"/>
<path d="M191.2 68.1324C191.2 89.8661 191.2 82.7591 191.2 94.6982H221.156C221.156 86.9506 221.156 80.0933 221.156 68.1324C212.487 68.1324 207.061 68.1324 191.2 68.1324ZM215.067 71.0969C215.067 71.6832 214.585 72.1502 214.12 72.3239C213.965 75.0766 213.162 78.1442 210.997 79.8707C209.331 81.1792 207.172 81.5104 205.085 81.114C200.944 80.2507 199.538 76.4285 199.283 72.2479C198.823 72.0687 198.347 71.6072 198.347 71.0263C198.347 70.9123 198.347 70.7928 198.347 70.6734C198.347 70.3042 198.574 69.9187 198.879 69.6798C199.455 69.2183 200.468 69.2075 201.066 69.6798C201.37 69.9241 201.592 70.3042 201.592 70.6734V71.0263C201.592 71.5584 201.215 72.0199 200.728 72.2207C200.728 72.5737 200.839 73.8115 201.099 74.9083C201.569 76.928 202.666 78.9097 204.681 79.5395C205.948 79.9901 207.847 79.9847 209.248 79.3006C211.274 78.307 212.138 76.0322 212.503 73.8333C212.509 73.779 212.675 72.6985 212.675 72.2859C212.188 72.0687 211.822 71.6181 211.822 71.0969C211.822 70.9448 211.822 70.8906 211.822 70.744C211.822 70.4779 211.944 70.0653 212.359 69.7341C212.946 69.2835 213.926 69.2618 214.541 69.745C214.845 69.9893 215.067 70.3639 215.067 70.7331C215.067 70.8688 215.067 70.9829 215.067 71.0969Z" fill="#FFF971"/>
<path d="M200.689 70.6953C200.689 70.4998 200.584 70.3315 200.44 70.2229C200.745 70.3423 201.049 70.6898 201.049 71.0319C201.049 71.2436 200.944 71.5097 200.706 71.6888C200.7 71.6182 200.689 70.7713 200.689 70.6953Z" fill="#E95950"/>
<path d="M212.719 71.3791C212.719 71.3629 212.719 71.352 212.719 71.3357C212.719 71.3574 212.719 71.3846 212.714 71.4063C212.714 71.6669 212.714 71.4443 212.719 71.3791ZM199.255 71.3466C199.255 70.6788 199.222 70.6299 199.3 70.467C199.338 70.3801 199.394 70.3041 199.466 70.2444C199.743 70.1087 200.113 70.0761 200.44 70.2227C200.595 70.3367 200.689 70.505 200.689 70.7059C200.689 72.1664 200.767 73.502 201.099 74.9191C201.752 77.7369 203.374 79.7295 206.297 79.8489C209.32 80.0227 211.734 78.4753 212.503 73.8441C212.514 73.7789 212.647 72.9211 212.675 72.3076C212.675 72.2587 212.703 71.9275 212.703 71.7538C212.476 71.58 212.365 71.3357 212.365 71.0968C212.376 70.543 213.107 70.0055 213.849 70.277C213.876 70.2878 213.904 70.2987 213.932 70.3096C214.009 70.3693 214.065 70.4399 214.114 70.5376C214.192 70.7059 214.159 70.7711 214.159 71.4226C214.159 72.8342 213.882 74.9082 213.378 76.2873C212.42 79.1051 210.449 80.9945 207.41 81.2443C201.592 81.7112 199.255 76.9985 199.255 71.3466Z" fill="#AA682D"/>
<path d="M199.466 70.2445C199.322 70.3748 199.25 70.5431 199.25 70.6789C199.25 71.0046 199.25 71.401 199.266 71.7104H199.261C198.735 71.3249 198.751 70.5866 199.466 70.2445Z" fill="#E95950"/>
<path d="M198.347 71.0317C198.364 70.4128 198.812 69.9567 199.41 69.7667C200.606 69.4084 201.592 70.2608 201.592 71.0317C201.592 71.5584 201.215 72.0253 200.728 72.2262C200.722 72.1122 200.717 71.9819 200.711 71.8678C200.711 71.6072 200.656 71.7647 200.844 71.5584C200.977 71.4118 201.049 71.1946 201.049 71.0317C201.049 70.6897 200.745 70.3422 200.44 70.2228C199.643 69.8644 198.619 70.5648 198.956 71.3358C199.017 71.4878 199.134 71.6127 199.261 71.705H199.266C199.266 72.1122 199.283 72.1936 199.283 72.2533C198.818 72.0742 198.347 71.6127 198.347 71.0317Z" fill="#F5B538"/>
<path d="M198.347 70.6788C198.347 70.3096 198.574 69.9241 198.879 69.6852C199.183 69.4409 199.576 69.3378 199.975 69.3378C200.983 69.3378 201.597 70.0327 201.597 70.6842V71.0371C201.597 70.5431 201.193 70.0599 200.706 69.8373C199.737 69.3866 198.381 69.9621 198.353 71.0371C198.347 70.9177 198.347 70.7983 198.347 70.6788Z" fill="#F8E150"/>
<path d="M194.256 65.9392C194.256 66.5473 194.256 67.1554 194.251 67.7635C193.608 67.7635 192.972 67.7635 192.324 67.7635C194.422 65.7818 194.013 66.1835 194.256 65.9392Z" fill="#FFB000"/>
<path d="M193.514 65.9391L191.2 68.1325V63.7565L193.514 65.9391Z" fill="#FFB000"/>
<path d="M192.33 67.7687C206.674 67.7687 211.829 67.7687 220.028 67.7687C219.385 67.1606 218.743 66.5525 218.095 65.9444C218.239 65.8033 219.878 64.2613 220.028 64.1256C210.793 64.1256 201.565 64.1256 192.33 64.1256C192.972 64.7283 193.615 65.3363 194.262 65.9444C193.997 66.1996 194.462 65.7435 192.33 67.7687ZM191.201 68.1325L193.515 65.939L191.201 63.751H221.157L218.837 65.939L221.157 68.1325C210.444 68.1325 202.09 68.1325 191.201 68.1325Z" fill="#A482F4"/>
<path d="M191.2 83.2152C191.206 83.0306 191.206 80.5277 191.206 77.6393V83.9156C191.2 83.6767 191.195 83.4487 191.2 83.2152Z" fill="#C6B3EB"/>
<path d="M232.909 92.4179C233.28 91.4406 233.684 90.4362 233.945 89.3286C232.018 89.22 235.799 89.4372 233.945 89.3286C232.638 89.2526 231.26 89.4046 230.263 88.2428C230.13 88.0853 229.848 88.0201 229.615 87.9713C228.779 87.7867 227.955 87.5315 227.102 87.4718C225.58 87.3632 224.041 87.3958 222.507 87.3523C222.142 87.3469 221.101 87.1569 221.101 87.1569C221.101 87.1569 221.261 70.2825 221.162 68.1324C220.935 68.1324 191.206 68.1324 191.206 68.1324C191.206 68.1324 191.217 83.0252 191.211 83.2152C191.206 83.4486 191.211 83.6767 191.217 83.9156C191.222 84.5454 191.261 85.1752 191.217 85.8267V90.3873C191.233 90.8597 191.222 91.3266 191.217 91.799V93.292C191.222 93.8676 191.256 94.4376 191.333 95.024C191.959 95.0457 192.523 95.0783 193.088 95.0783C200.224 95.0837 207.36 95.062 214.496 95.0837C219.13 95.1 223.764 95.0783 228.386 94.6222C228.586 94.6005 228.802 94.6765 229.139 94.7308C228.209 95.3009 227.401 95.5127 226.067 95.5344C219.274 95.6538 218.61 95.605 217.884 95.6918C217.746 95.7081 217.63 95.8818 217.469 96.0121C217.956 96.4302 218.443 96.2945 218.897 96.2945C220.957 96.3108 223.011 96.3108 225.076 96.2999C225.89 96.2945 226.709 96.2945 227.512 96.1913C228.696 96.0393 229.942 95.909 230.817 95.0132C231.204 94.6114 231.575 94.5299 232.062 94.5028C238.661 94.1987 229.914 94.7905 232.062 94.5028C231.276 93.7427 233.513 93.0152 232.909 92.4179ZM198.458 70.4128C199.515 69.1586 200.252 69.1206 201.442 70.2825C200.346 69.7613 199.493 69.7667 198.458 70.4128ZM214.164 71.9221C213.749 73.5075 213.378 75.1092 212.874 76.662C212.431 78.0139 211.7 79.2246 210.477 80.0662C209.392 80.81 208.213 81.2172 206.751 81.1032C206.823 80.0879 206.812 80.0499 207.67 79.9521C209.558 79.7295 210.87 78.7305 211.623 77.0854C212.077 76.0756 212.365 74.968 212.619 73.8821C212.797 73.1166 212.797 72.3022 212.885 71.5149C212.902 71.3792 212.88 71.1837 212.963 71.1132C213.156 70.9394 213.411 70.7114 213.627 70.7277C213.826 70.744 214.075 71.0154 214.175 71.2272C214.258 71.4226 214.219 71.6995 214.164 71.9221ZM212.503 70.011C213.267 69.2998 213.81 69.2889 214.701 70.011H212.503ZM225.264 88.8074C224.018 88.8074 222.706 88.992 221.267 88.3242C223.897 87.8518 227.462 88.1016 229.123 88.8726C227.733 89.3015 226.493 88.8074 225.264 88.8074Z" fill="#EC7118"/>
<path d="M173.163 86.0113C173.507 86.1199 173.999 85.8864 174.282 85.6855C174.387 85.6095 174.548 85.4792 174.548 85.3489C174.548 85.3489 174.548 85.3489 174.548 85.3435C174.536 85.2566 174.52 85.1697 174.514 85.0829C174.11 82.0913 173.706 79.0997 173.296 76.1136C172.654 75.7498 172.017 75.386 171.375 75.0277C171.536 76.2059 171.696 77.384 171.857 78.5622C172.106 80.3756 172.35 82.1836 172.599 83.997C172.665 84.5128 172.737 85.034 172.809 85.5498C172.809 85.5498 172.809 85.5552 172.809 85.5607C172.831 85.7615 172.953 85.9461 173.163 86.0113Z" fill="#E1DFEA"/>
<path d="M192.352 95.442C192.352 95.3606 192.352 95.2737 192.352 95.1923C192.357 93.8567 192.357 92.5156 192.363 91.1746C192.363 89.7575 192.368 88.3404 192.374 86.9234C191.787 86.5922 191.2 86.261 190.619 85.9298C190.613 88.0093 190.608 90.0887 190.602 92.1736C190.602 92.8468 190.602 93.5255 190.597 94.1987C190.597 94.6548 190.597 95.1108 190.591 95.5669C190.591 95.6592 190.608 95.7515 190.652 95.8275C190.807 96.1424 191.161 96.1641 191.505 96.0664C191.787 95.985 192.352 95.7027 192.352 95.442Z" fill="#E1DFEA"/>
<path d="M232.428 61.8941C232.954 62.1927 233.485 62.4913 234.011 62.7899C236.508 64.2015 239.005 65.6186 241.507 67.0357C241.701 67.1443 241.917 67.2963 242.055 67.47C242.16 67.6058 242.149 67.6438 242.149 67.6492C242.149 67.6546 242.149 67.66 242.144 67.6763C242.111 67.7849 241.972 67.9261 241.884 68.0021C241.789 68.0835 241.651 68.1813 241.502 68.2681C238.257 70.1032 235.019 71.9384 231.775 73.7735C230.701 74.3816 229.627 74.9897 228.553 75.5978C225.945 77.0745 223.332 78.5567 220.719 80.0335C215.941 82.7373 211.169 85.4412 206.391 88.1504H206.386C205.002 88.9485 202.405 88.9702 200.983 88.1504H200.977C200.263 87.7432 199.543 87.3414 198.823 86.9288C193.996 84.1978 189.168 81.4614 184.341 78.7305C180.172 76.3741 176.003 74.0124 171.835 71.6506C171.132 71.2488 170.429 70.8525 169.72 70.4562C166.498 68.6319 163.27 66.8076 160.048 64.9834C159.262 64.5382 158.476 64.093 157.69 63.6478C156.616 63.0397 155.542 62.4316 154.468 61.8235C154.036 61.5792 153.604 61.3294 153.172 61.0905C152.541 60.7322 151.905 60.3739 151.274 60.0155C149.092 58.7776 146.911 57.5452 144.724 56.3073H144.719C144.525 56.1987 144.309 56.0467 144.171 55.8729C144.066 55.7372 144.077 55.6992 144.077 55.6938C144.077 55.6883 144.077 55.6829 144.082 55.6666C144.115 55.558 144.254 55.4169 144.337 55.3408C144.431 55.2594 144.569 55.1617 144.719 55.0748H144.724C146.584 54.0215 148.45 52.9682 150.31 51.9149C150.864 51.6 151.418 51.2906 151.971 50.9757C154.662 49.45 157.358 47.9244 160.048 46.4041V42.7556C154.961 45.6386 149.867 48.5162 144.78 51.3991C144.846 51.6652 144.913 51.9312 144.979 52.1973C145.062 52.5827 144.94 53.0985 144.603 53.2071C144.376 53.2831 144.021 53.1637 143.567 53.0605C143.246 52.9845 142.726 52.8814 142.394 52.8868C142.377 52.8868 142.283 52.8922 142.288 52.9085C141.43 53.6197 140.855 54.5916 140.855 55.6938C140.855 57.1325 141.823 58.3324 143.113 59.0491C145.82 60.5856 148.533 62.1167 151.246 63.6532C151.993 64.0767 152.746 64.5056 153.499 64.9291C154.141 65.2928 154.778 65.6566 155.42 66.015C156.965 66.8891 158.504 67.7632 160.043 68.6319C163.265 70.4562 166.487 72.2804 169.714 74.1047C170.257 74.4142 170.805 74.7236 171.348 75.0277C171.99 75.3914 172.626 75.7552 173.269 76.1135C176.956 78.2038 180.643 80.2887 184.33 82.379C186.417 83.5626 188.504 84.7462 190.591 85.9244C191.178 86.2556 191.765 86.5867 192.346 86.9179C193.597 87.6238 194.843 88.335 196.094 89.0408C196.997 89.5512 197.904 90.067 198.807 90.5773C198.984 90.6805 199.167 90.7782 199.344 90.8814C199.344 90.8814 199.344 90.8814 199.349 90.8814C201.758 92.2713 205.605 92.2496 207.98 90.8814C207.98 90.8814 207.98 90.8814 207.986 90.8814C209.647 89.9421 211.302 89.0028 212.963 88.0635C213.605 87.6998 214.242 87.336 214.884 86.9777C216.821 85.8809 218.759 84.7788 220.702 83.6875C221.632 83.1608 222.568 82.6342 223.498 82.1075C224.14 81.7438 224.782 81.38 225.425 81.0217C226.249 80.5547 227.069 80.0878 227.894 79.6209C228.597 79.2191 229.305 78.8228 230.009 78.4264C230.59 78.1007 231.171 77.7695 231.752 77.4383C232.494 77.0202 233.242 76.5967 233.983 76.1787C234.626 75.8149 235.268 75.4512 235.91 75.0874C238.302 73.7355 240.699 72.3781 243.09 71.0208C243.09 71.0208 243.09 71.0208 243.096 71.0208C244.369 70.3096 245.355 69.1151 245.355 67.6655C245.355 66.2267 244.386 65.0268 243.096 64.3101C243.096 64.3101 243.096 64.3101 243.09 64.3101C226.056 54.6622 209.015 45.0142 191.981 35.3717V39.0202C193.082 39.6446 194.19 40.269 195.291 40.8934C195.845 41.2083 196.399 41.5177 196.952 41.8326C202.35 44.8894 207.742 47.9406 213.14 50.9974C213.694 51.3068 214.247 51.6217 214.801 51.9366C220.691 55.2431 226.559 58.5659 232.428 61.8941Z" fill="#E1DFEA"/>
<path d="M234.371 85.881C234.089 86.2394 233.535 86.0439 233.137 85.7996C233.059 85.7507 232.97 85.691 232.898 85.6258C232.81 85.5444 232.743 85.4629 232.743 85.3815C232.755 85.2946 232.771 85.2023 232.777 85.1155C230.723 86.2828 228.663 87.4447 226.609 88.6065C225.807 89.0572 225.009 89.5078 224.212 89.9639C224.14 90.4851 224.068 91.0117 223.996 91.533C223.98 91.6361 223.941 91.7339 223.875 91.8153C223.592 92.1736 223.039 91.9727 222.64 91.7339C222.557 91.685 222.474 91.6253 222.402 91.5601C222.313 91.4787 222.247 91.3972 222.247 91.3158C222.258 91.2289 222.275 91.142 222.28 91.0498C221.76 91.3429 221.234 91.6416 220.713 91.9347C218.366 93.2649 216.019 94.5951 213.666 95.9253C213.599 96.4302 213.528 96.9406 213.456 97.4455C213.456 97.4727 213.45 97.4944 213.444 97.5161C213.428 97.6138 213.384 97.7007 213.328 97.7767C213.046 98.1351 212.487 97.9396 212.094 97.6953C211.955 97.6084 211.701 97.4292 211.701 97.2718C211.701 97.2664 211.701 97.2555 211.701 97.2501C211.712 97.1686 211.723 97.0926 211.734 97.0112C209.94 98.0265 208.152 99.0418 206.358 100.057H206.353C204.974 100.85 202.378 100.882 200.949 100.057H200.944C200.23 99.6553 199.521 99.2535 198.807 98.8463C196.648 97.6247 194.483 96.3977 192.324 95.1761C192.324 95.2575 192.324 95.3444 192.324 95.4258C192.324 95.6864 191.759 95.9687 191.477 96.0502C191.134 96.1479 190.785 96.1262 190.625 95.8113C190.586 95.7353 190.564 95.643 190.564 95.5507C190.564 95.0946 190.564 94.6386 190.569 94.1825C189.971 93.8459 189.379 93.5092 188.781 93.1726C187.297 92.3311 185.808 91.4895 184.324 90.648C181.041 88.7911 177.764 86.9289 174.481 85.072C174.492 85.1589 174.503 85.2458 174.514 85.3326C174.514 85.3326 174.514 85.3327 174.514 85.3381C174.509 85.4684 174.354 85.5987 174.249 85.6747C173.966 85.881 173.474 86.1145 173.13 86.0005C172.92 85.9353 172.798 85.7507 172.77 85.5498C172.77 85.5498 172.77 85.5444 172.77 85.539C172.699 85.0232 172.627 84.502 172.56 83.9862C172.311 83.845 172.067 83.7093 171.824 83.5681C171.121 83.1718 170.418 82.77 169.709 82.3737C166.487 80.5494 163.265 78.7251 160.037 76.9009C158.902 76.2602 157.768 75.6141 156.633 74.9734C156.644 75.0495 156.655 75.1255 156.666 75.2069C156.694 75.3426 156.55 75.4675 156.406 75.5761C156.123 75.7824 155.631 76.0159 155.287 75.9019C155.083 75.8367 154.955 75.6575 154.928 75.4567C154.928 75.4458 154.928 75.4404 154.922 75.4295C154.856 74.9137 154.784 74.4034 154.712 73.8876C154.069 73.5238 153.427 73.16 152.785 72.7963C151.274 71.9384 149.762 71.0806 148.245 70.2282H148.24C148.046 70.1196 147.83 69.9676 147.692 69.7939C147.587 69.6581 147.598 69.6201 147.598 69.6147C147.598 69.6093 147.598 69.6038 147.603 69.5875C147.636 69.4789 147.775 69.3378 147.863 69.2618C147.958 69.1803 148.096 69.0826 148.245 68.9957H148.251C149.53 68.2736 150.803 67.5515 152.082 66.824C152.602 66.5308 153.123 66.2376 153.638 65.9444C153.593 65.6024 153.543 65.2658 153.499 64.9237C152.752 64.5002 151.999 64.0713 151.246 63.6478C149.712 64.5165 148.173 65.3852 146.64 66.2539C145.372 66.9597 144.381 68.1596 144.381 69.6093C144.381 71.048 145.35 72.2425 146.634 72.9646C146.634 72.9646 146.634 72.9646 146.64 72.9646C146.64 72.9646 146.64 72.9646 146.645 72.9646C148.865 74.2188 151.085 75.4784 153.3 76.7326C153.953 77.1018 154.601 77.4655 155.254 77.8347C155.896 78.1985 156.539 78.5622 157.175 78.9206C160.032 80.5385 162.888 82.1565 165.745 83.769C166.332 84.1002 166.919 84.4314 167.5 84.7626C168.939 85.577 170.384 86.3968 171.824 87.2112C172.25 87.4501 172.676 87.6944 173.097 87.9333C173.739 88.2971 174.381 88.6608 175.018 89.0192C178.118 90.7783 181.224 92.532 184.324 94.2911C184.734 94.5245 185.149 94.758 185.559 94.9915C187.225 95.9362 188.892 96.8809 190.558 97.8202C191.145 98.1513 191.726 98.4825 192.313 98.8137C194.649 100.138 196.986 101.463 199.327 102.783C199.327 102.783 199.327 102.783 199.333 102.783C199.377 102.81 199.416 102.831 199.46 102.853C200.102 103.206 200.839 103.456 201.63 103.619C202.123 103.716 202.627 103.782 203.142 103.803C204.863 103.885 206.641 103.554 207.969 102.783C207.969 102.783 207.969 102.783 207.975 102.783C209.049 102.174 210.123 101.566 211.191 100.958C211.833 100.595 212.476 100.231 213.118 99.8724C215.648 98.4391 218.178 97.0058 220.708 95.5778C221.051 95.3824 221.389 95.1923 221.732 94.9969C222.374 94.6331 223.011 94.2694 223.653 93.911C226.51 92.2931 229.361 90.6806 232.218 89.0626C232.86 88.6988 233.496 88.3351 234.139 87.9767C235.943 86.9506 237.754 85.9299 239.564 84.9037C239.564 84.9037 239.564 84.9037 239.569 84.9037C240.843 84.1925 241.828 82.998 241.828 81.5484C241.828 80.1096 240.859 78.9097 239.569 78.1931C239.569 78.1931 239.57 78.1931 239.564 78.1931C238.302 77.4764 237.039 76.7651 235.777 76.0485C235.622 77.1778 235.467 78.3071 235.312 79.4309C236.192 79.9304 237.073 80.4299 237.953 80.9294H237.958C238.152 81.038 238.368 81.1901 238.507 81.3638C238.612 81.4995 238.601 81.5375 238.606 81.543C238.606 81.5484 238.606 81.5538 238.601 81.5701C238.567 81.6787 238.429 81.8199 238.346 81.8959C238.252 81.9773 238.113 82.075 237.964 82.1619H237.958C236.868 82.7809 235.777 83.3998 234.687 84.0187C234.62 84.5291 234.548 85.034 234.476 85.5444C234.476 85.5715 234.471 85.5933 234.465 85.615C234.465 85.7236 234.426 85.8104 234.371 85.881Z" fill="#E1DFEA"/>
<path d="M212.116 97.7062C212.503 97.9506 213.068 98.1406 213.35 97.7877C213.411 97.7117 213.45 97.6194 213.467 97.5271C213.472 97.5054 213.472 97.4782 213.478 97.4565C213.544 96.9516 213.616 96.4412 213.688 95.9363C214.098 92.9501 214.507 89.964 214.917 86.9833C214.275 87.347 213.638 87.7108 212.996 88.0691C212.586 91.0553 212.177 94.0414 211.767 97.0276C211.756 97.109 211.745 97.185 211.734 97.2665C211.734 97.2719 211.734 97.2828 211.734 97.2882C211.723 97.4456 211.977 97.6248 212.116 97.7062Z" fill="#E1DFEA"/>
<path d="M222.263 91.3213C222.263 91.4028 222.324 91.4842 222.418 91.5656C222.49 91.6308 222.574 91.6905 222.657 91.7394C223.05 91.9783 223.609 92.1792 223.891 91.8208C223.958 91.7394 223.996 91.6417 224.013 91.5385C224.085 91.0173 224.157 90.4906 224.229 89.9694C224.295 89.4699 224.367 88.965 224.434 88.4655C224.777 85.9788 225.115 83.4976 225.458 81.011C224.816 81.3748 224.173 81.7385 223.531 82.0969C223.177 84.6867 222.823 87.2765 222.468 89.8608C222.413 90.2572 222.358 90.6535 222.302 91.0499C222.286 91.1476 222.275 91.2344 222.263 91.3213Z" fill="#E1DFEA"/>
<path d="M217.746 104.433C218.875 105.079 219.977 105.161 220.841 104.797C221.726 104.417 222.358 103.57 222.518 102.359C222.518 102.359 222.518 102.359 222.518 102.354C222.823 100.16 223.122 97.9668 223.421 95.7733C223.504 95.1598 223.592 94.5409 223.675 93.9274C223.033 94.2857 222.396 94.6495 221.754 95.0132C221.428 97.3804 221.101 99.7531 220.774 102.126V102.131C220.73 102.457 220.614 102.832 220.376 103.06C219.927 103.488 219.152 103.244 218.615 102.94C218.521 102.886 214.004 99.4816 213.909 99.4273C213.367 99.8128 217.187 103.488 216.561 103.765C216.954 103.988 217.347 104.211 217.735 104.433C217.74 104.428 217.74 104.433 217.746 104.433Z" fill="#E1DFEA"/>
<path d="M223.675 93.9273C223.592 94.5408 223.504 95.1597 223.421 95.7732C225.02 96.6799 226.615 97.5866 228.215 98.4879C230.507 99.8018 232.688 98.8082 232.998 96.4139C233.386 93.6069 233.773 90.7945 234.155 87.9875C233.513 88.3513 232.876 88.7151 232.234 89.0734C231.907 91.446 231.581 93.8132 231.254 96.1859C231.21 96.5116 231.094 96.8862 230.856 97.1143C230.407 97.5378 229.632 97.3043 229.095 96.9948C227.29 95.9741 225.486 94.948 223.675 93.9273Z" fill="#E1DFEA"/>
<path d="M160.203 194.072C160.203 193.784 160.203 193.502 160.203 193.214C178.14 183.061 177.216 183.636 177.437 183.349C177.554 183.197 177.626 183.023 177.637 182.833C177.637 183.121 177.637 183.414 177.637 183.702C177.637 183.962 177.454 184.234 177.244 184.413C177.116 184.511 178.545 183.696 160.203 194.072Z" fill="#DF9A01"/>
<path d="M170.871 182.393L168.585 183.696L161.709 179.798L164.007 178.5L170.871 182.393Z" fill="white"/>
<path d="M161.909 177.311L159.622 178.609L152.746 174.716L155.033 173.429L161.909 177.311Z" fill="white"/>
<path d="M160.203 193.214C160.203 193.502 160.203 193.795 160.203 194.082L154.086 197.541C154.086 197.253 154.086 196.96 154.086 196.683L160.203 193.214Z" fill="#DF9A01"/>
<path d="M118.184 169.428C132.185 177.36 146.203 185.281 160.203 193.214L154.086 196.678C140.085 188.745 126.09 180.813 112.083 172.881L118.184 169.428Z" fill="#FFC441"/>
<path d="M159.633 187.812C159.965 188.007 160.386 188.094 160.89 188.061C161.394 188.045 161.92 187.877 162.479 187.556C163.099 187.209 163.42 186.883 163.481 186.585C163.531 186.297 163.387 186.042 163.032 185.846C162.7 185.662 162.279 185.575 161.776 185.602C161.272 185.629 160.718 185.808 160.126 186.145C159.556 186.471 159.24 186.791 159.201 187.09C159.157 187.394 159.301 187.627 159.633 187.812ZM158.377 186.541C158.814 185.852 159.971 185.341 160.785 185.151C161.92 184.885 162.944 185.081 163.597 185.461C164.018 185.694 164.339 186.047 164.217 186.509L166.437 185.249L167.201 185.678L161.001 189.191L160.298 188.789C161.654 188.034 160.353 188.946 158.947 188.137C158.277 187.757 157.956 187.176 158.377 186.541Z" fill="white"/>
<path d="M154.49 185.499L158.974 182.958L159.661 183.349L158.986 183.734C159.473 183.653 159.844 183.62 160.098 183.653C160.624 183.712 161.062 183.946 161.272 184.429L160.298 184.679C160.082 184.136 159.24 183.978 158.609 184.174C157.862 184.391 157.751 184.521 155.249 185.928L154.49 185.499Z" fill="white"/>
<path d="M152.946 172.24L150.648 173.538L143.783 169.645L146.07 168.342L152.946 172.24Z" fill="white"/>
<path d="M152.613 183.658C152.176 183.588 151.213 183.256 151.163 182.827C151.124 182.513 151.545 182.306 151.905 182.268C152.774 182.176 153.422 182.795 154.8 183.126C154.02 183.588 153.505 183.799 152.613 183.658Z" fill="#FFB000"/>
<path d="M152.447 182.29C151.501 182.095 150.576 182.719 151.628 183.316C152.237 183.664 153.012 183.767 153.638 183.642C154.02 183.555 154.446 183.327 154.8 183.121C153.837 182.893 152.951 182.388 152.447 182.29ZM150.078 182.713C150.039 182.143 150.77 181.801 151.357 181.704C152.912 181.448 153.887 182.388 155.398 182.789C155.631 182.665 156.062 182.453 156.046 182.181C155.979 181.704 154.95 181.248 154.457 181.199C154.164 181.182 153.809 181.237 153.411 181.367L152.774 180.889C153.532 180.591 154.235 180.563 155.005 180.759C155.614 180.927 156.649 181.421 156.976 181.85C157.242 182.176 157.258 182.437 156.893 182.773C156.511 183.083 154.568 184.076 153.92 184.559C153.759 184.679 153.643 184.82 153.566 184.972L152.774 184.521C152.851 184.38 152.984 184.25 153.173 184.12C152.342 184.076 151.595 183.962 150.87 183.55C150.366 183.273 150.106 182.99 150.078 182.713Z" fill="white"/>
<path d="M146.43 177.376C147.78 176.616 149.275 176.383 150.643 176.6C152.641 176.942 154.579 178.218 153.156 179.646L152.165 179.298C152.719 178.69 152.696 178.137 151.805 177.626C150.87 177.094 149.707 176.996 148.672 177.279C147.786 177.534 146.657 178.082 146.136 178.755C145.638 179.418 146.031 180.026 146.729 180.428C147.57 180.9 148.782 181.058 150.122 180.558L150.742 181.139C149.181 181.671 147.526 181.655 146.103 180.857C145.439 180.482 145.029 180.102 144.885 179.706C144.514 178.772 145.544 177.881 146.43 177.376Z" fill="white"/>
<path d="M143.982 167.158L141.685 168.456L134.809 164.569L137.101 163.271L143.982 167.158Z" fill="white"/>
<path d="M177.006 181.964C177.304 182.138 177.686 182.513 177.637 182.833C177.62 183.126 177.454 183.446 177.006 183.702L160.203 193.214C146.202 185.282 132.185 177.36 118.184 169.428C136.492 159.058 135.13 159.764 135.734 159.639C136.487 159.476 137.345 159.536 138.048 159.91L177.006 181.964ZM161.709 179.798L168.585 183.696L170.872 182.399L164.001 178.5L161.709 179.798ZM159.345 185.711C157.823 186.579 157.928 187.556 158.936 188.132C160.336 188.936 161.637 188.04 160.286 188.784L160.989 189.185L164.09 187.429L167.19 185.673L166.426 185.244L164.206 186.503C164.516 185.39 161.886 184.283 159.345 185.711ZM158.974 182.958L154.49 185.499L155.254 185.928C157.79 184.5 157.884 184.386 158.614 184.174C159.257 183.973 160.087 184.147 160.303 184.679L161.277 184.429C161.073 183.951 160.635 183.713 160.104 183.653C159.849 183.626 159.473 183.653 158.991 183.734L159.666 183.349L158.974 182.958ZM152.746 174.716L159.622 178.614L161.908 177.317L155.033 173.429L152.746 174.716ZM150.604 181.959C149.884 182.377 149.834 182.974 150.858 183.555C151.584 183.968 152.337 184.082 153.161 184.125C152.973 184.255 152.835 184.386 152.763 184.527L153.554 184.978C153.743 184.608 154.064 184.424 155.193 183.772C155.498 183.604 156.605 183.001 156.882 182.784C157.253 182.442 157.236 182.187 156.965 181.861C156.633 181.421 155.592 180.938 154.994 180.77C154.23 180.574 153.527 180.601 152.763 180.9L153.399 181.378C153.798 181.248 154.152 181.193 154.446 181.21C154.938 181.258 155.968 181.715 156.035 182.192C156.051 182.464 155.614 182.681 155.387 182.8C154.54 182.578 153.626 182.078 152.979 181.856C151.943 181.541 151.141 181.655 150.604 181.959ZM150.737 181.144L150.117 180.563C148.782 181.058 147.57 180.906 146.723 180.433C146.031 180.031 145.632 179.429 146.131 178.761C146.645 178.093 147.769 177.545 148.666 177.284C149.701 177.002 150.864 177.1 151.8 177.632C152.691 178.137 152.719 178.69 152.159 179.304L153.15 179.651C154.573 178.223 152.63 176.948 150.637 176.605C149.269 176.388 147.775 176.622 146.424 177.382C145.538 177.887 144.508 178.777 144.874 179.717C145.018 180.107 145.427 180.493 146.092 180.868C147.515 181.66 149.175 181.677 150.737 181.144ZM138.922 169.585C138.79 169.146 138.352 168.934 137.959 168.717C137.156 168.277 136.857 168.071 135.645 167.408C135.219 167.175 134.787 166.941 134.361 166.691C134.017 166.485 133.685 166.273 133.314 166.138C132.816 165.953 132.069 165.915 131.554 166.018C130.746 166.192 129.959 166.692 129.173 167.175C128.149 167.805 128.149 167.756 127.623 168.054C126.843 168.527 126.832 169.124 127.346 169.596C127.579 169.792 130.917 171.621 131.576 172.018C132.323 172.447 132.617 172.669 133.503 172.729C135.174 172.832 136.099 171.817 137.92 170.861C138.28 170.688 138.762 170.454 138.911 170.02C138.95 169.884 138.961 169.727 138.922 169.585ZM141.685 168.456L143.982 167.158L137.107 163.271L134.809 164.569L141.685 168.456ZM152.945 172.24L146.07 168.342L143.783 169.64L150.654 173.538L152.945 172.24Z" fill="#FFB000"/>
<path d="M130.281 171.295C128.066 170.041 128.343 170.177 127.966 169.976C127.573 169.775 127.125 169.542 127.014 169.107C126.931 168.809 127.036 168.537 127.263 168.315C127.49 168.092 127.762 167.978 128.016 167.837C129.804 166.919 130.757 165.861 132.434 165.969C133.281 166.024 133.652 166.268 134.361 166.691C134.798 166.947 138.297 168.869 138.59 169.113C138.873 169.357 139.033 169.672 138.906 170.02C138.762 170.443 138.286 170.677 137.915 170.861C136.099 171.817 135.169 172.832 133.497 172.729C132.445 172.658 132.39 172.446 130.281 171.295Z" fill="#FFE973"/>
<path d="M111.314 175.053C110.422 174.537 110.511 173.744 111.314 173.326L112.078 172.886C112.172 172.886 111.629 172.631 154.086 196.683L153.322 197.112C152.807 197.405 151.932 197.579 150.997 197.384C150.377 197.242 153.006 198.659 111.314 175.053Z" fill="#AA7A0E"/>
<path d="M110.677 175.053C110.677 174.765 110.677 174.472 110.677 174.184C110.688 174.363 110.755 174.548 110.876 174.7C111.087 174.977 108.546 173.484 150.266 197.112C150.781 197.405 151.656 197.579 152.591 197.384C153.134 197.264 153.339 197.107 154.086 196.683C154.086 196.965 154.086 197.253 154.086 197.541L153.322 197.97C152.641 198.361 151.75 198.41 150.997 198.252C150.404 198.122 152.946 199.49 111.314 175.916C110.854 175.661 110.677 175.319 110.677 175.053Z" fill="#FFB000"/>
<defs>
<linearGradient id="paint0_linear" x1="98.9012" y1="130.01" x2="296.599" y2="130.01" gradientUnits="userSpaceOnUse">
<stop stop-color="#FFC485"/>
<stop offset="1" stop-color="#D03E3E"/>
</linearGradient>
</defs>
</svg>
