<svg width="384" height="229" viewBox="0 0 384 229" fill="none" xmlns="http://www.w3.org/2000/svg">
<path d="M130.352 66.2892V60.2851C130.352 59.6993 129.876 59.2189 129.282 59.2189H127.73C127.277 59.2189 126.871 58.9143 126.771 58.4692C126.236 56.1378 125.319 53.947 124.084 51.9788C123.837 51.5863 123.884 51.0767 124.213 50.7486L125.307 49.6591C125.725 49.2432 125.725 48.5696 125.307 48.1537L121.044 43.9068C120.627 43.4909 119.95 43.4909 119.533 43.9068L118.445 44.9905C118.116 45.3185 117.604 45.3654 117.21 45.1194C115.229 43.8892 113.036 42.9754 110.696 42.4424C110.255 42.3428 109.943 41.9386 109.943 41.4876V39.947C109.943 39.3612 109.467 38.8809 108.873 38.8809H102.846C102.258 38.8809 101.776 39.3553 101.776 39.947V41.4876C101.776 41.9386 101.47 42.3428 101.023 42.4424C98.6829 42.9754 96.4838 43.8892 94.5023 45.1194C94.1083 45.3654 93.5968 45.3185 93.2675 44.9905L92.1797 43.9068C91.7622 43.4909 91.086 43.4909 90.6686 43.9068L86.4056 48.1537C85.9882 48.5696 85.9882 49.2432 86.4056 49.6591L87.4934 50.7428C87.8227 51.0708 87.8697 51.5804 87.6228 51.9729C86.388 53.947 85.4766 56.1319 84.9357 58.4633C84.8357 58.9026 84.43 59.2131 83.9772 59.2131H82.4249C81.8369 59.2131 81.3548 59.6876 81.3548 60.2792V66.2834C81.3548 66.8692 81.8311 67.3495 82.4249 67.3495H83.9772C84.43 67.3495 84.8357 67.6541 84.9357 68.0993C85.4707 70.4307 86.388 72.6215 87.6228 74.5897C87.8697 74.9821 87.8227 75.4918 87.4934 75.8198L86.3998 76.9093C85.9823 77.3252 85.9823 77.9989 86.3998 78.4148L90.6627 82.6616C91.0802 83.0775 91.7563 83.0775 92.1738 82.6616L93.2675 81.5721C93.5968 81.2441 94.1083 81.1972 94.5023 81.4432C96.4779 82.6733 98.677 83.5813 101.017 84.1144C101.458 84.2139 101.77 84.6181 101.77 85.0692V86.6156C101.77 87.2014 102.246 87.6817 102.84 87.6817H108.867C109.455 87.6817 109.937 87.2072 109.937 86.6156V85.0692C109.937 84.6181 110.249 84.2139 110.69 84.1144C113.03 83.5813 115.223 82.6675 117.205 81.4432C117.599 81.1972 118.11 81.2441 118.439 81.5721L119.533 82.6616C119.95 83.0775 120.627 83.0775 121.044 82.6616L125.307 78.4148C125.725 77.9989 125.725 77.3252 125.307 76.9093L124.213 75.8198C123.884 75.4918 123.837 74.9821 124.084 74.5897C125.319 72.6215 126.23 70.4307 126.771 68.0993C126.871 67.66 127.277 67.3495 127.73 67.3495H129.282C129.876 67.3495 130.352 66.875 130.352 66.2892ZM105.868 80.2131C96.4838 80.2131 88.887 72.6273 88.887 63.2784C88.887 53.9411 96.4838 46.3612 105.868 46.3612C115.252 46.3612 122.849 53.947 122.849 63.2784C122.849 72.6273 115.252 80.2131 105.868 80.2131Z" stroke="#DEE3FC" stroke-width="0.7896" stroke-miterlimit="10"/>
<path d="M158.07 86.6098V82.5152C158.07 82.1169 157.747 81.7889 157.341 81.7889H156.282C155.971 81.7889 155.7 81.578 155.63 81.2792C155.265 79.6918 154.642 78.1981 153.801 76.8567C153.631 76.5872 153.666 76.2416 153.889 76.019L154.63 75.2809C154.912 74.9997 154.912 74.537 154.63 74.2558L151.726 71.3621C151.443 71.0809 150.979 71.0809 150.697 71.3621L149.956 72.1002C149.732 72.3228 149.385 72.3579 149.115 72.188C147.768 71.3504 146.269 70.7294 144.676 70.3663C144.376 70.296 144.164 70.0265 144.164 69.7161V68.6675C144.164 68.2692 143.841 67.9412 143.435 67.9412H139.325C138.925 67.9412 138.596 68.2633 138.596 68.6675V69.7161C138.596 70.0265 138.384 70.296 138.084 70.3663C136.491 70.7294 134.991 71.3504 133.645 72.188C133.374 72.3579 133.027 72.3228 132.804 72.1002L132.063 71.3621C131.781 71.0809 131.316 71.0809 131.034 71.3621L128.129 74.2558C127.847 74.537 127.847 74.9997 128.129 75.2809L128.87 76.019C129.094 76.2416 129.129 76.5872 128.959 76.8567C128.118 78.1981 127.494 79.6918 127.13 81.2792C127.059 81.578 126.789 81.7889 126.477 81.7889H125.419C125.019 81.7889 124.69 82.111 124.69 82.5152V86.6098C124.69 87.0081 125.013 87.3362 125.419 87.3362H126.477C126.789 87.3362 127.059 87.547 127.13 87.8458C127.494 89.4332 128.118 90.927 128.959 92.2684C129.129 92.5378 129.094 92.8834 128.87 93.106L128.129 93.8441C127.847 94.1253 127.847 94.588 128.129 94.8692L131.034 97.7629C131.316 98.0441 131.781 98.0441 132.063 97.7629L132.81 97.019C133.033 96.7964 133.38 96.7613 133.651 96.9311C134.997 97.7688 136.497 98.3897 138.09 98.7529C138.39 98.8232 138.602 99.0927 138.602 99.4031V100.458C138.602 100.856 138.925 101.184 139.331 101.184H143.441C143.841 101.184 144.17 100.862 144.17 100.458V99.4031C144.17 99.0927 144.382 98.8232 144.681 98.7529C146.275 98.3897 147.774 97.7688 149.121 96.9311C149.391 96.7613 149.738 96.7964 149.962 97.019L150.708 97.7629C150.991 98.0441 151.455 98.0441 151.737 97.7629L154.642 94.8692C154.924 94.588 154.924 94.1253 154.642 93.8441L153.895 93.1002C153.672 92.8776 153.636 92.532 153.807 92.2625C154.648 90.9211 155.271 89.4274 155.636 87.8399C155.706 87.5412 155.977 87.3303 156.288 87.3303H157.347C157.747 87.3362 158.07 87.014 158.07 86.6098ZM141.383 95.4491C135.35 95.4491 130.464 90.5696 130.464 84.5596C130.464 78.5554 135.35 73.6818 141.383 73.6818C147.416 73.6818 152.302 78.5613 152.302 84.5596C152.308 90.5755 147.421 95.4491 141.383 95.4491Z" fill="#DEE3FC"/>
<path d="M80.7315 194.949C81.8324 194.949 82.7248 194.06 82.7248 192.963C82.7248 191.866 81.8324 190.977 80.7315 190.977C79.6306 190.977 78.7382 191.866 78.7382 192.963C78.7382 194.06 79.6306 194.949 80.7315 194.949Z" fill="#A4AFFF"/>
<path d="M347.462 140.753C348.563 140.753 349.455 139.864 349.455 138.767C349.455 137.67 348.563 136.781 347.462 136.781C346.361 136.781 345.469 137.67 345.469 138.767C345.469 139.864 346.361 140.753 347.462 140.753Z" fill="#A4AFFF"/>
<path d="M343.481 69.9269C344.582 69.9269 345.474 69.0378 345.474 67.9411C345.474 66.8444 344.582 65.9553 343.481 65.9553C342.38 65.9553 341.488 66.8444 341.488 67.9411C341.488 69.0378 342.38 69.9269 343.481 69.9269Z" fill="#A4AFFF"/>
<path d="M271.893 45.1134C272.582 45.1134 273.14 44.5575 273.14 43.8716C273.14 43.1858 272.582 42.6298 271.893 42.6298C271.205 42.6298 270.647 43.1858 270.647 43.8716C270.647 44.5575 271.205 45.1134 271.893 45.1134Z" fill="#A4AFFF"/>
<path d="M88.5224 27.3001C88.5224 27.9855 87.9638 28.542 87.2758 28.542C86.5879 28.542 86.0293 27.9855 86.0293 27.3001C86.0293 26.6148 86.5879 26.0583 87.2758 26.0583C87.9638 26.0524 88.5224 26.6089 88.5224 27.3001Z" fill="#A4AFFF"/>
<path d="M116.164 103.913C116.164 104.599 115.605 105.155 114.917 105.155C114.229 105.155 113.671 104.599 113.671 103.913C113.671 103.228 114.229 102.672 114.917 102.672C115.605 102.672 116.164 103.228 116.164 103.913Z" fill="#A4AFFF"/>
<path d="M70.3476 194.949C70.3476 195.634 69.789 196.19 69.1011 196.19C68.4131 196.19 67.8546 195.634 67.8546 194.949C67.8546 194.263 68.4131 193.707 69.1011 193.707C69.789 193.707 70.3476 194.263 70.3476 194.949Z" fill="#A4AFFF"/>
<path d="M318.256 196.126C319.357 196.126 320.25 195.237 320.25 194.14C320.25 193.044 319.357 192.155 318.256 192.155C317.155 192.155 316.263 193.044 316.263 194.14C316.263 195.237 317.155 196.126 318.256 196.126Z" fill="#A4AFFF"/>
<path d="M360.592 196.126C361.692 196.126 362.585 195.237 362.585 194.14C362.585 193.044 361.692 192.155 360.592 192.155C359.491 192.155 358.598 193.044 358.598 194.14C358.598 195.237 359.491 196.126 360.592 196.126Z" fill="#A4AFFF"/>
<path d="M122.849 23.8733C123.95 23.8733 124.843 22.9842 124.843 21.8875C124.843 20.7908 123.95 19.9017 122.849 19.9017C121.748 19.9017 120.856 20.7908 120.856 21.8875C120.856 22.9842 121.748 23.8733 122.849 23.8733Z" fill="#A4AFFF"/>
<path d="M260.222 112.132C260.222 113.596 259.028 114.786 257.558 114.786C256.088 114.786 254.894 113.596 254.894 112.132C254.894 110.668 256.088 109.478 257.558 109.478C259.028 109.478 260.222 110.668 260.222 112.132Z" fill="#A4AFFF"/>
<path d="M63.7327 79.3168C63.7327 80.7812 62.5391 81.9703 61.0691 81.9703C59.5991 81.9703 58.4055 80.7812 58.4055 79.3168C58.4055 77.8523 59.5991 76.6632 61.0691 76.6632C62.5391 76.6632 63.7327 77.8465 63.7327 79.3168Z" fill="#A4AFFF"/>
<path d="M56.2358 39.7009H52.8843C52.6667 39.7009 52.4962 39.5251 52.4962 39.3143V35.9754C52.4962 35.7586 52.6726 35.5887 52.8843 35.5887H56.2358C56.4534 35.5887 56.6239 35.7645 56.6239 35.9754V39.3143C56.6298 39.5251 56.4534 39.7009 56.2358 39.7009Z" fill="white"/>
<path d="M61.7629 39.7009H58.4114C58.1938 39.7009 58.0233 39.5251 58.0233 39.3143V35.9754C58.0233 35.7586 58.1997 35.5887 58.4114 35.5887H61.7629C61.9805 35.5887 62.151 35.7645 62.151 35.9754V39.3143C62.151 39.5251 61.9805 39.7009 61.7629 39.7009Z" fill="white"/>
<path d="M67.2901 39.7009H63.9385C63.721 39.7009 63.5505 39.5251 63.5505 39.3143V35.9754C63.5505 35.7586 63.7269 35.5887 63.9385 35.5887H67.2901C67.5077 35.5887 67.6782 35.7645 67.6782 35.9754V39.3143C67.6782 39.5251 67.5077 39.7009 67.2901 39.7009Z" fill="white"/>
<path d="M337.636 184.229H334.285C334.067 184.229 333.897 184.053 333.897 183.842V180.504C333.897 180.287 334.073 180.117 334.285 180.117H337.636C337.854 180.117 338.024 180.293 338.024 180.504V183.842C338.03 184.053 337.854 184.229 337.636 184.229Z" fill="#DEE3FC"/>
<path d="M343.163 184.229H339.812C339.594 184.229 339.424 184.053 339.424 183.842V180.504C339.424 180.287 339.6 180.117 339.812 180.117H343.163C343.381 180.117 343.552 180.293 343.552 180.504V183.842C343.552 184.053 343.381 184.229 343.163 184.229Z" fill="#DEE3FC"/>
<path d="M348.691 184.229H345.339C345.122 184.229 344.951 184.053 344.951 183.842V180.504C344.951 180.287 345.127 180.117 345.339 180.117H348.691C348.908 180.117 349.079 180.293 349.079 180.504V183.842C349.079 184.053 348.902 184.229 348.691 184.229Z" fill="#DEE3FC"/>
<path d="M82.178 181.974H78.8264C78.6089 181.974 78.4384 181.798 78.4384 181.587V178.248C78.4384 178.032 78.6148 177.862 78.8264 177.862H82.178C82.3955 177.862 82.5661 178.037 82.5661 178.248V181.587C82.5661 181.798 82.3897 181.974 82.178 181.974Z" fill="#DEE3FC"/>
<path d="M87.6992 181.974H84.3477C84.1301 181.974 83.9596 181.798 83.9596 181.587V178.248C83.9596 178.032 84.136 177.862 84.3477 177.862H87.6992C87.9168 177.862 88.0873 178.037 88.0873 178.248V181.587C88.0932 181.798 87.9168 181.974 87.6992 181.974Z" fill="#DEE3FC"/>
<path d="M93.2263 181.974H89.8748C89.6572 181.974 89.4867 181.798 89.4867 181.587V178.248C89.4867 178.032 89.6631 177.862 89.8748 177.862H93.2263C93.4439 177.862 93.6144 178.037 93.6144 178.248V181.587C93.6203 181.798 93.4439 181.974 93.2263 181.974Z" fill="#DEE3FC"/>
<path d="M231.939 217.343H152.384C145.452 217.343 139.831 211.743 139.831 204.837V28.4247C139.831 21.5185 145.452 15.9185 152.384 15.9185H231.939C238.872 15.9185 244.493 21.5185 244.493 28.4247V204.837C244.493 211.749 238.872 217.343 231.939 217.343Z" fill="#949DF7"/>
<path d="M231.534 214.484H152.784C146.71 214.484 141.789 209.581 141.789 203.53V28.6415C141.789 22.5904 146.71 17.6875 152.784 17.6875H231.534C237.607 17.6875 242.529 22.5904 242.529 28.6415V203.53C242.529 209.581 237.607 214.484 231.534 214.484Z" fill="white"/>
<path d="M238.119 28.2959V202.986C238.119 207.08 234.785 210.401 230.675 210.401H153.642C149.532 210.401 146.198 207.08 146.198 202.986V28.2959C146.198 24.2014 149.532 20.88 153.642 20.88H166.49C167.201 20.88 167.854 21.2783 168.172 21.9168L169.536 24.629C170.159 25.8825 171.441 26.6675 172.834 26.6675H211.477C212.871 26.6675 214.153 25.8825 214.776 24.629L216.14 21.9168C216.457 21.2842 217.11 20.88 217.822 20.88H230.669C234.785 20.8742 238.119 24.1955 238.119 28.2959Z" fill="#DEE3FC"/>
<path d="M208.378 23.4867H177.256C176.533 23.4867 175.945 22.9009 175.945 22.1804C175.945 21.4599 176.533 20.8741 177.256 20.8741H208.378C209.102 20.8741 209.69 21.4599 209.69 22.1804C209.69 22.9009 209.102 23.4867 208.378 23.4867Z" fill="#DEE3FC"/>
<path d="M225.895 204.339H156.635C153.913 204.339 151.708 202.142 151.708 199.43V175.067C151.708 172.355 153.913 170.159 156.635 170.159H225.895C228.617 170.159 230.822 172.355 230.822 175.067V199.43C230.822 202.142 228.617 204.339 225.895 204.339Z" stroke="#698BD1" stroke-miterlimit="10" stroke-linecap="round" stroke-linejoin="round" stroke-dasharray="2.84 2.84"/>
<path d="M222.384 120.462H188.028C186.064 120.462 184.477 118.874 184.477 116.924V100.006C184.477 98.0499 186.07 96.4683 188.028 96.4683H222.384C224.348 96.4683 225.936 98.0557 225.936 100.006V116.924C225.936 118.88 224.348 120.462 222.384 120.462Z" stroke="#698BD1" stroke-miterlimit="10" stroke-linecap="round" stroke-linejoin="round" stroke-dasharray="2.84 2.84"/>
<path d="M229.781 164.471H158.823C156.482 164.471 154.589 162.585 154.589 160.253V130.437C154.589 128.106 156.482 126.22 158.823 126.22H229.781C232.121 126.22 234.015 128.106 234.015 130.437V160.253C234.015 162.585 232.121 164.471 229.781 164.471Z" fill="#7481BC"/>
<path d="M230.822 127.339V157.172C230.822 159.498 228.929 161.378 226.594 161.378H155.936C153.601 161.378 151.708 159.498 151.708 157.172V127.339C151.708 125.013 153.601 123.127 155.936 123.127H226.594C228.929 123.127 230.822 125.013 230.822 127.339Z" fill="#7F95F4"/>
<path d="M179.038 158.267H158.223C156.647 158.267 155.365 156.99 155.365 155.421V134.684C155.365 133.114 156.647 131.837 158.223 131.837H179.038C180.613 131.837 181.895 133.114 181.895 134.684V155.421C181.895 156.99 180.613 158.267 179.038 158.267Z" fill="white"/>
<path d="M203.71 135.176H185.376C184.876 135.176 184.471 134.772 184.471 134.274C184.471 133.776 184.876 133.372 185.376 133.372H203.71C204.21 133.372 204.615 133.776 204.615 134.274C204.609 134.778 204.204 135.176 203.71 135.176Z" fill="#B2C1F9"/>
<path d="M195.354 138.767H185.376C184.876 138.767 184.471 138.363 184.471 137.865C184.471 137.367 184.876 136.963 185.376 136.963H195.354C195.854 136.963 196.26 137.367 196.26 137.865C196.254 138.369 195.848 138.767 195.354 138.767Z" fill="#B2C1F9"/>
<path d="M226.024 138.767H199.023C198.524 138.767 198.118 138.363 198.118 137.865C198.118 137.367 198.524 136.963 199.023 136.963H226.024C226.524 136.963 226.93 137.367 226.93 137.865C226.93 138.369 226.524 138.767 226.024 138.767Z" fill="#B2C1F9"/>
<path d="M200.811 142.358H185.37C184.871 142.358 184.465 141.954 184.465 141.456C184.465 140.958 184.871 140.554 185.37 140.554H200.811C201.311 140.554 201.717 140.958 201.717 141.456C201.717 141.954 201.311 142.358 200.811 142.358Z" fill="#B2C1F9"/>
<path d="M213.917 142.358H204.21C203.71 142.358 203.304 141.954 203.304 141.456C203.304 140.958 203.71 140.554 204.21 140.554H213.917C214.417 140.554 214.823 140.958 214.823 141.456C214.823 141.954 214.417 142.358 213.917 142.358Z" fill="#B2C1F9"/>
<path d="M226.024 142.358H217.087C216.587 142.358 216.181 141.954 216.181 141.456C216.181 140.958 216.587 140.554 217.087 140.554H226.024C226.524 140.554 226.93 140.958 226.93 141.456C226.93 141.954 226.524 142.358 226.024 142.358Z" fill="#B2C1F9"/>
<path d="M226.024 145.949H185.37C184.871 145.949 184.465 145.545 184.465 145.047C184.465 144.549 184.871 144.145 185.37 144.145H226.024C226.524 144.145 226.93 144.549 226.93 145.047C226.93 145.545 226.524 145.949 226.024 145.949Z" fill="#B2C1F9"/>
<path d="M207.749 149.539H185.376C184.876 149.539 184.471 149.135 184.471 148.637C184.471 148.139 184.876 147.735 185.376 147.735H207.749C208.249 147.735 208.655 148.139 208.655 148.637C208.649 149.135 208.249 149.539 207.749 149.539Z" fill="#B2C1F9"/>
<path d="M226.024 149.539H211.354C210.854 149.539 210.448 149.135 210.448 148.637C210.448 148.139 210.854 147.735 211.354 147.735H226.024C226.524 147.735 226.93 148.139 226.93 148.637C226.93 149.135 226.524 149.539 226.024 149.539Z" fill="#B2C1F9"/>
<path d="M198.518 153.13H185.37C184.871 153.13 184.465 152.726 184.465 152.228C184.465 151.73 184.871 151.326 185.37 151.326H198.518C199.018 151.326 199.423 151.73 199.423 152.228C199.423 152.726 199.018 153.13 198.518 153.13Z" fill="#B2C1F9"/>
<path d="M215.223 153.13H202.075C201.575 153.13 201.17 152.726 201.17 152.228C201.17 151.73 201.575 151.326 202.075 151.326H215.223C215.722 151.326 216.128 151.73 216.128 152.228C216.128 152.726 215.722 153.13 215.223 153.13Z" fill="#B2C1F9"/>
<path d="M226.024 153.13H218.398C217.898 153.13 217.492 152.726 217.492 152.228C217.492 151.73 217.898 151.326 218.398 151.326H226.024C226.524 151.326 226.93 151.73 226.93 152.228C226.93 152.726 226.524 153.13 226.024 153.13Z" fill="#B2C1F9"/>
<path d="M203.71 156.721H185.376C184.876 156.721 184.471 156.317 184.471 155.819C184.471 155.321 184.876 154.917 185.376 154.917H203.71C204.21 154.917 204.615 155.321 204.615 155.819C204.609 156.317 204.204 156.721 203.71 156.721Z" fill="#B2C1F9"/>
<path d="M226.024 135.176H207.69C207.191 135.176 206.785 134.772 206.785 134.274C206.785 133.776 207.191 133.372 207.69 133.372H226.024C226.524 133.372 226.93 133.776 226.93 134.274C226.93 134.778 226.524 135.176 226.024 135.176Z" fill="#B2C1F9"/>
<path d="M230.822 127.339V128.592H151.708V127.339C151.708 125.013 153.601 123.127 155.936 123.127H226.594C228.929 123.127 230.822 125.013 230.822 127.339Z" fill="#839AEF"/>
<path d="M215.911 125.956C215.911 126.495 215.47 126.934 214.929 126.934C214.388 126.934 213.947 126.495 213.947 125.956C213.947 125.417 214.388 124.978 214.929 124.978C215.47 124.978 215.911 125.417 215.911 125.956Z" fill="#DEE3FC"/>
<path d="M220.92 125.956C220.92 126.495 220.479 126.934 219.938 126.934C219.397 126.934 218.956 126.495 218.956 125.956C218.956 125.417 219.397 124.978 219.938 124.978C220.479 124.978 220.92 125.417 220.92 125.956Z" fill="#DEE3FC"/>
<path d="M225.936 125.956C225.936 126.495 225.495 126.934 224.954 126.934C224.413 126.934 223.972 126.495 223.972 125.956C223.972 125.417 224.413 124.978 224.954 124.978C225.501 124.978 225.936 125.417 225.936 125.956Z" fill="#DEE3FC"/>
<path d="M176.198 120.462H160.54C158.217 120.462 156.335 118.587 156.335 116.273V100.674C156.335 98.3603 158.217 96.4858 160.54 96.4858H176.198C178.52 96.4858 180.402 98.3603 180.402 100.674V116.273C180.402 118.587 178.52 120.462 176.198 120.462Z" stroke="#909DFF" stroke-width="0.8956" stroke-miterlimit="10"/>
<path d="M164.614 105.009L161.151 108.459L164.644 111.944" stroke="#909DFF" stroke-width="1.6716" stroke-miterlimit="10" stroke-linecap="round" stroke-linejoin="round"/>
<path d="M172.123 105.009L175.592 108.459L172.099 111.944" stroke="#909DFF" stroke-width="1.6716" stroke-miterlimit="10" stroke-linecap="round" stroke-linejoin="round"/>
<path d="M169.994 105.009L166.749 111.944" stroke="#909DFF" stroke-width="1.6716" stroke-miterlimit="10" stroke-linecap="round" stroke-linejoin="round"/>
<path d="M230.822 37.967V86.7445C230.822 89.3922 228.67 91.5361 226.012 91.5361H156.518C153.866 91.5361 151.708 89.3922 151.708 86.7445V37.967C151.708 35.3193 153.866 33.1754 156.518 33.1754H226.012C228.67 33.1754 230.822 35.3193 230.822 37.967Z" fill="#B2C1F9"/>
<path d="M214.799 60.0098C221.132 60.0098 226.265 54.8957 226.265 48.5872C226.265 42.2786 221.132 37.1646 214.799 37.1646C208.467 37.1646 203.333 42.2786 203.333 48.5872C203.333 54.8957 208.467 60.0098 214.799 60.0098Z" fill="#F0F4FF"/>
<path d="M198.212 91.5361H156.518C153.866 91.5361 151.708 89.3922 151.708 86.7445V79.065L169.953 47.5796C170.906 45.9336 173.293 45.9336 174.246 47.5796L188.022 71.3503L198.253 89.0056C198.747 89.8491 198.671 90.8098 198.212 91.5361Z" fill="white"/>
<path d="M216.193 91.5361H176.321L188.022 71.3503L194.325 60.4725C195.184 58.9905 197.33 58.9905 198.189 60.4725L216.193 91.5361Z" fill="#F0F4FF"/>
<path d="M339.859 91.536H308.66C306.661 91.536 305.038 93.1528 305.038 95.1444V102.49C305.038 104.329 306.42 105.846 308.202 106.069C308.46 106.104 308.66 106.321 308.66 106.585V110.603C308.66 110.837 308.96 110.931 309.095 110.744L312.276 106.315C312.376 106.175 312.535 106.098 312.706 106.098H339.865C341.864 106.098 343.487 104.482 343.487 102.49V95.1444C343.481 93.1528 341.858 91.536 339.859 91.536Z" stroke="white" stroke-width="0.8956" stroke-miterlimit="10"/>
<path d="M313.447 98.8055C313.447 99.4615 312.911 99.9946 312.253 99.9946C311.594 99.9946 311.059 99.4615 311.059 98.8055C311.059 98.1494 311.594 97.6163 312.253 97.6163C312.911 97.6163 313.447 98.1494 313.447 98.8055Z" stroke="white" stroke-width="0.8956" stroke-miterlimit="10"/>
<path d="M319.45 98.8055C319.45 99.4615 318.915 99.9946 318.256 99.9946C317.598 99.9946 317.063 99.4615 317.063 98.8055C317.063 98.1494 317.598 97.6163 318.256 97.6163C318.915 97.6163 319.45 98.1494 319.45 98.8055Z" stroke="white" stroke-width="0.8956" stroke-miterlimit="10"/>
<path d="M325.447 98.8055C325.447 99.4615 324.912 99.9946 324.254 99.9946C323.595 99.9946 323.06 99.4615 323.06 98.8055C323.06 98.1494 323.595 97.6163 324.254 97.6163C324.918 97.6163 325.447 98.1494 325.447 98.8055Z" stroke="white" stroke-width="0.8956" stroke-miterlimit="10"/>
<path d="M331.451 98.8055C331.451 99.4615 330.916 99.9946 330.257 99.9946C329.599 99.9946 329.064 99.4615 329.064 98.8055C329.064 98.1494 329.599 97.6163 330.257 97.6163C330.922 97.6163 331.451 98.1494 331.451 98.8055Z" stroke="white" stroke-width="0.8956" stroke-miterlimit="10"/>
<path d="M337.454 98.8055C337.454 99.4615 336.919 99.9946 336.261 99.9946C335.602 99.9946 335.067 99.4615 335.067 98.8055C335.067 98.1494 335.602 97.6163 336.261 97.6163C336.925 97.6163 337.454 98.1494 337.454 98.8055Z" stroke="white" stroke-width="0.8956" stroke-miterlimit="10"/>
<path d="M93.3145 123.73H124.513C126.513 123.73 128.135 125.347 128.135 127.339V134.684C128.135 136.524 126.754 138.041 124.972 138.263C124.713 138.298 124.513 138.515 124.513 138.779V142.797C124.513 143.032 124.213 143.125 124.078 142.938L120.897 138.509C120.797 138.369 120.638 138.293 120.468 138.293H93.3087C91.3095 138.293 89.6866 136.676 89.6866 134.684V127.339C89.6925 125.341 91.3154 123.73 93.3145 123.73Z" stroke="white" stroke-width="0.8956" stroke-miterlimit="10"/>
<path d="M119.727 130.994C119.727 131.65 120.262 132.183 120.921 132.183C121.579 132.183 122.114 131.65 122.114 130.994C122.114 130.338 121.579 129.805 120.921 129.805C120.262 129.811 119.727 130.338 119.727 130.994Z" stroke="white" stroke-width="0.8956" stroke-miterlimit="10"/>
<path d="M113.724 130.994C113.724 131.65 114.259 132.183 114.917 132.183C115.576 132.183 116.111 131.65 116.111 130.994C116.111 130.338 115.576 129.805 114.917 129.805C114.259 129.811 113.724 130.338 113.724 130.994Z" stroke="white" stroke-width="0.8956" stroke-miterlimit="10"/>
<path d="M107.72 130.994C107.72 131.65 108.255 132.183 108.914 132.183C109.573 132.183 110.108 131.65 110.108 130.994C110.108 130.338 109.573 129.805 108.914 129.805C108.255 129.811 107.72 130.338 107.72 130.994Z" stroke="white" stroke-width="0.8956" stroke-miterlimit="10"/>
<path d="M101.717 130.994C101.717 131.65 102.252 132.183 102.911 132.183C103.569 132.183 104.104 131.65 104.104 130.994C104.104 130.338 103.569 129.805 102.911 129.805C102.252 129.811 101.717 130.338 101.717 130.994Z" stroke="white" stroke-width="0.8956" stroke-miterlimit="10"/>
<path d="M95.7136 130.994C95.7136 131.65 96.2486 132.183 96.9072 132.183C97.5657 132.183 98.1008 131.65 98.1008 130.994C98.1008 130.338 97.5657 129.805 96.9072 129.805C96.2486 129.811 95.7136 130.338 95.7136 130.994Z" stroke="white" stroke-width="0.8956" stroke-miterlimit="10"/>
<path d="M281.742 74.5955H224.872C221.738 74.5955 219.192 72.0649 219.192 68.9369C219.192 65.8147 221.732 63.2783 224.872 63.2783H281.742C284.876 63.2783 287.422 65.8089 287.422 68.9369C287.422 72.0649 284.882 74.5955 281.742 74.5955Z" fill="white" stroke="#909DFF" stroke-width="0.8956" stroke-miterlimit="10"/>
<path d="M280.913 68.5503C280.913 70.2139 279.561 71.5612 277.891 71.5612C276.221 71.5612 274.868 70.2139 274.868 68.5503C274.868 66.8867 276.221 65.5394 277.891 65.5394C279.561 65.5394 280.913 66.8867 280.913 68.5503Z" stroke="#909DFF" stroke-width="1.6716" stroke-miterlimit="10"/>
<path d="M280.025 70.6766L281.695 72.3344" stroke="#909DFF" stroke-width="1.6716" stroke-miterlimit="10" stroke-linecap="round"/>
<path d="M195.601 228.461H181.296C178.791 228.461 176.762 226.44 176.762 223.944V209.698C176.762 207.203 178.791 205.182 181.296 205.182H195.601C198.106 205.182 200.135 207.203 200.135 209.698V223.95C200.135 226.44 198.1 228.461 195.601 228.461Z" fill="#788CE1"/>
<path d="M191.338 228.461H177.033C174.528 228.461 172.499 226.44 172.499 223.944V209.698C172.499 207.203 174.528 205.182 177.033 205.182H191.338C193.843 205.182 195.872 207.203 195.872 209.698V223.95C195.872 226.44 193.843 228.461 191.338 228.461Z" fill="#909DFF"/>
<path d="M181.425 212.428L188.134 216.288C188.546 216.529 188.546 217.12 188.134 217.36L181.425 221.221C181.013 221.461 180.496 221.162 180.496 220.688V212.973C180.496 212.487 181.013 212.188 181.425 212.428Z" fill="white"/>
<path d="M343.587 228.461H324.889C321.62 228.461 318.962 225.819 318.962 222.556V203.923C318.962 200.666 321.614 198.018 324.889 198.018H343.593C346.862 198.018 349.52 200.66 349.52 203.923V222.556C349.514 225.819 346.862 228.461 343.587 228.461Z" fill="#788CE1"/>
<path d="M338.019 228.461H319.315C316.045 228.461 313.388 225.819 313.388 222.556V203.923C313.388 200.666 316.04 198.018 319.315 198.018H338.019C341.288 198.018 343.946 200.66 343.946 203.923V222.556C343.946 225.819 341.294 228.461 338.019 228.461Z" fill="#909DFF"/>
<path d="M332.339 205.493C332.339 207.513 330.698 209.148 328.67 209.148C326.641 209.148 325 207.508 325 205.493C325 203.472 326.641 201.837 328.67 201.837C330.698 201.837 332.339 203.477 332.339 205.493Z" fill="white"/>
<path d="M336.319 217.876V223.277C336.319 223.763 335.925 224.161 335.431 224.161H321.902C321.414 224.161 321.014 223.763 321.014 223.277V217.876C321.014 213.664 324.442 210.255 328.664 210.255C332.897 210.255 336.319 213.664 336.319 217.876Z" fill="white"/>
<path d="M260.345 81.1151H248.332C247.833 81.1151 247.427 80.7109 247.427 80.213C247.427 79.7151 247.833 79.3109 248.332 79.3109H260.345C260.845 79.3109 261.251 79.7151 261.251 80.213C261.251 80.7109 260.845 81.1151 260.345 81.1151Z" fill="#F0F4FF"/>
<path d="M272.364 81.1151H263.673C263.173 81.1151 262.768 80.7109 262.768 80.213C262.768 79.7151 263.173 79.3109 263.673 79.3109H272.364C272.863 79.3109 273.269 79.7151 273.269 80.213C273.263 80.7109 272.863 81.1151 272.364 81.1151Z" fill="#F0F4FF"/>
<path d="M253.436 85.0691H248.332C247.833 85.0691 247.427 84.6649 247.427 84.167C247.427 83.6691 247.833 83.2649 248.332 83.2649H253.436C253.936 83.2649 254.342 83.6691 254.342 84.167C254.342 84.6649 253.936 85.0691 253.436 85.0691Z" fill="#F0F4FF"/>
<path d="M272.364 85.0691H256.47C255.97 85.0691 255.565 84.6649 255.565 84.167C255.565 83.6691 255.97 83.2649 256.47 83.2649H272.364C272.863 83.2649 273.269 83.6691 273.269 84.167C273.263 84.6649 272.863 85.0691 272.364 85.0691Z" fill="#F0F4FF"/>
<path d="M264.167 89.0231H248.332C247.833 89.0231 247.427 88.6189 247.427 88.121C247.427 87.6231 247.833 87.2189 248.332 87.2189H264.167C264.667 87.2189 265.073 87.6231 265.073 88.121C265.073 88.6189 264.667 89.0231 264.167 89.0231Z" fill="#F0F4FF"/>
<path d="M272.364 89.0231H267.26C266.76 89.0231 266.354 88.6189 266.354 88.121C266.354 87.6231 266.76 87.2189 267.26 87.2189H272.364C272.863 87.2189 273.269 87.6231 273.269 88.121C273.263 88.6189 272.863 89.0231 272.364 89.0231Z" fill="#F0F4FF"/>
<path d="M108.244 172.959H66.3081C65.0675 172.959 64.062 171.957 64.062 170.721V149.633C64.062 148.397 65.0675 147.396 66.3081 147.396H108.244C109.484 147.396 110.49 148.397 110.49 149.633V170.721C110.49 171.957 109.484 172.959 108.244 172.959Z" fill="#788CE1"/>
<path d="M66.0318 150.846H108.514" stroke="white" stroke-width="0.8956" stroke-miterlimit="10" stroke-linecap="round"/>
<path d="M107.397 149.604C107.683 149.604 107.914 149.373 107.914 149.088C107.914 148.804 107.683 148.573 107.397 148.573C107.111 148.573 106.88 148.804 106.88 149.088C106.88 149.373 107.111 149.604 107.397 149.604Z" fill="white"/>
<path d="M104.71 149.604C104.996 149.604 105.227 149.373 105.227 149.088C105.227 148.804 104.996 148.573 104.71 148.573C104.424 148.573 104.192 148.804 104.192 149.088C104.192 149.373 104.424 149.604 104.71 149.604Z" fill="white"/>
<path d="M102.029 149.604C102.314 149.604 102.546 149.373 102.546 149.088C102.546 148.804 102.314 148.573 102.029 148.573C101.743 148.573 101.511 148.804 101.511 149.088C101.511 149.373 101.743 149.604 102.029 149.604Z" fill="white"/>
<path d="M73.952 154.284H66.7433C66.3493 154.284 66.0318 153.968 66.0318 153.575C66.0318 153.183 66.3493 152.867 66.7433 152.867H73.952C74.346 152.867 74.6635 153.183 74.6635 153.575C74.6635 153.968 74.346 154.284 73.952 154.284Z" fill="#6589D1"/>
<path d="M73.952 157.559H66.7433C66.3493 157.559 66.0318 157.242 66.0318 156.85C66.0318 156.457 66.3493 156.141 66.7433 156.141H73.952C74.346 156.141 74.6635 156.457 74.6635 156.85C74.6635 157.242 74.346 157.559 73.952 157.559Z" fill="#6589D1"/>
<path d="M73.952 160.827H66.7433C66.3493 160.827 66.0318 160.511 66.0318 160.118C66.0318 159.726 66.3493 159.41 66.7433 159.41H73.952C74.346 159.41 74.6635 159.726 74.6635 160.118C74.6635 160.511 74.346 160.827 73.952 160.827Z" fill="#6589D1"/>
<path d="M73.952 164.096H66.7433C66.3493 164.096 66.0318 163.78 66.0318 163.387C66.0318 162.995 66.3493 162.678 66.7433 162.678H73.952C74.346 162.678 74.6635 162.995 74.6635 163.387C74.6635 163.78 74.346 164.096 73.952 164.096Z" fill="#6589D1"/>
<path d="M73.952 167.37H66.7433C66.3493 167.37 66.0318 167.054 66.0318 166.662C66.0318 166.269 66.3493 165.953 66.7433 165.953H73.952C74.346 165.953 74.6635 166.269 74.6635 166.662C74.6635 167.054 74.346 167.37 73.952 167.37Z" fill="#6589D1"/>
<path d="M73.952 170.639H66.7433C66.3493 170.639 66.0318 170.323 66.0318 169.93C66.0318 169.538 66.3493 169.221 66.7433 169.221H73.952C74.346 169.221 74.6635 169.538 74.6635 169.93C74.6635 170.323 74.346 170.639 73.952 170.639Z" fill="#6589D1"/>
<path d="M107.809 154.284H76.745C76.3511 154.284 76.0336 153.968 76.0336 153.575C76.0336 153.183 76.3511 152.867 76.745 152.867H107.809C108.203 152.867 108.52 153.183 108.52 153.575C108.514 153.968 108.197 154.284 107.809 154.284Z" fill="#3B5FB7"/>
<path d="M107.809 157.559H76.745C76.3511 157.559 76.0336 157.242 76.0336 156.85C76.0336 156.457 76.3511 156.141 76.745 156.141H107.809C108.203 156.141 108.52 156.457 108.52 156.85C108.514 157.242 108.197 157.559 107.809 157.559Z" fill="#3B5FB7"/>
<path d="M107.809 160.827H76.745C76.3511 160.827 76.0336 160.511 76.0336 160.118C76.0336 159.726 76.3511 159.41 76.745 159.41H107.809C108.203 159.41 108.52 159.726 108.52 160.118C108.514 160.511 108.197 160.827 107.809 160.827Z" fill="#3B5FB7"/>
<path d="M107.809 164.096H76.745C76.3511 164.096 76.0336 163.78 76.0336 163.387C76.0336 162.995 76.3511 162.678 76.745 162.678H107.809C108.203 162.678 108.52 162.995 108.52 163.387C108.514 163.78 108.197 164.096 107.809 164.096Z" fill="#3B5FB7"/>
<path d="M107.809 167.37H76.745C76.3511 167.37 76.0336 167.054 76.0336 166.662C76.0336 166.269 76.3511 165.953 76.745 165.953H107.809C108.203 165.953 108.52 166.269 108.52 166.662C108.514 167.054 108.197 167.37 107.809 167.37Z" fill="#3B5FB7"/>
<path d="M107.809 170.639H76.745C76.3511 170.639 76.0336 170.323 76.0336 169.93C76.0336 169.538 76.3511 169.221 76.745 169.221H107.809C108.203 169.221 108.52 169.538 108.52 169.93C108.514 170.323 108.197 170.639 107.809 170.639Z" fill="#3B5FB7"/>
<path d="M325.919 39.3941C328.379 29.1659 322.05 18.8877 311.783 16.4372C301.517 13.9866 291.199 20.2916 288.74 30.5198C286.28 40.748 292.609 51.0262 302.876 53.4768C313.143 55.9274 323.46 49.6223 325.919 39.3941Z" stroke="#DEE3FC" stroke-width="0.7896" stroke-miterlimit="10"/>
<path d="M314.054 50.111C322.447 46.4119 326.24 36.6355 322.527 28.2746C318.814 19.9138 309.001 16.1347 300.608 19.8337C292.216 23.5328 288.422 33.3093 292.135 41.6701C295.848 50.0309 305.662 53.81 314.054 50.111Z" fill="#949DF7"/>
<path d="M308.837 34.962C308.837 35.7938 308.16 36.4674 307.325 36.4674C306.491 36.4674 305.814 35.7938 305.814 34.962C305.814 34.1302 306.491 33.4565 307.325 33.4565C308.16 33.4565 308.837 34.1302 308.837 34.962Z" fill="white"/>
<path d="M307.161 34.6632C306.932 34.7921 306.643 34.7101 306.52 34.4816L301.634 25.7009C301.504 25.4724 301.587 25.1854 301.816 25.0624C302.045 24.9335 302.333 25.0155 302.457 25.244L307.343 34.0247C307.473 34.2532 307.39 34.5402 307.161 34.6632Z" fill="white"/>
<path d="M307.567 35.2021C307.749 35.0205 308.049 35.0205 308.237 35.2021L312.465 39.4138C312.647 39.5954 312.647 39.8942 312.465 40.0816C312.282 40.2632 311.982 40.2632 311.794 40.0816L307.567 35.8699C307.384 35.6824 307.384 35.3837 307.567 35.2021Z" fill="white"/>
<path d="M307.431 21.7118V19.808" stroke="white" stroke-width="2" stroke-miterlimit="10" stroke-linecap="round"/>
<path d="M320.626 35.0615H322.537" stroke="white" stroke-width="2" stroke-miterlimit="10" stroke-linecap="round"/>
<path d="M307.226 48.2122V50.1159" stroke="white" stroke-width="2" stroke-miterlimit="10" stroke-linecap="round"/>
<path d="M294.025 34.8624H292.114" stroke="white" stroke-width="2" stroke-miterlimit="10" stroke-linecap="round"/>
<g opacity="0.5">
<path opacity="0.5" d="M300.764 23.4339L299.811 21.7878" stroke="#DEE3FC" stroke-miterlimit="10" stroke-linecap="round"/>
<path opacity="0.5" d="M318.897 28.4247L320.549 27.4757" stroke="#DEE3FC" stroke-miterlimit="10" stroke-linecap="round"/>
<path opacity="0.5" d="M313.888 46.49L314.846 48.136" stroke="#DEE3FC" stroke-miterlimit="10" stroke-linecap="round"/>
<path opacity="0.5" d="M295.76 41.4991L294.102 42.454" stroke="#DEE3FC" stroke-miterlimit="10" stroke-linecap="round"/>
</g>
<g opacity="0.5">
<path opacity="0.5" d="M295.86 28.249L294.202 27.3" stroke="#DEE3FC" stroke-miterlimit="10" stroke-linecap="round"/>
<path opacity="0.5" d="M314.064 23.5393L315.022 21.8875" stroke="#DEE3FC" stroke-miterlimit="10" stroke-linecap="round"/>
<path opacity="0.5" d="M318.791 41.6749L320.449 42.6239" stroke="#DEE3FC" stroke-miterlimit="10" stroke-linecap="round"/>
<path opacity="0.5" d="M300.587 46.3845L299.635 48.0364" stroke="#DEE3FC" stroke-miterlimit="10" stroke-linecap="round"/>
</g>
<path d="M80.2376 130.783H59.2523C56.1477 130.783 53.6252 128.276 53.6252 125.177V104.271C53.6252 101.178 56.1418 98.6649 59.2523 98.6649H80.2376C83.3422 98.6649 85.8647 101.172 85.8647 104.271V125.177C85.8647 128.276 83.3481 130.783 80.2376 130.783Z" fill="#788CE1"/>
<path d="M78.8617 128H55.6361C53.1489 128 51.1262 125.991 51.1262 123.508V100.369C51.1262 97.8916 53.143 95.8766 55.6361 95.8766H78.8617C81.3489 95.8766 83.3716 97.8858 83.3716 100.369V123.508C83.3657 125.991 81.3489 128 78.8617 128Z" fill="#7E89FD" stroke="#DEE3FC" stroke-miterlimit="10"/>
<path d="M72.829 108.266H72.6585V106.426C72.6585 103.404 70.1948 100.949 67.1607 100.949C64.1267 100.949 61.663 103.404 61.663 106.426V108.266H61.6278C60.7752 108.266 60.0872 108.951 60.0872 109.801V116.736C60.0872 117.585 60.7752 118.271 61.6278 118.271H72.829C73.6816 118.271 74.3695 117.585 74.3695 116.736V109.801C74.3754 108.951 73.6816 108.266 72.829 108.266ZM63.0625 106.426C63.0625 104.171 64.9029 102.338 67.1666 102.338C69.4304 102.338 71.2708 104.171 71.2708 106.426V108.266H63.0625V106.426V106.426Z" fill="#DEE3FC"/>
<path d="M69.0423 111.827C69.0423 110.72 68.031 109.847 66.8785 110.076C66.2023 110.211 65.6378 110.767 65.4967 111.441C65.3262 112.255 65.7143 112.999 66.3434 113.368C66.4728 113.444 66.5434 113.585 66.5081 113.725L66.1964 114.873C66.0083 115.553 66.5257 116.227 67.2372 116.227C67.9487 116.227 68.4602 115.553 68.2779 114.873L67.9722 113.737C67.931 113.591 68.0075 113.45 68.1368 113.374C68.6719 113.069 69.0423 112.495 69.0423 111.827Z" fill="#7E89FD"/>
<path d="M73.711 120.702H60.7516C60.3871 120.702 60.0872 120.409 60.0872 120.04C60.0872 119.677 60.3812 119.378 60.7516 119.378H73.711C74.0755 119.378 74.3754 119.671 74.3754 120.04C74.3754 120.409 74.0755 120.702 73.711 120.702Z" fill="#DEE3FC"/>
<path d="M73.711 122.939H60.7516C60.3871 122.939 60.0872 122.647 60.0872 122.278C60.0872 121.914 60.3812 121.616 60.7516 121.616H73.711C74.0755 121.616 74.3754 121.908 74.3754 122.278C74.3754 122.641 74.0755 122.939 73.711 122.939Z" fill="#DEE3FC"/>
<path d="M334.203 168.542H321.849C320.02 168.542 318.539 167.066 318.539 165.244V152.937C318.539 151.115 320.02 149.639 321.849 149.639H334.203C336.031 149.639 337.513 151.115 337.513 152.937V165.244C337.513 167.066 336.031 168.542 334.203 168.542Z" fill="#788CE1"/>
<path d="M333.391 166.902H319.714C318.25 166.902 317.063 165.718 317.063 164.26V150.641C317.063 149.182 318.25 147.999 319.714 147.999H333.385C334.849 147.999 336.037 149.182 336.037 150.641V164.26C336.043 165.718 334.855 166.902 333.391 166.902Z" fill="#7E89FD" stroke="#DEE3FC" stroke-miterlimit="10"/>
<path d="M322.719 163.094C322.666 163.094 322.613 163.088 322.56 163.071C322.249 162.983 322.066 162.661 322.155 162.35L325.024 152.228C325.112 151.918 325.442 151.736 325.747 151.824C326.059 151.912 326.241 152.234 326.153 152.544L323.284 162.667C323.213 162.924 322.972 163.094 322.719 163.094Z" fill="white"/>
<path d="M327.517 163.094C327.464 163.094 327.411 163.088 327.358 163.071C327.047 162.983 326.864 162.661 326.953 162.35L329.822 152.228C329.91 151.918 330.24 151.736 330.545 151.824C330.857 151.912 331.039 152.234 330.951 152.544L328.082 162.667C328.011 162.924 327.776 163.094 327.517 163.094Z" fill="white"/>
<path d="M331.633 155.737H321.473C321.149 155.737 320.885 155.473 320.885 155.151C320.885 154.829 321.149 154.565 321.473 154.565H331.633C331.956 154.565 332.221 154.829 332.221 155.151C332.221 155.473 331.956 155.737 331.633 155.737Z" fill="white"/>
<path d="M331.633 160.364H321.473C321.149 160.364 320.885 160.101 320.885 159.779C320.885 159.456 321.149 159.193 321.473 159.193H331.633C331.956 159.193 332.221 159.456 332.221 159.779C332.221 160.101 331.956 160.364 331.633 160.364Z" fill="white"/>
<path d="M105.063 108.477H97.7127C97.2658 108.477 96.9072 108.119 96.9072 107.674C96.9072 107.229 97.2658 106.872 97.7127 106.872H105.063C105.509 106.872 105.868 107.229 105.868 107.674C105.868 108.113 105.509 108.477 105.063 108.477Z" fill="#F0F4FF"/>
<path d="M112.465 112.038H97.7127C97.2658 112.038 96.9072 111.681 96.9072 111.236C96.9072 110.79 97.2658 110.433 97.7127 110.433H112.465C112.912 110.433 113.271 110.79 113.271 111.236C113.271 111.681 112.912 112.038 112.465 112.038Z" fill="#F0F4FF"/>
<path d="M99.4532 115.6H97.7127C97.2658 115.6 96.9072 115.242 96.9072 114.797C96.9072 114.352 97.2658 113.995 97.7127 113.995H99.4532C99.9 113.995 100.259 114.352 100.259 114.797C100.265 115.242 99.9 115.6 99.4532 115.6Z" fill="#F0F4FF"/>
<path d="M112.465 115.6H102.193C101.746 115.6 101.388 115.242 101.388 114.797C101.388 114.352 101.746 113.995 102.193 113.995H112.465C112.912 113.995 113.271 114.352 113.271 114.797C113.271 115.242 112.912 115.6 112.465 115.6Z" fill="#F0F4FF"/>
<path d="M112.465 108.477H108.008C107.562 108.477 107.203 108.119 107.203 107.674C107.203 107.229 107.562 106.872 108.008 106.872H112.465C112.912 106.872 113.271 107.229 113.271 107.674C113.271 108.113 112.912 108.477 112.465 108.477Z" fill="#F0F4FF"/>
<path d="M71.0239 217.97C70.0654 217.97 69.1717 218.233 68.4014 218.684C68.0957 215.949 65.7672 213.828 62.939 213.828C59.9049 213.828 57.4413 216.277 57.4413 219.305C57.4413 219.51 57.453 219.709 57.4765 219.903C57.2237 219.856 56.965 219.832 56.7004 219.832C54.3837 219.832 52.5021 221.707 52.5021 224.015C52.5021 226.323 54.3837 228.197 56.7004 228.197H71.018C73.8521 228.197 76.1511 225.907 76.1511 223.083C76.157 220.26 73.858 217.97 71.0239 217.97Z" fill="white"/>
<path d="M34.6037 196.021C34.4626 195.253 34.4861 194.474 34.6742 193.724C35.321 191.206 36.0619 186.461 34.4155 181.341C31.6696 172.795 20.5389 165.232 20.5389 165.232C20.5389 165.232 23.5612 177.838 26.0425 183.21C27.8594 187.14 31.0405 191.616 32.8103 193.97C33.2983 194.626 33.6335 195.376 33.7805 196.179C35.5797 206.102 35.321 213.781 35.3151 213.898L36.1501 213.934C36.156 213.805 36.4206 206.043 34.6037 196.021Z" fill="#DEE3FC"/>
<path d="M43.4765 187.984C45.6873 181.019 46.7163 172.812 46.7163 172.812C46.7163 172.812 36.7381 181.019 35.9149 187.363C35.4151 191.252 36.0384 194.369 36.597 196.208C36.8322 196.987 36.9204 197.801 36.8322 198.61C35.8208 207.953 36.6146 215.111 36.6264 215.222L37.379 215.134C37.3672 215.029 36.6323 208.369 37.4966 199.541C37.6142 198.334 38.1022 197.192 38.8725 196.243C40.3013 194.492 42.3475 191.557 43.4765 187.984Z" fill="#B4C1EF"/>
<path d="M53.6252 172.49C53.6252 172.49 42.8708 176.468 40.0602 185.213C38.3492 190.538 39.1547 195.458 39.825 198.006C40.0132 198.721 40.0014 199.471 39.825 200.186C37.3084 210.255 37.2673 220.676 37.2673 220.811H38.1257C38.1257 220.676 38.1669 210.501 40.5953 200.631C40.8364 199.652 41.2656 198.727 41.8712 197.919C43.7058 195.458 46.828 191.03 48.6331 187.123C51.1733 181.628 53.6252 172.49 53.6252 172.49Z" fill="#DEE3FC"/>
<path d="M34.6507 209.406C34.3861 205.744 33.3807 202.447 32.1694 199.682C31.9283 199.125 31.8401 198.522 31.9166 197.924C32.0695 196.77 32.1283 194.972 31.6637 192.693C30.7935 188.4 25.0724 179.127 16.7935 178.582C16.7935 178.582 19.6511 183.157 21.1211 186.988C22.9791 191.832 25.6368 196.899 30.0409 198.844C30.817 199.184 31.4227 199.828 31.7461 200.607C32.8044 203.173 33.657 206.166 33.8981 209.464L34.6507 209.406Z" fill="#B4C1EF"/>
<path d="M29.0472 228.191H42.7121L46.2577 206.606C46.4164 205.651 45.6755 204.784 44.7054 204.784H27.0598C26.0896 204.784 25.3487 205.651 25.5075 206.606L29.0472 228.191Z" fill="#DEE3FC"/>
<path d="M1 228.191H383.323" stroke="white" stroke-width="1.1144" stroke-miterlimit="10" stroke-linecap="round"/>
</svg>
