<svg width="28" height="28" viewBox="0 0 28 28" fill="none" xmlns="http://www.w3.org/2000/svg">
<path fill-rule="evenodd" clip-rule="evenodd" d="M19 2.2H9C5.24446 2.2 2.2 5.24446 2.2 9V19C2.2 22.7555 5.24446 25.8 9 25.8H19C22.7555 25.8 25.8 22.7555 25.8 19V9C25.8 5.24446 22.7555 2.2 19 2.2ZM9 0C4.02944 0 0 4.02944 0 9V19C0 23.9706 4.02944 28 9 28H19C23.9706 28 28 23.9706 28 19V9C28 4.02944 23.9706 0 19 0H9Z" fill="#271D30"/>
<path d="M20.5 8H20H8H7.5C6.672 8 6 8.672 6 9.5V10V18V18.5C6 19.328 6.672 20 7.5 20H8H20H20.5C21.328 20 22 19.328 22 18.5V18V10V9.5C22 8.672 21.328 8 20.5 8ZM18.734 9L14 12.738L9.266 9H18.734ZM20 19H8V10.646L14 15.261L20 10.645V19Z" fill="#271D30"/>
<line x1="8" y1="18.5" x2="20" y2="18.5" stroke="#271D30"/>
</svg>
