<svg width="28" height="28" viewBox="0 0 28 28" fill="none" xmlns="http://www.w3.org/2000/svg">
<path fill-rule="evenodd" clip-rule="evenodd" d="M19 2.2H9C5.24446 2.2 2.2 5.24446 2.2 9V19C2.2 22.7555 5.24446 25.8 9 25.8H19C22.7555 25.8 25.8 22.7555 25.8 19V9C25.8 5.24446 22.7555 2.2 19 2.2ZM9 0C4.02944 0 0 4.02944 0 9V19C0 23.9706 4.02944 28 9 28H19C23.9706 28 28 23.9706 28 19V9C28 4.02944 23.9706 0 19 0H9Z" fill="#271D30"/>
<g clip-path="url(#clip0)">
<path d="M19.1065 14.2282C18.8316 13.8812 18.9103 13.7267 19.1065 13.4165C19.11 13.413 21.3788 10.2779 21.6125 9.21466L21.614 9.21396C21.7301 8.8265 21.614 8.54175 21.0522 8.54175H19.1936C18.7204 8.54175 18.5022 8.78612 18.3854 9.05954C18.3854 9.05954 17.439 11.3248 16.1003 12.7932C15.6682 13.2175 15.4685 13.3535 15.2326 13.3535C15.1164 13.3535 14.9358 13.2175 14.9358 12.83V9.21396C14.9358 8.74929 14.8033 8.54175 14.4116 8.54175H11.489C11.1922 8.54175 11.0159 8.7585 11.0159 8.96037C11.0159 9.40096 11.6852 9.50225 11.7547 10.7418V13.4314C11.7547 14.0207 11.6477 14.1291 11.4104 14.1291C10.7786 14.1291 9.24504 11.8546 8.33625 9.2515C8.15279 8.74646 7.97358 8.54246 7.49688 8.54246H5.6375C5.10696 8.54246 5 8.78683 5 9.06025C5 9.54333 5.63183 11.9453 7.93817 15.1186C9.47525 17.2847 11.6399 18.4584 13.6091 18.4584C14.7927 18.4584 14.9372 18.1978 14.9372 17.7494C14.9372 15.6796 14.8302 15.4841 15.4231 15.4841C15.698 15.4841 16.1711 15.6201 17.2761 16.6649C18.5391 17.9038 18.7466 18.4584 19.4535 18.4584H21.3122C21.842 18.4584 22.1105 18.1977 21.9561 17.6835C21.6026 16.6019 19.2141 14.377 19.1065 14.2282Z" fill="#271D30"/>
</g>
<defs>
<clipPath id="clip0">
<rect width="17" height="17" fill="white" transform="translate(5 5)"/>
</clipPath>
</defs>
</svg>
