<svg width="28" height="28" viewBox="0 0 28 28" fill="none" xmlns="http://www.w3.org/2000/svg">
<path fill-rule="evenodd" clip-rule="evenodd" d="M19 2.2H9C5.24446 2.2 2.2 5.24446 2.2 9V19C2.2 22.7555 5.24446 25.8 9 25.8H19C22.7555 25.8 25.8 22.7555 25.8 19V9C25.8 5.24446 22.7555 2.2 19 2.2ZM9 0C4.02944 0 0 4.02944 0 9V19C0 23.9706 4.02944 28 9 28H19C23.9706 28 28 23.9706 28 19V9C28 4.02944 23.9706 0 19 0H9Z" fill="#271D30"/>
<path d="M6.26494 13.2322L9.72124 14.5222L11.059 18.8245C11.1446 19.1001 11.4816 19.2019 11.7052 19.0191L13.6318 17.4485C13.8338 17.2839 14.1214 17.2757 14.3325 17.4289L17.8074 19.9518C18.0466 20.1257 18.3856 19.9946 18.4456 19.7055L20.9911 7.46094C21.0566 7.14514 20.7463 6.88169 20.4456 6.99799L6.26089 12.47C5.91084 12.605 5.91389 13.1006 6.26494 13.2322ZM10.8434 13.8355L17.5983 9.67514C17.7197 9.60059 17.8446 9.76474 17.7404 9.86144L12.1656 15.0434C11.9697 15.2258 11.8433 15.4699 11.8075 15.7349L11.6176 17.1422C11.5924 17.3301 11.3285 17.3487 11.2766 17.1669L10.5463 14.6006C10.4626 14.3079 10.5845 13.9953 10.8434 13.8355Z" fill="#271D30"/>
</svg>
