<svg width="14" height="14" viewBox="0 0 14 14" fill="none" xmlns="http://www.w3.org/2000/svg">
<g clip-path="url(#clip0)">
<path d="M9.10002 1.4H11.9C12.2856 1.4 12.6 1.71445 12.6 2.1V11.9C12.6 12.2855 12.2856 12.6 11.9 12.6H9.10002C8.71448 12.6 8.40002 12.9145 8.40002 13.3C8.40002 13.6855 8.71448 14 9.10002 14H11.9C13.0594 14 14 13.0594 14 11.9V2.1C14 0.940625 13.0594 0 11.9 0H9.10002C8.71448 0 8.40002 0.314453 8.40002 0.7C8.40002 1.08555 8.71448 1.4 9.10002 1.4Z" fill="#272727"/>
<path d="M6.09494 10.9949L9.59494 7.49491C9.72619 7.36366 9.80002 7.18319 9.80002 6.99999C9.80002 6.81678 9.72619 6.63632 9.59494 6.50507L6.09494 3.00507C5.82151 2.73163 5.37854 2.73163 5.1051 3.00507C4.83167 3.2785 4.83167 3.72147 5.1051 3.99491L8.11018 6.99999L5.1051 10.0051C4.83167 10.2785 4.83167 10.7215 5.1051 10.9949C5.37854 11.2683 5.82151 11.2683 6.09494 10.9949Z" fill="#272727"/>
<path d="M9.1 6.29999H0.7C0.314453 6.29999 0 6.61444 0 6.99999C0 7.38554 0.314453 7.69999 0.7 7.69999H9.1C9.48555 7.69999 9.8 7.38554 9.8 6.99999C9.8 6.61444 9.48555 6.29999 9.1 6.29999Z" fill="#272727"/>
</g>
<defs>
<clipPath id="clip0">
<rect width="14" height="14" fill="white"/>
</clipPath>
</defs>
</svg>
