<svg width="22" height="22" viewBox="0 0 22 22" fill="none" xmlns="http://www.w3.org/2000/svg">
<path d="M14.3 2.2H18.7C19.3059 2.2 19.8 2.69414 19.8 3.3V18.7C19.8 19.3059 19.3059 19.8 18.7 19.8H14.3C13.6942 19.8 13.2 20.2941 13.2 20.9C13.2 21.5059 13.6942 22 14.3 22H18.7C20.5219 22 22 20.5219 22 18.7V3.3C22 1.47813 20.5219 0 18.7 0H14.3C13.6942 0 13.2 0.494141 13.2 1.1C13.2 1.70586 13.6942 2.2 14.3 2.2Z" fill="#5B79FF"/>
<path d="M9.57771 17.2777L15.0777 11.7777C15.284 11.5715 15.4 11.2879 15.4 11C15.4 10.7121 15.284 10.4285 15.0777 10.2223L9.57771 4.72226C9.14803 4.29257 8.45193 4.29257 8.02225 4.72226C7.59256 5.15195 7.59256 5.84804 8.02225 6.27773L12.7445 11L8.02225 15.7223C7.59256 16.1519 7.59256 16.848 8.02225 17.2777C8.45193 17.7074 9.14803 17.7074 9.57771 17.2777Z" fill="#5B79FF"/>
<path d="M14.3 9.89999H1.1C0.494141 9.89999 0 10.3941 0 11C0 11.6059 0.494141 12.1 1.1 12.1H14.3C14.9059 12.1 15.4 11.6059 15.4 11C15.4 10.3941 14.9059 9.89999 14.3 9.89999Z" fill="#5B79FF"/>
</svg>
