<svg width="27" height="27" viewBox="0 0 27 27" fill="none" xmlns="http://www.w3.org/2000/svg">
<g clip-path="url(#clip0)">
<path d="M20.4462 25.6068C19.62 25.6068 18.8397 25.4502 18.1026 25.1343C17.3655 24.8211 16.7229 24.3891 16.1721 23.8383C15.6213 23.2875 15.1893 22.6449 14.8761 21.9078C14.5629 21.1707 14.4036 20.3904 14.4036 19.5642C14.4036 18.738 14.5602 17.9577 14.8761 17.2206C15.1893 16.4835 15.624 15.8463 16.1721 15.3063C16.7229 14.7663 17.3655 14.3397 18.1026 14.0238C18.8397 13.7106 19.62 13.5513 20.4462 13.5513C21.2724 13.5513 22.0527 13.7079 22.7898 14.0238C23.5269 14.337 24.1641 14.7663 24.7041 15.3063C25.2441 15.8463 25.6707 16.4862 25.9866 17.2206C26.2998 17.9577 26.4591 18.738 26.4591 19.5642C26.4591 20.3904 26.3025 21.1707 25.9866 21.9078C25.6734 22.6449 25.2441 23.2875 24.7041 23.8383C24.1641 24.3891 23.5242 24.8211 22.7898 25.1343C22.0527 25.4475 21.2724 25.6068 20.4462 25.6068ZM23.4243 18.5922H21.2427V16.5591C21.2427 16.2837 21.1536 16.0488 20.9781 15.8517C20.8026 15.6546 20.5758 15.5574 20.3004 15.5574C20.025 15.5574 19.809 15.6546 19.6524 15.8517C19.4958 16.0488 19.4175 16.2837 19.4175 16.5591V18.5922H17.5032C17.2278 18.5922 16.9929 18.6894 16.7958 18.8865C16.5987 19.0836 16.5015 19.3185 16.5015 19.5939C16.5015 19.8693 16.5987 20.0745 16.7958 20.2122C16.9929 20.3499 17.2278 20.4174 17.5032 20.4174H19.4175V22.5099C19.4175 22.7853 19.4958 23.0202 19.6524 23.2173C19.809 23.4144 20.025 23.5116 20.3004 23.5116C20.5758 23.5116 20.8026 23.4144 20.9781 23.2173C21.1536 23.0202 21.2427 22.7853 21.2427 22.5099V20.4174H23.4243V20.4768C23.6997 20.4768 23.9346 20.3985 24.1317 20.2419C24.3288 20.0853 24.426 19.8693 24.426 19.5939C24.426 19.3185 24.3288 19.0836 24.1317 18.8865C23.9346 18.6894 23.6997 18.5922 23.4243 18.5922ZM16.1451 11.2563C16.0668 11.5695 15.9885 11.8557 15.9102 12.1095C15.8319 12.3255 15.7347 12.5469 15.6159 12.7737C15.4971 13.0005 15.3702 13.1706 15.2325 13.2894C15.057 13.4271 14.9328 13.5756 14.8653 13.7322C14.7978 13.8888 14.7384 14.0508 14.6898 14.2182C14.6412 14.3856 14.5872 14.5557 14.5278 14.7339C14.4684 14.9094 14.3712 15.0876 14.2335 15.2631C13.7826 15.8517 13.4424 16.4214 13.2156 16.9722C12.9888 17.523 12.8322 18.0522 12.7431 18.5625C12.654 19.0728 12.6297 19.5804 12.6702 20.0799C12.7107 20.5821 12.789 21.0681 12.9051 21.5379C12.9834 21.8916 13.1022 22.2588 13.2588 22.6422C13.4154 23.0256 13.6476 23.4171 13.95 23.8221C14.2551 24.2244 14.6412 24.6186 15.1137 25.002C15.5862 25.3854 16.1748 25.7526 16.8822 26.1063C16.4097 26.2035 15.8616 26.2926 15.2325 26.3709C14.7033 26.4303 14.0499 26.4843 13.2723 26.5329C12.4974 26.5815 11.6064 26.6058 10.6047 26.6058C10.0944 26.6058 9.50044 26.5869 8.82274 26.5464C8.14504 26.5059 7.44844 26.4573 6.73024 26.3979C6.01204 26.3385 5.30464 26.271 4.60804 26.1927C3.91144 26.1144 3.27154 26.0307 2.69374 25.9416C2.11324 25.8525 1.62184 25.7607 1.21954 25.6608C0.817238 25.5636 0.566138 25.4745 0.468938 25.3962C0.293438 25.2396 0.155738 24.8022 0.0558383 24.084C-0.0413617 23.3658 -0.0116617 22.4289 0.144938 21.2706C0.242138 20.6226 0.504038 20.1258 0.925238 19.7829C1.34644 19.44 1.84324 19.17 2.41294 18.9729C2.98264 18.7758 3.57664 18.5949 4.19494 18.4275C4.81324 18.2601 5.35864 18.0306 5.83114 17.7363C6.20374 17.5014 6.48994 17.28 6.68434 17.0721C6.88144 16.8669 7.01914 16.6536 7.09744 16.4376C7.17574 16.2216 7.21624 15.9948 7.21624 15.7599C7.21624 15.525 7.20544 15.2685 7.18654 14.9931C7.14604 14.58 7.00564 14.256 6.75994 14.0211C6.51424 13.7862 6.25504 13.5486 5.97964 13.3137C5.82304 13.1949 5.68534 13.0194 5.56654 12.7845C5.44774 12.5496 5.35054 12.3228 5.27224 12.1068C5.17504 11.8503 5.09674 11.5668 5.03734 11.2536C4.89964 11.2131 4.77274 11.1564 4.65394 11.0781C4.55674 10.9998 4.44874 10.881 4.32994 10.7244C4.21114 10.5678 4.10314 10.3329 4.00594 10.017C3.90874 9.7227 3.87364 9.4473 3.90334 9.1908C3.93304 8.9343 3.98704 8.7183 4.06534 8.5428C4.14364 8.3268 4.25164 8.1405 4.38934 7.9839C4.38934 7.317 4.42984 6.6474 4.50814 5.9805C4.58644 5.4108 4.71064 4.8006 4.87534 4.1526C5.04274 3.5046 5.31274 2.9241 5.68534 2.4138C6.03904 1.9224 6.41704 1.5201 6.81934 1.2069C7.22164 0.891 7.64014 0.6453 8.07214 0.4698C8.50414 0.2916 8.93614 0.1701 9.36814 0.1026C9.80014 0.0351 10.2132 0 10.6047 0C11.115 0 11.6064 0.0594 12.0789 0.1782C12.5514 0.2916 12.9861 0.4509 13.3911 0.6453C13.7934 0.8424 14.1525 1.0638 14.4657 1.3095C14.7789 1.5552 15.0354 1.8063 15.2325 2.0601C15.6834 2.6298 16.0128 3.2589 16.2207 3.9447C16.4259 4.6332 16.5798 5.2812 16.677 5.8887C16.7742 6.5961 16.8147 7.3035 16.7958 8.0109C16.9146 8.1081 17.0118 8.2269 17.0901 8.3646C17.1684 8.4834 17.2278 8.64 17.2656 8.8371C17.3061 9.0342 17.3061 9.2799 17.2656 9.5742C17.2251 9.9468 17.1468 10.2411 17.0307 10.4571C16.9119 10.6731 16.785 10.8405 16.6473 10.9593C16.488 11.097 16.3233 11.1969 16.1451 11.2563Z" fill="white"/>
</g>
<defs>
<clipPath id="clip0">
<rect width="27" height="27" fill="white"/>
</clipPath>
</defs>
</svg>
