<svg width="55" height="48" viewBox="0 0 55 48" fill="none" xmlns="http://www.w3.org/2000/svg">
<path fill-rule="evenodd" clip-rule="evenodd" d="M22.0687 25.2869C21.6827 24.8999 21.2241 24.5926 20.7193 24.3827C20.2145 24.1728 19.6733 24.0644 19.1266 24.0637C18.5799 24.063 18.0384 24.17 17.533 24.3785C17.0277 24.5871 16.5683 24.8931 16.1812 25.2792C15.7941 25.6653 15.4869 26.1238 15.277 26.6286C15.0671 27.1334 14.9587 27.6746 14.958 28.2213C14.9573 28.768 15.0643 29.3095 15.2728 29.8149C15.4814 30.3203 15.7874 30.7796 16.1735 31.1667L32.2874 47.2399L38.1834 41.3589L22.0687 25.2869Z" fill="#F4A800"/>
<path fill-rule="evenodd" clip-rule="evenodd" d="M38.824 16.0719L22.7107 0L16.8154 5.88039L32.9288 21.953C33.3145 22.342 33.7732 22.6511 34.2786 22.8625C34.784 23.074 35.3262 23.1836 35.874 23.1851C36.4219 23.1866 36.9646 23.08 37.4712 22.8713C37.9777 22.6627 38.4381 22.3561 38.826 21.9692C39.2139 21.5823 39.5216 21.1226 39.7314 20.6165C39.9413 20.1105 40.0492 19.568 40.0491 19.0201C40.0489 18.4723 39.9406 17.9299 39.7304 17.4239C39.5201 16.918 39.2121 16.4586 38.824 16.0719V16.0719Z" fill="#F4A800"/>
<path fill-rule="evenodd" clip-rule="evenodd" d="M23.313 0.86326L22.7099 0L1.21961 21.3848C0.438709 22.1657 -2.17697e-08 23.2248 0 24.3292C2.17697e-08 25.4335 0.438709 26.4927 1.21961 27.2736C2.00052 28.0545 3.05965 28.4932 4.16401 28.4932C5.26838 28.4932 6.32751 28.0545 7.10842 27.2736L23.2004 11.2599C26.636 7.84117 24.7761 2.96511 23.313 0.86326Z" fill="#FFBB13"/>
<path fill-rule="evenodd" clip-rule="evenodd" d="M53.7838 19.974C53.0012 19.1945 51.9421 18.7563 50.8376 18.7549C49.7331 18.7536 48.6729 19.1893 47.8885 19.9669L31.7978 35.9799C28.3622 39.398 30.222 44.2747 31.6858 46.3753L32.287 47.2398L53.7773 25.8544C54.1642 25.469 54.4714 25.011 54.6812 24.5067C54.891 24.0024 54.9993 23.4617 54.9999 22.9156C55.0005 22.3694 54.8934 21.8285 54.6847 21.3237C54.476 20.819 54.1699 20.3603 53.7838 19.974V19.974Z" fill="#FFBB13"/>
</svg>
