<svg width="44" height="44" viewBox="0 0 44 44" fill="none" xmlns="http://www.w3.org/2000/svg">
<g clip-path="url(#clip0)">
<path d="M41.3816 29.8231L43.961 13.3533C44.2292 11.682 43.092 10.1094 41.4206 9.84042L6.61502 4.25398C4.94371 3.98577 3.37123 5.12298 3.10302 6.79429L1.86621 14.4966V29.7273L41.3816 29.8231Z" fill="#146AA8"/>
<path d="M41.4209 9.84043L31.5353 8.2542C24.8959 18.4133 14.1627 25.4497 5.93164 29.7372L41.3818 29.8231L43.9612 13.3533C44.2294 11.6819 43.0922 10.1094 41.4209 9.84043Z" fill="#126099"/>
<path d="M3.0653 13.7303H38.3161C40.0089 13.7303 41.3814 15.1028 41.3814 16.7956V36.72C41.3814 38.4128 40.0089 39.7853 38.3161 39.7853H3.0653C1.37251 39.7852 0 38.4128 0 36.72V16.7956C0 15.1028 1.37251 13.7303 3.0653 13.7303Z" fill="#4398D1"/>
<path d="M38.3163 13.7303H37.7032C30.4691 26.5731 16.952 35.3827 8.7002 39.7852H38.3163C40.0091 39.7852 41.3816 38.4127 41.3816 36.7199V16.7956C41.3816 15.1028 40.0091 13.7303 38.3163 13.7303Z" fill="#3E8CC7"/>
<path d="M11.4952 17.5619H3.83203V23.6925H11.4952V17.5619Z" fill="#FDB62F"/>
<path d="M6.13103 19.8609H3.83203V21.3935H6.13103V19.8609Z" fill="#FD7B2F"/>
<path d="M11.4953 19.8609H9.19629V21.3935H11.4953V19.8609Z" fill="#FD7B2F"/>
<path d="M33.7183 35.9536C35.8345 35.9536 37.5499 34.2381 37.5499 32.122C37.5499 30.0059 35.8345 28.2904 33.7183 28.2904C31.6022 28.2904 29.8867 30.0059 29.8867 32.122C29.8867 34.2381 31.6022 35.9536 33.7183 35.9536Z" fill="#FDB62F"/>
<path d="M29.1207 35.9536C31.2368 35.9536 32.9523 34.2381 32.9523 32.122C32.9523 30.0059 31.2368 28.2904 29.1207 28.2904C27.0045 28.2904 25.2891 30.0059 25.2891 32.122C25.2891 34.2381 27.0045 35.9536 29.1207 35.9536Z" fill="#DE4C3C"/>
<path d="M7.66333 29.0567H3.06543V30.5893H7.66333V29.0567Z" fill="#87CED9"/>
<path d="M15.3264 29.0567H10.7285V30.5893H15.3264V29.0567Z" fill="#87CED9"/>
<path d="M22.9895 29.0567H18.3916V30.5893H22.9895V29.0567Z" fill="#87CED9"/>
<path d="M22.9898 33.6547H3.06543V35.1873H22.9898V33.6547Z" fill="#87CED9"/>
<path d="M28.3539 17.5619H26.8213V20.6272H28.3539V17.5619Z" fill="#87CED9"/>
<path d="M31.4193 17.5619H29.8867V20.6272H31.4193V17.5619Z" fill="#87CED9"/>
<path d="M34.4847 17.5619H32.9521V20.6272H34.4847V17.5619Z" fill="#87CED9"/>
<path d="M37.5492 17.5619H36.0166V20.6272H37.5492V17.5619Z" fill="#87CED9"/>
</g>
<defs>
<clipPath id="clip0">
<rect width="44" height="44" fill="white"/>
</clipPath>
</defs>
</svg>
