<svg width="38" height="38" viewBox="0 0 38 38" fill="none" xmlns="http://www.w3.org/2000/svg">
<path d="M0 8C0 3.58172 3.58172 0 8 0H30C34.4183 0 38 3.58172 38 8V30C38 34.4183 34.4183 38 30 38H8C3.58172 38 0 34.4183 0 30V8Z" fill="#5B79FF"/>
<g clip-path="url(#clip0)">
<path d="M27.7364 12.6542C27.385 12.3027 26.8151 12.3027 26.4636 12.6542L15.6811 23.4369L11.5364 19.2922C11.185 18.9407 10.6151 18.9408 10.2636 19.2922C9.91213 19.6437 9.91213 20.2135 10.2636 20.565L15.0447 25.3459C15.396 25.6974 15.9662 25.6972 16.3175 25.3459L27.7364 13.927C28.0879 13.5755 28.0879 13.0057 27.7364 12.6542Z" fill="white"/>
</g>
<defs>
<clipPath id="clip0">
<rect width="18" height="18" fill="white" transform="translate(10 10)"/>
</clipPath>
</defs>
</svg>
