<svg width="9" height="9" viewBox="0 0 9 9" fill="none" xmlns="http://www.w3.org/2000/svg">
<path d="M5.32454 4.50737L8.82897 1.00285C9.05703 0.774893 9.05703 0.406322 8.82897 0.178367C8.60101 -0.0495882 8.23244 -0.0495882 8.00448 0.178367L4.49995 3.68289L0.995529 0.178367C0.767467 -0.0495882 0.399002 -0.0495882 0.171046 0.178367C-0.0570155 0.406322 -0.0570155 0.774893 0.171046 1.00285L3.67547 4.50737L0.171046 8.0119C-0.0570155 8.23986 -0.0570155 8.60843 0.171046 8.83638C0.28465 8.95009 0.434022 9.00721 0.583288 9.00721C0.732553 9.00721 0.881818 8.95009 0.995529 8.83638L4.49995 5.33186L8.00448 8.83638C8.11819 8.95009 8.26746 9.00721 8.41672 9.00721C8.56599 9.00721 8.71525 8.95009 8.82897 8.83638C9.05703 8.60843 9.05703 8.23986 8.82897 8.0119L5.32454 4.50737Z" fill="black"/>
</svg>
