<svg width="24" height="24" viewBox="0 0 24 24" fill="none" xmlns="http://www.w3.org/2000/svg">
<path d="M20.4853 3.51471C18.2188 1.2482 15.2053 0 12 0C8.79468 0 5.78122 1.2482 3.51471 3.51471C1.2482 5.78122 0 8.79468 0 12C0 15.2053 1.2482 18.2188 3.51471 20.4853C5.78122 22.7518 8.79468 24 12 24C15.2053 24 18.2188 22.7518 20.4853 20.4853C22.7518 18.2188 24 15.2053 24 12C24 8.79468 22.7518 5.78122 20.4853 3.51471Z" fill="#FFDA2D"/>
<path d="M20.4853 3.51471C18.2188 1.2482 15.2053 0 12 0V24C15.2053 24 18.2188 22.7518 20.4853 20.4853C22.7518 18.2188 24 15.2053 24 12C24 8.79468 22.7518 5.78122 20.4853 3.51471Z" fill="#FEBF01"/>
<path d="M12.0002 19.6726C9.7853 19.6726 7.73658 18.6666 6.37939 16.9125L7.49165 16.0519C8.58056 17.4592 10.2238 18.2664 12.0002 18.2664C13.7765 18.2664 15.4198 17.4592 16.5087 16.0519L17.621 16.9125C16.2637 18.6666 14.215 19.6726 12.0002 19.6726Z" fill="#606060"/>
<path d="M13.3445 8.04047H10.6567L2.41748 7.47607L2.97724 11.2748C3.09767 12.0919 3.50827 12.8391 4.13337 13.3789C4.75848 13.9186 5.55755 14.2158 6.38348 14.2158H7.89269C9.79117 14.2158 11.3357 12.6713 11.3357 10.7729V9.44674H12.6655V10.7729C12.6655 12.6713 14.21 14.2158 16.1085 14.2158H17.6177C18.4436 14.2158 19.2427 13.9186 19.8678 13.3789C20.4929 12.8391 20.9035 12.0919 21.0239 11.2748L21.5837 7.47607L13.3445 8.04047Z" fill="#404040"/>
<path d="M17.6208 16.9124L16.5085 16.0519C15.4196 17.4592 13.7764 18.2663 12 18.2663V19.6726C14.2149 19.6726 16.2636 18.6666 17.6208 16.9124Z" fill="#404040"/>
<path d="M13.3444 8.04047H12V9.44679H12.6654V10.7729C12.6654 12.6714 14.2099 14.2159 16.1084 14.2159H17.6176C18.4435 14.2159 19.2426 13.9186 19.8677 13.3789C20.4928 12.8391 20.9034 12.0919 21.0239 11.2749L21.5836 7.47612L13.3444 8.04047Z" fill="#242424"/>
</svg>
