<svg width="1240" height="294" viewBox="0 0 1240 294" fill="none" xmlns="http://www.w3.org/2000/svg">
<rect y="2" width="1240" height="291" rx="11" fill="white"/>
<rect x="756.255" width="6.765" height="293.15" rx="3.3825" fill="#EFF3FE" fill-opacity="0.5"/>
<rect x="754" y="135.3" width="11.275" height="157.85" rx="5.6375" fill="url(#paint0_linear)" fill-opacity="0.5"/>
<rect x="754" y="90.2" width="11.275" height="33.825" rx="5.6375" fill="url(#paint1_linear)" fill-opacity="0.5"/>
<rect x="801.354" width="6.765" height="293.15" rx="3.3825" fill="#EFF3FE" fill-opacity="0.5"/>
<rect x="799.1" y="225.5" width="11.275" height="67.65" rx="5.6375" fill="url(#paint2_linear)" fill-opacity="0.5"/>
<rect x="799.1" y="45.1" width="11.275" height="169.125" rx="5.6375" fill="url(#paint3_linear)" fill-opacity="0.5"/>
<rect x="848.709" width="6.765" height="293.15" rx="3.3825" fill="#EFF3FE" fill-opacity="0.5"/>
<rect x="846.455" y="157.85" width="11.275" height="135.3" rx="5.6375" fill="url(#paint4_linear)" fill-opacity="0.5"/>
<rect x="846.455" y="56.375" width="11.275" height="90.2" rx="5.6375" fill="url(#paint5_linear)" fill-opacity="0.5"/>
<rect x="896.065" width="6.765" height="293.15" rx="3.3825" fill="#EFF3FE" fill-opacity="0.5"/>
<rect x="893.81" y="157.85" width="11.275" height="135.3" rx="5.6375" fill="url(#paint6_linear)" fill-opacity="0.5"/>
<rect x="893.81" y="124.025" width="11.275" height="22.55" rx="5.6375" fill="url(#paint7_linear)" fill-opacity="0.5"/>
<rect x="943.419" width="6.765" height="293.15" rx="3.3825" fill="#EFF3FE" fill-opacity="0.5"/>
<rect x="941.165" y="135.3" width="11.275" height="157.85" rx="5.6375" fill="url(#paint8_linear)" fill-opacity="0.5"/>
<rect x="941.165" y="33.825" width="11.275" height="90.2" rx="5.6375" fill="url(#paint9_linear)" fill-opacity="0.5"/>
<rect x="990.775" width="6.765" height="293.15" rx="3.3825" fill="#EFF3FE" fill-opacity="0.5"/>
<rect x="988.52" y="169.125" width="11.275" height="124.025" rx="5.6375" fill="url(#paint10_linear)" fill-opacity="0.5"/>
<rect x="988.52" y="90.2" width="11.275" height="67.65" rx="5.6375" fill="url(#paint11_linear)" fill-opacity="0.5"/>
<rect x="1038.13" width="6.765" height="293.15" rx="3.3825" fill="#EFF3FE" fill-opacity="0.5"/>
<rect x="1035.87" y="101.475" width="11.275" height="191.675" rx="5.6375" fill="url(#paint12_linear)" fill-opacity="0.5"/>
<rect x="1035.87" y="45.1" width="11.275" height="45.1" rx="5.6375" fill="url(#paint13_linear)" fill-opacity="0.5"/>
<rect x="1083.23" width="6.765" height="293.15" rx="3.3825" fill="#EFF3FE" fill-opacity="0.5"/>
<rect x="1080.98" y="157.85" width="11.275" height="135.3" rx="5.6375" fill="url(#paint14_linear)" fill-opacity="0.5"/>
<rect x="1080.98" y="101.475" width="11.275" height="45.1" rx="5.6375" fill="url(#paint15_linear)" fill-opacity="0.5"/>
<rect x="1130.58" width="6.765" height="293.15" rx="3.3825" fill="#EFF3FE" fill-opacity="0.5"/>
<rect x="1128.33" y="259.325" width="11.275" height="33.825" rx="5.6375" fill="url(#paint16_linear)" fill-opacity="0.5"/>
<rect x="1128.33" y="78.925" width="11.275" height="169.125" rx="5.6375" fill="url(#paint17_linear)" fill-opacity="0.5"/>
<rect x="1175.68" width="6.765" height="293.15" rx="3.3825" fill="#EFF3FE" fill-opacity="0.5"/>
<rect x="1173.43" y="180.4" width="11.275" height="112.75" rx="5.6375" fill="url(#paint18_linear)" fill-opacity="0.5"/>
<rect x="1173.43" y="56.375" width="11.275" height="112.75" rx="5.6375" fill="url(#paint19_linear)" fill-opacity="0.5"/>
<rect x="1216.27" width="6.765" height="293.15" rx="3.3825" fill="#EFF3FE" fill-opacity="0.5"/>
<rect x="1214.02" y="202.95" width="11.275" height="90.2" rx="5.6375" fill="url(#paint20_linear)" fill-opacity="0.5"/>
<rect x="1214.02" y="101.475" width="11.275" height="90.2" rx="5.6375" fill="url(#paint21_linear)" fill-opacity="0.5"/>
<path fill-rule="evenodd" clip-rule="evenodd" d="M981.5 74.0871C969.49 74.0871 959.754 83.9744 959.754 96.1709V170.181C959.754 173.478 957.123 176.15 953.877 176.15C950.631 176.15 948 173.478 948 170.181V96.1709C948 77.3817 962.998 62.15 981.5 62.15C1000 62.15 1015 77.3816 1015 96.1709V99.1643C1015 102.461 1012.37 105.133 1009.12 105.133C1005.88 105.133 1003.25 102.461 1003.25 99.1643V96.1709C1003.25 83.9744 993.51 74.0871 981.5 74.0871Z" fill="url(#paint22_linear)"/>
<mask id="mask0" mask-type="alpha" maskUnits="userSpaceOnUse" x="947" y="61" width="69" height="116">
<path fill-rule="evenodd" clip-rule="evenodd" d="M981.384 73.7594C969.15 73.7594 959.233 83.6766 959.233 95.91V170.144C959.233 173.451 956.553 176.131 953.246 176.131C949.94 176.131 947.26 173.451 947.26 170.144V95.91C947.26 77.0639 962.538 61.7861 981.384 61.7861C1000.23 61.7861 1015.51 77.0639 1015.51 95.91V98.9124C1015.51 102.219 1012.83 104.899 1009.52 104.899C1006.21 104.899 1003.53 102.219 1003.53 98.9124V95.91C1003.53 83.6766 993.617 73.7594 981.384 73.7594Z" fill="#4D94FF"/>
</mask>
<g mask="url(#mask0)">
<path d="M960.441 83.9367C960.441 72.4506 972.251 63.0064 987.372 61.8954C989.021 61.7743 990.363 60.446 990.363 58.7928V52.8062C990.363 51.153 989.019 49.8054 987.368 49.8837C963.305 51.0261 944.266 65.8355 944.266 83.9367V158.171C944.266 161.477 947.887 164.158 952.353 164.158C956.82 164.158 960.441 161.477 960.441 158.171V83.9367Z" fill="url(#paint23_linear)"/>
</g>
<path d="M1042 191.15C1042 224.287 1014.91 251.15 981.5 251.15C948.087 251.15 921 224.287 921 191.15C921 158.013 948.087 131.15 981.5 131.15C1014.91 131.15 1042 158.013 1042 191.15Z" fill="url(#paint24_linear)"/>
<mask id="mask1" mask-type="alpha" maskUnits="userSpaceOnUse" x="921" y="130" width="121" height="121">
<path d="M1041.85 190.798C1041.85 224.027 1014.91 250.964 981.683 250.964C948.454 250.964 921.517 224.027 921.517 190.798C921.517 157.57 948.454 130.633 981.683 130.633C1014.91 130.633 1041.85 157.57 1041.85 190.798Z" fill="url(#paint25_linear)"/>
</mask>
<g mask="url(#mask1)">
<path d="M1044.24 189.002C1044.24 222.231 1017.31 249.168 984.078 249.168C950.849 249.168 923.912 222.231 923.912 189.002C923.912 155.774 950.849 128.837 984.078 128.837C1017.31 128.837 1044.24 155.774 1044.24 189.002Z" fill="#4383FF"/>
<path d="M1048.43 187.206C1048.43 220.435 1021.5 247.372 988.268 247.372C955.04 247.372 928.103 220.435 928.103 187.206C928.103 153.978 955.04 127.041 988.268 127.041C1021.5 127.041 1048.43 153.978 1048.43 187.206Z" fill="url(#paint26_linear)"/>
</g>
<path d="M991.2 191.996C991.2 190.891 991.805 189.895 992.695 189.278C997.101 186.225 1000 181.039 1000 175.156C1000 165.764 992.613 158.15 983.5 158.15C974.387 158.15 967 165.764 967 175.156C967 180.765 969.635 185.74 973.698 188.837C974.518 189.462 975.067 190.419 975.067 191.469V220.168C975.067 221.815 976.363 223.15 977.961 223.15H988.305C989.904 223.15 991.2 221.815 991.2 220.168V191.996Z" fill="url(#paint27_linear)"/>
<g filter="url(#filter0_b)">
<path d="M1006 194.15C1006 187.523 1011.31 182.15 1017.86 182.15H1077.14C1083.69 182.15 1089 187.523 1089 194.15V254.15C1089 260.777 1083.69 266.15 1077.14 266.15H1017.86C1011.31 266.15 1006 260.777 1006 254.15V194.15Z" fill="#B9CDFF" fill-opacity="0.5"/>
</g>
<path d="M1045.93 195.822C1046.37 194.926 1047.63 194.926 1048.07 195.822L1055.49 211.008C1055.66 211.364 1056 211.611 1056.39 211.668L1072.98 214.103C1073.96 214.247 1074.35 215.462 1073.64 216.159L1061.63 227.98C1061.35 228.257 1061.22 228.656 1061.29 229.047L1064.12 245.738C1064.29 246.723 1063.27 247.474 1062.39 247.009L1047.56 239.128C1047.21 238.944 1046.79 238.944 1046.44 239.128L1031.61 247.009C1030.73 247.474 1029.71 246.723 1029.88 245.738L1032.71 229.047C1032.78 228.656 1032.65 228.257 1032.37 227.98L1020.36 216.159C1019.65 215.462 1020.04 214.247 1021.02 214.103L1037.61 211.668C1038 211.611 1038.34 211.364 1038.51 211.008L1045.93 195.822Z" fill="#4D7FFE"/>
<path fill-rule="evenodd" clip-rule="evenodd" d="M1049.29 101.618C1049.61 100.994 1050.39 100.994 1050.71 101.618L1051.89 103.936C1051.93 104.012 1051.99 104.066 1052.07 104.085L1054.35 104.652C1054.97 104.805 1055.21 105.663 1054.79 106.202L1053.23 108.202C1053.18 108.267 1053.16 108.355 1053.16 108.443L1053.4 111.111C1053.46 111.83 1052.83 112.36 1052.25 112.068L1050.11 110.987C1050.04 110.952 1049.96 110.952 1049.89 110.987L1047.75 112.068C1047.17 112.36 1046.54 111.83 1046.6 111.111L1046.84 108.443C1046.84 108.355 1046.82 108.267 1046.77 108.202L1045.21 106.202C1044.79 105.663 1045.03 104.805 1045.65 104.652L1047.93 104.085C1048.01 104.066 1048.07 104.012 1048.11 103.936L1049.29 101.618ZM1050.24 101.935C1050.13 101.727 1049.87 101.727 1049.76 101.935L1048.59 104.252C1048.47 104.481 1048.28 104.643 1048.05 104.699L1045.76 105.266C1045.56 105.317 1045.48 105.603 1045.62 105.783L1047.18 107.783C1047.33 107.98 1047.4 108.243 1047.38 108.506L1047.15 111.174C1047.12 111.414 1047.34 111.59 1047.53 111.493L1049.67 110.412C1049.88 110.305 1050.12 110.305 1050.33 110.412L1052.47 111.493C1052.66 111.59 1052.88 111.414 1052.85 111.174L1052.62 108.506C1052.6 108.243 1052.67 107.98 1052.82 107.783L1054.38 105.783C1054.52 105.603 1054.44 105.317 1054.24 105.266L1051.95 104.699C1051.72 104.643 1051.53 104.481 1051.41 104.252L1050.24 101.935Z" fill="#6F6CFF"/>
<path opacity="0.796364" fill-rule="evenodd" clip-rule="evenodd" d="M912.255 52.8143C912.449 53.4745 911.859 54.0992 911.189 53.9428L905.706 52.6637C905.625 52.6446 905.539 52.6608 905.469 52.7083L900.825 55.8915C900.258 56.2807 899.481 55.9128 899.423 55.2271L898.945 49.6174C898.938 49.5336 898.896 49.4567 898.83 49.4055L894.367 45.9728C893.822 45.5531 893.932 44.701 894.566 44.4336L899.753 42.2457C899.831 42.2131 899.891 42.1494 899.919 42.0702L901.805 36.7654C902.035 36.1169 902.88 35.9581 903.33 36.4786L907.014 40.7361C907.069 40.7997 907.148 40.8372 907.232 40.8395L912.86 40.9937C913.548 41.0126 913.96 41.7665 913.604 42.3556L910.693 47.1748C910.65 47.2467 910.638 47.3336 910.662 47.4142L912.255 52.8143ZM911.325 53.3598C911.549 53.4119 911.745 53.2037 911.68 52.9837L910.088 47.5836C910.017 47.3417 910.05 47.0811 910.181 46.8653L913.091 42.0461C913.21 41.8498 913.073 41.5984 912.843 41.5921L907.215 41.4379C906.963 41.431 906.726 41.3185 906.561 41.1279L902.877 36.8703C902.727 36.6968 902.446 36.7498 902.369 36.9659L900.483 42.2707C900.399 42.5083 900.218 42.6994 899.986 42.7973L894.798 44.9852C894.587 45.0743 894.55 45.3584 894.732 45.4982L899.195 48.931C899.394 49.0847 899.52 49.3154 899.542 49.5666L900.02 55.1763C900.039 55.4048 900.298 55.5275 900.487 55.3978L905.131 52.2145C905.339 52.072 905.597 52.0234 905.842 52.0807L911.325 53.3598Z" fill="#6F6CFF"/>
<path opacity="0.73011" fill-rule="evenodd" clip-rule="evenodd" d="M896.453 244.1C897.122 244.263 897.365 245.087 896.893 245.588L894.116 248.534C894.059 248.595 894.029 248.678 894.036 248.762L894.336 252.8C894.388 253.486 893.679 253.972 893.057 253.678L889.397 251.948C889.321 251.912 889.233 251.909 889.155 251.941L885.408 253.475C884.771 253.736 884.09 253.212 884.177 252.53L884.692 248.514C884.703 248.43 884.678 248.346 884.624 248.282L882.007 245.192C881.562 244.667 881.849 243.857 882.525 243.73L886.504 242.978C886.587 242.963 886.659 242.913 886.703 242.842L888.833 239.398C889.195 238.813 890.054 238.836 890.384 239.439L892.329 242.991C892.369 243.065 892.438 243.118 892.52 243.138L896.453 244.1ZM896.458 245.177C896.615 245.01 896.534 244.736 896.311 244.681L892.378 243.719C892.133 243.66 891.925 243.5 891.803 243.278L889.859 239.727C889.749 239.526 889.463 239.518 889.342 239.713L887.212 243.156C887.08 243.371 886.863 243.52 886.615 243.566L882.637 244.318C882.411 244.361 882.315 244.631 882.464 244.806L885.08 247.895C885.243 248.088 885.318 248.34 885.286 248.59L884.771 252.606C884.742 252.833 884.969 253.008 885.181 252.921L888.929 251.387C889.162 251.292 889.425 251.299 889.653 251.406L893.313 253.137C893.52 253.235 893.757 253.073 893.739 252.844L893.439 248.806C893.42 248.555 893.508 248.307 893.681 248.124L896.458 245.177Z" fill="#6F6CFF"/>
<path opacity="0.902331" d="M1105.14 172.063C1105.44 172.408 1105.26 172.951 1104.81 173.044L1099.3 174.187C1099.13 174.221 1098.99 174.323 1098.9 174.468L1096.03 179.307C1095.79 179.702 1095.22 179.697 1094.99 179.298L1092.2 174.408C1092.12 174.262 1091.98 174.158 1091.81 174.121L1086.32 172.881C1085.87 172.78 1085.7 172.234 1086.01 171.894L1089.8 167.729C1089.91 167.605 1089.97 167.439 1089.95 167.272L1089.44 161.665C1089.39 161.208 1089.86 160.876 1090.28 161.065L1095.41 163.38C1095.56 163.449 1095.74 163.451 1095.89 163.385L1101.06 161.16C1101.49 160.979 1101.95 161.319 1101.9 161.775L1101.28 167.372C1101.26 167.539 1101.31 167.706 1101.42 167.832L1105.14 172.063Z" fill="#6F6CFF"/>
<path opacity="0.370759" d="M871.385 121.225C871.523 120.788 872.082 120.662 872.394 120.998L874.675 123.453C874.789 123.576 874.95 123.645 875.118 123.644L878.469 123.617C878.927 123.613 879.22 124.106 878.996 124.507L877.367 127.434C877.285 127.581 877.269 127.756 877.322 127.915L878.383 131.093C878.528 131.528 878.15 131.959 877.7 131.87L874.412 131.225C874.247 131.193 874.076 131.231 873.941 131.331L871.246 133.322C870.877 133.595 870.351 133.368 870.296 132.912L869.894 129.586C869.874 129.419 869.784 129.268 869.647 129.171L866.921 127.223C866.548 126.956 866.601 126.386 867.017 126.193L870.056 124.783C870.209 124.712 870.324 124.58 870.375 124.42L871.385 121.225Z" fill="#6F6CFF"/>
<path opacity="0.806242" d="M906.469 184.223C906.238 184.62 905.666 184.62 905.435 184.223L902.601 179.358C902.516 179.213 902.375 179.11 902.21 179.074L896.708 177.883C896.259 177.786 896.082 177.241 896.388 176.899L900.139 172.701C900.251 172.575 900.305 172.409 900.288 172.242L899.721 166.64C899.675 166.184 900.138 165.847 900.558 166.032L905.71 168.302C905.864 168.37 906.039 168.37 906.193 168.302L911.345 166.032C911.765 165.847 912.228 166.183 912.182 166.64L911.615 172.241C911.598 172.408 911.652 172.575 911.764 172.7L915.515 176.899C915.821 177.241 915.644 177.785 915.196 177.883L909.693 179.074C909.529 179.11 909.387 179.213 909.303 179.358L906.469 184.223Z" fill="#6F6CFF"/>
<path opacity="0.547916" d="M1012.88 52.7545C1012.42 52.8108 1012.07 52.355 1012.25 51.9311L1014.4 46.7301C1014.47 46.5749 1014.46 46.3997 1014.39 46.2474L1012.01 41.147C1011.82 40.7313 1012.14 40.2606 1012.6 40.2967L1018.21 40.7397C1018.38 40.7529 1018.54 40.6951 1018.67 40.5804L1022.78 36.7371C1023.12 36.4239 1023.67 36.5888 1023.77 37.035L1025.09 42.5097C1025.12 42.6732 1025.23 42.8126 1025.38 42.894L1030.3 45.6191C1030.71 45.8412 1030.72 46.4139 1030.33 46.6535L1025.53 49.5941C1025.38 49.6819 1025.28 49.8259 1025.25 49.9909L1024.18 55.5184C1024.09 55.9689 1023.55 56.1579 1023.21 55.8598L1018.92 52.2025C1018.8 52.0933 1018.63 52.0428 1018.46 52.0635L1012.88 52.7545Z" fill="#6F6CFF"/>
<path opacity="0.392959" d="M1016.58 289.21C1016.39 289.623 1015.82 289.669 1015.55 289.292L1012.34 284.668C1012.25 284.53 1012.1 284.438 1011.93 284.416L1006.35 283.666C1005.9 283.605 1005.68 283.076 1005.95 282.711L1009.36 278.227C1009.46 278.093 1009.5 277.923 1009.47 277.758L1008.46 272.219C1008.38 271.768 1008.81 271.395 1009.25 271.546L1014.56 273.4C1014.72 273.455 1014.89 273.441 1015.04 273.361L1020 270.688C1020.4 270.47 1020.89 270.769 1020.88 271.228L1020.76 276.856C1020.76 277.024 1020.82 277.186 1020.95 277.302L1025.02 281.189C1025.35 281.505 1025.22 282.062 1024.78 282.195L1019.39 283.821C1019.23 283.869 1019.09 283.983 1019.02 284.135L1016.58 289.21Z" fill="#6F6CFF"/>
<defs>
<filter id="filter0_b" x="1001" y="177.15" width="93" height="94" filterUnits="userSpaceOnUse" color-interpolation-filters="sRGB">
<feFlood flood-opacity="0" result="BackgroundImageFix"/>
<feGaussianBlur in="BackgroundImage" stdDeviation="2.5"/>
<feComposite in2="SourceAlpha" operator="in" result="effect1_backgroundBlur"/>
<feBlend mode="normal" in="SourceGraphic" in2="effect1_backgroundBlur" result="shape"/>
</filter>
<linearGradient id="paint0_linear" x1="759.637" y1="135.3" x2="759.637" y2="293.15" gradientUnits="userSpaceOnUse">
<stop stop-color="#F3E8AC"/>
<stop offset="1" stop-color="#FFE6C8"/>
</linearGradient>
<linearGradient id="paint1_linear" x1="759.637" y1="90.2" x2="759.637" y2="124.025" gradientUnits="userSpaceOnUse">
<stop stop-color="#A0B0FB"/>
<stop offset="1" stop-color="#DBA8FB"/>
</linearGradient>
<linearGradient id="paint2_linear" x1="804.737" y1="225.5" x2="804.737" y2="293.15" gradientUnits="userSpaceOnUse">
<stop stop-color="#F3E8AC"/>
<stop offset="1" stop-color="#FFE6C8"/>
</linearGradient>
<linearGradient id="paint3_linear" x1="804.737" y1="45.1" x2="804.737" y2="214.225" gradientUnits="userSpaceOnUse">
<stop stop-color="#A0B0FB"/>
<stop offset="1" stop-color="#DBA8FB"/>
</linearGradient>
<linearGradient id="paint4_linear" x1="852.092" y1="157.85" x2="852.092" y2="293.15" gradientUnits="userSpaceOnUse">
<stop stop-color="#F3E8AC"/>
<stop offset="1" stop-color="#FFE6C8"/>
</linearGradient>
<linearGradient id="paint5_linear" x1="852.092" y1="56.375" x2="852.092" y2="146.575" gradientUnits="userSpaceOnUse">
<stop stop-color="#A0B0FB"/>
<stop offset="1" stop-color="#DBA8FB"/>
</linearGradient>
<linearGradient id="paint6_linear" x1="899.448" y1="157.85" x2="899.448" y2="293.15" gradientUnits="userSpaceOnUse">
<stop stop-color="#F3E8AC"/>
<stop offset="1" stop-color="#FFE6C8"/>
</linearGradient>
<linearGradient id="paint7_linear" x1="899.448" y1="124.025" x2="899.448" y2="146.575" gradientUnits="userSpaceOnUse">
<stop stop-color="#A0B0FB"/>
<stop offset="1" stop-color="#DBA8FB"/>
</linearGradient>
<linearGradient id="paint8_linear" x1="946.802" y1="135.3" x2="946.802" y2="293.15" gradientUnits="userSpaceOnUse">
<stop stop-color="#F3E8AC"/>
<stop offset="1" stop-color="#FFE6C8"/>
</linearGradient>
<linearGradient id="paint9_linear" x1="946.802" y1="33.825" x2="946.802" y2="124.025" gradientUnits="userSpaceOnUse">
<stop stop-color="#A0B0FB"/>
<stop offset="1" stop-color="#DBA8FB"/>
</linearGradient>
<linearGradient id="paint10_linear" x1="994.158" y1="169.125" x2="994.158" y2="293.15" gradientUnits="userSpaceOnUse">
<stop stop-color="#F3E8AC"/>
<stop offset="1" stop-color="#FFE6C8"/>
</linearGradient>
<linearGradient id="paint11_linear" x1="994.158" y1="90.2" x2="994.158" y2="157.85" gradientUnits="userSpaceOnUse">
<stop stop-color="#A0B0FB"/>
<stop offset="1" stop-color="#DBA8FB"/>
</linearGradient>
<linearGradient id="paint12_linear" x1="1041.51" y1="101.475" x2="1041.51" y2="293.15" gradientUnits="userSpaceOnUse">
<stop stop-color="#F3E8AC"/>
<stop offset="1" stop-color="#FFE6C8"/>
</linearGradient>
<linearGradient id="paint13_linear" x1="1041.51" y1="45.1" x2="1041.51" y2="90.2" gradientUnits="userSpaceOnUse">
<stop stop-color="#A0B0FB"/>
<stop offset="1" stop-color="#DBA8FB"/>
</linearGradient>
<linearGradient id="paint14_linear" x1="1086.61" y1="157.85" x2="1086.61" y2="293.15" gradientUnits="userSpaceOnUse">
<stop stop-color="#F3E8AC"/>
<stop offset="1" stop-color="#FFE6C8"/>
</linearGradient>
<linearGradient id="paint15_linear" x1="1086.61" y1="101.475" x2="1086.61" y2="146.575" gradientUnits="userSpaceOnUse">
<stop stop-color="#A0B0FB"/>
<stop offset="1" stop-color="#DBA8FB"/>
</linearGradient>
<linearGradient id="paint16_linear" x1="1133.97" y1="259.325" x2="1133.97" y2="293.15" gradientUnits="userSpaceOnUse">
<stop stop-color="#F3E8AC"/>
<stop offset="1" stop-color="#FFE6C8"/>
</linearGradient>
<linearGradient id="paint17_linear" x1="1133.97" y1="78.925" x2="1133.97" y2="248.05" gradientUnits="userSpaceOnUse">
<stop stop-color="#A0B0FB"/>
<stop offset="1" stop-color="#DBA8FB"/>
</linearGradient>
<linearGradient id="paint18_linear" x1="1179.07" y1="180.4" x2="1179.07" y2="293.15" gradientUnits="userSpaceOnUse">
<stop stop-color="#F3E8AC"/>
<stop offset="1" stop-color="#FFE6C8"/>
</linearGradient>
<linearGradient id="paint19_linear" x1="1179.07" y1="56.375" x2="1179.07" y2="169.125" gradientUnits="userSpaceOnUse">
<stop stop-color="#A0B0FB"/>
<stop offset="1" stop-color="#DBA8FB"/>
</linearGradient>
<linearGradient id="paint20_linear" x1="1219.66" y1="202.95" x2="1219.66" y2="293.15" gradientUnits="userSpaceOnUse">
<stop stop-color="#F3E8AC"/>
<stop offset="1" stop-color="#FFE6C8"/>
</linearGradient>
<linearGradient id="paint21_linear" x1="1219.66" y1="101.475" x2="1219.66" y2="191.675" gradientUnits="userSpaceOnUse">
<stop stop-color="#A0B0FB"/>
<stop offset="1" stop-color="#DBA8FB"/>
</linearGradient>
<linearGradient id="paint22_linear" x1="1005.6" y1="121.239" x2="941.422" y2="105.586" gradientUnits="userSpaceOnUse">
<stop stop-color="#93B0FF"/>
<stop offset="1" stop-color="#5694FF"/>
</linearGradient>
<linearGradient id="paint23_linear" x1="949.118" y1="145.3" x2="961.139" y2="75.1404" gradientUnits="userSpaceOnUse">
<stop stop-color="#70B5FF"/>
<stop offset="1" stop-color="#ADCCFF"/>
</linearGradient>
<linearGradient id="paint24_linear" x1="981.5" y1="131.15" x2="990.974" y2="259.221" gradientUnits="userSpaceOnUse">
<stop stop-color="#759CFF"/>
<stop offset="1" stop-color="#70BAFF"/>
</linearGradient>
<linearGradient id="paint25_linear" x1="981.683" y1="130.633" x2="981.683" y2="250.964" gradientUnits="userSpaceOnUse">
<stop stop-color="#AAB8FF"/>
<stop offset="1" stop-color="#61A0FF"/>
</linearGradient>
<linearGradient id="paint26_linear" x1="988.268" y1="127.041" x2="988.268" y2="247.372" gradientUnits="userSpaceOnUse">
<stop stop-color="#AAB8FF"/>
<stop offset="1" stop-color="#61A0FF"/>
</linearGradient>
<linearGradient id="paint27_linear" x1="967" y1="195.941" x2="995.225" y2="210.354" gradientUnits="userSpaceOnUse">
<stop stop-color="#0048FF"/>
<stop offset="1" stop-color="#5081FD"/>
</linearGradient>
</defs>
</svg>
