<svg width="24" height="24" viewBox="0 0 24 24" fill="none" xmlns="http://www.w3.org/2000/svg">
<path d="M15.3767 11.7138C13.5337 8.52191 13.6656 4.73978 15.381 1.76051C13.6868 1.75796 11.9697 2.1781 10.3963 3.08728C7.00622 5.04596 5.21338 8.69286 5.44471 12.3517C6.24843 12.378 7.00877 12.6638 7.62112 13.1758C8.2003 12.8535 8.84157 12.6876 9.51006 12.6876C11.2901 12.6876 12.8295 13.886 13.3101 15.5614C14.5654 15.9484 15.4507 17.1034 15.4507 18.465C15.4507 19.887 14.4667 21.076 13.1459 21.4137C15.5145 21.9588 18.0864 21.6526 20.3581 20.342C21.9315 19.4337 23.1536 18.1571 23.999 16.6875C20.5613 16.6815 17.2198 14.9048 15.3767 11.7138Z" fill="#536270"/>
<path d="M14.6165 18.4633C14.6165 17.3092 13.7312 16.3719 12.606 16.2673C12.4112 14.7211 11.1074 13.5211 9.51019 13.5211C8.74645 13.5211 8.05755 13.8026 7.51323 14.2542C7.00209 13.601 6.21539 13.1732 5.32237 13.1732C3.98795 13.1732 2.87721 14.1096 2.5991 15.359C1.14816 15.4602 0 16.656 0 18.1333C0 19.6744 1.25022 20.9238 2.79216 20.9238C3.1196 20.9238 3.43088 20.8574 3.7226 20.7537C4.23119 21.4511 5.04851 21.9095 5.97725 21.9095C6.54538 21.9095 7.07268 21.7377 7.51409 21.446C8.01758 21.9342 8.70137 22.2386 9.45916 22.2386C10.5742 22.2386 11.5284 21.5795 11.9758 20.6338C12.1127 20.6601 12.253 20.678 12.3985 20.678C13.6232 20.6788 14.6165 19.6863 14.6165 18.4633Z" fill="#536270"/>
<path d="M20.7035 12.9496L21.1015 12.0736L22.0481 11.906L21.3388 11.2554L21.4706 10.302L20.6346 10.7774L19.7696 10.3573L19.9627 11.3005L19.2959 11.9928L20.251 12.1016L20.7035 12.9496Z" fill="#536270"/>
<path d="M1.58866 10.5954L2.26906 10.2459L2.94265 10.6073L2.82017 9.85294L3.37214 9.32394L2.61691 9.20657L2.28351 8.51852L1.93992 9.20232L1.18213 9.30353L1.72559 9.84274L1.58866 10.5954Z" fill="#536270"/>
<path d="M17.0429 8.89102L17.3534 9.4719L17.6264 8.87061L18.2753 8.75664L17.7888 8.31098L17.8798 7.65781L17.3057 7.98269L16.7121 7.69438L16.8448 8.3416L16.3872 8.81532L17.0429 8.89102Z" fill="#536270"/>
<path d="M20.1694 7.16453L20.3599 7.52174L20.5274 7.15348L20.9263 7.08204L20.6278 6.80818L20.6822 6.40845L20.3301 6.60916L19.9687 6.43141L20.0478 6.82774L19.7671 7.11861L20.1694 7.16453Z" fill="#536270"/>
<path d="M5.81561 4.76188L6.00612 5.11909L6.17367 4.74997L6.57255 4.67853L6.27403 4.40467L6.32931 4.00494L5.97721 4.20481L5.61405 4.02791L5.69484 4.42339L5.41333 4.7151L5.81561 4.76188Z" fill="#536270"/>
</svg>
