<svg width="24" height="24" viewBox="0 0 24 24" fill="none" xmlns="http://www.w3.org/2000/svg">
<path d="M17.5077 18.5004C17.2425 18.5004 16.9883 18.6057 16.8008 18.7932C16.6134 18.9806 16.5081 19.2349 16.5081 19.5V20.0004C16.5077 20.1329 16.4549 20.2599 16.3611 20.3535C16.2673 20.447 16.1402 20.4996 16.0077 20.4996H10.5081C10.4424 20.4997 10.3774 20.487 10.3167 20.4619C10.2559 20.4369 10.2008 20.4002 10.1543 20.3538C10.1078 20.3074 10.0709 20.2523 10.0458 20.1917C10.0206 20.1311 10.0077 20.066 10.0077 20.0004V3.99959C10.008 3.86708 10.0608 3.74011 10.1546 3.64653C10.2485 3.55294 10.3756 3.50039 10.5081 3.50039H16.0077C16.1402 3.50039 16.2673 3.55294 16.3611 3.64653C16.4549 3.74011 16.5077 3.86708 16.5081 3.99959V5.00039C16.5081 5.26566 16.6134 5.52006 16.801 5.70764C16.9886 5.89521 17.243 6.00059 17.5083 6.00059C17.7735 6.00059 18.0279 5.89521 18.2155 5.70764C18.4031 5.52006 18.5085 5.26566 18.5085 5.00039V2.49959C18.5085 2.36822 18.4826 2.23814 18.4323 2.11678C18.3819 1.99542 18.3082 1.88518 18.2153 1.79234C18.1223 1.6995 18.012 1.6259 17.8906 1.57573C17.7691 1.52557 17.639 1.49983 17.5077 1.49999H10.0077V0.500388C10.0076 0.425645 9.99077 0.351868 9.95845 0.284475C9.92613 0.217082 9.87913 0.157785 9.82089 0.110939C9.76265 0.0640939 9.69465 0.0308901 9.6219 0.0137667C9.54914 -0.0033566 9.47348 -0.00396447 9.40046 0.0119878L0.400457 2.01239C0.289427 2.03693 0.190066 2.09855 0.11874 2.18711C0.0474141 2.27567 0.00837631 2.38588 0.00805664 2.49959V21.5004C0.00810362 21.6143 0.0470169 21.7248 0.118365 21.8136C0.189714 21.9024 0.289226 21.9642 0.400457 21.9888L9.40046 23.9892C9.51065 24.0121 9.62532 23.9976 9.72636 23.9481C9.82741 23.8985 9.90907 23.8167 9.95846 23.7156C9.99083 23.6482 10.0076 23.5744 10.0077 23.4996V22.4988H17.5077C17.639 22.4989 17.7691 22.4732 17.8906 22.423C18.012 22.3729 18.1223 22.2993 18.2153 22.2064C18.3082 22.1136 18.3819 22.0034 18.4323 21.882C18.4826 21.7606 18.5085 21.6306 18.5085 21.4992V19.4988C18.5083 19.3675 18.4823 19.2376 18.4319 19.1163C18.3815 18.9951 18.3078 18.885 18.2148 18.7923C18.1219 18.6996 18.0116 18.6261 17.8903 18.576C17.7689 18.5259 17.6389 18.5002 17.5077 18.5004V18.5004ZM7.50806 12.5004C7.50806 12.8982 7.35002 13.2797 7.06872 13.561C6.78741 13.8424 6.40588 14.0004 6.00806 14.0004C5.61023 14.0004 5.2287 13.8424 4.9474 13.561C4.66609 13.2797 4.50806 12.8982 4.50806 12.5004C4.50806 12.1026 4.66609 11.721 4.9474 11.4397C5.2287 11.1584 5.61023 11.0004 6.00806 11.0004C6.40588 11.0004 6.78741 11.1584 7.06872 11.4397C7.35002 11.721 7.50806 12.1026 7.50806 12.5004V12.5004Z" fill="#536270"/>
<path d="M23.5464 11.6676L18.6708 8.41801C18.5203 8.31768 18.3454 8.26008 18.1647 8.25135C17.984 8.24262 17.8043 8.28309 17.6448 8.36844C17.4853 8.4538 17.3519 8.58084 17.259 8.73602C17.166 8.8912 17.1169 9.06871 17.1168 9.24961V11.0004H12.9924C12.5946 11.0004 12.2131 11.1584 11.9318 11.4398C11.6505 11.7211 11.4924 12.1026 11.4924 12.5004C11.4924 12.8982 11.6505 13.2798 11.9318 13.5611C12.2131 13.8424 12.5946 14.0004 12.9924 14.0004H17.1168V15.75C17.1165 15.9311 17.1653 16.1088 17.2582 16.2643C17.3511 16.4197 17.4845 16.5469 17.6442 16.6324C17.8038 16.7178 17.9837 16.7582 18.1645 16.7493C18.3454 16.7403 18.5204 16.6824 18.6708 16.5816L23.5464 13.332C23.6836 13.2408 23.796 13.1171 23.8738 12.9719C23.9516 12.8267 23.9923 12.6645 23.9923 12.4998C23.9923 12.3351 23.9516 12.1729 23.8738 12.0278C23.796 11.8826 23.6836 11.7589 23.5464 11.6676V11.6676Z" fill="#536270"/>
</svg>
