<svg width="24" height="24" viewBox="0 0 24 24" fill="none" xmlns="http://www.w3.org/2000/svg">
<g clip-path="url(#clip0)">
<path d="M24 3.804C23.9994 2.87605 23.6303 1.98633 22.9739 1.3304C22.3175 0.674462 21.4275 0.306001 20.4996 0.306001H3.5004C3.03602 0.305601 2.57624 0.397955 2.14804 0.577644C1.71983 0.757333 1.33183 1.02074 1.0068 1.3524C0.950647 1.39151 0.903579 1.44227 0.8688 1.5012C0.308651 2.13752 -0.000242817 2.95626 1.43215e-07 3.804V16.8048C0.036542 17.7615 0.376611 18.6817 0.970973 19.4323C1.56533 20.1829 2.38314 20.7248 3.306 20.9796L14.466 23.6004C14.718 23.6604 14.976 23.6916 15.2364 23.6916C15.8581 23.6991 16.4636 23.4937 16.9524 23.1096C17.2921 22.8316 17.5632 22.4793 17.7449 22.0798C17.9265 21.6802 18.0138 21.2443 18 20.8056V11.112C17.9987 10.1817 17.693 9.27737 17.1297 8.53701C16.5664 7.79666 15.7763 7.26094 14.88 7.0116L4.056 4.0272C3.87073 3.96876 3.71536 3.8407 3.62262 3.67C3.52987 3.49929 3.50698 3.29926 3.55877 3.11202C3.61056 2.92477 3.73298 2.76493 3.90026 2.66615C4.06754 2.56736 4.26663 2.53734 4.4556 2.5824L7.956 3.5484C7.97711 3.55417 7.99892 3.557 8.0208 3.5568H20.4984C20.6973 3.5568 20.8881 3.63582 21.0287 3.77647C21.1694 3.91712 21.2484 4.10789 21.2484 4.3068C21.2484 4.50571 21.1694 4.69648 21.0287 4.83713C20.8881 4.97778 20.6973 5.0568 20.4984 5.0568H15.2652C15.2035 5.05476 15.1432 5.07569 15.096 5.11552C15.0488 5.15536 15.018 5.21129 15.0097 5.27249C15.0013 5.33369 15.0159 5.39581 15.0507 5.44685C15.0855 5.49788 15.138 5.53421 15.198 5.5488L15.2844 5.5704C16.4231 5.88713 17.4359 6.54861 18.1836 7.464C18.208 7.49339 18.2386 7.51695 18.2733 7.53294C18.308 7.54893 18.3458 7.55695 18.384 7.5564H20.4996C20.6985 7.5564 20.8893 7.63542 21.0299 7.77607C21.1706 7.91672 21.2496 8.10749 21.2496 8.3064C21.2496 8.50531 21.1706 8.69608 21.0299 8.83673C20.8893 8.97738 20.6985 9.0564 20.4996 9.0564H19.4616C19.4229 9.05677 19.3848 9.06606 19.3502 9.08354C19.3157 9.10102 19.2856 9.12623 19.2624 9.1572C19.2391 9.18886 19.2237 9.22563 19.2174 9.26444C19.2111 9.30326 19.2142 9.34302 19.2264 9.3804C19.4112 9.9396 19.506 10.5228 19.5084 11.1108V18.054C19.5084 18.1202 19.5347 18.1837 19.5815 18.2305C19.6283 18.2773 19.6918 18.3036 19.758 18.3036H20.4996C21.4278 18.3036 22.3179 17.935 22.9743 17.2788C23.6308 16.6226 23.9997 15.7326 24 14.8044V3.804ZM15.5004 15.3048C15.5004 15.8353 15.2896 16.3441 14.9145 16.7193C14.5393 17.0944 14.0305 17.3052 13.5 17.3052C12.9695 17.3052 12.4607 17.0944 12.0855 16.7193C11.7104 16.3441 11.4996 15.8353 11.4996 15.3048C11.4996 14.7743 11.7104 14.2655 12.0855 13.8903C12.4607 13.5152 12.9695 13.3044 13.5 13.3044C14.0305 13.3044 14.5393 13.5152 14.9145 13.8903C15.2896 14.2655 15.5004 14.7743 15.5004 15.3048V15.3048Z" fill="#536270"/>
</g>
<defs>
<clipPath id="clip0">
<rect width="24" height="24" fill="white"/>
</clipPath>
</defs>
</svg>
