<svg width="20" height="28" viewBox="0 0 20 28" fill="none" xmlns="http://www.w3.org/2000/svg">
<path d="M9.07227 2.53278H10.484V10.7678H9.07227V2.53278Z" fill="#BCBCC1"/>
<path d="M6.9541 15.3124H12.601V19.2382H6.9541V15.3124Z" fill="#BCBCC1"/>
<path d="M16.2627 8.74012H19.1447V14.2783H16.2627V8.74012Z" fill="#7984EB"/>
<path d="M0.411621 8.74012H3.29365V14.2783H0.411621V8.74012Z" fill="#7984EB"/>
<path d="M15.8754 6.82607H3.67979C2.90012 6.82607 2.26807 7.45811 2.26807 8.23779V14.7807C2.26807 15.5603 2.90012 16.1924 3.67979 16.1924H15.8754C16.6551 16.1924 17.2871 15.5603 17.2871 14.7807V8.23779C17.2871 7.45811 16.6551 6.82607 15.8754 6.82607Z" fill="#EAEAF0"/>
<path d="M17.7325 18.2667H1.82334C1.44893 18.2667 1.08985 18.4154 0.825105 18.6801C0.560356 18.9449 0.411621 19.304 0.411621 19.6784V27.4732H19.1442V19.6784C19.1442 19.304 18.9955 18.9449 18.7308 18.6801C18.466 18.4154 18.1069 18.2667 17.7325 18.2667Z" fill="#EAEAF0"/>
<path d="M5.89561 11.9791C6.67528 11.9791 7.30733 11.347 7.30733 10.5674C7.30733 9.78769 6.67528 9.15564 5.89561 9.15564C5.11594 9.15564 4.48389 9.78769 4.48389 10.5674C4.48389 11.347 5.11594 11.9791 5.89561 11.9791Z" fill="#BCBCC1"/>
<path d="M13.6598 11.9791C14.4394 11.9791 15.0715 11.347 15.0715 10.5674C15.0715 9.78769 14.4394 9.15564 13.6598 9.15564C12.8801 9.15564 12.248 9.78769 12.248 10.5674C12.248 11.347 12.8801 11.9791 13.6598 11.9791Z" fill="#BCBCC1"/>
<path d="M9.77774 4.65036C10.9472 4.65036 11.8953 3.70228 11.8953 2.53278C11.8953 1.36327 10.9472 0.415192 9.77774 0.415192C8.60823 0.415192 7.66016 1.36327 7.66016 2.53278C7.66016 3.70228 8.60823 4.65036 9.77774 4.65036Z" fill="#7984EB"/>
<path d="M4.48389 23.2529H15.0713V27.4732H4.48389V23.2529Z" fill="#7984EB"/>
<path d="M17.0267 21.0901C17.4165 21.0901 17.7325 20.7741 17.7325 20.3842C17.7325 19.9944 17.4165 19.6784 17.0267 19.6784C16.6368 19.6784 16.3208 19.9944 16.3208 20.3842C16.3208 20.7741 16.6368 21.0901 17.0267 21.0901Z" fill="#BCBCC1"/>
<path d="M2.52959 21.0901C2.91943 21.0901 3.23545 20.7741 3.23545 20.3842C3.23545 19.9944 2.91943 19.6784 2.52959 19.6784C2.13976 19.6784 1.82373 19.9944 1.82373 20.3842C1.82373 20.7741 2.13976 21.0901 2.52959 21.0901Z" fill="#BCBCC1"/>
<path d="M19.1453 10.2827C19.2545 10.2826 19.3592 10.2392 19.4364 10.162C19.5136 10.0848 19.557 9.98009 19.5571 9.8709V8.73964C19.557 8.63046 19.5136 8.52577 19.4364 8.44856C19.3592 8.37136 19.2545 8.32795 19.1453 8.32789H17.6999V8.23778C17.6992 7.75446 17.5068 7.29115 17.165 6.94946C16.8232 6.60777 16.3598 6.41557 15.8765 6.41501H10.8961V4.79835C11.2035 4.6479 11.477 4.43662 11.7003 4.17732C11.9235 3.91803 12.0918 3.61611 12.195 3.28986C12.2981 2.9636 12.3339 2.61981 12.3003 2.2793C12.2666 1.9388 12.1642 1.60867 11.9992 1.30892C11.8342 1.00916 11.61 0.746024 11.3404 0.535444C11.0707 0.324864 10.761 0.171226 10.4302 0.0838375C10.0994 -0.00355128 9.75429 -0.0228715 9.41578 0.0270473C9.07728 0.0769662 8.75243 0.195085 8.46092 0.374248C8.4141 0.402125 8.37327 0.43902 8.34081 0.482796C8.30835 0.526571 8.2849 0.576354 8.27182 0.62926C8.25875 0.682165 8.2563 0.73714 8.26464 0.790997C8.27297 0.844854 8.29191 0.896521 8.32036 0.943003C8.34881 0.989485 8.3862 1.02986 8.43037 1.06178C8.47454 1.0937 8.52461 1.11653 8.57767 1.12896C8.63073 1.14139 8.68573 1.14315 8.73948 1.13416C8.79323 1.12517 8.84466 1.1056 8.89079 1.07658C9.22388 0.873532 9.61656 0.790938 10.0032 0.842598C10.3899 0.894259 10.7471 1.07704 11.0152 1.36042C11.2833 1.64379 11.446 2.01058 11.4762 2.3995C11.5064 2.78843 11.4022 3.17593 11.181 3.49727C10.9598 3.8186 10.6351 4.05431 10.261 4.165C9.88696 4.27568 9.48624 4.25465 9.12582 4.10542C8.7654 3.95618 8.4671 3.68778 8.28078 3.34506C8.09446 3.00234 8.03139 2.60606 8.10211 2.22243C8.12189 2.115 8.09819 2.00412 8.03622 1.91417C7.97424 1.82422 7.87908 1.76258 7.77165 1.74279C7.66423 1.72301 7.55334 1.74672 7.46339 1.80869C7.37345 1.87066 7.3118 1.96583 7.29202 2.07326C7.26395 2.22483 7.24962 2.37862 7.2492 2.53277C7.24989 3.00447 7.38246 3.46658 7.63191 3.86692C7.88137 4.26726 8.23779 4.58988 8.66092 4.79835V6.41501H3.6806C3.19715 6.41557 2.73367 6.60786 2.39182 6.94971C2.04998 7.29156 1.85768 7.75504 1.85712 8.23848V8.3286H0.411752C0.302568 8.32866 0.197873 8.37206 0.120668 8.44927C0.0434632 8.52647 6.23377e-05 8.63117 0 8.74035V14.2783C6.23377e-05 14.3875 0.0434632 14.4922 0.120668 14.5694C0.197873 14.6466 0.302568 14.69 0.411752 14.6901H1.85712V14.7806C1.85768 15.2641 2.04998 15.7276 2.39182 16.0694C2.73367 16.4113 3.19715 16.6036 3.6806 16.6041H6.54333V17.8549H1.82395C1.3405 17.8555 0.87702 18.0478 0.535173 18.3896C0.193327 18.7315 0.00103076 19.1949 0.000470316 19.6784V21.944C0.000470316 22.0532 0.0438514 22.1579 0.12107 22.2351C0.198289 22.3123 0.303019 22.3557 0.412223 22.3557C0.521426 22.3557 0.626157 22.3123 0.703376 22.2351C0.780595 22.1579 0.823975 22.0532 0.823975 21.944V19.6784C0.824287 19.4133 0.92974 19.1591 1.1172 18.9716C1.30467 18.7842 1.55883 18.6787 1.82395 18.6784H17.7331C17.9982 18.6787 18.2524 18.7842 18.4399 18.9716C18.6273 19.1591 18.7328 19.4133 18.7331 19.6784V27.0614H15.484V23.2529C15.484 23.1437 15.4406 23.0389 15.3634 22.9617C15.2862 22.8845 15.1815 22.8411 15.0723 22.8411H4.48434C4.37515 22.8412 4.27046 22.8846 4.19325 22.9618C4.11605 23.039 4.07265 23.1437 4.07258 23.2529V27.0614H0.823975V26.0321C0.823975 25.9229 0.780595 25.8181 0.703376 25.7409C0.626157 25.6637 0.521426 25.6203 0.412223 25.6203C0.303019 25.6203 0.198289 25.6637 0.12107 25.7409C0.0438514 25.8181 0.000470316 25.9229 0.000470316 26.0321V27.4732C0.000532653 27.5824 0.0439336 27.6871 0.121139 27.7643C0.198344 27.8415 0.303038 27.8849 0.412223 27.885H19.1448C19.254 27.8849 19.3587 27.8415 19.4359 27.7643C19.5131 27.6871 19.5565 27.5824 19.5566 27.4732V19.6784C19.556 19.1949 19.3637 18.7315 19.0219 18.3896C18.68 18.0478 18.2166 17.8555 17.7331 17.8549H13.0137V16.6041H15.8765C16.3599 16.6036 16.8234 16.4113 17.1652 16.0694C17.5071 15.7276 17.6994 15.2641 17.6999 14.7806V14.6901H19.1453C19.2545 14.69 19.3592 14.6466 19.4364 14.5694C19.5136 14.4922 19.557 14.3875 19.5571 14.2783V11.7372C19.5571 11.628 19.5137 11.5233 19.4365 11.446C19.3592 11.3688 19.2545 11.3254 19.1453 11.3254C19.0361 11.3254 18.9314 11.3688 18.8542 11.446C18.7769 11.5233 18.7336 11.628 18.7336 11.7372V13.8665H17.6999V9.1514H18.7336V9.8709C18.7336 9.98011 18.7769 10.0848 18.8542 10.1621C18.9314 10.2393 19.0361 10.2827 19.1453 10.2827ZM4.89656 23.6646H14.661V27.0614H4.89656V23.6646ZM9.48466 5.04352C9.67995 5.0683 9.87759 5.0683 10.0729 5.04352V6.41501H9.48466V5.04352ZM0.823505 13.8665V9.1514H1.85712V13.8665H0.823505ZM12.1902 17.8549H7.36684V16.6041H12.1902V17.8549ZM16.8764 14.7806C16.8761 15.0458 16.7707 15.2999 16.5832 15.4874C16.3957 15.6748 16.1416 15.7803 15.8765 15.7806H12.6133C12.6095 15.7806 12.606 15.7794 12.602 15.7794C12.598 15.7794 12.5944 15.7794 12.5907 15.7806H6.96732C6.96356 15.7806 6.96003 15.7794 6.95603 15.7794C6.95203 15.7794 6.9485 15.7794 6.94473 15.7806H3.6806C3.41548 15.7803 3.16132 15.6748 2.97385 15.4874C2.78639 15.2999 2.68094 15.0458 2.68063 14.7806V8.23778C2.68094 7.97266 2.78639 7.7185 2.97385 7.53104C3.16132 7.34357 3.41548 7.23812 3.6806 7.23781H9.06585H9.07267C9.07267 7.23781 9.07714 7.23781 9.07949 7.23781H10.4776H10.4844C10.4844 7.23781 10.4889 7.23781 10.4912 7.23781H15.8765C16.1416 7.23812 16.3957 7.34357 16.5832 7.53104C16.7707 7.7185 16.8761 7.97266 16.8764 8.23778V14.7806Z" fill="#0D0614"/>
<path d="M0.412241 24.8655C0.521444 24.8655 0.626175 24.8221 0.703394 24.7449C0.780612 24.6677 0.823993 24.563 0.823993 24.4538V23.7281C0.823993 23.6189 0.780612 23.5142 0.703394 23.437C0.626175 23.3598 0.521444 23.3164 0.412241 23.3164C0.303037 23.3164 0.198306 23.3598 0.121088 23.437C0.0438694 23.5142 0.000488281 23.6189 0.000488281 23.7281V24.4538C0.000550619 24.563 0.0439515 24.6676 0.121157 24.7449C0.198362 24.8221 0.303056 24.8655 0.412241 24.8655Z" fill="#0D0614"/>
<path d="M7.72019 10.5674C7.7201 10.2067 7.61308 9.85425 7.41267 9.55444C7.21226 9.25464 6.92745 9.021 6.59426 8.88305C6.26107 8.7451 5.89446 8.70904 5.54077 8.77943C5.18709 8.84983 4.86222 9.02351 4.60724 9.27852C4.35226 9.53353 4.17862 9.85843 4.10827 10.2121C4.03793 10.5658 4.07403 10.9324 4.21202 11.2656C4.35002 11.5988 4.5837 11.8835 4.88353 12.0839C5.18336 12.2843 5.53586 12.3913 5.89648 12.3913C6.38005 12.3908 6.84366 12.1985 7.18557 11.8565C7.52748 11.5146 7.71976 11.0509 7.72019 10.5674ZM5.89648 11.5678C5.69871 11.5678 5.50537 11.5092 5.34093 11.3993C5.17648 11.2894 5.04832 11.1332 4.97263 10.9505C4.89695 10.7678 4.87714 10.5667 4.91573 10.3727C4.95431 10.1788 5.04955 10.0006 5.1894 9.86074C5.32925 9.7209 5.50742 9.62566 5.7014 9.58707C5.89537 9.54849 6.09643 9.56829 6.27915 9.64398C6.46187 9.71966 6.61805 9.84783 6.72793 10.0123C6.83781 10.1767 6.89645 10.3701 6.89645 10.5678C6.89614 10.8329 6.79069 11.0871 6.60322 11.2746C6.41576 11.462 6.1616 11.5675 5.89648 11.5678Z" fill="#0D0614"/>
<path d="M13.6609 8.74435C13.3002 8.74435 12.9477 8.8513 12.6478 9.05167C12.3479 9.25203 12.1142 9.53682 11.9762 9.87002C11.8382 10.2032 11.8021 10.5699 11.8724 10.9236C11.9428 11.2773 12.1165 11.6022 12.3715 11.8572C12.6265 12.1122 12.9514 12.2859 13.3051 12.3563C13.6589 12.4266 14.0255 12.3905 14.3587 12.2525C14.6919 12.1145 14.9767 11.8808 15.177 11.5809C15.3774 11.281 15.4844 10.9285 15.4844 10.5678C15.4838 10.0844 15.2915 9.6209 14.9497 9.27906C14.6078 8.93721 14.1443 8.74491 13.6609 8.74435ZM13.6609 11.5678C13.4631 11.5678 13.2698 11.5092 13.1053 11.3993C12.9409 11.2894 12.8127 11.1332 12.737 10.9505C12.6613 10.7678 12.6415 10.5667 12.6801 10.3727C12.7187 10.1788 12.8139 10.0006 12.9538 9.86074C13.0936 9.72089 13.2718 9.62566 13.4658 9.58707C13.6598 9.54849 13.8608 9.56829 14.0436 9.64398C14.2263 9.71966 14.3824 9.84783 14.4923 10.0123C14.6022 10.1767 14.6608 10.3701 14.6608 10.5678C14.6606 10.833 14.5552 11.0872 14.3677 11.2746C14.1802 11.4621 13.926 11.5676 13.6609 11.5678Z" fill="#0D0614"/>
<path d="M12.2197 13.7383H7.33753C7.22833 13.7383 7.1236 13.7817 7.04638 13.8589C6.96916 13.9361 6.92578 14.0409 6.92578 14.1501C6.92578 14.2593 6.96916 14.364 7.04638 14.4412C7.1236 14.5184 7.22833 14.5618 7.33753 14.5618H12.2197C12.3289 14.5618 12.4337 14.5184 12.5109 14.4412C12.5881 14.364 12.6315 14.2593 12.6315 14.1501C12.6315 14.0409 12.5881 13.9361 12.5109 13.8589C12.4337 13.7817 12.3289 13.7383 12.2197 13.7383Z" fill="#0D0614"/>
<path d="M18.1449 20.3842C18.1449 20.1632 18.0793 19.9471 17.9565 19.7633C17.8337 19.5795 17.6592 19.4363 17.455 19.3517C17.2508 19.2671 17.026 19.245 16.8092 19.2881C16.5925 19.3312 16.3933 19.4377 16.237 19.594C16.0807 19.7503 15.9743 19.9494 15.9311 20.1662C15.888 20.383 15.9102 20.6077 15.9947 20.8119C16.0793 21.0162 16.2226 21.1907 16.4064 21.3135C16.5902 21.4363 16.8062 21.5019 17.0273 21.5019C17.3236 21.5015 17.6077 21.3837 17.8172 21.1742C18.0267 20.9646 18.1446 20.6806 18.1449 20.3842ZM16.7332 20.3842C16.7332 20.3261 16.7504 20.2692 16.7827 20.2208C16.8151 20.1725 16.861 20.1348 16.9147 20.1125C16.9685 20.0903 17.0276 20.0844 17.0847 20.0958C17.1417 20.1071 17.1941 20.1351 17.2352 20.1763C17.2764 20.2174 17.3044 20.2698 17.3157 20.3269C17.3271 20.3839 17.3213 20.4431 17.299 20.4968C17.2767 20.5505 17.239 20.5965 17.1907 20.6288C17.1423 20.6611 17.0855 20.6784 17.0273 20.6784C16.9493 20.6784 16.8745 20.6474 16.8193 20.5922C16.7642 20.5371 16.7332 20.4622 16.7332 20.3842Z" fill="#0D0614"/>
<path d="M3.64783 20.3842C3.64783 20.1632 3.58228 19.9471 3.45947 19.7633C3.33667 19.5795 3.16212 19.4363 2.9579 19.3517C2.75369 19.2671 2.52897 19.245 2.31218 19.2881C2.09538 19.3312 1.89624 19.4377 1.73994 19.594C1.58364 19.7503 1.4772 19.9494 1.43407 20.1662C1.39095 20.383 1.41308 20.6077 1.49767 20.8119C1.58226 21.0162 1.72551 21.1907 1.9093 21.3135C2.09309 21.4363 2.30917 21.5019 2.53021 21.5019C2.82655 21.5016 3.11067 21.3838 3.32021 21.1742C3.52975 20.9647 3.64758 20.6806 3.64783 20.3842ZM2.2361 20.3842C2.2361 20.3261 2.25335 20.2692 2.28567 20.2208C2.31799 20.1725 2.36392 20.1348 2.41766 20.1125C2.4714 20.0903 2.53054 20.0844 2.58759 20.0958C2.64464 20.1071 2.69705 20.1351 2.73818 20.1763C2.77931 20.2174 2.80732 20.2698 2.81867 20.3269C2.83002 20.3839 2.82419 20.4431 2.80193 20.4968C2.77967 20.5505 2.74198 20.5965 2.69361 20.6288C2.64524 20.6611 2.58838 20.6784 2.53021 20.6784C2.45223 20.6783 2.37746 20.6473 2.32231 20.5921C2.26717 20.537 2.23617 20.4622 2.2361 20.3842Z" fill="#0D0614"/>
</svg>
