<svg width="11" height="16" viewBox="0 0 11 16" fill="none" xmlns="http://www.w3.org/2000/svg">
<path d="M7 11H4C4 8 5.6 7 6.7 6.4C7.1 6.2 7.4 6 7.6 5.8C8.1 5.3 7.9 4.6 7.8 4.4C7.5 3.7 6.8 3 5.5 3C3.4 3 3 4.9 3 5.3L0 4.9C0.2 3.2 1.7 0 5.5 0C7.8 0 9.8 1.3 10.6 3.2C11.3 4.9 11 6.7 9.8 7.9C9.3 8.4 8.7 8.7 8.2 9C7.3 9.5 7 10 7 11V11Z" fill="#536270"/>
<path d="M7.5 14C7.5 15.105 6.605 16 5.5 16C4.395 16 3.5 15.105 3.5 14C3.5 12.895 4.395 12 5.5 12C6.605 12 7.5 12.895 7.5 14Z" fill="#536270"/>
</svg>
