<svg width="350" height="200" viewBox="0 0 350 200" fill="none" xmlns="http://www.w3.org/2000/svg">
<circle cx="175" cy="115" r="148.5" stroke="#A0B0FB" stroke-width="3"/>
<circle cx="175" cy="115" r="118.5" stroke="#A0B0FB" stroke-width="3"/>
<circle cx="175" cy="115" r="173.5" stroke="#A0B0FB" stroke-width="3"/>
<path opacity="0.07" d="M242.781 89.5976C242.781 90.4556 242.761 91.3135 242.701 92.1143C251.345 98.3489 258 111.714 258 123.478C258 136.29 250.099 142.334 240.349 136.996C240.329 136.977 240.309 136.977 240.288 136.958L179.033 103.459C179.013 103.439 178.993 103.439 178.953 103.42C167.996 97.4146 159.11 80.8844 159.11 66.4896C159.11 53.0099 166.911 46.1652 176.902 50.3025C178.128 41.0555 184.662 37.0707 192.543 41.3987C196.322 43.4769 199.8 47.1185 202.514 51.5037C206.454 45.9555 213.169 44.5446 220.768 48.701C232.931 55.336 242.781 73.6584 242.781 89.5976Z" fill="url(#paint0_linear)"/>
<path opacity="0.4" d="M232.729 98.7492C232.729 99.6072 232.709 100.465 232.649 101.266C241.294 107.501 247.948 120.866 247.948 132.63C247.948 145.442 240.047 151.486 230.297 146.147C230.277 146.128 230.257 146.128 230.237 146.109L168.981 112.61C168.961 112.591 168.941 112.591 168.901 112.572C157.944 106.566 149.059 90.0361 149.059 75.6413C149.059 62.1616 156.859 55.3169 166.85 59.4542C168.077 50.2072 174.61 46.2224 182.491 50.5504C186.27 52.6286 189.748 56.2702 192.462 60.6554C196.402 55.1072 203.117 53.6963 210.716 57.8527C222.879 64.4876 232.729 82.8101 232.729 98.7492Z" fill="url(#paint1_linear)"/>
<path opacity="0.2" d="M135.751 115.07L126.423 109.96V106.967L135.751 112.076C136.515 112.496 137.621 113.335 138.565 114.631C139.591 116.023 140.314 117.777 140.314 119.684C140.314 121.781 139.751 122.982 138.666 123.325C137.661 123.649 136.475 123.097 135.731 122.696L131.891 120.599L131.871 120.58C131.549 120.389 131.027 120.218 130.604 120.332C130.263 120.427 129.881 120.751 129.881 121.914C129.881 123.077 130.263 123.802 130.584 124.221C130.986 124.755 131.509 125.137 131.831 125.289L131.871 125.308L143.591 131.733V134.727L131.931 128.34C131.127 127.939 129.981 127.1 128.976 125.766C127.89 124.317 127.126 122.467 127.147 120.408C127.147 118.368 127.89 117.32 128.976 117.034C129.981 116.767 131.127 117.148 131.931 117.625L135.731 119.703C136.274 120.008 136.696 120.141 136.957 120.046C137.158 119.989 137.56 119.703 137.56 118.178C137.56 117.205 137.218 116.557 136.917 116.118C136.555 115.623 136.052 115.241 135.751 115.07Z" fill="#0500FF"/>
<path d="M128.433 109.216C128.433 111.676 126.905 112.839 125.035 111.828C123.166 110.799 121.638 107.977 121.638 105.499C121.638 103.039 123.166 101.876 125.035 102.887C126.905 103.916 128.433 106.757 128.433 109.216Z" fill="#89F8FF"/>
<path d="M148.335 135.718C148.335 138.178 146.807 139.341 144.938 138.33C143.068 137.301 141.54 134.479 141.54 132C141.54 129.541 143.068 128.378 144.938 129.388C146.807 130.418 148.335 133.259 148.335 135.718Z" fill="#89F8FF"/>
<path opacity="0.07" d="M164.398 72.3809L224.689 105.384V135.642L164.378 102.639L164.398 72.3809Z" fill="url(#paint2_linear)"/>
<path opacity="0.3" d="M156.337 76.1942L216.627 109.197V139.455L156.337 106.452V76.1942Z" fill="url(#paint3_linear)"/>
<path d="M161.744 94.2115C161.744 96.652 163.272 99.4547 165.142 100.484C167.011 101.514 168.539 100.37 168.539 97.9294C168.539 95.489 167.011 92.6863 165.142 91.6567C163.272 90.6271 161.744 91.7711 161.744 94.2115Z" fill="#89F8FF"/>
<path opacity="0.15" d="M170.248 98.9208C170.248 100.046 170.952 101.361 171.836 101.838C172.701 102.315 173.404 101.781 173.404 100.656C173.404 99.5309 172.701 98.2154 171.816 97.7388C170.952 97.2621 170.248 97.796 170.248 98.9208Z" fill="#0500FF"/>
<path opacity="0.15" d="M175.093 101.571C175.093 102.696 175.796 104.011 176.681 104.488C177.545 104.965 178.249 104.431 178.249 103.306C178.249 102.181 177.545 100.866 176.661 100.389C175.796 99.9123 175.093 100.446 175.093 101.571Z" fill="#0500FF"/>
<path opacity="0.15" d="M201.408 106.719V123.935L199.036 122.639V105.422L201.408 106.719Z" fill="#0500FF"/>
<path opacity="0.15" d="M206.595 109.579V126.795L204.223 125.499V108.282L206.595 109.579Z" fill="#0500FF"/>
<path opacity="0.15" d="M211.802 112.439V129.655L209.43 128.359V111.142L211.802 112.439Z" fill="#0500FF"/>
<path opacity="0.07" d="M164.378 113.735L224.668 146.738V176.996L164.378 143.993V113.735Z" fill="url(#paint4_linear)"/>
<path opacity="0.3" d="M156.337 117.739L216.627 150.742V181L156.337 147.997V117.739Z" fill="url(#paint5_linear)"/>
<path d="M161.744 135.756C161.744 138.197 163.272 140.999 165.142 142.029C167.011 143.059 168.539 141.915 168.539 139.474C168.539 137.034 167.011 134.231 165.142 133.201C163.272 132.172 161.744 133.316 161.744 135.756Z" fill="#89F8FF"/>
<path opacity="0.15" d="M170.248 140.485C170.248 141.61 170.952 142.925 171.836 143.402C172.701 143.878 173.404 143.345 173.404 142.22C173.404 141.095 172.701 139.779 171.816 139.303C170.952 138.826 170.248 139.341 170.248 140.485Z" fill="#0500FF"/>
<path opacity="0.15" d="M175.073 143.135C175.073 144.26 175.777 145.575 176.661 146.052C177.526 146.529 178.23 145.995 178.23 144.87C178.23 143.745 177.526 142.429 176.641 141.953C175.777 141.457 175.073 141.991 175.073 143.135Z" fill="#0500FF"/>
<path opacity="0.15" d="M201.408 148.855V166.071L199.036 164.775V147.558L201.408 148.855Z" fill="#0500FF"/>
<path opacity="0.15" d="M206.595 151.715V168.931L204.223 167.635V150.418L206.595 151.715Z" fill="#0500FF"/>
<path opacity="0.15" d="M211.802 154.574V171.791L209.43 170.495V153.278L211.802 154.574Z" fill="#0500FF"/>
<path opacity="0.3" d="M102.801 31.37L140.374 51.9422V117.968L102.801 97.3765V31.37Z" fill="url(#paint6_linear)"/>
<path d="M126 55.2787C126 58.5772 123.99 60.1406 121.517 58.7678C119.045 57.3951 117.034 53.62 117.034 50.3216C117.034 47.0232 119.045 45.4597 121.517 46.8325C123.99 48.2053 126 51.9803 126 55.2787Z" fill="#89F8FF"/>
<path d="M121.518 61.418C117.517 59.2063 114.22 61.2845 113.637 66.051C113.537 66.8709 114.2 67.9767 115.004 68.4152L128.051 75.6412C128.855 76.0798 129.519 75.7366 129.418 74.7833C128.815 69.3495 125.498 63.6297 121.518 61.418Z" fill="#89F8FF"/>
<path opacity="0.15" d="M110.34 74.1922L132.735 86.4516V89.0446L110.34 76.7852V74.1922Z" fill="#0500FF"/>
<path opacity="0.15" d="M112.611 80.5793L130.363 90.2839V92.8769L112.611 83.1723V80.5793Z" fill="#0500FF"/>
<path d="M117.135 91.4851L91 77.1665V84.5451L117.135 98.8637V91.4851Z" fill="#89F8FF"/>
<path opacity="0.2" d="M148.476 23L154.065 33.41C154.829 34.84 154.708 36.2699 153.783 36.6131C152.858 36.9563 151.491 36.0602 150.727 34.6303L150.667 34.4968V46.0508C150.667 47.3664 149.702 47.9002 148.496 47.252C147.29 46.5846 146.325 45.0022 146.325 43.6866V32.1326L146.264 32.1898C145.501 32.7809 144.113 32.1707 143.209 30.8171C142.284 29.4634 142.163 27.9 142.927 27.3089L148.476 23Z" fill="url(#paint7_linear)"/>
<path opacity="0.2" d="M148.476 176.71L142.887 166.3C142.123 164.87 142.244 163.44 143.169 163.097C144.093 162.754 145.46 163.65 146.224 165.08L146.285 165.213V153.659C146.285 152.344 147.25 151.81 148.456 152.458C149.662 153.125 150.627 154.708 150.627 156.023V167.577L150.687 167.52C151.451 166.929 152.838 167.539 153.743 168.893C154.668 170.247 154.789 171.81 154.025 172.401L148.476 176.71Z" fill="url(#paint8_linear)"/>
<defs>
<linearGradient id="paint0_linear" x1="254.403" y1="53.1881" x2="195.325" y2="112.274" gradientUnits="userSpaceOnUse">
<stop stop-color="#006DD9"/>
<stop offset="1" stop-color="#6F6CFF"/>
</linearGradient>
<linearGradient id="paint1_linear" x1="244.349" y1="62.3398" x2="185.272" y2="121.426" gradientUnits="userSpaceOnUse">
<stop stop-color="#006DD9"/>
<stop offset="1" stop-color="#A0B0FB"/>
</linearGradient>
<linearGradient id="paint2_linear" x1="193.301" y1="74.8005" x2="195.322" y2="128.331" gradientUnits="userSpaceOnUse">
<stop stop-color="#006DD9"/>
<stop offset="1" stop-color="#6F6CFF"/>
</linearGradient>
<linearGradient id="paint3_linear" x1="185.259" y1="78.6137" x2="187.28" y2="132.144" gradientUnits="userSpaceOnUse">
<stop stop-color="#006DD9"/>
<stop offset="1" stop-color="#BACCFD"/>
</linearGradient>
<linearGradient id="paint4_linear" x1="193.296" y1="116.161" x2="195.317" y2="169.691" gradientUnits="userSpaceOnUse">
<stop stop-color="#006DD9"/>
<stop offset="1" stop-color="#6F6CFF"/>
</linearGradient>
<linearGradient id="paint5_linear" x1="185.255" y1="120.165" x2="187.276" y2="173.695" gradientUnits="userSpaceOnUse">
<stop stop-color="#006DD9"/>
<stop offset="1" stop-color="#6F6CFF"/>
</linearGradient>
<linearGradient id="paint6_linear" x1="144.401" y1="37.1728" x2="113.628" y2="93.3887" gradientUnits="userSpaceOnUse">
<stop stop-color="#6F6CFF"/>
<stop offset="1" stop-color="#A0B0FB"/>
</linearGradient>
<linearGradient id="paint7_linear" x1="152.453" y1="33.5008" x2="142.519" y2="39.3394" gradientUnits="userSpaceOnUse">
<stop stop-color="#A0B0FB"/>
<stop offset="1" stop-color="#006DD9"/>
</linearGradient>
<linearGradient id="paint8_linear" x1="144.488" y1="166.216" x2="154.422" y2="160.378" gradientUnits="userSpaceOnUse">
<stop stop-color="#006DD9"/>
<stop offset="1" stop-color="#6F6CFF"/>
</linearGradient>
</defs>
</svg>
