<svg width="32" height="32" viewBox="0 0 32 32" fill="none" xmlns="http://www.w3.org/2000/svg">
<g clip-path="url(#clip0)">
<path d="M14.6665 30.6461C6.58012 30.6461 0.000244141 24.0664 0.000244141 15.98C0.000244141 7.89359 6.58012 1.31372 14.6665 1.31372C17.4785 1.31372 20.2142 2.11497 22.5782 3.63225C23.0422 3.93107 23.1782 4.5497 22.8794 5.01502C22.5796 5.48034 21.9622 5.61486 21.4969 5.31628C19.4569 4.00553 17.0944 3.31366 14.6665 3.31366C7.68262 3.31366 2.00018 8.9961 2.00018 15.98C2.00018 22.9637 7.68262 28.6461 14.6665 28.6461C21.6502 28.6461 27.3326 22.9637 27.3326 15.98C27.3326 15.5625 27.3126 15.1492 27.274 14.7427C27.2208 14.192 27.6234 13.704 28.1727 13.6507C28.7247 13.6 29.2112 14.0001 29.2647 14.5494C29.3099 15.0201 29.3326 15.4974 29.3326 15.98C29.3326 24.0664 22.753 30.6461 14.6665 30.6461Z" fill="white"/>
<path d="M16.3333 19.3132C16.0774 19.3132 15.8213 19.2158 15.6268 19.02L9.62694 13.0202C9.23633 12.6293 9.23633 11.996 9.62694 11.6054C10.0176 11.2148 10.6508 11.2148 11.0415 11.6054L16.3347 16.8987L30.2928 2.94042C30.6837 2.54981 31.3169 2.54981 31.7075 2.94042C32.0982 3.33103 32.0982 3.96431 31.7075 4.35493L17.0413 19.0212C16.8452 19.2158 16.5894 19.3132 16.3333 19.3132Z" fill="white"/>
</g>
<defs>
<clipPath id="clip0">
<rect width="32" height="32" fill="white" transform="translate(0.000244141 0.000244141)"/>
</clipPath>
</defs>
</svg>
