<svg width="512" height="512" viewBox="0 0 512 512" fill="none" xmlns="http://www.w3.org/2000/svg">
<g clip-path="url(#clip0)">
<path d="M405.333 384.213H106.667C94.8906 384.213 85.3333 374.656 85.3333 362.88C85.3333 351.104 94.8906 341.547 106.667 341.547H405.333C417.109 341.547 426.667 351.104 426.667 362.88C426.667 374.656 417.109 384.213 405.333 384.213Z" fill="#80B2FF"/>
<path d="M405.333 256H106.667C94.8906 256 85.3333 246.443 85.3333 234.667C85.3333 222.891 94.8906 213.333 106.667 213.333H405.333C417.109 213.333 426.667 222.891 426.667 234.667C426.667 246.443 417.109 256 405.333 256Z" fill="#80B2FF"/>
<path d="M213.333 277.333C189.803 277.333 170.667 258.197 170.667 234.667C170.667 211.136 189.803 192 213.333 192C236.864 192 256 211.136 256 234.667C256 258.197 236.864 277.333 213.333 277.333Z" fill="#80B2FF"/>
<path d="M320 405.333C296.469 405.333 277.333 386.197 277.333 362.667C277.333 339.136 296.469 320 320 320C343.531 320 362.667 339.136 362.667 362.667C362.667 386.197 343.531 405.333 320 405.333Z" fill="#80B2FF"/>
<path d="M448 21.3334H64C28.7147 21.3334 0 50.048 0 85.3334V426.667C0 461.952 28.7147 490.667 64 490.667H448C483.285 490.667 512 461.952 512 426.667V85.3334C512 50.048 483.285 21.3334 448 21.3334ZM448 448H64C52.2453 448 42.6667 438.443 42.6667 426.667V128H469.333V426.667C469.333 438.443 459.755 448 448 448Z" fill="#80B2FF"/>
</g>
<defs>
<clipPath id="clip0">
<rect width="512" height="512" fill="white"/>
</clipPath>
</defs>
</svg>
