<svg width="32" height="32" viewBox="0 0 32 32" fill="none" xmlns="http://www.w3.org/2000/svg">
<g clip-path="url(#clip0)">
<path d="M22.2394 32.0002H9.76118C9.51249 32.0002 9.27406 31.9015 9.09831 31.7256L0.274869 22.9022C0.0989942 22.7264 0.000244141 22.488 0.000244141 22.2394V9.76112C0.000244141 9.51249 0.0989942 9.27406 0.274869 9.09824L9.09824 0.274869C9.27406 0.0989942 9.51249 0.000244141 9.76118 0.000244141H22.2394C22.4881 0.000244141 22.7265 0.0990566 22.9022 0.274869L31.7256 9.09824C31.9014 9.27406 32.0002 9.51249 32.0002 9.76112V22.2393C32.0002 22.4879 31.9015 22.7264 31.7256 22.9022L22.9023 31.7256C22.7265 31.9014 22.4881 32.0002 22.2394 32.0002Z" fill="url(#paint0_linear)"/>
<path d="M16.0002 18.8127C14.4494 18.8127 13.1877 17.5511 13.1877 16.0002V8.50024C13.1877 6.94943 14.4494 5.68774 16.0002 5.68774C17.5511 5.68774 18.8127 6.94943 18.8127 8.50024V16.0002C18.8127 17.5511 17.5511 18.8127 16.0002 18.8127Z" fill="#FF7575"/>
<path d="M16.0002 26.3127C14.4494 26.3127 13.1877 25.0511 13.1877 23.5002C13.1877 21.9494 14.4494 20.6877 16.0002 20.6877C17.5511 20.6877 18.8127 21.9494 18.8127 23.5002C18.8127 25.0511 17.5511 26.3127 16.0002 26.3127Z" fill="url(#paint1_linear)"/>
</g>
<defs>
<linearGradient id="paint0_linear" x1="16.0002" y1="32.0002" x2="16.0002" y2="0.000244141" gradientUnits="userSpaceOnUse">
<stop stop-color="white"/>
<stop offset="1" stop-color="white"/>
</linearGradient>
<linearGradient id="paint1_linear" x1="16.0002" y1="26.3127" x2="16.0002" y2="20.6877" gradientUnits="userSpaceOnUse">
<stop stop-color="#FF7575"/>
<stop offset="1" stop-color="#FF7575"/>
</linearGradient>
<clipPath id="clip0">
<rect width="32" height="32" fill="white" transform="translate(0.000244141 0.000244141)"/>
</clipPath>
</defs>
</svg>
