<svg width="512" height="512" viewBox="0 0 512 512" fill="none" xmlns="http://www.w3.org/2000/svg">
<path d="M106 512H406C430.814 512 451 491.814 451 467V150H346C321.186 150 301 129.814 301 105V0H106C81.186 0 61 20.186 61 45V467C61 491.814 81.186 512 106 512ZM166 211H346C354.291 211 361 217.709 361 226C361 234.291 354.291 241 346 241H166C157.709 241 151 234.291 151 226C151 217.709 157.709 211 166 211ZM166 271H346C354.291 271 361 277.709 361 286C361 294.291 354.291 301 346 301H166C157.709 301 151 294.291 151 286C151 277.709 157.709 271 166 271ZM166 331H346C354.291 331 361 337.709 361 346C361 354.291 354.291 361 346 361H166C157.709 361 151 354.291 151 346C151 337.709 157.709 331 166 331ZM166 391H286C294.291 391 301 397.709 301 406C301 414.291 294.291 421 286 421H166C157.709 421 151 414.291 151 406C151 397.709 157.709 391 166 391Z" fill="#80B2FF"/>
<path d="M346 120H442.211L331 8.78894V105C331 113.276 337.724 120 346 120Z" fill="#80B2FF"/>
</svg>
