<svg width="139" height="139" viewBox="0 0 139 139" fill="none" xmlns="http://www.w3.org/2000/svg">
<path d="M9.06693 9.65035C-1.82477 20.9614 0.404387 32.9769 0.404387 69.4794C0.404387 99.7924 -4.88554 130.18 22.7999 137.334C31.4452 139.557 108.045 139.557 116.679 137.323C128.206 134.349 137.584 125.001 138.866 108.701C139.045 106.427 139.045 32.5727 138.861 30.2516C137.498 12.8895 126.808 2.88335 112.723 0.85671C109.495 0.389025 108.848 0.250451 92.2851 0.221582C33.5357 0.250451 20.6574 -2.36512 9.06693 9.65035Z" fill="url(#paint0_linear)"/>
<path d="M69.5012 19.0487C48.8165 19.0487 29.1743 17.2101 21.6718 36.4497C18.5728 44.396 19.0228 54.716 19.0228 69.4929C19.0228 82.4597 18.6069 94.6467 21.6718 102.53C29.1572 121.781 48.959 119.937 69.4899 119.937C89.2973 119.937 109.72 121.998 117.314 102.53C120.418 94.5044 119.963 84.3381 119.963 69.4929C119.963 49.7865 121.051 37.0645 111.486 27.513C101.802 17.8362 88.7048 19.0487 69.4785 19.0487H69.5012ZM64.9781 28.1391C108.125 28.0708 113.616 23.278 110.586 89.8596C109.509 113.408 91.5646 110.824 69.5069 110.824C29.2882 110.824 28.1318 109.674 28.1318 69.4701C28.1318 28.7994 31.322 28.1619 64.9781 28.1277V28.1391ZM96.4466 36.5123C93.1027 36.5123 90.391 39.2218 90.391 42.5631C90.391 45.9044 93.1027 48.6139 96.4466 48.6139C99.7906 48.6139 102.502 45.9044 102.502 42.5631C102.502 39.2218 99.7906 36.5123 96.4466 36.5123ZM69.5012 43.5877C55.1854 43.5877 43.5813 55.1884 43.5813 69.4929C43.5813 83.7974 55.1854 95.3924 69.5012 95.3924C83.8171 95.3924 95.4155 83.7974 95.4155 69.4929C95.4155 55.1884 83.8171 43.5877 69.5012 43.5877ZM69.5012 52.6782C91.7469 52.6782 91.7753 86.3076 69.5012 86.3076C47.2613 86.3076 47.2272 52.6782 69.5012 52.6782Z" fill="white"/>
<defs>
<linearGradient id="paint0_linear" x1="9.3327" y1="129.944" x2="138.126" y2="18.4535" gradientUnits="userSpaceOnUse">
<stop stop-color="#FFDD55"/>
<stop offset="0.5" stop-color="#FF543E"/>
<stop offset="1" stop-color="#C837AB"/>
</linearGradient>
</defs>
</svg>
