<svg width="535" height="113" viewBox="0 0 535 113" fill="none" xmlns="http://www.w3.org/2000/svg">
<path d="M28.0629 50.9604C34.8742 50.9604 41.4088 47.8415 46.1039 42.2705C48.9878 38.8485 52.0558 34.6365 54.3391 30.0446C56.2409 26.2199 58.54 18.0743 58.54 18.0743C59.4816 15.4709 61.0457 13.6008 62.9569 12.7387C62.1518 11.0115 60.8281 9.66674 58.9616 8.80632C54.6895 6.83655 50.811 9.14979 49.0663 13.9733C49.0663 13.9733 46.7672 22.119 44.8654 25.9437C42.5822 30.5355 39.5141 34.7476 36.6301 38.1696C31.935 43.7408 25.4003 46.8595 18.5891 46.8595L18.3307 50.9606H28.0629V50.9604Z" fill="#CEE1F2"/>
<path d="M92.9949 66.2451C92.9949 62.4025 91.3578 58.9843 88.8304 56.8303C92.939 49.1555 87.8144 38.9863 79.8285 39.0751L61.5855 39.069C66.7734 26.3903 72.4051 11.2836 60.3349 5.00948C54.3232 2.1391 48.0573 5.63203 45.7034 12.4227C45.6673 12.5225 43.1063 21.1033 41.6978 23.9358C39.8707 27.6104 37.2802 31.448 33.9985 35.3421C30.0266 40.0549 24.41 42.7579 18.5888 42.7579H13.4447C6.03387 42.7579 0.00476074 49.565 0.00476074 57.9321V76.5922C0.196553 82.0336 7.07946 82.0295 7.26962 76.5922V57.9321C7.26962 54.0877 10.0397 50.9602 13.4447 50.9602H18.589C26.39 50.9602 33.9249 47.3284 39.2617 40.9961C46.6998 32.3126 49.8573 24.9867 52.4783 15.3911C52.9961 14.026 53.7609 13.0159 54.6409 12.5379C55.4959 12.0735 56.4878 12.0954 57.5884 12.6027C63.9497 15.1333 57.5797 29.6921 52.5137 41.3338C51.2981 44.0168 53.0933 47.296 55.7616 47.269L79.8276 47.277C84.0452 47.4746 84.0419 54.2579 79.8276 54.4539H70.8373C66.0178 54.6705 66.0214 62.4415 70.8373 62.6562H82.5519C86.7695 62.8539 86.7662 69.6371 82.5519 69.8332H70.8373C66.0178 70.0497 66.0214 77.8207 70.8373 78.0354H82.007C86.2246 78.2331 86.2214 85.0164 82.007 85.2124H70.8373C66.0178 85.429 66.0214 93.2 70.8373 93.4147H77.045C78.6859 93.4986 80.1 95.2327 80.1 97.2082C80.1 99.1868 78.6741 100.797 76.9224 100.797L40.3256 100.789H40.3249C35.5058 101.005 35.5089 108.775 40.3242 108.991L76.9216 108.999C84.4362 109.094 89.5932 99.9566 86.4362 92.2984C92.4294 89.2405 94.4141 80.1235 90.1756 74.2907C91.9225 72.1825 92.9949 69.3531 92.9949 66.2451Z" fill="#0023C4"/>
<path d="M17.6176 108.991C14.3281 108.991 11.2372 107.534 8.91413 104.889L1.04974 95.8749C-0.358013 94.2614 -0.340758 91.6647 1.08842 90.0753C2.5176 88.4859 4.81747 88.5052 6.2254 90.119L14.0816 99.1237C15.0219 100.194 16.2805 100.789 17.6178 100.789C18.9284 100.789 20.1639 100.218 21.1055 99.178L43.7943 70.5757C45.1329 68.8885 47.4291 68.7458 48.9237 70.2568C50.4181 71.7679 50.5445 74.3608 49.2061 76.048L26.4475 104.738C26.4065 104.789 26.3643 104.84 26.3213 104.889C23.9982 107.534 20.9071 108.991 17.6176 108.991Z" fill="#FF5CF4"/>
<path d="M167.184 90.96C161.744 90.96 157.04 89.776 153.072 87.408C149.168 85.04 146.128 81.904 143.952 78C141.776 74.032 140.688 69.744 140.688 65.136C140.688 60.4 141.744 56.048 143.856 52.08C146.032 48.048 149.104 44.848 153.072 42.48C157.04 40.048 161.776 38.832 167.28 38.832C172.784 38.832 177.488 40.048 181.392 42.48C185.296 44.848 188.272 48.016 190.32 51.984C192.432 55.888 193.488 60.112 193.488 64.656C193.488 66.32 193.392 67.76 193.2 68.976H154.32C154.64 72.88 156.08 75.952 158.64 78.192C161.264 80.432 164.272 81.552 167.664 81.552C170.224 81.552 172.624 80.944 174.864 79.728C177.168 78.448 178.736 76.784 179.568 74.736L190.608 77.808C188.752 81.648 185.776 84.816 181.68 87.312C177.584 89.744 172.752 90.96 167.184 90.96ZM154.032 60.816H180.336C179.952 57.04 178.512 54 176.016 51.696C173.584 49.328 170.608 48.144 167.088 48.144C163.632 48.144 160.656 49.328 158.16 51.696C155.728 54 154.352 57.04 154.032 60.816ZM197.869 75.12C197.869 71.856 198.765 69.008 200.557 66.576C202.413 64.08 204.973 62.16 208.237 60.816C211.501 59.472 215.245 58.8 219.469 58.8C221.581 58.8 223.725 58.992 225.901 59.376C228.077 59.696 229.965 60.176 231.565 60.816V58.128C231.565 54.928 230.605 52.464 228.685 50.736C226.829 49.008 224.045 48.144 220.333 48.144C217.581 48.144 214.957 48.624 212.461 49.584C209.965 50.544 207.341 51.952 204.589 53.808L200.461 45.36C203.789 43.184 207.181 41.552 210.637 40.464C214.157 39.376 217.837 38.832 221.677 38.832C228.845 38.832 234.413 40.624 238.381 44.208C242.413 47.792 244.429 52.912 244.429 59.568V75.6C244.429 77.008 244.653 78 245.101 78.576C245.549 79.088 246.349 79.408 247.501 79.536V90C246.349 90.256 245.293 90.416 244.333 90.48C243.437 90.608 242.669 90.672 242.029 90.672C239.469 90.672 237.517 90.096 236.173 88.944C234.829 87.792 234.029 86.384 233.773 84.72L233.485 82.128C231.245 85.008 228.493 87.216 225.229 88.752C222.029 90.224 218.733 90.96 215.341 90.96C211.949 90.96 208.941 90.288 206.317 88.944C203.693 87.536 201.613 85.648 200.077 83.28C198.605 80.848 197.869 78.128 197.869 75.12ZM229.165 77.712C230.765 76.176 231.565 74.704 231.565 73.296V68.208C228.237 66.864 224.877 66.192 221.485 66.192C218.093 66.192 215.341 66.928 213.229 68.4C211.117 69.808 210.061 71.696 210.061 74.064C210.061 75.984 210.829 77.712 212.365 79.248C213.901 80.784 216.109 81.552 218.989 81.552C220.909 81.552 222.765 81.2 224.557 80.496C226.413 79.792 227.949 78.864 229.165 77.712ZM274.978 90.96C270.69 90.96 266.594 90.256 262.69 88.848C258.786 87.44 255.426 85.36 252.61 82.608L257.218 74.256C260.226 76.688 263.17 78.48 266.05 79.632C268.93 80.784 271.746 81.36 274.498 81.36C276.994 81.36 278.978 80.912 280.45 80.016C281.986 79.12 282.754 77.776 282.754 75.984C282.754 74.128 281.826 72.88 279.97 72.24C278.114 71.536 275.522 70.672 272.194 69.648C268.482 68.496 265.378 67.312 262.882 66.096C260.386 64.88 258.498 63.408 257.218 61.68C256.002 59.952 255.394 57.712 255.394 54.96C255.394 50.032 257.25 46.096 260.962 43.152C264.674 40.208 269.602 38.736 275.746 38.736C279.33 38.736 282.722 39.312 285.922 40.464C289.122 41.552 292.034 43.344 294.658 45.84L289.474 54C284.546 50.16 279.778 48.24 275.17 48.24C273.122 48.24 271.298 48.624 269.698 49.392C268.162 50.16 267.394 51.504 267.394 53.424C267.394 55.216 268.13 56.496 269.602 57.264C271.138 58.032 273.442 58.864 276.514 59.76C280.482 60.976 283.842 62.16 286.594 63.312C289.41 64.464 291.522 65.936 292.93 67.728C294.402 69.52 295.138 71.952 295.138 75.024C295.138 80.016 293.314 83.92 289.666 86.736C286.018 89.552 281.122 90.96 274.978 90.96ZM303.631 99.792C305.999 100.432 307.919 100.752 309.391 100.752C311.119 100.752 312.495 100.016 313.519 98.544C314.607 97.136 315.823 94.288 317.167 90L297.295 39.696H310.639L324.175 76.848L336.079 39.696H348.367L327.247 99.984C326.095 103.44 324.015 106.288 321.007 108.528C318.063 110.832 314.415 111.984 310.063 111.984C307.951 111.984 305.807 111.632 303.631 110.928V99.792Z" fill="#0023C4"/>
<path d="M356.988 19.92H363.516V78.672C363.516 81.168 363.932 82.8 364.764 83.568C365.66 84.336 366.78 84.72 368.124 84.72C369.276 84.72 370.428 84.592 371.58 84.336C372.796 84.08 373.788 83.824 374.556 83.568L375.708 88.848C374.492 89.36 372.988 89.776 371.196 90.096C369.468 90.416 367.964 90.576 366.684 90.576C363.74 90.576 361.372 89.712 359.58 87.984C357.852 86.256 356.988 83.888 356.988 80.88V19.92ZM382.856 29.52V19.92H389.384V29.52H382.856ZM382.856 90V39.984H389.384V90H382.856ZM439.475 90L420.947 64.368L410.291 74.352V90H403.763V19.92H410.291V67.344L438.611 40.08H445.811L425.363 60.528L446.579 90H439.475ZM473.644 90.96C468.844 90.96 464.556 89.776 460.78 87.408C457.004 85.04 454.028 81.872 451.852 77.904C449.676 73.936 448.588 69.584 448.588 64.848C448.588 60.176 449.644 55.888 451.756 51.984C453.932 48.08 456.908 44.976 460.684 42.672C464.46 40.304 468.748 39.12 473.548 39.12C478.476 39.12 482.796 40.304 486.508 42.672C490.22 45.04 493.1 48.176 495.148 52.08C497.26 55.92 498.316 60.144 498.316 64.752C498.316 65.776 498.284 66.64 498.22 67.344H455.404C455.724 70.928 456.748 74.128 458.476 76.944C460.204 79.696 462.412 81.904 465.1 83.568C467.788 85.168 470.732 85.968 473.932 85.968C477.196 85.968 480.268 85.136 483.148 83.472C486.028 81.808 488.076 79.632 489.292 76.944L494.956 78.48C493.932 80.912 492.332 83.088 490.156 85.008C488.044 86.864 485.58 88.336 482.764 89.424C479.948 90.448 476.908 90.96 473.644 90.96ZM455.212 62.64H492.172C491.916 59.056 490.924 55.888 489.196 53.136C487.468 50.32 485.26 48.144 482.572 46.608C479.884 45.008 476.908 44.208 473.644 44.208C470.38 44.208 467.404 45.008 464.716 46.608C462.028 48.144 459.82 50.32 458.092 53.136C456.428 55.888 455.468 59.056 455.212 62.64ZM533.348 45.744C528.996 45.872 525.156 47.088 521.828 49.392C518.564 51.696 516.26 54.864 514.916 58.896V90H508.388V39.984H514.532V51.984C516.26 48.464 518.532 45.616 521.348 43.44C524.228 41.264 527.268 40.048 530.468 39.792C531.108 39.728 531.652 39.696 532.1 39.696C532.548 39.696 532.964 39.728 533.348 39.792V45.744Z" fill="#3651CD"/>
</svg>
