<svg width="513" height="513" viewBox="0 0 513 513" fill="none" xmlns="http://www.w3.org/2000/svg">
<g clip-path="url(#clip0)">
<path d="M192 256.003C192 220.718 220.715 192.003 256 192.003H341.333V21.336C341.333 9.55999 331.797 0.00299072 320 0.00299072H21.333C9.536 0.00299072 0 9.55999 0 21.336V490.669C0 502.445 9.536 512.002 21.333 512.002H320C331.797 512.002 341.333 502.445 341.333 490.669V341.336V320.003H256C220.715 320.003 192 291.288 192 256.003Z" fill="#80B2FF"/>
<path d="M507.201 269.48C507.266 269.401 507.32 269.316 507.383 269.236C507.749 268.774 508.104 268.303 508.431 267.811C508.585 267.581 508.715 267.341 508.859 267.106C509.075 266.753 509.296 266.403 509.491 266.037C509.652 265.737 509.787 265.427 509.932 265.121C510.082 264.804 510.241 264.492 510.376 264.167C510.521 263.817 510.639 263.46 510.764 263.105C510.868 262.81 510.983 262.52 511.074 262.219C511.201 261.801 511.298 261.378 511.399 260.955C511.458 260.707 511.53 260.464 511.581 260.213C511.698 259.632 511.78 259.047 511.848 258.46C511.86 258.359 511.881 258.261 511.891 258.159C512.036 256.725 512.036 255.279 511.891 253.845C511.881 253.743 511.859 253.645 511.848 253.544C511.78 252.957 511.697 252.372 511.581 251.791C511.531 251.54 511.459 251.297 511.399 251.049C511.298 250.626 511.201 250.202 511.074 249.785C510.983 249.484 510.868 249.194 510.764 248.899C510.638 248.544 510.521 248.186 510.376 247.837C510.241 247.512 510.083 247.2 509.932 246.883C509.787 246.577 509.652 246.268 509.491 245.967C509.295 245.601 509.075 245.251 508.859 244.898C508.715 244.663 508.585 244.423 508.431 244.193C508.104 243.701 507.749 243.23 507.383 242.768C507.32 242.688 507.266 242.604 507.201 242.524C506.721 241.935 506.21 241.373 505.67 240.839L420.416 155.585C412.075 147.244 398.592 147.244 390.251 155.585C381.91 163.926 381.91 177.409 390.251 185.75L439.168 234.667H256C244.203 234.667 234.667 244.224 234.667 256C234.667 267.776 244.203 277.333 256 277.333H439.168L390.251 326.25C381.91 334.591 381.91 348.074 390.251 356.415C394.411 360.575 399.872 362.666 405.334 362.666C410.795 362.666 416.257 360.575 420.417 356.415L505.671 271.161C506.209 270.631 506.72 270.069 507.201 269.48Z" fill="#80B2FF"/>
</g>
<defs>
<clipPath id="clip0">
<rect width="512.005" height="512.005" fill="white"/>
</clipPath>
</defs>
</svg>
