<svg width="224" height="48" viewBox="0 0 224 48" fill="none" xmlns="http://www.w3.org/2000/svg">
<path d="M10.8294 20.0556C13.4583 20.0556 15.9804 18.8518 17.7925 16.7017C18.9056 15.3809 20.0897 13.7552 20.971 11.983C21.705 10.5068 22.5923 7.36294 22.5923 7.36294C22.9557 6.35814 23.5594 5.63636 24.297 5.30364C23.9863 4.63702 23.4754 4.118 22.755 3.78592C21.1062 3.02567 19.6092 3.91848 18.9359 5.78016C18.9359 5.78016 18.0485 8.92404 17.3145 10.4002C16.4333 12.1725 15.2491 13.7981 14.136 15.1189C12.3239 17.2691 9.80181 18.4728 7.17299 18.4728L7.07324 20.0557H10.8294V20.0556Z" fill="#CEE1F2"/>
<path d="M35.8904 25.9548C35.8904 24.4717 35.2586 23.1524 34.2831 22.3211C35.8689 19.3589 33.891 15.4341 30.8088 15.4684L23.7678 15.466C25.77 10.5726 27.9436 4.74203 23.2851 2.32049C20.9648 1.21265 18.5464 2.56077 17.638 5.18167C17.624 5.22021 16.6356 8.53203 16.092 9.62523C15.3868 11.0435 14.387 12.5246 13.1204 14.0276C11.5874 15.8465 9.4196 16.8898 7.17289 16.8898H5.1875C2.32722 16.8898 0.000244141 19.517 0.000244141 22.7463V29.9484C0.0742677 32.0485 2.73077 32.0469 2.80417 29.9484V22.7463C2.80417 21.2626 3.8733 20.0555 5.1875 20.0555H7.17296C10.1838 20.0555 13.092 18.6538 15.1517 16.2098C18.0225 12.8583 19.2412 10.0308 20.2528 6.32734C20.4526 5.80049 20.7478 5.41063 21.0874 5.22615C21.4174 5.04689 21.8002 5.05536 22.225 5.25116C24.6802 6.22786 22.2217 11.8469 20.2664 16.3401C19.7973 17.3756 20.4901 18.6413 21.52 18.6308L30.8084 18.6339C32.4362 18.7102 32.435 21.3283 30.8084 21.4039H27.3386C25.4784 21.4875 25.4798 24.4868 27.3386 24.5696H31.8599C33.4877 24.6459 33.4864 27.264 31.8599 27.3397H27.3386C25.4784 27.4232 25.4798 30.4225 27.3386 30.5054H31.6496C33.2774 30.5817 33.2761 33.1997 31.6496 33.2754H27.3386C25.4784 33.359 25.4798 36.3582 27.3386 36.4411H29.7344C30.3678 36.4735 30.9136 37.1428 30.9136 37.9052C30.9136 38.6689 30.3632 39.2902 29.6871 39.2902L15.5624 39.2872H15.5621C13.7021 39.3707 13.7033 42.3697 15.5618 42.4529L29.6868 42.456C32.5872 42.4926 34.5775 38.966 33.3591 36.0102C35.6722 34.8301 36.4382 31.3113 34.8023 29.0601C35.4765 28.2464 35.8904 27.1544 35.8904 25.9548Z" fill="white"/>
<path d="M6.79815 42.453C5.52853 42.453 4.3356 41.8907 3.43898 40.8697L0.403662 37.3907C-0.139668 36.7679 -0.133009 35.7657 0.418593 35.1523C0.970195 34.5388 1.85785 34.5463 2.40125 35.1691L5.43341 38.6445C5.79631 39.0578 6.28209 39.2874 6.79822 39.2874C7.30405 39.2874 7.78092 39.0667 8.14431 38.6655L16.9012 27.6262C17.4179 26.975 18.3041 26.92 18.881 27.5032C19.4577 28.0864 19.5065 29.0871 18.99 29.7383L10.2061 40.8113C10.1903 40.8312 10.174 40.8507 10.1574 40.8697C9.26076 41.8907 8.06776 42.453 6.79815 42.453Z" fill="#FF5CF4"/>
<path d="M65.1602 38.4002C62.8936 38.4002 60.9336 37.9068 59.2802 36.9202C57.6536 35.9335 56.3869 34.6268 55.4802 33.0002C54.5736 31.3468 54.1202 29.5602 54.1202 27.6402C54.1202 25.6668 54.5602 23.8535 55.4402 22.2002C56.3469 20.5202 57.6269 19.1868 59.2802 18.2002C60.9336 17.1868 62.9069 16.6802 65.2002 16.6802C67.4936 16.6802 69.4536 17.1868 71.0802 18.2002C72.7069 19.1868 73.9469 20.5068 74.8002 22.1602C75.6802 23.7868 76.1202 25.5468 76.1202 27.4402C76.1202 28.1335 76.0802 28.7335 76.0002 29.2402H59.8002C59.9336 30.8668 60.5336 32.1468 61.6002 33.0802C62.6936 34.0135 63.9469 34.4802 65.3602 34.4802C66.4269 34.4802 67.4269 34.2268 68.3602 33.7202C69.3202 33.1868 69.9736 32.4935 70.3202 31.6402L74.9202 32.9202C74.1469 34.5202 72.9069 35.8402 71.2002 36.8802C69.4936 37.8935 67.4802 38.4002 65.1602 38.4002ZM59.6802 25.8402H70.6402C70.4802 24.2668 69.8802 23.0002 68.8402 22.0402C67.8269 21.0535 66.5869 20.5602 65.1202 20.5602C63.6802 20.5602 62.4402 21.0535 61.4002 22.0402C60.3869 23.0002 59.8136 24.2668 59.6802 25.8402ZM77.9456 31.8002C77.9456 30.4402 78.3189 29.2535 79.0656 28.2402C79.8389 27.2002 80.9056 26.4002 82.2656 25.8402C83.6256 25.2802 85.1856 25.0002 86.9456 25.0002C87.8256 25.0002 88.7189 25.0802 89.6256 25.2402C90.5322 25.3735 91.3189 25.5735 91.9856 25.8402V24.7202C91.9856 23.3868 91.5856 22.3602 90.7856 21.6402C90.0122 20.9202 88.8522 20.5602 87.3056 20.5602C86.1589 20.5602 85.0656 20.7602 84.0256 21.1602C82.9856 21.5602 81.8922 22.1468 80.7456 22.9202L79.0256 19.4002C80.4122 18.4935 81.8256 17.8135 83.2656 17.3602C84.7322 16.9068 86.2656 16.6802 87.8656 16.6802C90.8522 16.6802 93.1722 17.4268 94.8256 18.9202C96.5056 20.4135 97.3456 22.5468 97.3456 25.3202V32.0002C97.3456 32.5868 97.4389 33.0002 97.6256 33.2402C97.8122 33.4535 98.1456 33.5868 98.6256 33.6402V38.0002C98.1456 38.1068 97.7056 38.1735 97.3056 38.2002C96.9322 38.2535 96.6122 38.2802 96.3456 38.2802C95.2789 38.2802 94.4656 38.0402 93.9056 37.5602C93.3456 37.0802 93.0122 36.4935 92.9056 35.8002L92.7856 34.7202C91.8522 35.9202 90.7056 36.8402 89.3456 37.4802C88.0122 38.0935 86.6389 38.4002 85.2256 38.4002C83.8122 38.4002 82.5589 38.1202 81.4656 37.5602C80.3722 36.9735 79.5056 36.1868 78.8656 35.2002C78.2522 34.1868 77.9456 33.0535 77.9456 31.8002ZM90.9856 32.8802C91.6522 32.2402 91.9856 31.6268 91.9856 31.0402V28.9202C90.5989 28.3602 89.1989 28.0802 87.7856 28.0802C86.3722 28.0802 85.2256 28.3868 84.3456 29.0002C83.4656 29.5868 83.0256 30.3735 83.0256 31.3602C83.0256 32.1602 83.3456 32.8802 83.9856 33.5202C84.6256 34.1602 85.5456 34.4802 86.7456 34.4802C87.5456 34.4802 88.3189 34.3335 89.0656 34.0402C89.8389 33.7468 90.4789 33.3602 90.9856 32.8802ZM110.074 38.4002C108.288 38.4002 106.581 38.1068 104.954 37.5202C103.328 36.9335 101.928 36.0668 100.754 34.9202L102.674 31.4402C103.928 32.4535 105.154 33.2002 106.354 33.6802C107.554 34.1602 108.728 34.4002 109.874 34.4002C110.914 34.4002 111.741 34.2135 112.354 33.8402C112.994 33.4668 113.314 32.9068 113.314 32.1602C113.314 31.3868 112.928 30.8668 112.154 30.6002C111.381 30.3068 110.301 29.9468 108.914 29.5202C107.368 29.0402 106.074 28.5468 105.034 28.0402C103.994 27.5335 103.208 26.9202 102.674 26.2002C102.168 25.4802 101.914 24.5468 101.914 23.4002C101.914 21.3468 102.688 19.7068 104.234 18.4802C105.781 17.2535 107.834 16.6402 110.394 16.6402C111.888 16.6402 113.301 16.8802 114.634 17.3602C115.968 17.8135 117.181 18.5602 118.274 19.6002L116.114 23.0002C114.061 21.4002 112.074 20.6002 110.154 20.6002C109.301 20.6002 108.541 20.7602 107.874 21.0802C107.234 21.4002 106.914 21.9602 106.914 22.7602C106.914 23.5068 107.221 24.0402 107.834 24.3602C108.474 24.6802 109.434 25.0268 110.714 25.4002C112.368 25.9068 113.768 26.4002 114.914 26.8802C116.088 27.3602 116.968 27.9735 117.554 28.7202C118.168 29.4668 118.474 30.4802 118.474 31.7602C118.474 33.8402 117.714 35.4668 116.194 36.6402C114.674 37.8135 112.634 38.4002 110.074 38.4002ZM122.013 42.0802C123 42.3468 123.8 42.4802 124.413 42.4802C125.133 42.4802 125.706 42.1735 126.133 41.5602C126.586 40.9735 127.093 39.7868 127.653 38.0002L119.373 17.0402H124.933L130.573 32.5202L135.533 17.0402H140.653L131.853 42.1602C131.373 43.6002 130.506 44.7869 129.253 45.7202C128.026 46.6802 126.506 47.1602 124.693 47.1602C123.813 47.1602 122.92 47.0135 122.013 46.7202V42.0802Z" fill="white"/>
<path d="M144.245 8.80018H146.965V33.2802C146.965 34.3202 147.139 35.0002 147.485 35.3202C147.859 35.6402 148.325 35.8002 148.885 35.8002C149.365 35.8002 149.845 35.7468 150.325 35.6402C150.832 35.5335 151.245 35.4268 151.565 35.3202L152.045 37.5202C151.539 37.7335 150.912 37.9068 150.165 38.0402C149.445 38.1735 148.819 38.2402 148.285 38.2402C147.059 38.2402 146.072 37.8802 145.325 37.1602C144.605 36.4402 144.245 35.4535 144.245 34.2002V8.80018ZM155.024 12.8002V8.80018H157.744V12.8002H155.024ZM155.024 38.0002V17.1602H157.744V38.0002H155.024ZM178.615 38.0002L170.895 27.3202L166.455 31.4802V38.0002H163.735V8.80018H166.455V28.5602L178.255 17.2002H181.255L172.735 25.7202L181.575 38.0002H178.615ZM192.852 38.4002C190.852 38.4002 189.065 37.9068 187.492 36.9202C185.918 35.9335 184.678 34.6135 183.772 32.9602C182.865 31.3068 182.412 29.4935 182.412 27.5202C182.412 25.5735 182.852 23.7868 183.732 22.1602C184.638 20.5335 185.878 19.2402 187.452 18.2802C189.025 17.2935 190.812 16.8002 192.812 16.8002C194.865 16.8002 196.665 17.2935 198.212 18.2802C199.758 19.2668 200.958 20.5735 201.812 22.2002C202.692 23.8002 203.132 25.5602 203.132 27.4802C203.132 27.9068 203.118 28.2668 203.092 28.5602H185.252C185.385 30.0535 185.812 31.3868 186.532 32.5602C187.252 33.7068 188.172 34.6268 189.292 35.3202C190.412 35.9868 191.638 36.3202 192.972 36.3202C194.332 36.3202 195.612 35.9735 196.812 35.2802C198.012 34.5868 198.865 33.6802 199.372 32.5602L201.732 33.2002C201.305 34.2135 200.638 35.1202 199.732 35.9202C198.852 36.6935 197.825 37.3068 196.652 37.7602C195.478 38.1868 194.212 38.4002 192.852 38.4002ZM185.172 26.6002H200.572C200.465 25.1068 200.052 23.7868 199.332 22.6402C198.612 21.4668 197.692 20.5602 196.572 19.9202C195.452 19.2535 194.212 18.9202 192.852 18.9202C191.492 18.9202 190.252 19.2535 189.132 19.9202C188.012 20.5602 187.092 21.4668 186.372 22.6402C185.678 23.7868 185.278 25.1068 185.172 26.6002ZM217.728 19.5602C215.915 19.6135 214.315 20.1202 212.928 21.0802C211.568 22.0402 210.608 23.3602 210.048 25.0402V38.0002H207.328V17.1602H209.888V22.1602C210.608 20.6935 211.555 19.5068 212.728 18.6002C213.928 17.6935 215.195 17.1868 216.528 17.0802C216.795 17.0535 217.022 17.0402 217.208 17.0402C217.395 17.0402 217.568 17.0535 217.728 17.0802V19.5602Z" fill="#DEE3FC"/>
</svg>
