<svg width="39" height="35" viewBox="0 0 39 35" fill="none" xmlns="http://www.w3.org/2000/svg">
<rect x="0.000244141" y="0.000244141" width="39" height="35" rx="4" fill="white"/>
<g clip-path="url(#clip0)">
<path d="M19.5002 17.3144C21.3903 17.3144 22.9227 15.4532 22.9227 13.1573C22.9227 10.8614 22.4196 9.00024 19.5002 9.00024C16.5808 9.00024 16.0776 10.8614 16.0776 13.1573C16.0776 15.4532 17.61 17.3144 19.5002 17.3144Z" fill="#637ADC"/>
<path d="M13.0358 23.6617C13.0352 23.5217 13.0347 23.6222 13.0358 23.6617V23.6617Z" fill="#637ADC"/>
<path d="M25.9644 23.7709C25.9662 23.7326 25.965 23.5051 25.9644 23.7709V23.7709Z" fill="#637ADC"/>
<path d="M25.957 23.4938C25.8936 19.4943 25.3712 18.3547 21.3741 17.6333C21.3741 17.6333 20.8115 18.3503 19.5001 18.3503C18.1886 18.3503 17.6259 17.6333 17.6259 17.6333C13.6724 18.3468 13.1183 19.4695 13.0455 23.3639C13.0395 23.6818 13.0367 23.6986 13.0356 23.6616C13.0359 23.7308 13.0362 23.8587 13.0362 24.0818C13.0362 24.0818 13.9878 26.0002 19.5001 26.0002C25.0122 26.0002 25.964 24.0818 25.964 24.0818C25.964 23.9385 25.9641 23.8388 25.9642 23.771C25.9631 23.7939 25.961 23.7496 25.957 23.4938Z" fill="#637ADC"/>
</g>
<defs>
<clipPath id="clip0">
<rect width="17" height="17" fill="white" transform="translate(11.0002 9.00024)"/>
</clipPath>
</defs>
</svg>
