<svg width="371" height="371" viewBox="0 0 371 371" fill="none" xmlns="http://www.w3.org/2000/svg">
<path d="M237.698 181.076C209.209 131.735 211.247 73.2691 237.765 27.2145C211.575 27.1751 185.032 33.6698 160.71 47.7242C108.305 78.0021 80.5902 134.377 84.1662 190.937C96.5904 191.343 108.344 195.761 117.81 203.676C126.763 198.694 136.676 196.129 147.01 196.129C174.526 196.129 198.323 214.654 205.752 240.553C225.157 246.536 238.842 264.39 238.842 285.438C238.842 307.42 223.631 325.8 203.214 331.02C239.828 339.446 279.586 334.713 314.702 314.453C339.025 300.413 357.916 280.678 370.985 257.961C317.844 257.868 266.189 230.403 237.698 181.076Z" fill="#80B2FF"/>
<path d="M225.947 285.412C225.947 267.572 212.261 253.083 194.868 251.466C191.856 227.564 171.702 209.014 147.012 209.014C135.206 209.014 124.556 213.365 116.142 220.346C108.241 210.249 96.0796 203.636 82.275 203.636C61.6471 203.636 44.4769 218.111 40.1778 237.425C17.7486 238.989 0 257.474 0 280.311C0 304.134 19.3263 323.447 43.1621 323.447C48.2238 323.447 53.0357 322.421 57.5452 320.818C65.4071 331.599 78.0416 338.685 92.3983 338.685C101.181 338.685 109.332 336.029 116.155 331.52C123.938 339.066 134.509 343.772 146.223 343.772C163.46 343.772 178.21 333.583 185.126 318.964C187.242 319.371 189.411 319.648 191.66 319.648C210.592 319.66 225.947 304.318 225.947 285.412Z" fill="#80B2FF"/>
<path d="M320.042 200.179L326.194 186.638L340.827 184.047L329.862 173.99L331.9 159.252L318.976 166.601L305.605 160.107L308.59 174.687L298.282 185.389L313.047 187.071L320.042 200.179Z" fill="#80B2FF"/>
<path d="M24.558 163.787L35.0759 158.384L45.4884 163.971L43.5951 152.31L52.1276 144.132L40.453 142.318L35.2992 131.682L29.9879 142.252L18.2737 143.817L26.6747 152.152L24.558 163.787Z" fill="#80B2FF"/>
<path d="M263.455 137.441L268.255 146.42L272.475 137.125L282.506 135.363L274.985 128.474L276.392 118.377L267.517 123.399L258.341 118.943L260.393 128.948L253.319 136.271L263.455 137.441Z" fill="#80B2FF"/>
<path d="M311.785 110.752L314.73 116.274L317.319 110.581L323.486 109.476L318.871 105.243L319.712 99.0639L314.269 102.167L308.683 99.4188L309.905 105.545L305.566 110.042L311.785 110.752Z" fill="#80B2FF"/>
<path d="M89.8996 73.6108L92.8446 79.1326L95.4346 73.4267L101.601 72.3223L96.986 68.0889L97.8406 61.9097L92.3977 64.9994L86.7838 62.2648L88.0327 68.3783L83.681 72.8876L89.8996 73.6108Z" fill="#80B2FF"/>
</svg>
