<svg width="24" height="24" viewBox="0 0 24 24" fill="none" xmlns="http://www.w3.org/2000/svg">
<path fill-rule="evenodd" clip-rule="evenodd" d="M18 4.59V10C11.91 10 8.09 16.85 11.08 22H2C1.46957 22 0.960859 21.7893 0.585786 21.4142C0.210714 21.0391 0 20.5304 0 20V2C0 0.9 0.9 0 2 0H13.41L18 4.59ZM17 6L12 1V6H17ZM12 9H3V11H12V9ZM3 15H9V13H3V15Z" fill="#5B79FF"/>
<path fill-rule="evenodd" clip-rule="evenodd" d="M22.9 17H24V19H22.9C22.7715 19.6249 22.5236 20.219 22.17 20.75L22.95 21.53L21.54 22.95L20.75 22.17C20.23 22.51 19.64 22.77 19 22.9V24H17V22.9C16.3751 22.7717 15.7808 22.5238 15.25 22.17L14.47 22.95L13.05 21.54L13.83 20.75C13.4768 20.2188 13.229 19.6247 13.1 19H12V17H13.1C13.23 16.36 13.49 15.77 13.83 15.25L13.05 14.46L14.46 13.05L15.25 13.83C15.77 13.49 16.36 13.23 17 13.1V12H19V13.1C19.64 13.23 20.23 13.48 20.75 13.83L21.54 13.05L22.95 14.46L22.17 15.25C22.5227 15.7814 22.7705 16.3754 22.9 17ZM16 18C16 18.5304 16.2107 19.0391 16.5858 19.4142C16.9609 19.7893 17.4696 20 18 20C18.5304 20 19.0391 19.7893 19.4142 19.4142C19.7893 19.0391 20 18.5304 20 18C20 17.4696 19.7893 16.9609 19.4142 16.5858C19.0391 16.2107 18.5304 16 18 16C17.4696 16 16.9609 16.2107 16.5858 16.5858C16.2107 16.9609 16 17.4696 16 18Z" fill="#5B79FF"/>
</svg>
