<svg width="28" height="28" viewBox="0 0 28 28" fill="none" xmlns="http://www.w3.org/2000/svg">
<path d="M0 13.4167C0 7.09199 -1.19209e-07 3.92965 1.96482 1.96482C3.92965 -1.19209e-07 7.09199 0 13.4167 0H14.5833C20.908 0 24.0704 -1.19209e-07 26.0352 1.96482C28 3.92965 28 7.09199 28 13.4167V14.5833C28 20.908 28 24.0704 26.0352 26.0352C24.0704 28 20.908 28 14.5833 28H13.4167C7.09199 28 3.92965 28 1.96482 26.0352C-1.19209e-07 24.0704 0 20.908 0 14.5833V13.4167Z" fill="#FF7F38"/>
<path fill-rule="evenodd" clip-rule="evenodd" d="M14.3761 4.5C11.7722 4.5 9.66211 6.62144 9.66211 9.2383C9.66211 11.8552 11.7722 13.9767 14.3761 13.9767C16.9793 13.9767 19.09 11.8552 19.09 9.2383C19.09 6.62144 16.9793 4.5 14.3761 4.5ZM12.427 9.2383C12.427 10.3201 13.2999 11.1971 14.3761 11.1971C15.4523 11.1971 16.3245 10.3201 16.3245 9.2383C16.3245 8.1566 15.4523 7.27963 14.3761 7.27963C13.2999 7.27963 12.427 8.1566 12.427 9.2383Z" fill="white"/>
<path d="M16.0403 17.7468C17.9272 17.3604 19.0585 16.4621 19.1182 16.4139C19.6704 15.9687 19.7589 15.1579 19.3163 14.6027C18.8732 14.0476 18.067 13.9585 17.5141 14.4036C17.5026 14.4131 16.2962 15.3431 14.3118 15.3445C12.3275 15.3431 11.0954 14.4131 11.0839 14.4036C10.5317 13.9585 9.72482 14.0476 9.28172 14.6027C8.83912 15.1579 8.92762 15.9687 9.47982 16.4139C9.54082 16.4627 10.7183 17.3845 12.6584 17.7618L9.95442 20.6022C9.46322 21.1144 9.47792 21.93 9.98782 22.4239C10.236 22.6649 10.5567 22.7847 10.8774 22.7847C11.2128 22.7847 11.5482 22.6529 11.7996 22.3907L14.3118 19.7011L17.0774 22.4081C17.5789 22.9109 18.3902 22.9101 18.8905 22.4067C19.3907 21.9031 19.3901 21.0874 18.8886 20.5847L16.0403 17.7468Z" fill="white"/>
</svg>
