<svg width="39" height="35" viewBox="0 0 39 35" fill="none" xmlns="http://www.w3.org/2000/svg">
<rect x="0.000244141" y="0.000244141" width="39" height="35" rx="4" fill="white"/>
<g clip-path="url(#clip0)">
<path d="M26.3991 10.6019C24.2629 8.4657 20.7873 8.46573 18.6512 10.6019C17.192 12.061 16.6852 14.2113 17.317 16.1621L11.1471 22.332C11.0537 22.4254 11.0012 22.5519 11.0012 22.6842V25.5017C11.0012 25.777 11.224 25.9998 11.4993 25.9998H14.3168C14.4491 25.9998 14.5756 25.9472 14.6689 25.8538L15.3732 25.1491C15.4807 25.0416 15.5332 24.8908 15.5157 24.7395L15.4282 23.9827L16.4768 23.884C16.7151 23.8616 16.9033 23.6734 16.9257 23.4351L17.0245 22.3864L17.7813 22.4745C17.9218 22.4934 18.0634 22.4462 18.1699 22.3519C18.2759 22.2571 18.3367 22.1218 18.3367 21.9798V21.0525H19.2472C19.3795 21.0525 19.5059 21 19.5993 20.9066L20.8765 19.6463C22.8269 20.2785 24.94 19.8099 26.3991 18.3498C28.5352 16.2137 28.5352 12.738 26.3991 10.6019ZM24.9901 14.1237C24.4074 14.7064 23.46 14.7064 22.8773 14.1237C22.2946 13.541 22.2946 12.5936 22.8773 12.0109C23.46 11.4282 24.4074 11.4282 24.9901 12.0109C25.5728 12.5936 25.5727 13.541 24.9901 14.1237Z" fill="#637ADC"/>
</g>
<defs>
<clipPath id="clip0">
<rect width="17" height="17" fill="white" transform="translate(11.0002 9.00024)"/>
</clipPath>
</defs>
</svg>
