<svg width="398" height="200" viewBox="0 0 398 200" fill="none" xmlns="http://www.w3.org/2000/svg">
<path d="M198.66 172.517C244.217 172.517 281.149 140.134 281.149 100.189C281.149 60.243 244.217 27.8606 198.66 27.8606C153.102 27.8606 116.171 60.243 116.171 100.189C116.171 140.134 153.102 172.517 198.66 172.517Z" stroke="#92BDFF" stroke-width="8.7306" stroke-miterlimit="10" stroke-dasharray="13.1 13.1"/>
<path d="M219.545 95.442C219.632 94.8782 219.693 94.3062 219.693 93.7205C219.693 86.6804 213.185 80.9739 205.155 80.9739C199.132 80.9739 193.964 84.1862 191.759 88.7622C189.964 87.3602 187.605 86.5015 185.013 86.5015C179.402 86.5015 174.854 90.4892 174.854 95.4093H172.958C167.563 95.4093 163.149 99.2795 163.149 104.01C163.149 108.74 167.563 112.61 172.958 112.61H218.821C224.216 112.61 228.63 108.74 228.63 104.01C228.63 99.4939 224.605 95.7697 219.545 95.442Z" fill="white"/>
<path d="M228.566 189H167.161C165.095 189 163.42 187.531 163.42 185.719V140.549C163.42 138.737 165.095 137.268 167.161 137.268H228.566C230.632 137.268 232.307 138.737 232.307 140.549V185.718C232.309 187.53 230.633 189 228.566 189Z" fill="#A6C6FA"/>
<path d="M197.97 158.108C203.242 158.108 207.516 154.36 207.516 149.738C207.516 145.115 203.242 141.368 197.97 141.368C192.698 141.368 188.424 145.115 188.424 149.738C188.424 154.36 192.698 158.108 197.97 158.108Z" fill="white"/>
<path d="M197.983 149.4C198.914 149.4 199.775 149.002 200.324 148.394C200.731 147.955 200.969 147.388 200.969 146.76C200.969 145.315 199.63 144.12 197.981 144.12C196.309 144.12 194.97 145.315 194.97 146.76C194.97 147.39 195.208 147.955 195.614 148.394C196.167 149.003 197.027 149.4 197.983 149.4Z" fill="#6098EE"/>
<path d="M203.275 154.106C203.275 155.773 192.662 155.773 192.662 154.106L192.665 152.165C193.084 149.511 202.412 149.399 203.276 152.165L203.275 154.106Z" fill="#6098EE"/>
<path d="M113.435 97.0543C108.705 101.498 101.155 105.139 93.0778 106.691C93.0747 107.165 93.0622 109.785 92.9999 121.865C92.9174 137.979 110.408 145.854 113.124 147.062C115.755 146 133.465 138.138 133.548 122.023C133.61 109.944 133.623 107.323 133.626 106.849C125.564 105.236 118.12 101.535 113.435 97.0543Z" fill="white"/>
<path d="M113.387 99.9676C108.755 103.693 102.337 106.623 95.2793 108.219L95.2092 121.872C95.1781 128.119 98.0071 133.771 103.623 138.67C107.311 141.889 111.191 143.887 113.159 144.783C113.243 144.745 113.337 144.703 113.429 144.662V99.999C113.413 99.988 113.399 99.9785 113.387 99.9676Z" fill="#80A6DF"/>
<path d="M113.427 99.9991V144.661C115.473 143.727 119.194 141.798 122.757 138.744C128.421 133.89 131.309 128.26 131.34 122.013L131.41 108.359C124.388 106.713 118.017 103.747 113.427 99.9991Z" fill="#6F9CE1"/>
<path d="M105.227 119.678V130.255C105.227 131.433 121.628 131.433 121.628 130.255V119.678H105.227ZM114.255 125.294V128.292C114.255 128.691 113.885 129.023 113.43 129.023C112.968 129.023 112.597 128.691 112.597 128.292V125.287C111.895 125.01 111.402 124.388 111.402 123.67C111.402 122.688 112.312 121.896 113.432 121.896C114.551 121.896 115.454 122.688 115.454 123.67C115.453 124.395 114.965 125.017 114.255 125.294Z" fill="white"/>
<path d="M120.191 118.924H118.531V118.212C118.531 115.743 116.241 113.737 113.427 113.737C110.612 113.737 108.324 115.745 108.324 118.212V118.924H106.662V118.212C106.662 114.941 109.697 112.28 113.427 112.28C117.156 112.28 120.191 114.941 120.191 118.212V118.924Z" fill="white"/>
<path d="M234.826 10H205.201V42.4242H234.826V10Z" fill="#6EA1EE"/>
<path d="M238.669 13.3474H209.043V45.7716H238.669V13.3474Z" fill="white" stroke="#99BCF3" stroke-width="6.3406" stroke-miterlimit="10"/>
<path d="M243.547 16.6361H213.921V49.0603H243.547V16.6361Z" fill="white" stroke="#99BCF3" stroke-width="6.3406" stroke-miterlimit="10"/>
<path d="M247.097 19.9835H217.471V52.4077H247.097V19.9835Z" fill="#99BCF3"/>
<path d="M242.488 40.1703H222.632V42.2795H242.488V40.1703Z" fill="#4987E8"/>
<path d="M242.488 45.1245H222.632V47.2337H242.488V45.1245Z" fill="#4987E8"/>
<path d="M150.404 47.3417C151.694 42.4033 148.174 37.4827 142.542 36.3513C136.91 35.2199 131.298 38.3062 130.008 43.2446C128.717 48.1831 132.237 53.1037 137.869 54.235C143.502 55.3664 149.113 52.2802 150.404 47.3417Z" fill="white"/>
<path d="M156.717 54.0173C158.073 52.0446 158.922 49.9122 159.281 47.7607L160.061 47.8603L161.601 48.0583L161.621 48.0596C162.037 45.5982 161.895 43.1082 161.217 40.73L158.926 41.227C158.311 39.0754 157.229 37.0236 155.688 35.2175L157.586 33.9806C155.962 32.0475 153.877 30.3575 151.389 29.0428L150.167 30.8202C147.909 29.6257 145.485 28.8872 143.031 28.5718L143.374 26.5213C140.567 26.1568 137.722 26.2879 135.014 26.8763L135.581 28.8844C133.126 29.4223 130.787 30.3725 128.727 31.724L127.317 30.0598C125.112 31.4837 123.185 33.3117 121.685 35.4932L123.713 36.5649C122.352 38.5444 121.508 40.67 121.148 42.8215L119.493 42.6085L118.817 42.5266L118.81 42.5225C118.394 44.9839 118.543 47.4781 119.214 49.8521L121.505 49.3552C122.12 51.5067 123.208 53.5613 124.751 55.3688L122.853 56.6056C124.477 58.5387 126.554 60.2247 129.042 61.5394L130.264 59.7619C132.522 60.9551 134.954 61.6991 137.408 62.0144L137.138 63.6076L137.065 64.0649C139.872 64.4294 142.709 64.2943 145.417 63.7059L144.847 61.6977C147.3 61.1585 149.644 60.2042 151.713 58.8554L153.123 60.5196C155.32 59.0916 157.243 57.2705 158.743 55.0889L156.717 54.0173ZM134.809 53.149C129.856 50.5306 128.264 44.8952 131.251 40.5526C134.233 36.2168 140.66 34.8216 145.613 37.44C150.558 40.0556 152.15 45.6897 149.167 50.0255C146.181 54.3681 139.754 55.7633 134.809 53.149Z" fill="#6099F1"/>
<path d="M117.556 52.7995C116.793 51.7879 115.828 50.9524 114.743 50.3163L114.973 50.0132L115.43 49.4166L115.434 49.4084C114.193 48.6794 112.811 48.1757 111.367 47.9204L111.12 48.9879C109.814 48.7572 108.457 48.7463 107.128 48.9811L106.886 47.9108C105.471 48.1511 104.084 48.6385 102.809 49.3784L103.497 50.2903C102.339 50.962 101.39 51.8057 100.665 52.7572L99.6295 52.1511C98.7981 53.2391 98.2251 54.4555 97.9324 55.7169L99.1499 55.9339C98.8868 57.0793 98.8744 58.2684 99.1422 59.4342L97.9215 59.6458C98.1955 60.8868 98.7514 62.1032 99.5952 63.2212L100.635 62.6178C101.401 63.6335 102.364 64.4649 103.449 65.1011L102.958 65.7427L102.761 66.0062L102.756 66.0089C103.997 66.7379 105.384 67.2403 106.823 67.497L107.07 66.4294C108.376 66.6601 109.737 66.6697 111.065 66.4348L111.307 67.5051C112.722 67.2649 114.106 66.7802 115.381 66.0389L114.693 65.127C115.851 64.4553 116.803 63.6103 117.528 62.6574L118.332 63.1298L118.564 63.2636C119.395 62.1755 119.963 60.9619 120.256 59.7005L119.039 59.4834C119.302 58.338 119.313 57.1449 119.048 55.9776L120.269 55.766C119.99 54.5278 119.437 53.3142 118.593 52.1961L117.556 52.7995ZM112.135 61.7387C109.596 63.2117 106.18 62.6028 104.5 60.3762C102.821 58.1523 103.517 55.1585 106.057 53.6841C108.593 52.2125 112.007 52.8227 113.686 55.0466C115.367 57.2718 114.671 60.267 112.135 61.7387Z" fill="#C3D8F9"/>
<path d="M288.686 71.4437H263.249C262.713 71.4437 262.279 71.0628 262.279 70.5932V57.938C262.279 57.4684 262.713 57.0875 263.249 57.0875H288.686C289.222 57.0875 289.656 57.4684 289.656 57.938V70.5932C289.656 71.0628 289.222 71.4437 288.686 71.4437Z" fill="#78ADFF"/>
<path d="M289.655 59.7988H262.279V62.2766H289.655V59.7988Z" fill="#5896FA"/>
<path d="M268.55 68.6888H264.525C264.27 68.6888 264.061 68.8704 264.061 69.0956C264.061 69.3195 264.268 69.5024 264.525 69.5024H268.55C268.805 69.5024 269.014 69.3209 269.014 69.0956C269.012 68.8704 268.805 68.6888 268.55 68.6888Z" fill="#D1F5FF"/>
<path d="M274.739 68.6888H270.714C270.459 68.6888 270.25 68.8704 270.25 69.0956C270.25 69.3195 270.457 69.5024 270.714 69.5024H274.739C274.994 69.5024 275.203 69.3209 275.203 69.0956C275.203 68.8704 274.996 68.6888 274.739 68.6888Z" fill="#D1F5FF"/>
<path d="M280.929 68.6888H276.905C276.649 68.6888 276.441 68.8704 276.441 69.0956C276.441 69.3195 276.648 69.5024 276.905 69.5024H280.929C281.185 69.5024 281.393 69.3209 281.393 69.0956C281.393 68.8704 281.186 68.6888 280.929 68.6888Z" fill="#D1F5FF"/>
<path d="M287.12 68.6888H283.095C282.84 68.6888 282.631 68.8704 282.631 69.0956C282.631 69.3195 282.838 69.5024 283.095 69.5024H287.12C287.375 69.5024 287.584 69.3209 287.584 69.0956C287.582 68.8704 287.375 68.6888 287.12 68.6888Z" fill="#D1F5FF"/>
<path d="M264.338 57.8165C264.057 57.8165 263.828 58.0172 263.828 58.2643V58.4213C263.828 58.6684 264.057 58.8691 264.338 58.8691C264.62 58.8691 264.849 58.6684 264.849 58.4213V58.2643C264.851 58.0172 264.622 57.8165 264.338 57.8165Z" fill="#D1F5FF"/>
<path d="M265.441 58.3435C265.441 58.6343 265.71 58.8705 266.042 58.8705H268.172C268.503 58.8705 268.773 58.6343 268.773 58.3435C268.773 58.0527 268.503 57.8165 268.172 57.8165H266.042C265.71 57.8165 265.441 58.0527 265.441 58.3435Z" fill="#D1F5FF"/>
<path d="M265.161 63.6089H267.912C268.352 63.6089 268.71 63.9229 268.71 64.3093V66.3898C268.71 66.7761 268.352 67.0901 267.912 67.0901H265.161C264.72 67.0901 264.362 66.7761 264.362 66.3898V64.3093C264.362 63.9216 264.72 63.6089 265.161 63.6089Z" fill="#5896FA"/>
<path d="M278.611 108.011V106.372C278.611 105.628 277.923 105.023 277.074 105.023H260.705C259.856 105.023 259.166 105.626 259.166 106.372V135.358H301.508V108.011H278.611Z" fill="#5D99F5"/>
<path d="M303.269 109.006H261.749L259.166 135.357H301.302L303.269 109.006Z" fill="white"/>
<path d="M301.51 135.357H259.168L263.662 109.334C263.793 108.572 264.54 108.01 265.418 108.01H304.168C305.254 108.01 306.086 108.858 305.924 109.8L301.51 135.357Z" fill="#6AA3FC"/>
<path d="M312.799 115.022C316.588 111.7 316.588 106.314 312.799 102.992C309.011 99.6701 302.868 99.67 299.079 102.992C295.291 106.314 295.291 111.7 299.079 115.022C302.868 118.344 309.011 118.344 312.799 115.022Z" fill="#6DA6FF"/>
<path d="M305.942 117.824C300.396 117.824 295.884 113.868 295.884 109.006C295.884 104.145 300.396 100.189 305.942 100.189C311.488 100.189 316 104.145 316 109.006C316 113.869 311.486 117.824 305.942 117.824ZM305.942 100.811C300.787 100.811 296.596 104.488 296.596 109.006C296.596 113.525 300.787 117.203 305.942 117.203C311.097 117.203 315.288 113.525 315.288 109.006C315.288 104.488 311.097 100.811 305.942 100.811Z" fill="white"/>
<path d="M301.271 107.468V113.491C301.271 114.161 310.611 114.161 310.611 113.491V107.468H301.271ZM306.414 110.666V112.374C306.414 112.602 306.204 112.791 305.944 112.791C305.68 112.791 305.469 112.602 305.469 112.374V110.664C305.069 110.505 304.787 110.152 304.787 109.742C304.787 109.184 305.305 108.732 305.942 108.732C306.579 108.732 307.094 109.182 307.094 109.742C307.096 110.153 306.819 110.508 306.414 110.666Z" fill="white"/>
<path d="M309.794 107.038H308.849V106.632C308.849 105.228 307.544 104.084 305.942 104.084C304.34 104.084 303.035 105.228 303.035 106.632V107.038H302.09V106.632C302.09 104.77 303.818 103.255 305.942 103.255C308.066 103.255 309.794 104.77 309.794 106.632V107.038Z" fill="white"/>
<path d="M178.387 50.5184C178.735 48.7453 177.377 47.061 175.355 46.7562C173.333 46.4515 171.412 47.6418 171.064 49.4148C170.717 51.1879 172.074 52.8723 174.097 53.177C176.119 53.4817 178.04 52.2914 178.387 50.5184Z" fill="#AAE0FF"/>
<path d="M298.299 95.0325C299.372 95.0325 300.242 94.2697 300.242 93.3287C300.242 92.3878 299.372 91.625 298.299 91.625C297.226 91.625 296.356 92.3878 296.356 93.3287C296.356 94.2697 297.226 95.0325 298.299 95.0325Z" fill="white"/>
<path d="M96.8303 96.9103C97.0755 95.9943 96.4274 95.0774 95.3827 94.8624C94.338 94.6474 93.2924 95.2157 93.0471 96.1317C92.8019 97.0477 93.45 97.9646 94.4947 98.1796C95.5394 98.3946 96.5851 97.8263 96.8303 96.9103Z" fill="#AAE0FF"/>
<path d="M258.19 95.2099C257.835 95.2099 257.547 94.9574 257.547 94.6461V88.6052C257.547 88.294 257.835 88.0414 258.19 88.0414C258.545 88.0414 258.833 88.294 258.833 88.6052V94.6461C258.833 94.9574 258.545 95.2099 258.19 95.2099Z" fill="white"/>
<path d="M254.101 91.625C254.101 91.3137 254.389 91.0612 254.744 91.0612H261.634C261.989 91.0612 262.277 91.3137 262.277 91.625C262.277 91.9363 261.989 92.1888 261.634 92.1888H254.744C254.389 92.1888 254.101 91.9363 254.101 91.625Z" fill="white"/>
<path d="M193.84 131.494C194.977 131.494 195.899 130.685 195.899 129.687C195.899 128.69 194.977 127.881 193.84 127.881C192.702 127.881 191.78 128.69 191.78 129.687C191.78 130.685 192.702 131.494 193.84 131.494Z" stroke="white" stroke-width="4.2257" stroke-miterlimit="10"/>
<circle cx="199" cy="93" r="24.5" stroke="#6AA3FC"/>
<circle cx="199" cy="93" r="133.5" stroke="#6AA3FC"/>
<circle cx="199" cy="93" r="198.5" stroke="#6AA3FC"/>
<circle cx="199" cy="93" r="168.5" stroke="#BBD6FF"/>
<circle cx="199" cy="93" r="39.5" stroke="#6AA3FC"/>
</svg>
