<svg width="422" height="200" viewBox="0 0 422 200" fill="none" xmlns="http://www.w3.org/2000/svg">
<path d="M122.131 215.464C168.268 216.967 218.195 208.65 260.062 216.54C290.753 222.324 325.163 230.604 356.386 222.899C388.639 214.94 429.276 187.522 419.75 148.878C416.618 136.173 404.802 131.815 397.826 122.042C388.924 109.571 391.858 97.1449 396.484 83.3907C404.147 60.6034 415.969 31.952 406.248 8.16884C395.865 -17.2313 364.395 -10.4823 344.726 -1.79893C318.474 9.78968 295.143 35.9257 263.81 27.1831C241.601 20.9865 223.116 4.88512 203.98 -7.1737C174.685 -25.6279 81.7781 -43.8777 49.7061 -22.046C14.533 1.89765 75.2007 26.1663 37.2367 48.0839C9.82696 63.9081 -4.74793 106.501 2.80794 146.393C12.4179 197.113 78.953 214.059 122.131 215.464Z" fill="url(#paint0_linear)"/>
<path d="M33.0501 13.2913H17.4967C16.4287 13.2913 15.5625 12.4216 15.5625 11.3494C15.5625 10.2771 16.4287 9.40741 17.4967 9.40741H33.0501C34.1181 9.40741 34.9842 10.2771 34.9842 11.3494C34.9862 12.4216 34.12 13.2913 33.0501 13.2913Z" fill="#BDD0FB"/>
<path d="M92.1173 13.2913H42.1256C41.0576 13.2913 40.1914 12.4216 40.1914 11.3494C40.1914 10.2771 41.0576 9.40741 42.1256 9.40741H92.1173C93.1853 9.40741 94.0514 10.2771 94.0514 11.3494C94.0533 12.4216 93.1872 13.2913 92.1173 13.2913Z" fill="#BDD0FB"/>
<path d="M98.1251 20.8985H48.1334C47.0654 20.8985 46.1992 20.0289 46.1992 18.9566C46.1992 17.8843 47.0654 17.0146 48.1334 17.0146H98.1251C99.1931 17.0146 100.059 17.8843 100.059 18.9566C100.059 20.0289 99.1931 20.8985 98.1251 20.8985Z" fill="#BDD0FB"/>
<path d="M83.9081 36.1149H48.1334C47.0654 36.1149 46.1992 35.2453 46.1992 34.173C46.1992 33.1007 47.0654 32.231 48.1334 32.231H83.91C84.978 32.231 85.8442 33.1007 85.8442 34.173C85.8423 35.2453 84.9761 36.1149 83.9081 36.1149Z" fill="#BDD0FB"/>
<path d="M103.731 28.5077H53.7389C52.6709 28.5077 51.8047 27.638 51.8047 26.5658C51.8047 25.4935 52.6709 24.6238 53.7389 24.6238H103.731C104.799 24.6238 105.665 25.4935 105.665 26.5658C105.665 27.638 104.799 28.5077 103.731 28.5077Z" fill="#BDD0FB"/>
<path d="M317.552 167.514H301.999C300.931 167.514 300.064 166.644 300.064 165.572C300.064 164.5 300.931 163.63 301.999 163.63H317.552C318.62 163.63 319.486 164.5 319.486 165.572C319.486 166.644 318.62 167.514 317.552 167.514Z" fill="#BDD0FB"/>
<path d="M376.619 167.514H326.628C325.56 167.514 324.693 166.644 324.693 165.572C324.693 164.5 325.56 163.63 326.628 163.63H376.619C377.687 163.63 378.553 164.5 378.553 165.572C378.553 166.644 377.687 167.514 376.619 167.514Z" fill="#BDD0FB"/>
<path d="M382.625 175.121H332.633C331.565 175.121 330.699 174.251 330.699 173.179C330.699 172.107 331.565 171.237 332.633 171.237H382.625C383.693 171.237 384.559 172.107 384.559 173.179C384.559 174.251 383.693 175.121 382.625 175.121Z" fill="#BDD0FB"/>
<path d="M368.41 190.337H332.633C331.565 190.337 330.699 189.468 330.699 188.395C330.699 187.323 331.565 186.453 332.633 186.453H368.41C369.478 186.453 370.344 187.323 370.344 188.395C370.344 189.468 369.478 190.337 368.41 190.337Z" fill="#BDD0FB"/>
<path d="M388.231 182.728H338.239C337.171 182.728 336.305 181.859 336.305 180.786C336.305 179.714 337.171 178.844 338.239 178.844H388.231C389.299 178.844 390.165 179.714 390.165 180.786C390.165 181.86 389.299 182.728 388.231 182.728Z" fill="#BDD0FB"/>
<path d="M270.297 15.9214V23.282C270.297 24.1574 270.98 24.8761 271.852 24.9182L281.021 25.3501C281.95 25.3941 282.728 24.6487 282.728 23.714V15.9214C282.728 15.0173 281.997 14.2833 281.097 14.2833H271.928C271.026 14.2833 270.297 15.0173 270.297 15.9214Z" fill="url(#paint1_linear)"/>
<path d="M332.506 79.2048V85.0536C332.506 85.7493 333.05 86.3208 333.741 86.3533L341.027 86.6973C341.766 86.7317 342.384 86.1392 342.384 85.3976V79.2048C342.384 78.4861 341.804 77.9031 341.088 77.9031H333.802C333.086 77.9031 332.506 78.4861 332.506 79.2048Z" fill="url(#paint2_linear)"/>
<path d="M360.51 -4.02951V1.15603C360.51 1.77149 360.991 2.27992 361.604 2.30859L368.064 2.61249C368.719 2.64308 369.267 2.11936 369.267 1.45994V-4.03142C369.267 -4.6679 368.753 -5.18588 368.117 -5.18588H361.658C361.024 -5.18397 360.51 -4.6679 360.51 -4.02951Z" fill="url(#paint3_linear)"/>
<path d="M346.725 120.993V124.359C346.725 124.758 347.037 125.089 347.435 125.106L351.627 125.303C352.051 125.322 352.407 124.982 352.407 124.556V120.991C352.407 120.578 352.074 120.242 351.661 120.242H347.469C347.058 120.246 346.725 120.58 346.725 120.993Z" fill="#7D97F4"/>
<path d="M358.294 79.9559L357.926 102.791C357.903 104.236 359.065 105.421 360.504 105.421H386.689C388.113 105.421 389.267 104.263 389.267 102.833V79.998C389.267 78.5683 388.113 77.41 386.689 77.41H360.871C359.464 77.41 358.316 78.5434 358.294 79.9559Z" fill="url(#paint4_linear)"/>
<g opacity="0.73">
<path opacity="0.73" d="M373.698 101.898C373.509 101.898 373.321 101.895 373.132 101.885C366.671 101.598 361.628 96.4338 361.893 90.371C362.02 87.4217 363.368 84.7076 365.685 82.7274C367.987 80.7606 370.974 79.7553 374.092 79.891C380.553 80.1777 385.596 85.3422 385.331 91.405C385.202 94.3524 383.856 97.0684 381.539 99.0486C379.377 100.897 376.61 101.898 373.698 101.898ZM373.526 81.4315C370.979 81.4315 368.567 82.3012 366.686 83.9086C364.701 85.6059 363.545 87.9244 363.437 90.4379C363.21 95.6463 367.591 100.086 373.201 100.335C375.927 100.453 378.535 99.5799 380.538 97.8674C382.523 96.1701 383.679 93.8516 383.787 91.3381C384.014 86.1296 379.634 81.6896 374.023 81.4411C373.858 81.4353 373.69 81.4315 373.526 81.4315Z" fill="white"/>
<g opacity="0.73">
<g opacity="0.73">
<path opacity="0.73" d="M376.409 90.9387C376.408 92.743 376.284 94.5511 375.968 96.3306C375.888 96.776 375.795 97.2175 375.684 97.6552C375.574 98.0929 375.446 98.5268 375.29 98.9511C375.132 99.3735 374.949 99.7921 374.702 100.172C374.576 100.362 374.435 100.543 374.26 100.692C374.173 100.767 374.077 100.832 373.971 100.88C373.866 100.927 373.75 100.958 373.634 100.96C373.518 100.964 373.4 100.941 373.293 100.897C373.185 100.853 373.087 100.792 372.996 100.719C372.817 100.574 372.672 100.396 372.545 100.207C372.292 99.8284 372.107 99.4117 371.947 98.9893C371.789 98.565 371.66 98.1311 371.547 97.6934C371.435 97.2557 371.342 96.8142 371.262 96.3688C371.102 95.4801 370.991 94.5836 370.917 93.6834C370.843 92.7831 370.807 91.8809 370.803 90.9788C370.801 90.5277 370.812 90.0766 370.83 89.6255C370.847 89.1745 370.871 88.7234 370.904 88.2742C370.97 87.374 371.069 86.4756 371.216 85.5849C371.29 85.1396 371.376 84.6961 371.479 84.2565C371.583 83.8169 371.703 83.3811 371.852 82.9549C371.926 82.7427 372.01 82.5305 372.103 82.326C372.196 82.1196 372.301 81.9189 372.425 81.7297C372.549 81.5405 372.69 81.3589 372.867 81.2155C372.954 81.1429 373.051 81.0817 373.158 81.0397C373.264 80.9976 373.379 80.9747 373.493 80.9804C373.607 80.9842 373.721 81.0129 373.824 81.0588C373.929 81.1047 374.024 81.1677 374.114 81.2404C374.291 81.3837 374.435 81.5615 374.565 81.7469C374.822 82.1196 375.016 82.5325 375.183 82.951C375.351 83.3715 375.488 83.8016 375.608 84.2374C375.728 84.6732 375.829 85.1128 375.916 85.5562C376.263 87.3242 376.404 89.1324 376.409 90.9387ZM376.276 90.9387C376.278 90.0403 376.244 89.14 376.17 88.2436C376.097 87.3472 375.985 86.4546 375.821 85.5715C375.739 85.13 375.642 84.6904 375.528 84.2565C375.414 83.8226 375.281 83.3926 375.121 82.974C374.959 82.5573 374.77 82.1464 374.521 81.7756C374.395 81.5921 374.254 81.4162 374.085 81.2748C373.999 81.2041 373.908 81.1429 373.809 81.097C373.71 81.0512 373.601 81.0225 373.493 81.0187C373.384 81.0148 373.276 81.0378 373.175 81.0798C373.074 81.1219 372.981 81.183 372.897 81.2518C372.728 81.3933 372.591 81.573 372.471 81.7603C372.351 81.9495 372.25 82.1483 372.16 82.3528C372.069 82.5573 371.991 82.7676 371.919 82.9797C371.774 83.404 371.66 83.8398 371.561 84.2775C371.462 84.7152 371.382 85.1587 371.313 85.6021C371.176 86.4909 371.087 87.3873 371.031 88.2838C370.974 89.1821 370.955 90.0804 370.957 90.9807C370.955 91.879 370.984 92.7793 371.05 93.6757C371.117 94.5722 371.22 95.4667 371.372 96.3516C371.448 96.7951 371.538 97.2347 371.646 97.6705C371.755 98.1063 371.879 98.5382 372.033 98.9587C372.187 99.3792 372.368 99.7921 372.611 100.163C372.735 100.346 372.874 100.522 373.044 100.66C373.127 100.729 373.221 100.788 373.32 100.828C373.419 100.868 373.525 100.891 373.632 100.887C373.738 100.885 373.843 100.857 373.942 100.811C374.039 100.765 374.131 100.702 374.213 100.631C374.378 100.488 374.515 100.31 374.635 100.125C374.875 99.7501 375.054 99.3353 375.206 98.9148C375.359 98.4924 375.48 98.0604 375.587 97.6246C375.694 97.1888 375.781 96.7473 375.857 96.3058C376.01 95.4208 376.111 94.5263 376.177 93.6299C376.246 92.7373 376.278 91.837 376.276 90.9387Z" fill="white"/>
<path opacity="0.73" d="M373.608 101.224C373.471 101.224 373.328 101.195 373.195 101.142C373.071 101.092 372.953 101.021 372.833 100.926C372.654 100.78 372.494 100.601 372.329 100.356C372.098 100.012 371.9 99.6086 371.702 99.083C371.554 98.6835 371.421 98.2515 371.295 97.7603C371.188 97.3379 371.093 96.8983 371.006 96.4185C370.852 95.5661 370.737 94.6792 370.657 93.7082C370.585 92.8252 370.547 91.9077 370.541 90.9826C370.539 90.499 370.553 90.0212 370.568 89.6179C370.585 89.1592 370.61 88.7004 370.642 88.2551C370.714 87.2765 370.817 86.3896 370.956 85.5429C371.036 85.0593 371.124 84.6197 371.223 84.1973C371.339 83.7041 371.465 83.2683 371.605 82.8689C371.691 82.628 371.775 82.414 371.866 82.2171C371.975 81.9782 372.087 81.7698 372.207 81.5863C372.369 81.3379 372.527 81.1563 372.704 81.011C372.822 80.9154 372.944 80.8428 373.066 80.7931C373.206 80.7358 373.359 80.709 373.507 80.7147C373.648 80.7186 373.793 80.753 373.934 80.816C374.052 80.8696 374.166 80.9403 374.28 81.0339C374.457 81.1792 374.615 81.3551 374.781 81.594C375.015 81.9342 375.221 82.3337 375.428 82.8497C375.586 83.2473 375.729 83.6774 375.862 84.1648C375.978 84.5891 376.081 85.0249 376.174 85.5027C376.504 87.1866 376.665 88.9642 376.671 90.9386V90.9406C376.667 92.9284 376.523 94.7059 376.226 96.3784C376.14 96.8601 376.045 97.2978 375.938 97.7221C375.814 98.2133 375.683 98.6453 375.535 99.0448C375.339 99.5704 375.142 99.9756 374.92 100.32C374.758 100.566 374.602 100.748 374.429 100.897C374.312 100.994 374.198 101.069 374.078 101.124C373.932 101.191 373.783 101.226 373.637 101.228C373.627 101.224 373.618 101.224 373.608 101.224ZM373.471 81.2805C373.406 81.2805 373.338 81.2939 373.273 81.3206C373.203 81.3493 373.132 81.3933 373.062 81.4525C372.932 81.5596 372.814 81.7029 372.689 81.8998C372.586 82.0623 372.491 82.2438 372.397 82.4579C372.317 82.6395 372.241 82.8383 372.163 83.0638C372.034 83.4442 371.919 83.8589 371.813 84.3349C371.722 84.7458 371.642 85.174 371.569 85.6422C371.442 86.4737 371.35 87.3434 371.289 88.301C371.238 89.119 371.213 89.9944 371.215 90.9807C371.213 91.8905 371.244 92.7908 371.308 93.6566C371.379 94.6085 371.484 95.4762 371.628 96.3077C371.708 96.7721 371.798 97.1984 371.899 97.6093C372.015 98.0795 372.138 98.4924 372.275 98.8689C372.453 99.3487 372.628 99.7156 372.828 100.02C372.957 100.213 373.077 100.352 373.206 100.459C373.279 100.517 373.349 100.56 373.416 100.589C373.488 100.618 373.555 100.629 373.621 100.629C373.69 100.627 373.758 100.61 373.831 100.576C373.899 100.543 373.97 100.497 374.04 100.436C374.168 100.325 374.288 100.182 374.415 99.9852C374.611 99.6793 374.785 99.3123 374.96 98.8307C375.097 98.4522 375.219 98.0394 375.333 97.5692C375.432 97.1621 375.519 96.7358 375.599 96.2675C375.74 95.4437 375.845 94.576 375.917 93.6165C375.984 92.7506 376.016 91.8523 376.016 90.9406C376.018 90.0327 375.982 89.1343 375.912 88.2685C375.834 87.3147 375.721 86.4488 375.567 85.6231C375.481 85.1625 375.386 84.7382 375.28 84.3272C375.156 83.8609 375.026 83.4499 374.882 83.0734C374.697 82.5974 374.514 82.2343 374.309 81.9285C374.177 81.7354 374.054 81.5921 373.92 81.4831C373.846 81.4219 373.774 81.3742 373.701 81.3417C373.627 81.3073 373.555 81.2901 373.486 81.2882C373.482 81.2805 373.477 81.2805 373.471 81.2805Z" fill="white"/>
</g>
<g opacity="0.73">
<path opacity="0.73" d="M380.927 90.9387C380.922 92.1008 380.773 93.2629 380.465 94.3848C380.151 95.503 379.677 96.5791 379.035 97.5443C378.713 98.026 378.35 98.4809 377.942 98.8918C377.535 99.3028 377.086 99.6736 376.598 99.9832C376.109 100.291 375.582 100.539 375.03 100.706C374.478 100.874 373.901 100.962 373.324 100.962C372.747 100.962 372.17 100.874 371.618 100.708C371.066 100.541 370.537 100.295 370.048 99.9852C369.558 99.6755 369.109 99.3066 368.702 98.8957C368.294 98.4847 367.929 98.0298 367.607 97.5482C366.964 96.5829 366.49 95.5068 366.174 94.3868C366.017 93.8267 365.903 93.2552 365.827 92.678C365.751 92.1008 365.713 91.5197 365.711 90.9387C365.715 90.3576 365.753 89.7746 365.829 89.1993C365.905 88.6221 366.021 88.0525 366.177 87.4925C366.493 86.3743 366.969 85.2982 367.613 84.3349C367.934 83.8532 368.3 83.4002 368.707 82.9893C369.115 82.5783 369.564 82.2094 370.053 81.9017C370.543 81.594 371.07 81.3493 371.622 81.183C372.174 81.0148 372.749 80.9269 373.326 80.9269C373.903 80.9288 374.478 81.0167 375.03 81.1849C375.582 81.3531 376.109 81.5978 376.596 81.9055C377.084 82.2152 377.533 82.5841 377.94 82.995C378.348 83.406 378.711 83.8589 379.033 84.3425C379.677 85.3078 380.151 86.382 380.465 87.5001C380.771 88.6144 380.92 89.7765 380.927 90.9387ZM380.775 90.9387C380.773 89.7899 380.632 88.6393 380.332 87.5307C380.029 86.424 379.574 85.3536 378.947 84.3922C378.633 83.9125 378.279 83.4595 377.88 83.0485C377.482 82.6376 377.04 82.2668 376.558 81.9571C376.077 81.6494 375.555 81.4028 375.009 81.2346C374.462 81.0664 373.893 80.9785 373.322 80.9766C372.751 80.9785 372.182 81.0683 371.635 81.2346C371.089 81.4028 370.569 81.6494 370.088 81.9571C369.606 82.2668 369.166 82.6376 368.768 83.0485C368.37 83.4595 368.016 83.9125 367.702 84.3922C367.076 85.3536 366.623 86.4221 366.322 87.5288C366.172 88.0831 366.063 88.6469 365.991 89.2165C365.917 89.7861 365.88 90.3595 365.878 90.9348C365.88 91.5082 365.917 92.0836 365.991 92.6512C366.065 93.2208 366.174 93.7847 366.324 94.339C366.625 95.4457 367.082 96.5141 367.706 97.4736C368.018 97.9534 368.374 98.4064 368.772 98.8173C369.17 99.2282 369.61 99.5991 370.091 99.9068C370.573 100.213 371.093 100.459 371.637 100.627C372.182 100.796 372.751 100.883 373.32 100.887C373.889 100.885 374.459 100.797 375.003 100.629C375.547 100.463 376.069 100.216 376.551 99.9106C377.032 99.6029 377.472 99.2321 377.872 98.8211C378.27 98.4102 378.626 97.9572 378.94 97.4774C379.568 96.516 380.023 95.4495 380.326 94.3409C380.63 93.238 380.773 92.0874 380.775 90.9387Z" fill="white"/>
<path opacity="0.73" d="M373.323 101.224C372.723 101.224 372.124 101.134 371.541 100.958C370.977 100.788 370.429 100.536 369.908 100.207C369.415 99.8953 368.946 99.5169 368.514 99.0792C368.107 98.6682 367.728 98.1999 367.387 97.6915C366.747 96.732 366.254 95.6444 365.919 94.4556C365.763 93.8879 365.643 93.3011 365.565 92.7105C365.489 92.1313 365.449 91.535 365.445 90.9367C365.449 90.3366 365.489 89.7383 365.565 89.1611C365.643 88.5686 365.763 87.9818 365.921 87.4179C366.258 86.2291 366.751 85.1415 367.393 84.1839C367.732 83.6755 368.11 83.211 368.52 82.7981C368.952 82.3604 369.42 81.982 369.911 81.6723C370.429 81.3474 370.977 81.0951 371.543 80.925C372.124 80.7492 372.721 80.6593 373.321 80.6574C373.921 80.6593 374.52 80.7492 375.099 80.925C375.664 81.097 376.213 81.3493 376.729 81.6743C377.22 81.9858 377.688 82.3643 378.12 82.8001C378.528 83.2129 378.906 83.6793 379.245 84.1858C379.885 85.1434 380.378 86.231 380.711 87.4179C381.02 88.5342 381.18 89.7154 381.187 90.9329V90.9367C381.181 92.1543 381.022 93.3355 380.715 94.4518C380.382 95.6406 379.889 96.7282 379.251 97.6877C378.912 98.1961 378.533 98.6625 378.126 99.0753C377.694 99.5131 377.227 99.8915 376.736 100.203C376.217 100.532 375.666 100.784 375.103 100.956C374.522 101.134 373.924 101.224 373.323 101.224ZM373.323 81.2404C372.782 81.2423 372.24 81.3264 371.714 81.4869C371.206 81.6437 370.707 81.8769 370.229 82.1808C369.788 82.4637 369.359 82.8192 368.958 83.2339C368.583 83.6219 368.234 84.0616 367.924 84.5394C367.338 85.4416 366.885 86.4718 366.576 87.6014C366.435 88.1232 366.325 88.6794 366.251 89.2547C366.18 89.8052 366.142 90.371 366.142 90.9387C366.144 91.5063 366.18 92.0721 366.252 92.6207C366.327 93.1941 366.437 93.7503 366.578 94.2721C366.886 95.4017 367.339 96.43 367.928 97.3322C368.238 97.81 368.586 98.2477 368.961 98.6357C369.365 99.0505 369.791 99.406 370.233 99.687C370.705 99.9871 371.204 100.22 371.716 100.377C372.242 100.539 372.782 100.624 373.325 100.625C373.865 100.624 374.406 100.539 374.932 100.379C375.444 100.222 375.942 99.989 376.416 99.6889C376.856 99.4079 377.286 99.0524 377.69 98.6376C378.065 98.2496 378.413 97.8119 378.726 97.3341C379.314 96.4338 379.769 95.4036 380.079 94.274C380.367 93.217 380.513 92.0931 380.517 90.9367C380.515 89.7804 380.369 88.6565 380.081 87.5976C379.773 86.468 379.318 85.4358 378.729 84.5356C378.417 84.0577 378.069 83.6181 377.694 83.2301C377.292 82.8153 376.862 82.4617 376.42 82.1769C375.944 81.873 375.446 81.6418 374.935 81.485C374.406 81.3245 373.865 81.2423 373.323 81.2404Z" fill="white"/>
</g>
<g opacity="0.73">
<path opacity="0.73" d="M364.449 86.9725L366.734 86.9534L369.018 86.9439L373.585 86.9362L378.152 86.9458L380.437 86.9573L382.721 86.9783C382.725 86.9783 382.729 86.9821 382.729 86.9859C382.729 86.9859 382.725 86.9917 382.721 86.9936L380.437 87.0127L378.152 87.0241L373.585 87.0337L369.018 87.0261L366.734 87.0165L364.449 86.9974C364.444 86.9974 364.44 86.9936 364.44 86.9936C364.438 86.9764 364.444 86.9725 364.449 86.9725Z" fill="white"/>
<path opacity="0.73" d="M373.582 87.2937L366.731 87.2746L364.336 87.2535L364.178 87.093L364.176 86.9764L364.183 86.7183L364.446 86.7088L369.013 86.6801L373.582 86.6706L380.435 86.6916L382.979 86.7145L382.985 87.2459L382.718 87.2516L378.151 87.2841L373.582 87.2937Z" fill="white"/>
</g>
<g opacity="0.73">
<path opacity="0.73" d="M367.095 83.1173C367.636 83.1078 368.177 83.1059 368.717 83.0982L370.339 83.0887C370.88 83.0848 371.421 83.0848 371.961 83.0829L373.583 83.0791L376.825 83.0887L378.447 83.1001C378.988 83.1078 379.529 83.1116 380.069 83.1212C380.073 83.1212 380.075 83.125 380.075 83.125C380.075 83.1326 380.071 83.1345 380.069 83.1345C379.529 83.1441 378.988 83.1479 378.447 83.1556L376.825 83.167L373.583 83.1766L371.961 83.1728C371.421 83.1709 370.88 83.1728 370.339 83.167L368.717 83.1575C368.177 83.1517 367.636 83.1479 367.095 83.1384C367.09 83.1384 367.086 83.1345 367.086 83.1288C367.086 83.1212 367.09 83.1173 367.095 83.1173Z" fill="white"/>
<path opacity="0.73" d="M373.584 83.4365L371.542 83.4327C371.14 83.4327 370.74 83.4308 370.339 83.4289L368.176 83.4136C367.814 83.4098 367.454 83.406 367.093 83.4002L366.836 83.3964L366.826 82.865L367.093 82.8555C367.441 82.8497 367.791 82.8459 368.14 82.8421L370.337 82.8249C370.717 82.8211 371.098 82.8211 371.479 82.8211L373.581 82.8173L379.037 82.844C379.381 82.8478 379.726 82.8517 380.07 82.8574L380.337 82.8612L380.325 83.3888L380.067 83.3964C379.711 83.4021 379.349 83.406 378.989 83.4098L376.826 83.427L373.584 83.4365Z" fill="white"/>
</g>
<g opacity="0.73">
<path opacity="0.73" d="M363.654 90.8278L366.136 90.8087L368.619 90.7972L373.584 90.7896L378.549 90.7991L381.031 90.8106L383.514 90.8297C383.517 90.8297 383.521 90.8335 383.519 90.8373C383.519 90.8373 383.516 90.8431 383.514 90.845L381.031 90.8641L378.549 90.8756L373.584 90.8851L368.619 90.8775L366.136 90.866L363.654 90.8469C363.648 90.8469 363.645 90.8431 363.645 90.8373C363.645 90.8316 363.648 90.8278 363.654 90.8278Z" fill="white"/>
<path opacity="0.73" d="M373.583 91.1489L366.136 91.1298L363.394 91.1088L363.383 90.5736L363.653 90.564L368.618 90.5354L373.583 90.5277L381.03 90.5468L383.623 90.5679L383.781 90.7303L383.772 91.1011L383.513 91.1069L378.548 91.1393L373.583 91.1489Z" fill="white"/>
</g>
<g opacity="0.73">
<path opacity="0.73" d="M364.449 94.683L366.734 94.6639L369.018 94.6524L373.585 94.6448L378.152 94.6544L380.437 94.6658L382.721 94.6849C382.725 94.6849 382.729 94.6888 382.729 94.6888C382.729 94.6964 382.725 94.6983 382.721 94.6983L380.437 94.7193L378.152 94.7308L373.585 94.7404L369.018 94.7327L366.734 94.7213L364.449 94.7021C364.444 94.7021 364.44 94.6983 364.44 94.6926C364.438 94.6869 364.444 94.683 364.449 94.683Z" fill="white"/>
<path opacity="0.73" d="M373.582 95.0041L366.731 94.985L364.336 94.9659L364.178 94.8053L364.176 94.6868L364.181 94.4288L364.444 94.4193L369.013 94.3906L373.582 94.3829L380.435 94.4021L382.979 94.425L382.985 94.9563L382.718 94.9621L378.151 94.9946L373.582 95.0041Z" fill="white"/>
</g>
<g opacity="0.73">
<path opacity="0.73" d="M380.395 98.5841H367.423C367.404 98.5841 367.389 98.5688 367.389 98.5497C367.389 98.5306 367.404 98.5153 367.423 98.5153H380.395C380.414 98.5153 380.429 98.5306 380.429 98.5497C380.429 98.5688 380.414 98.5841 380.395 98.5841Z" fill="white"/>
<path opacity="0.73" d="M380.396 98.846H367.424C367.26 98.846 367.129 98.7122 367.129 98.5478C367.129 98.3834 367.262 98.2496 367.424 98.2496H380.396C380.56 98.2496 380.691 98.3834 380.691 98.5478C380.691 98.7122 380.558 98.846 380.396 98.846Z" fill="white"/>
</g>
</g>
</g>
<path d="M314.339 41.1495L298.618 42.8124C296.675 43.0188 294.98 41.4878 294.98 39.5248V21.3076C294.98 19.6638 296.184 18.2685 297.804 18.0353L313.525 15.7627C315.51 15.476 317.286 17.0223 317.286 19.035V37.8638C317.288 39.5535 316.015 40.9736 314.339 41.1495Z" fill="url(#paint5_linear)"/>
<path d="M301.623 37.7625C300.338 37.7625 299.293 36.7132 299.293 35.423C299.293 34.1328 300.338 33.0835 301.623 33.0835C302.908 33.0835 303.953 34.1328 303.953 35.423C303.953 36.7113 302.908 37.7625 301.623 37.7625ZM301.623 34.0105C300.848 34.0105 300.218 34.6432 300.218 35.4211C300.218 36.199 300.848 36.8317 301.623 36.8317C302.398 36.8317 303.028 36.199 303.028 35.4211C303.03 34.6432 302.398 34.0105 301.623 34.0105Z" fill="url(#paint6_linear)"/>
<path d="M301.623 30.4286C304.365 30.4286 306.596 32.6687 306.596 35.4211C306.596 35.5912 306.586 35.7594 306.569 35.9257C306.546 36.1493 306.733 36.3366 306.954 36.3022L307.677 36.1933C307.835 36.1704 307.953 36.0385 307.965 35.8779C307.976 35.7269 307.982 35.574 307.982 35.4192C307.982 31.8984 305.128 29.0333 301.621 29.0333C301.355 29.0333 301.094 29.0505 300.837 29.083C300.645 29.1078 300.51 29.2856 300.542 29.4787L300.662 30.184C300.692 30.3617 300.856 30.4859 301.035 30.463C301.229 30.442 301.425 30.4286 301.623 30.4286Z" fill="url(#paint7_linear)"/>
<path d="M301.624 26.8295C306.343 26.8295 310.181 30.6828 310.181 35.4211V35.4249C310.181 35.6314 310.362 35.7919 310.565 35.7613L311.275 35.6543C311.386 35.5262 311.458 35.4421 311.569 35.3141C311.512 29.8571 307.072 25.4361 301.624 25.4361C301.148 25.4361 300.681 25.4724 300.222 25.5374C300.036 25.5642 299.91 25.7439 299.943 25.9293L300.063 26.6346C300.093 26.8142 300.259 26.9404 300.438 26.9136C300.826 26.8601 301.222 26.8295 301.624 26.8295Z" fill="url(#paint8_linear)"/>
<path d="M301.624 23.2304C308.144 23.2304 313.478 28.4198 313.752 34.8993C313.76 35.1019 313.939 35.2567 314.141 35.2261L314.845 35.121C315.016 35.0962 315.142 34.9433 315.134 34.7712C314.794 27.5826 308.867 21.8389 301.626 21.8389C300.946 21.8389 300.278 21.8924 299.625 21.9918C299.438 22.0205 299.313 22.1983 299.345 22.3856L299.465 23.089C299.495 23.2725 299.669 23.3929 299.851 23.3661C300.428 23.2782 301.02 23.2304 301.624 23.2304Z" fill="url(#paint9_linear)"/>
<path d="M27.4707 122.163C27.4707 122.163 58.5718 204.518 68.3988 221.649C79.8059 241.537 113.117 228.865 111.459 212.221C109.801 195.578 70.8812 126.784 70.8812 126.784L27.4707 122.163Z" fill="url(#paint10_linear)"/>
<path d="M69.4957 62.1707L230.37 -5.1209L228.338 176.983L64.2129 132.949L69.4957 62.1707Z" fill="url(#paint11_linear)"/>
<path d="M230.55 180.043C241.039 180.043 249.542 138.144 249.542 86.4584C249.542 34.7732 241.039 -7.12592 230.55 -7.12592C220.061 -7.12592 211.559 34.7732 211.559 86.4584C211.559 138.144 220.061 180.043 230.55 180.043Z" fill="url(#paint12_linear)"/>
<path d="M231.992 173.644C230.275 171.891 226.536 165.128 223.33 147.643C220.231 130.745 218.525 108.829 218.525 85.929C218.525 63.0289 220.231 41.1132 223.33 24.2148C226.536 6.72958 230.275 -0.0328296 231.992 -1.78555C233.71 -0.0328296 237.448 6.72958 240.654 24.2148C243.754 41.1112 245.459 63.0289 245.459 85.929C245.459 108.829 243.754 130.745 240.654 147.643C237.448 165.13 233.708 171.891 231.992 173.644Z" fill="url(#paint13_linear)"/>
<path d="M38.3159 58.2562C47.41 57.1954 60.4504 56.8151 74.5494 60.0567C69.9043 84.419 70.6049 109.812 75.9772 136.106H36.2104C29.871 136.106 24.4644 131.483 23.4745 125.194C21.4927 112.591 19.0693 91.407 21.6526 74.3939C22.951 65.8558 29.772 59.252 38.3159 58.2562Z" fill="url(#paint14_linear)"/>
<path d="M62.1827 76.7602H31.1996C30.2059 76.7602 29.3283 76.2364 28.8542 75.3591C28.3783 74.4818 28.4183 73.4592 28.9589 72.622C29.1512 72.3239 29.5491 72.2379 29.8461 72.4309C30.1431 72.624 30.2287 73.0234 30.0364 73.3216C29.7566 73.7574 29.7357 74.2887 29.9831 74.7437C30.2306 75.1986 30.6856 75.47 31.2015 75.47H62.1846C62.9499 75.47 63.5724 74.845 63.5724 74.0766V71.8632C63.5724 71.0949 62.9499 70.4698 62.1846 70.4698H30.9693C30.6152 70.4698 30.3277 70.1812 30.3277 69.8257C30.3277 69.4702 30.6152 69.1816 30.9693 69.1816H62.1827C63.6561 69.1816 64.8536 70.3838 64.8536 71.8632V74.0766C64.8536 75.5579 63.6542 76.7602 62.1827 76.7602Z" fill="#BDD0FB"/>
<path d="M59.421 90.5373H28.4379C27.4442 90.5373 26.5665 90.0136 26.0925 89.1363C25.6166 88.2589 25.6566 87.2364 26.1972 86.3992C26.3895 86.101 26.7874 86.015 27.0844 86.208C27.3813 86.4011 27.467 86.8006 27.2747 87.0987C26.9949 87.5345 26.9739 88.0659 27.2214 88.5208C27.4689 88.9757 27.9239 89.2471 28.4398 89.2471H59.421C60.1863 89.2471 60.8088 88.6221 60.8088 87.8537V85.6404C60.8088 84.872 60.1863 84.247 59.421 84.247H28.2076C27.8535 84.247 27.566 83.9584 27.566 83.6028C27.566 83.2473 27.8535 82.9587 28.2076 82.9587H59.421C60.8945 82.9587 62.0919 84.161 62.0919 85.6404V87.8537C62.09 89.3331 60.8926 90.5373 59.421 90.5373Z" fill="#BDD0FB"/>
<path d="M97.5849 57.0864C97.3317 57.0864 97.0918 56.9354 96.9909 56.6851C96.8577 56.3563 97.0138 55.9798 97.3431 55.8441L211.319 9.06718C211.646 8.93339 212.021 9.09012 212.157 9.42079C212.29 9.74954 212.134 10.1261 211.804 10.2618L97.8285 57.0387C97.7467 57.0712 97.6648 57.0864 97.5849 57.0864Z" fill="#BDD0FB"/>
<path d="M77.7841 65.2136C77.5309 65.2136 77.291 65.0626 77.1901 64.8122C77.0569 64.4835 77.213 64.1069 77.5423 63.9712L85.0773 60.8786C85.4047 60.7448 85.7797 60.9016 85.9149 61.2322C86.0482 61.561 85.8921 61.9375 85.5627 62.0732L78.0278 65.1658C77.9478 65.1983 77.866 65.2136 77.7841 65.2136Z" fill="#BDD0FB"/>
<path d="M62.1827 106.671H31.1996C30.2059 106.671 29.3283 106.147 28.8542 105.27C28.3783 104.393 28.4183 103.37 28.9589 102.531C29.1512 102.233 29.5491 102.147 29.8461 102.34C30.1431 102.533 30.2287 102.932 30.0364 103.231C29.7566 103.666 29.7357 104.198 29.9831 104.653C30.2306 105.108 30.6856 105.379 31.2015 105.379H62.1846C62.9499 105.379 63.5724 104.754 63.5724 103.986V101.776C63.5724 101.008 62.9499 100.383 62.1846 100.383H30.9693C30.6152 100.383 30.3277 100.094 30.3277 99.7386C30.3277 99.3831 30.6152 99.0945 30.9693 99.0945H62.1827C63.6561 99.0945 64.8536 100.297 64.8536 101.776V103.989C64.8536 105.469 63.6542 106.671 62.1827 106.671Z" fill="#BDD0FB"/>
<path d="M65.085 124.581H34.102C33.1082 124.581 32.2306 124.057 31.7566 123.18C31.2806 122.302 31.3206 121.28 31.8613 120.441C32.0536 120.142 32.4514 120.056 32.7484 120.249C33.0454 120.443 33.1311 120.842 32.9388 121.14C32.6589 121.576 32.638 122.107 32.8855 122.562C33.133 123.017 33.588 123.289 34.1039 123.289H65.0869C65.8522 123.289 66.4747 122.664 66.4747 121.895V119.686C66.4747 118.917 65.8522 118.292 65.0869 118.292H33.8716C33.5175 118.292 33.2301 118.004 33.2301 117.648C33.2301 117.293 33.5175 117.004 33.8716 117.004H65.085C66.5585 117.004 67.7559 118.206 67.7559 119.686V121.899C67.7559 123.378 66.5566 124.581 65.085 124.581Z" fill="#BDD0FB"/>
<path d="M92.7552 221.953C91.3388 221.953 89.9072 221.8 88.4795 221.487C82.2295 220.12 77.139 215.982 74.5176 210.133L49.7635 154.92C49.6188 154.595 49.7616 154.214 50.0852 154.067C50.4088 153.92 50.7877 154.065 50.9343 154.39L75.6884 209.604C78.1423 215.076 82.9035 218.947 88.7517 220.227C94.5009 221.485 100.319 219.992 104.714 216.129C104.949 215.923 105.185 215.711 105.421 215.495C105.683 215.254 106.089 215.273 106.327 215.537C106.567 215.801 106.548 216.208 106.285 216.447C106.041 216.67 105.8 216.888 105.558 217.1C101.948 220.273 97.4384 221.953 92.7552 221.953Z" fill="#BDD0FB"/>
<path d="M46.6883 147.137C46.4428 147.137 46.2105 146.995 46.102 146.756L43.3416 140.596C43.1969 140.271 43.3397 139.891 43.6633 139.743C43.987 139.596 44.3677 139.742 44.5124 140.067L47.2728 146.227C47.4175 146.552 47.2747 146.932 46.951 147.079C46.8654 147.118 46.7759 147.137 46.6883 147.137Z" fill="white"/>
<path opacity="0.67" d="M251.809 84.2489C251.476 84.2489 251.194 83.9889 251.169 83.6506C250.615 75.814 247.906 69.9671 243.115 66.2744C234.839 59.8942 223.04 62.0866 222.922 62.1095C222.572 62.1764 222.236 61.9471 222.17 61.5992C222.103 61.2494 222.33 60.9111 222.678 60.8442C223.185 60.7467 235.167 58.5238 243.895 65.2518C248.989 69.1797 251.868 75.3381 252.449 83.5589C252.473 83.9144 252.207 84.2221 251.855 84.247C251.839 84.2489 251.824 84.2489 251.809 84.2489Z" fill="white"/>
<path d="M187.794 228.179C187.794 228.179 199.955 212.836 197.979 198.331C196.002 183.825 186.132 185.557 181.74 194.133C177.348 202.71 173.4 201.532 176.01 193.47C178.62 185.406 181.888 180.157 176.482 172.132C171.075 164.104 170.515 160.694 173.552 153.532C176.59 146.37 180.403 136.221 168.317 132.599C156.23 128.977 144.189 140.103 147.006 154.664C149.826 169.224 151.518 170.811 147.637 176.205C143.755 181.599 145.373 183.814 145.921 187.325C146.471 190.836 140.54 191.658 140.667 186.713C140.793 181.769 148.339 170.098 143.189 164.652C138.04 159.207 127.946 159.15 125.361 171.738C122.776 184.328 131.059 189.986 130.646 194.539C130.233 199.091 125.786 192.188 121.912 196.828C118.038 201.469 123.254 205.116 127.092 207.631C130.93 210.147 136.719 214.656 131.211 217.928C125.704 221.202 120.49 218.069 123.863 228.179H187.794Z" fill="#91B3FA"/>
<path d="M162.792 143.098C162.394 143.31 162.048 143.576 161.707 143.859C161.368 144.143 161.058 144.461 160.767 144.795C160.18 145.464 159.685 146.215 159.284 147.016C158.477 148.62 158.044 150.403 157.9 152.19C157.875 152.414 157.867 152.638 157.856 152.861C157.848 153.085 157.835 153.31 157.839 153.534L157.843 154.207L157.875 154.878L157.892 155.212L157.924 155.545L157.991 156.212C158.058 156.651 158.105 157.097 158.189 157.535C158.269 157.972 158.349 158.41 158.454 158.842L158.602 159.492L158.756 160.121L159.377 162.628C160.199 165.969 160.991 169.309 161.614 172.667C162.219 176.021 162.638 179.414 162.545 182.765C162.524 183.602 162.467 184.435 162.36 185.257C162.257 186.081 162.115 186.897 161.905 187.69C161.698 188.483 161.444 189.263 161.119 190.009C160.757 190.852 160.475 191.727 160.257 192.595C159.842 194.336 159.596 196.077 159.407 197.811C159.227 199.544 159.084 201.272 158.973 202.998C158.737 206.446 158.536 209.883 158.041 213.272C157.978 213.696 157.911 214.119 157.833 214.537C157.763 214.96 157.673 215.376 157.586 215.795C157.506 216.215 157.391 216.624 157.296 217.041C157.243 217.248 157.18 217.45 157.123 217.657C157.064 217.861 157.011 218.067 156.938 218.268L156.735 218.874C156.666 219.077 156.58 219.27 156.504 219.469C156.356 219.868 156.164 220.245 155.986 220.633C155.592 221.384 155.128 222.1 154.562 222.741L154.7 222.878C155.326 222.271 155.861 221.569 156.325 220.826C156.769 220.071 157.157 219.279 157.471 218.463C158.119 216.835 158.545 215.132 158.895 213.427C159.594 210.009 159.925 206.548 160.302 203.119C160.494 201.404 160.664 199.692 160.898 197.998C161.13 196.305 161.422 194.626 161.856 193.019C162.084 192.22 162.341 191.45 162.674 190.712C163.055 189.881 163.354 189.02 163.596 188.149C163.841 187.277 164.013 186.39 164.14 185.504C164.271 184.617 164.348 183.724 164.386 182.835C164.534 179.274 164.094 175.769 163.5 172.33C162.895 168.89 162.078 165.507 161.165 162.166C160.934 161.33 160.702 160.497 160.462 159.666L160.281 159.043L160.116 158.437C159.998 158.033 159.91 157.624 159.813 157.217C159.71 156.81 159.647 156.399 159.562 155.988L159.466 155.371C159.432 155.164 159.404 154.958 159.383 154.752C159.268 153.924 159.24 153.092 159.232 152.263C159.23 151.432 159.299 150.602 159.44 149.786C159.585 148.97 159.782 148.161 160.078 147.381C160.23 146.995 160.394 146.611 160.586 146.24C160.771 145.866 160.984 145.504 161.216 145.155C161.682 144.461 162.234 143.799 162.891 143.276L162.792 143.098Z" fill="#DCE5FE"/>
<path d="M188.682 195.07C188.318 197.786 187.804 200.477 187.174 203.132C186.858 204.46 186.508 205.779 186.122 207.085C186.03 207.414 185.922 207.737 185.823 208.061C185.724 208.388 185.615 208.709 185.509 209.032C185.303 209.68 185.071 210.321 184.844 210.961C184.6 211.596 184.364 212.232 184.1 212.857C183.854 213.49 183.572 214.107 183.298 214.728C182.725 215.957 182.122 217.171 181.452 218.35C180.783 219.53 180.043 220.665 179.257 221.772C178.453 222.867 177.58 223.907 176.654 224.916L176.786 225.059C177.857 224.192 178.844 223.213 179.752 222.165C180.645 221.105 181.461 219.979 182.207 218.805C182.927 217.618 183.607 216.405 184.193 215.147C184.479 214.514 184.774 213.885 185.031 213.243C185.299 212.603 185.533 211.951 185.777 211.303C186.002 210.648 186.234 209.996 186.438 209.333C186.544 209.004 186.643 208.671 186.735 208.339C186.828 208.006 186.929 207.675 187.014 207.339C187.382 206.005 187.683 204.655 187.943 203.298C188.456 200.584 188.813 197.841 188.874 195.079L188.682 195.07Z" fill="#DCE5FE"/>
<path d="M309.738 64.6325L273.819 62.7556C270.885 62.6027 268.543 64.8982 268.627 67.8666L269.556 101.033C269.632 103.743 271.968 105.813 274.74 105.675L308.849 103.984C311.162 103.869 313.07 101.811 313.138 99.3716L313.97 69.6633C314.042 67.0179 312.161 64.7587 309.738 64.6325Z" fill="#7D97F4"/>
<path d="M290.696 97.6801C283.235 97.6801 277.166 91.5866 277.166 84.096C277.166 76.6053 283.235 70.5119 290.696 70.5119C298.156 70.5119 304.225 76.6053 304.225 84.096C304.225 91.5866 298.156 97.6801 290.696 97.6801ZM290.696 72.7883C284.486 72.7883 279.433 77.8611 279.433 84.096C279.433 90.3309 284.486 95.4036 290.696 95.4036C296.906 95.4036 301.958 90.3309 301.958 84.096C301.958 77.8611 296.906 72.7883 290.696 72.7883Z" fill="url(#paint15_linear)"/>
<path fill-rule="evenodd" clip-rule="evenodd" d="M286.457 89.3274V79.5622C286.457 78.5186 287.588 77.8726 288.483 78.4039L296.678 83.2875C297.554 83.8093 297.554 85.0823 296.678 85.6021L288.483 90.4857C287.588 91.017 286.457 90.371 286.457 89.3274Z" fill="url(#paint16_linear)"/>
<path d="M375.917 17.3644L343.149 15.6518C340.472 15.5123 338.336 17.6072 338.412 20.3137L339.259 50.5706C339.328 53.0439 341.46 54.9323 343.988 54.8062L375.104 53.2637C377.214 53.1586 378.956 51.2816 379.019 49.0568L379.778 21.9536C379.845 19.5415 378.128 17.481 375.917 17.3644Z" fill="url(#paint17_linear)"/>
<g opacity="0.76">
<path opacity="0.76" d="M370.391 46.8473H347.421C345.654 46.8473 344.215 45.4042 344.215 43.6285V26.8238C344.215 25.05 345.652 23.605 347.421 23.605H370.391C372.158 23.605 373.597 25.0481 373.597 26.8238V43.6285C373.597 45.4023 372.158 46.8473 370.391 46.8473ZM347.421 25.8413C346.88 25.8413 346.442 26.2829 346.442 26.8238V43.6285C346.442 44.1713 346.882 44.611 347.421 44.611H370.391C370.932 44.611 371.37 44.1694 371.37 43.6285V26.8238C371.37 26.281 370.93 25.8413 370.391 25.8413H347.421Z" fill="white"/>
<path opacity="0.76" d="M358.913 35.8665C358.689 35.8665 358.462 35.7976 358.27 35.66L345.404 26.5008C344.904 26.1433 344.786 25.4457 345.14 24.943C345.496 24.4384 346.191 24.3218 346.691 24.6773L358.911 33.3779L370.971 24.7767C371.472 24.4193 372.167 24.5378 372.523 25.0405C372.879 25.5432 372.761 26.2408 372.26 26.5982L359.557 35.6581C359.364 35.7977 359.138 35.8665 358.913 35.8665Z" fill="white"/>
<path opacity="0.76" d="M346.221 46.3331L345.894 44.1216L346.046 45.2283L345.113 44.6205C345.357 44.2268 349.993 36.0843 353.05 30.7096C353.355 30.1725 354.034 29.9852 354.569 30.2929C355.102 30.5987 355.289 31.2811 354.984 31.8163C354.984 31.8163 352.999 35.3064 351.011 38.7985C350.017 40.5436 349.022 42.2906 348.272 43.5998C346.76 46.2471 346.76 46.2471 346.221 46.3331Z" fill="white"/>
<path opacity="0.76" d="M371.527 46.3331C370.99 46.2471 370.99 46.2471 369.476 43.6018C368.728 42.2925 367.733 40.5455 366.737 38.8004C364.748 35.3083 362.764 31.8182 362.764 31.8182C362.459 31.283 362.644 30.6006 363.179 30.2948C363.712 29.9871 364.392 30.1744 364.696 30.7115C367.754 36.0882 372.389 44.2287 372.633 44.6224L371.7 45.2302L371.527 46.3331Z" fill="white"/>
</g>
<path d="M336.445 119.03L317.13 118.021C315.552 117.939 314.293 119.173 314.339 120.769L314.838 138.604C314.878 140.063 316.134 141.175 317.625 141.101L335.967 140.191C337.21 140.13 338.237 139.023 338.275 137.71L338.722 121.735C338.76 120.313 337.749 119.097 336.445 119.03Z" fill="url(#paint18_linear)"/>
<path opacity="0.76" d="M333.915 120.899H320.26C318.995 120.899 317.314 121.987 317.314 123.296V130.923C317.314 132.18 319.007 132.928 320.26 132.928H329.652C329.976 132.928 330.151 133.822 330.151 134.147V135.273C330.151 135.737 330.612 135.909 330.84 135.986C330.949 136.062 331.134 136.177 331.362 136.177C331.55 136.177 331.737 136.095 331.859 135.953L333.9 133.558C335.177 133.53 335.714 132.178 335.714 130.923V123.296C335.714 122.05 335.156 120.899 333.915 120.899ZM334.429 130.923C334.429 131.513 334.387 132.069 333.913 132.069H333.405L331.008 134.587V132.931C331.008 132.606 331.189 132.069 330.865 132.069H320.26C319.679 132.069 318.599 131.507 318.599 130.923V123.612C318.599 122.759 319.673 122.618 320.26 122.618H333.915C334.492 122.618 334.431 122.717 334.431 123.296V130.923H334.429Z" fill="white"/>
<path d="M333.146 124.766C333.146 125.003 332.954 125.196 332.718 125.196H320.309C320.073 125.196 319.881 125.003 319.881 124.766C319.881 124.529 320.073 124.336 320.309 124.336H332.718C332.954 124.336 333.146 124.529 333.146 124.766Z" fill="white"/>
<path d="M333.146 126.914C333.146 127.151 332.954 127.344 332.718 127.344H320.309C320.073 127.344 319.881 127.151 319.881 126.914C319.881 126.677 320.073 126.484 320.309 126.484H332.718C332.954 126.484 333.146 126.677 333.146 126.914Z" fill="white"/>
<path d="M333.146 129.921C333.146 130.158 332.954 130.351 332.718 130.351H320.309C320.073 130.351 319.881 130.158 319.881 129.921C319.881 129.684 320.073 129.491 320.309 129.491H332.718C332.954 129.491 333.146 129.684 333.146 129.921Z" fill="white"/>
<path d="M309.94 13.0658C310.342 13.2302 310.742 13.3984 311.139 13.5723C311.573 13.7615 311.773 14.2661 311.585 14.7019C311.539 14.8089 311.474 14.9007 311.396 14.9771C311.155 15.2122 310.787 15.2925 310.46 15.1492C310.073 14.981 309.683 14.8166 309.293 14.656C308.855 14.4764 308.646 13.9756 308.823 13.536C309.003 13.1002 309.502 12.888 309.94 13.0658Z" fill="#BDD0FB"/>
<path d="M297.735 106.184C298.156 106.121 298.577 106.056 298.997 105.989C299.464 105.914 299.902 106.235 299.976 106.704C300.022 106.99 299.919 107.266 299.727 107.455C299.605 107.573 299.445 107.657 299.264 107.686C298.839 107.753 298.413 107.818 297.988 107.883C297.522 107.954 297.086 107.629 297.016 107.16C296.945 106.692 297.267 106.254 297.735 106.184Z" fill="#BDD0FB"/>
<path d="M305.862 11.5711L306.022 11.6227C306.382 11.7412 306.74 11.8616 307.096 11.9878C307.543 12.1445 307.779 12.6338 307.623 13.0811C307.577 13.211 307.503 13.3238 307.412 13.4156C307.187 13.6354 306.85 13.7214 306.534 13.6105C306.187 13.4901 305.839 13.3716 305.489 13.2569L305.335 13.2072C304.885 13.0619 304.638 12.5765 304.784 12.1254C304.929 11.6724 305.411 11.4239 305.862 11.5711Z" fill="#BDD0FB"/>
<path d="M301.685 10.3822C302.106 10.4854 302.527 10.5944 302.946 10.7052C303.403 10.8275 303.675 11.2977 303.553 11.7565C303.511 11.9132 303.431 12.047 303.323 12.1502C303.113 12.3547 302.807 12.4446 302.506 12.3643C302.098 12.2553 301.689 12.1502 301.28 12.0489C300.821 11.9361 300.539 11.4717 300.652 11.011C300.764 10.5542 301.227 10.2713 301.685 10.3822Z" fill="#BDD0FB"/>
<path d="M301.938 105.498C302.357 105.423 302.776 105.347 303.195 105.27C303.659 105.184 304.107 105.492 304.192 105.958C304.246 106.253 304.145 106.539 303.947 106.732C303.831 106.847 303.68 106.927 303.507 106.96C303.082 107.038 302.66 107.116 302.235 107.191C301.771 107.273 301.325 106.962 301.244 106.493C301.162 106.025 301.474 105.58 301.938 105.498Z" fill="#BDD0FB"/>
<path d="M306.119 104.697C306.536 104.611 306.951 104.523 307.368 104.433C307.83 104.334 308.285 104.63 308.384 105.092C308.449 105.392 308.348 105.691 308.142 105.889C308.032 105.998 307.889 106.077 307.726 106.113C307.305 106.203 306.882 106.293 306.461 106.379C305.999 106.474 305.546 106.174 305.451 105.71C305.357 105.247 305.656 104.792 306.119 104.697Z" fill="#BDD0FB"/>
<path d="M316.545 17.2287C316.785 16.8197 317.308 16.6821 317.716 16.9229C318.091 17.1427 318.462 17.3683 318.831 17.5957C319.235 17.8442 319.361 18.3736 319.113 18.7769C319.075 18.84 319.029 18.8954 318.98 18.9451C318.706 19.2127 318.277 19.2701 317.937 19.0598C317.577 18.8381 317.215 18.6202 316.85 18.4061C316.442 18.1653 316.307 17.6397 316.545 17.2287Z" fill="#BDD0FB"/>
<path d="M318.406 101.401C318.806 101.262 319.204 101.119 319.6 100.973C320.044 100.809 320.535 101.038 320.699 101.484C320.818 101.812 320.727 102.168 320.491 102.397C320.407 102.478 320.306 102.544 320.19 102.587C319.783 102.738 319.375 102.883 318.966 103.026C318.521 103.181 318.031 102.944 317.877 102.497C317.723 102.046 317.959 101.556 318.406 101.401Z" fill="#BDD0FB"/>
<path d="M313.897 14.8548C314.285 15.0479 314.674 15.2447 315.056 15.4454C315.475 15.6652 315.639 16.1832 315.42 16.6037C315.376 16.6878 315.321 16.7604 315.258 16.8235C315.001 17.0739 314.601 17.1446 314.266 16.9688C313.891 16.7738 313.516 16.5808 313.137 16.3935C312.713 16.1832 312.54 15.6671 312.749 15.2428C312.96 14.8185 313.474 14.6446 313.897 14.8548Z" fill="#BDD0FB"/>
<path d="M310.265 103.772C310.679 103.672 311.09 103.569 311.503 103.464C311.962 103.347 312.426 103.624 312.544 104.085C312.622 104.395 312.523 104.706 312.31 104.915C312.207 105.016 312.076 105.092 311.925 105.131C311.507 105.238 311.088 105.341 310.669 105.444C310.21 105.555 309.748 105.272 309.635 104.811C309.525 104.349 309.807 103.882 310.265 103.772Z" fill="#BDD0FB"/>
<path d="M314.371 102.684C314.778 102.566 315.184 102.445 315.589 102.321C316.041 102.183 316.52 102.437 316.657 102.892C316.754 103.212 316.657 103.542 316.435 103.76C316.339 103.852 316.223 103.923 316.088 103.965C315.675 104.091 315.26 104.215 314.845 104.335C314.392 104.467 313.918 104.204 313.787 103.749C313.653 103.294 313.916 102.816 314.371 102.684Z" fill="#BDD0FB"/>
<path d="M288.808 8.66389C289.242 8.67536 289.674 8.69065 290.108 8.71359C290.58 8.73652 290.943 9.13982 290.921 9.61193C290.909 9.83938 290.812 10.0401 290.662 10.1873C290.498 10.3459 290.271 10.4415 290.024 10.4281C289.601 10.409 289.181 10.3918 288.758 10.3803C288.286 10.3669 287.913 9.97318 287.926 9.49725C287.939 9.02514 288.335 8.65051 288.808 8.66389Z" fill="#BDD0FB"/>
<path d="M280.146 9.02896C280.578 8.98118 281.008 8.93721 281.441 8.89707C281.911 8.85502 282.328 9.20289 282.37 9.675C282.394 9.9445 282.292 10.1949 282.113 10.3688C281.977 10.5007 281.797 10.5886 281.595 10.6077C281.174 10.646 280.753 10.688 280.335 10.7358C279.864 10.7874 279.442 10.4491 279.39 9.977C279.337 9.5068 279.676 9.08248 280.146 9.02896Z" fill="#BDD0FB"/>
<path d="M280.793 107.904C281.218 107.879 281.644 107.852 282.069 107.826C282.541 107.795 282.946 108.154 282.977 108.628C282.994 108.89 282.891 109.131 282.718 109.299C282.577 109.437 282.388 109.527 282.177 109.54C281.749 109.567 281.32 109.594 280.892 109.618C280.42 109.647 280.016 109.284 279.988 108.81C279.961 108.338 280.321 107.931 280.793 107.904Z" fill="#BDD0FB"/>
<path d="M276.536 108.108C276.963 108.091 277.387 108.074 277.814 108.055C278.286 108.034 278.686 108.401 278.706 108.875C278.718 109.131 278.617 109.364 278.448 109.529C278.303 109.67 278.107 109.76 277.89 109.771C277.461 109.79 277.033 109.808 276.603 109.825C276.131 109.844 275.733 109.473 275.716 108.999C275.695 108.527 276.064 108.128 276.536 108.108Z" fill="#BDD0FB"/>
<path d="M284.47 8.69638C284.904 8.67918 285.336 8.66389 285.77 8.65624C286.242 8.64669 286.634 9.02323 286.644 9.49724C286.649 9.74572 286.548 9.97126 286.385 10.1318C286.234 10.2771 286.032 10.3688 285.806 10.3746C285.383 10.3841 284.963 10.3975 284.54 10.4147C284.068 10.4338 283.668 10.0668 283.649 9.59281C283.632 9.11688 283.997 8.71741 284.47 8.69638Z" fill="#BDD0FB"/>
<path d="M275.854 9.6578C276.28 9.57943 276.707 9.5068 277.135 9.43799C277.601 9.36154 278.041 9.68074 278.115 10.149C278.161 10.4357 278.06 10.7129 277.866 10.9021C277.744 11.0206 277.586 11.1047 277.407 11.1334C276.99 11.2003 276.575 11.2729 276.158 11.3474C275.694 11.4315 275.248 11.1219 275.165 10.6555C275.079 10.1911 275.389 9.74381 275.854 9.6578Z" fill="#BDD0FB"/>
<path d="M272.275 108.237C272.702 108.227 273.126 108.217 273.553 108.206C274.025 108.193 274.419 108.567 274.43 109.041C274.438 109.292 274.337 109.519 274.171 109.682C274.023 109.827 273.821 109.919 273.598 109.924C273.17 109.936 272.74 109.945 272.309 109.955C271.837 109.964 271.445 109.588 271.436 109.114C271.428 108.638 271.805 108.244 272.275 108.237Z" fill="#BDD0FB"/>
<path d="M285.045 107.615C285.469 107.583 285.894 107.547 286.318 107.512C286.788 107.472 287.204 107.824 287.243 108.296C287.266 108.563 287.164 108.812 286.986 108.984C286.849 109.118 286.669 109.206 286.463 109.223C286.035 109.259 285.606 109.294 285.178 109.328C284.706 109.364 284.295 109.011 284.258 108.539C284.222 108.066 284.573 107.654 285.045 107.615Z" fill="#BDD0FB"/>
<path d="M293.518 106.763C293.941 106.709 294.363 106.656 294.786 106.6C295.254 106.539 295.684 106.87 295.745 107.34C295.781 107.619 295.681 107.887 295.492 108.068C295.365 108.193 295.197 108.279 295.007 108.303C294.58 108.359 294.154 108.414 293.727 108.468C293.259 108.527 292.831 108.193 292.772 107.722C292.716 107.252 293.048 106.822 293.518 106.763Z" fill="#BDD0FB"/>
<path d="M293.134 8.93148C293.566 8.97353 293.998 9.01941 294.429 9.07101C294.899 9.12644 295.234 9.55459 295.179 10.0248C295.154 10.2293 295.061 10.4071 294.926 10.5409C294.747 10.7148 294.495 10.8104 294.229 10.7779C293.81 10.7282 293.391 10.6823 292.97 10.6422C292.5 10.5963 292.156 10.1777 292.201 9.70368C292.247 9.23157 292.664 8.88561 293.134 8.93148Z" fill="#BDD0FB"/>
<path d="M289.285 107.237C289.71 107.195 290.133 107.151 290.557 107.105C291.027 107.055 291.45 107.396 291.499 107.868C291.528 108.141 291.427 108.399 291.244 108.577C291.111 108.707 290.938 108.793 290.74 108.814C290.313 108.86 289.885 108.904 289.459 108.948C288.988 108.995 288.57 108.651 288.522 108.179C288.474 107.705 288.817 107.287 289.285 107.237Z" fill="#BDD0FB"/>
<path d="M320.191 19.4784C320.459 19.0847 320.99 18.9853 321.38 19.2529C321.738 19.4994 322.094 19.7479 322.447 20.0021C322.831 20.2774 322.921 20.8144 322.645 21.2005C322.614 21.2426 322.58 21.2827 322.544 21.3171C322.252 21.6 321.792 21.644 321.451 21.3993C321.108 21.1528 320.762 20.91 320.413 20.6711C320.023 20.4054 319.924 19.8702 320.191 19.4784Z" fill="#BDD0FB"/>
<path d="M297.436 9.50488C297.864 9.57752 298.291 9.65397 298.717 9.73616C299.182 9.82599 299.486 10.2752 299.397 10.7415C299.363 10.9212 299.275 11.0779 299.153 11.1964C298.959 11.3857 298.681 11.4793 298.396 11.4239C297.982 11.3436 297.567 11.2691 297.151 11.1984C296.684 11.12 296.37 10.6766 296.45 10.2083C296.528 9.73998 296.97 9.42461 297.436 9.50488Z" fill="#BDD0FB"/>
<path d="M337.227 89.9104C337.56 89.5587 338.089 89.5415 338.436 89.8626C338.782 90.1856 338.803 90.7284 338.484 91.0763C338.185 91.3993 337.882 91.7166 337.572 92.0301C337.568 92.0339 337.564 92.0377 337.56 92.0396C337.225 92.3646 336.692 92.3626 336.361 92.032C336.026 91.6975 336.026 91.1527 336.359 90.8163C336.654 90.5201 336.943 90.2181 337.227 89.9104Z" fill="#BDD0FB"/>
<path d="M346.427 60.4944C345.958 60.5575 345.528 60.2287 345.463 59.7585C345.406 59.34 345.344 58.9214 345.277 58.5047C345.201 58.0364 345.519 57.5949 345.985 57.5184C346.452 57.442 346.891 57.7612 346.967 58.2295C347.038 58.6614 347.101 59.0934 347.16 59.5273C347.198 59.8082 347.095 60.0758 346.907 60.2593C346.781 60.3836 346.615 60.4696 346.427 60.4944Z" fill="#BDD0FB"/>
<path d="M346.739 64.7816C346.267 64.8026 345.867 64.4357 345.846 63.9616C345.827 63.5411 345.802 63.1187 345.772 62.6982C345.738 62.2261 346.09 61.8133 346.564 61.7789C347.036 61.7445 347.445 62.1 347.479 62.574C347.512 63.0117 347.537 63.4475 347.558 63.8852C347.569 64.1413 347.468 64.3764 347.299 64.5408C347.152 64.6803 346.958 64.7701 346.739 64.7816Z" fill="#BDD0FB"/>
<path d="M345.743 56.2531C345.283 56.3563 344.824 56.0658 344.721 55.6032C344.628 55.1904 344.531 54.7794 344.43 54.3685C344.316 53.9079 344.594 53.4415 345.052 53.3268C345.511 53.2121 345.976 53.4912 346.09 53.9518C346.195 54.3761 346.296 54.8005 346.391 55.2267C346.459 55.5287 346.358 55.8307 346.151 56.0314C346.042 56.1384 345.903 56.2187 345.743 56.2531Z" fill="#BDD0FB"/>
<path d="M346.654 69.0784C346.182 69.0554 345.818 68.6521 345.843 68.1781C345.864 67.7576 345.877 67.3371 345.887 66.9147C345.896 66.4407 346.288 66.0641 346.759 66.0737C347.231 66.0833 347.606 66.4751 347.596 66.9491C347.587 67.3887 347.572 67.8264 347.551 68.2641C347.539 68.4897 347.442 68.6923 347.292 68.8375C347.128 68.9962 346.901 69.0898 346.654 69.0784Z" fill="#BDD0FB"/>
<path d="M346.138 73.3445C345.672 73.2719 345.35 72.8342 345.422 72.3659C345.485 71.9492 345.544 71.5326 345.594 71.114C345.651 70.6438 346.077 70.3074 346.547 70.3647C347.016 70.4221 347.351 70.8502 347.294 71.3223C347.24 71.7581 347.181 72.1939 347.115 72.6278C347.086 72.8189 346.995 72.9871 346.865 73.1133C346.679 73.291 346.414 73.3866 346.138 73.3445Z" fill="#BDD0FB"/>
<path d="M337.38 36.6291C336.992 36.8986 336.459 36.8011 336.19 36.4112C335.95 36.0633 335.707 35.7174 335.459 35.3752C335.183 34.9911 335.267 34.4578 335.65 34.1749C336.032 33.8978 336.567 33.9838 336.845 34.366C337.1 34.7196 337.35 35.0752 337.597 35.4326C337.839 35.7824 337.786 36.2506 337.491 36.5373C337.456 36.5698 337.42 36.6004 337.38 36.6291Z" fill="#BDD0FB"/>
<path d="M339.637 40.2779C339.23 40.5187 338.707 40.3849 338.465 39.9759C338.25 39.6108 338.031 39.2496 337.808 38.8903C337.559 38.487 337.684 37.9556 338.084 37.7071C338.486 37.4567 339.013 37.581 339.262 37.9843C339.491 38.3551 339.716 38.7278 339.936 39.1024C340.142 39.4503 340.073 39.8861 339.797 40.1556C339.752 40.2015 339.696 40.2435 339.637 40.2779Z" fill="#BDD0FB"/>
<path d="M344.703 52.0863C344.252 52.2278 343.772 51.9755 343.631 51.5225C343.506 51.1192 343.376 50.7197 343.241 50.3202C343.089 49.871 343.329 49.3836 343.776 49.2307C344.223 49.0778 344.709 49.3187 344.861 49.7678C345 50.1807 345.135 50.5955 345.265 51.014C345.364 51.3332 345.267 51.6677 345.044 51.8875C344.951 51.9736 344.836 52.0443 344.703 52.0863Z" fill="#BDD0FB"/>
<path d="M322.348 99.8877C322.737 99.7233 323.125 99.5551 323.51 99.3831C323.942 99.19 324.446 99.385 324.64 99.8189C324.791 100.157 324.705 100.541 324.456 100.786C324.385 100.855 324.301 100.912 324.208 100.954C323.812 101.132 323.414 101.304 323.015 101.472C322.579 101.656 322.078 101.451 321.893 101.013C321.71 100.576 321.914 100.071 322.348 99.8877Z" fill="#BDD0FB"/>
<path d="M341.627 44.0815C341.204 44.2937 340.69 44.1197 340.479 43.6954C340.291 43.317 340.098 42.9385 339.902 42.5639C339.683 42.1434 339.845 41.6235 340.262 41.4037C340.681 41.182 341.197 41.3444 341.418 41.7649C341.62 42.151 341.817 42.539 342.01 42.929C342.181 43.273 342.101 43.6744 341.84 43.9286C341.781 43.9898 341.709 44.0414 341.627 44.0815Z" fill="#BDD0FB"/>
<path d="M343.326 48.0208C342.888 48.1986 342.39 47.9864 342.211 47.5468C342.093 47.2563 341.973 46.9677 341.851 46.681L341.721 46.379C341.533 45.9432 341.733 45.4367 342.165 45.2494C342.599 45.0601 343.104 45.2608 343.29 45.6947L343.421 46.0024C343.547 46.3006 343.673 46.5988 343.795 46.8989C343.93 47.2334 343.84 47.6023 343.598 47.8393C343.524 47.9157 343.433 47.9788 343.326 48.0208Z" fill="#BDD0FB"/>
<path d="M344.557 76.4696C344.668 76.0644 344.769 75.6592 344.866 75.2483C344.974 74.7857 345.435 74.499 345.894 74.6079C346.355 74.7169 346.64 75.1794 346.532 75.6401C346.431 76.0682 346.324 76.4964 346.208 76.9188C346.166 77.0717 346.086 77.2055 345.98 77.3087C345.77 77.5132 345.46 77.605 345.157 77.5209C344.702 77.4005 344.434 76.9283 344.557 76.4696Z" fill="#BDD0FB"/>
<path d="M329.817 96.021C330.171 95.7954 330.524 95.5661 330.87 95.331C331.262 95.0653 331.793 95.1685 332.058 95.5623C332.294 95.912 332.237 96.3746 331.946 96.6594C331.91 96.6938 331.871 96.7263 331.828 96.755C331.466 96.9996 331.102 97.2385 330.733 97.4736C330.333 97.7278 329.804 97.6074 329.553 97.208C329.3 96.8047 329.42 96.2771 329.817 96.021Z" fill="#BDD0FB"/>
<path d="M332.129 29.8514C331.781 30.1725 331.24 30.1515 330.921 29.8017C330.635 29.4901 330.346 29.1805 330.053 28.8747C329.727 28.5325 329.737 27.9916 330.073 27.6629C330.075 27.661 330.075 27.661 330.077 27.6591C330.418 27.3303 330.961 27.3418 331.288 27.6839C331.589 27.9974 331.886 28.3146 332.179 28.6358C332.493 28.9798 332.478 29.5112 332.147 29.8342C332.141 29.8418 332.135 29.8457 332.129 29.8514Z" fill="#BDD0FB"/>
<path d="M327.03 25.9216C326.68 25.6024 326.655 25.0596 326.973 24.7079C327.293 24.3562 327.832 24.3314 328.182 24.6506C328.504 24.943 328.822 25.2393 329.136 25.5393C329.478 25.8662 329.494 26.409 329.168 26.7531C329.16 26.7626 329.151 26.7703 329.143 26.7798C328.816 27.099 328.294 27.1047 327.959 26.7875C327.653 26.495 327.342 26.2064 327.03 25.9216Z" fill="#BDD0FB"/>
<path d="M323.67 21.9747C323.962 21.6058 324.502 21.5389 324.872 21.8332C325.212 22.1027 325.549 22.376 325.884 22.6532C326.248 22.9552 326.301 23.4961 326 23.8631C325.979 23.8879 325.959 23.9109 325.936 23.9338C325.627 24.2339 325.136 24.2607 324.795 23.9797C324.47 23.7102 324.14 23.4445 323.811 23.1807C323.442 22.8883 323.377 22.3474 323.67 21.9747Z" fill="#BDD0FB"/>
<path d="M326.17 98.1063C326.545 97.9133 326.916 97.7164 327.285 97.5138C327.7 97.2863 328.22 97.4411 328.446 97.8559C328.635 98.2019 328.561 98.6205 328.292 98.8842C328.237 98.9377 328.176 98.9836 328.106 99.0218C327.725 99.2302 327.34 99.4347 326.954 99.6335C326.533 99.8495 326.017 99.6832 325.802 99.2627C325.583 98.8403 325.747 98.3204 326.17 98.1063Z" fill="#BDD0FB"/>
<path d="M341.408 84.1954C341.613 83.8322 341.811 83.4652 342.003 83.0963C342.222 82.6777 342.736 82.5115 343.157 82.7293C343.576 82.9472 343.741 83.4671 343.522 83.8876C343.321 84.2776 343.111 84.6656 342.894 85.0478C342.854 85.1186 342.803 85.1835 342.748 85.239C342.481 85.4989 342.066 85.562 341.727 85.3689C341.316 85.1319 341.173 84.6063 341.408 84.1954Z" fill="#BDD0FB"/>
<path d="M343.223 80.4376C343.381 80.0496 343.531 79.6597 343.674 79.266C343.836 78.8206 344.327 78.5913 344.771 78.7537C345.214 78.9162 345.443 79.4093 345.281 79.8547C345.131 80.2694 344.973 80.6785 344.807 81.0875C344.761 81.2003 344.693 81.2997 344.611 81.3799C344.375 81.6112 344.015 81.6915 343.691 81.5596C343.255 81.3799 343.046 80.8772 343.223 80.4376Z" fill="#BDD0FB"/>
<path d="M334.182 30.9294C334.46 31.2639 334.735 31.6003 335.007 31.9405C335.285 32.2884 335.249 32.7892 334.934 33.0931C334.915 33.1122 334.894 33.1313 334.872 33.1485C334.502 33.4448 333.964 33.3855 333.668 33.0147C333.404 32.684 333.137 32.3553 332.867 32.0303C332.564 31.6672 332.612 31.132 332.976 30.8205C333.341 30.5165 333.88 30.5643 334.182 30.9294Z" fill="#BDD0FB"/>
<path d="M339.338 87.3644C339.511 87.1332 339.681 86.8981 339.846 86.663C340.119 86.273 340.653 86.1832 341.04 86.4565C341.426 86.7299 341.518 87.267 341.245 87.655C341.07 87.9053 340.891 88.1519 340.709 88.3985L340.465 88.7196C340.438 88.754 340.41 88.7865 340.381 88.8152C340.082 89.1076 339.606 89.142 339.266 88.8801C338.891 88.5915 338.818 88.0525 339.106 87.676L339.338 87.3644Z" fill="#BDD0FB"/>
<path d="M333.238 93.5974C333.565 93.3374 333.889 93.0718 334.209 92.8003C334.569 92.4945 335.109 92.5385 335.414 92.9016C335.707 93.2495 335.677 93.7598 335.357 94.0733C335.343 94.0867 335.328 94.1001 335.313 94.1134C334.98 94.3963 334.641 94.6754 334.296 94.9468C333.925 95.2411 333.386 95.1762 333.095 94.8054C332.802 94.4326 332.863 93.8879 333.238 93.5974Z" fill="#BDD0FB"/>
<path d="M271.616 10.5829C272.037 10.4759 272.457 10.3726 272.882 10.2752C273.343 10.1681 273.801 10.4568 273.908 10.9193C273.978 11.2232 273.878 11.5271 273.67 11.7297C273.562 11.8348 273.424 11.9132 273.266 11.9495C272.855 12.0451 272.444 12.1445 272.037 12.2496C271.578 12.3662 271.113 12.0871 270.997 11.6284C270.881 11.1659 271.157 10.6995 271.616 10.5829Z" fill="#BDD0FB"/>
<path d="M156.831 106.031C157.257 105.977 157.684 105.926 158.11 105.876C158.58 105.821 159.005 106.159 159.06 106.629C159.092 106.904 158.99 107.166 158.805 107.346C158.676 107.472 158.502 107.56 158.308 107.583C157.885 107.633 157.465 107.684 157.042 107.736C156.574 107.795 156.145 107.461 156.086 106.99C156.029 106.518 156.361 106.088 156.831 106.031Z" fill="#BDD0FB"/>
<path d="M152.569 106.623C152.994 106.558 153.42 106.495 153.845 106.434C154.313 106.367 154.747 106.692 154.814 107.162C154.854 107.445 154.753 107.717 154.562 107.902C154.437 108.024 154.275 108.108 154.088 108.135C153.668 108.196 153.247 108.259 152.826 108.323C152.358 108.393 151.922 108.07 151.851 107.602C151.781 107.132 152.105 106.692 152.569 106.623Z" fill="#BDD0FB"/>
<path d="M144.104 108.154C144.525 108.066 144.947 107.979 145.368 107.894C145.831 107.801 146.282 108.103 146.375 108.569C146.434 108.865 146.333 109.158 146.132 109.355C146.017 109.466 145.871 109.546 145.703 109.58C145.286 109.664 144.869 109.75 144.454 109.836C143.992 109.934 143.539 109.636 143.442 109.171C143.346 108.707 143.642 108.25 144.104 108.154Z" fill="#BDD0FB"/>
<path d="M148.328 107.329C148.751 107.252 149.176 107.178 149.6 107.105C150.067 107.025 150.508 107.34 150.588 107.806C150.638 108.097 150.535 108.378 150.341 108.569C150.221 108.686 150.067 108.768 149.89 108.798C149.471 108.871 149.052 108.944 148.633 109.02C148.169 109.104 147.723 108.795 147.639 108.326C147.554 107.86 147.862 107.413 148.328 107.329Z" fill="#BDD0FB"/>
<path d="M139.906 109.1C140.325 108.999 140.743 108.9 141.162 108.804C141.623 108.697 142.082 108.986 142.188 109.448C142.259 109.752 142.158 110.056 141.95 110.259C141.842 110.364 141.705 110.442 141.547 110.479C141.132 110.574 140.719 110.674 140.304 110.773C139.845 110.884 139.382 110.599 139.272 110.138C139.161 109.674 139.445 109.209 139.906 109.1Z" fill="#BDD0FB"/>
<path d="M268.013 108.292C268.44 108.29 268.866 108.286 269.292 108.282C269.765 108.279 270.151 108.659 270.157 109.133C270.159 109.378 270.06 109.599 269.898 109.758C269.746 109.907 269.538 109.999 269.31 110.001C268.881 110.005 268.451 110.008 268.023 110.01C267.551 110.012 267.166 109.63 267.162 109.156C267.158 108.682 267.541 108.296 268.013 108.292Z" fill="#BDD0FB"/>
<path d="M135.732 110.173C136.147 110.058 136.564 109.947 136.981 109.838C137.438 109.718 137.906 109.993 138.026 110.452C138.108 110.763 138.009 111.079 137.794 111.287C137.691 111.386 137.563 111.463 137.415 111.501C137.004 111.61 136.593 111.719 136.183 111.832C135.728 111.956 135.256 111.687 135.132 111.23C135.007 110.769 135.277 110.297 135.732 110.173Z" fill="#BDD0FB"/>
<path d="M173.954 104.658C174.384 104.641 174.812 104.626 175.241 104.613C175.713 104.597 176.109 104.968 176.124 105.442C176.132 105.694 176.033 105.926 175.865 106.088C175.719 106.232 175.519 106.323 175.298 106.329C174.871 106.344 174.445 106.36 174.019 106.375C173.546 106.394 173.149 106.023 173.131 105.549C173.114 105.077 173.482 104.678 173.954 104.658Z" fill="#BDD0FB"/>
<path d="M161.1 105.547C161.526 105.505 161.955 105.463 162.383 105.421C162.853 105.377 163.27 105.723 163.316 106.195C163.341 106.465 163.24 106.717 163.059 106.893C162.924 107.025 162.745 107.113 162.543 107.132C162.118 107.172 161.696 107.214 161.271 107.256C160.801 107.304 160.382 106.96 160.334 106.488C160.287 106.016 160.63 105.595 161.1 105.547Z" fill="#BDD0FB"/>
<path d="M178.244 104.528C178.672 104.519 179.103 104.511 179.531 104.504C180.003 104.496 180.393 104.874 180.401 105.348C180.405 105.595 180.306 105.821 180.142 105.979C179.992 106.126 179.786 106.218 179.562 106.222C179.135 106.23 178.709 106.237 178.282 106.247C177.81 106.258 177.418 105.882 177.408 105.408C177.397 104.932 177.772 104.538 178.244 104.528Z" fill="#BDD0FB"/>
<path d="M169.664 104.869C170.093 104.844 170.521 104.819 170.951 104.798C171.423 104.773 171.825 105.136 171.85 105.61C171.863 105.868 171.762 106.105 171.591 106.272C171.448 106.411 171.254 106.501 171.041 106.512C170.614 106.535 170.19 106.558 169.763 106.583C169.291 106.612 168.888 106.249 168.859 105.775C168.83 105.301 169.192 104.895 169.664 104.869Z" fill="#BDD0FB"/>
<path d="M165.379 105.161C165.808 105.127 166.236 105.094 166.664 105.064C167.136 105.029 167.546 105.385 167.58 105.859C167.599 106.123 167.498 106.367 167.323 106.537C167.184 106.673 166.997 106.763 166.79 106.778C166.365 106.809 165.941 106.841 165.514 106.874C165.044 106.91 164.631 106.556 164.595 106.084C164.555 105.612 164.907 105.199 165.379 105.161Z" fill="#BDD0FB"/>
<path d="M100.568 126.215C100.922 125.966 101.278 125.722 101.634 125.479C102.027 125.213 102.558 125.315 102.822 125.708C103.058 126.058 103.003 126.521 102.71 126.807C102.674 126.842 102.636 126.874 102.594 126.903C102.244 127.142 101.893 127.383 101.545 127.627C101.157 127.899 100.624 127.803 100.353 127.413C100.087 127.021 100.178 126.488 100.568 126.215Z" fill="#BDD0FB"/>
<path d="M182.539 104.469C182.967 104.467 183.397 104.465 183.827 104.465C184.3 104.465 184.684 104.85 184.684 105.324C184.684 105.566 184.585 105.784 184.425 105.941C184.271 106.09 184.062 106.184 183.829 106.184C183.403 106.184 182.976 106.186 182.55 106.188C182.078 106.189 181.691 105.807 181.69 105.333C181.684 104.859 182.065 104.473 182.539 104.469Z" fill="#BDD0FB"/>
<path d="M97.0875 128.776C97.4302 128.512 97.7729 128.25 98.1174 127.991C98.4963 127.706 99.0312 127.784 99.3149 128.164C99.5757 128.514 99.53 128.998 99.2273 129.294C99.2007 129.319 99.174 129.344 99.1435 129.367C98.8047 129.621 98.4658 129.879 98.1308 130.139C97.7557 130.427 97.2189 130.357 96.9314 129.98C96.642 129.604 96.7087 129.063 97.0875 128.776Z" fill="#BDD0FB"/>
<path d="M90.5101 134.392C90.8261 134.094 91.1421 133.801 91.4619 133.509C91.8103 133.189 92.3529 133.214 92.6708 133.564C92.983 133.908 92.9659 134.438 92.6346 134.759C92.6289 134.764 92.6213 134.772 92.6156 134.778C92.3034 135.064 91.9931 135.353 91.6828 135.644C91.3382 135.969 90.7975 135.951 90.4739 135.605C90.1503 135.259 90.1579 134.717 90.5101 134.392Z" fill="#BDD0FB"/>
<path d="M104.163 123.816C104.526 123.585 104.894 123.355 105.261 123.128C105.663 122.88 106.19 123.006 106.437 123.411C106.651 123.761 106.586 124.202 106.304 124.477C106.26 124.521 106.211 124.56 106.156 124.594C105.794 124.818 105.434 125.043 105.076 125.271C104.677 125.525 104.149 125.404 103.896 125.005C103.645 124.6 103.761 124.07 104.163 123.816Z" fill="#BDD0FB"/>
<path d="M93.7289 131.502C94.0583 131.221 94.3895 130.944 94.7208 130.666C95.0863 130.364 95.625 130.416 95.9258 130.783C96.2114 131.131 96.179 131.637 95.863 131.945C95.8459 131.96 95.8287 131.978 95.8097 131.993C95.4842 132.262 95.1586 132.536 94.8369 132.811C94.4771 133.119 93.9364 133.075 93.6318 132.712C93.3253 132.352 93.3691 131.792 93.7289 131.502Z" fill="#BDD0FB"/>
<path d="M115.509 117.577C115.899 117.394 116.291 117.21 116.684 117.031C117.114 116.834 117.62 117.023 117.818 117.455C117.972 117.795 117.889 118.183 117.637 118.428C117.569 118.495 117.489 118.55 117.396 118.592C117.009 118.77 116.623 118.95 116.238 119.131C115.81 119.332 115.301 119.149 115.1 118.718C114.898 118.292 115.081 117.78 115.509 117.577Z" fill="#BDD0FB"/>
<path d="M123.446 114.189C123.849 114.034 124.253 113.881 124.656 113.73C125.1 113.565 125.591 113.793 125.757 114.236C125.879 114.565 125.785 114.922 125.551 115.152C125.469 115.232 125.368 115.297 125.252 115.341C124.854 115.49 124.455 115.639 124.059 115.792C123.617 115.962 123.122 115.741 122.955 115.297C122.783 114.854 123.004 114.357 123.446 114.189Z" fill="#BDD0FB"/>
<path d="M119.449 115.809C119.845 115.639 120.243 115.473 120.643 115.309C121.08 115.127 121.579 115.337 121.76 115.775C121.897 116.109 121.81 116.482 121.566 116.719C121.49 116.794 121.398 116.853 121.296 116.897C120.903 117.059 120.511 117.224 120.119 117.392C119.685 117.577 119.182 117.375 118.998 116.937C118.809 116.499 119.015 115.995 119.449 115.809Z" fill="#BDD0FB"/>
<path d="M111.642 119.5C112.025 119.3 112.41 119.103 112.796 118.906C113.219 118.692 113.733 118.862 113.946 119.286C114.119 119.63 114.039 120.035 113.778 120.29C113.717 120.349 113.647 120.4 113.567 120.441C113.188 120.632 112.809 120.827 112.432 121.024C112.014 121.243 111.496 121.079 111.279 120.659C111.06 120.238 111.224 119.716 111.642 119.5Z" fill="#BDD0FB"/>
<path d="M107.857 121.578C108.232 121.362 108.607 121.148 108.984 120.938C109.397 120.706 109.919 120.855 110.147 121.27C110.339 121.618 110.267 122.04 109.997 122.304C109.943 122.356 109.884 122.402 109.816 122.438C109.445 122.646 109.075 122.855 108.708 123.067C108.299 123.304 107.775 123.16 107.541 122.75C107.307 122.339 107.448 121.811 107.857 121.578Z" fill="#BDD0FB"/>
<path d="M127.497 112.711C127.905 112.57 128.314 112.432 128.723 112.296C129.173 112.147 129.656 112.39 129.805 112.841C129.911 113.164 129.816 113.506 129.588 113.728C129.498 113.816 129.388 113.885 129.262 113.927C128.858 114.06 128.455 114.198 128.053 114.338C127.606 114.492 127.12 114.254 126.966 113.804C126.814 113.355 127.05 112.866 127.497 112.711Z" fill="#BDD0FB"/>
<path d="M131.595 111.373C132.007 111.247 132.42 111.121 132.833 110.998C133.286 110.863 133.762 111.123 133.897 111.578C133.99 111.895 133.893 112.224 133.672 112.438C133.577 112.531 133.457 112.604 133.32 112.644C132.913 112.765 132.505 112.889 132.098 113.013C131.647 113.153 131.167 112.896 131.028 112.443C130.889 111.992 131.144 111.513 131.595 111.373Z" fill="#BDD0FB"/>
<path d="M250.945 107.944L252.226 107.998C252.698 108.017 253.065 108.416 253.048 108.89C253.039 109.12 252.942 109.324 252.789 109.473C252.627 109.632 252.403 109.725 252.159 109.716L250.874 109.662C250.402 109.641 250.035 109.242 250.056 108.768C250.073 108.292 250.472 107.923 250.945 107.944Z" fill="#BDD0FB"/>
<path d="M255.21 108.105L256.491 108.145C256.963 108.158 257.335 108.556 257.321 109.03C257.314 109.263 257.216 109.469 257.062 109.62C256.902 109.777 256.682 109.871 256.44 109.863L255.155 109.823C254.683 109.808 254.311 109.41 254.327 108.936C254.342 108.462 254.738 108.089 255.21 108.105Z" fill="#BDD0FB"/>
<path d="M238.142 107.252L239.423 107.332C239.895 107.361 240.253 107.77 240.225 108.242C240.211 108.464 240.114 108.663 239.968 108.806C239.8 108.969 239.57 109.062 239.319 109.047L238.035 108.967C237.563 108.936 237.205 108.529 237.234 108.055C237.264 107.583 237.67 107.224 238.142 107.252Z" fill="#BDD0FB"/>
<path d="M255.313 18.3622C255.073 17.955 255.205 17.4294 255.612 17.1848C255.985 16.9611 256.362 16.7452 256.739 16.5311C257.15 16.2979 257.672 16.4451 257.904 16.8579C258.098 17.2058 258.028 17.6301 257.756 17.8958C257.704 17.9455 257.645 17.9914 257.578 18.0277C257.211 18.236 256.846 18.4463 256.484 18.6623C256.078 18.905 255.555 18.7693 255.313 18.3622Z" fill="#BDD0FB"/>
<path d="M242.408 107.51L243.689 107.583C244.161 107.61 244.523 108.015 244.496 108.489C244.483 108.712 244.387 108.913 244.237 109.057C244.071 109.219 243.841 109.313 243.594 109.297L242.311 109.225C241.838 109.198 241.479 108.793 241.505 108.319C241.532 107.847 241.937 107.485 242.408 107.51Z" fill="#BDD0FB"/>
<path d="M246.679 107.743L247.958 107.806C248.43 107.829 248.794 108.233 248.771 108.707C248.76 108.934 248.663 109.135 248.512 109.282C248.349 109.443 248.122 109.536 247.875 109.523L246.59 109.46C246.117 109.435 245.754 109.032 245.779 108.558C245.803 108.084 246.207 107.719 246.679 107.743Z" fill="#BDD0FB"/>
<path d="M267.451 11.7985C267.865 11.6628 268.278 11.5309 268.693 11.4029C269.144 11.2634 269.624 11.5195 269.761 11.9725C269.858 12.2917 269.761 12.6242 269.538 12.8402C269.445 12.932 269.327 13.0027 269.193 13.0447C268.79 13.169 268.388 13.297 267.988 13.4308C267.539 13.5799 267.055 13.3334 266.907 12.8823C266.758 12.435 267 11.9495 267.451 11.7985Z" fill="#BDD0FB"/>
<path d="M263.747 108.286C264.174 108.29 264.6 108.292 265.027 108.294C265.499 108.296 265.881 108.682 265.879 109.156C265.879 109.397 265.778 109.613 265.62 109.769C265.466 109.92 265.253 110.014 265.021 110.012C264.592 110.01 264.162 110.008 263.734 110.005C263.262 110.001 262.881 109.613 262.887 109.137C262.887 108.663 263.273 108.281 263.747 108.286Z" fill="#BDD0FB"/>
<path d="M263.382 13.3066C263.784 13.1422 264.187 12.9817 264.591 12.8249C265.032 12.6548 265.527 12.8746 265.697 13.3181C265.824 13.6487 265.733 14.0119 265.495 14.2432C265.415 14.3215 265.318 14.3846 265.206 14.4286C264.812 14.5815 264.419 14.7382 264.029 14.8969C263.591 15.0765 263.093 14.8663 262.914 14.4267C262.735 13.989 262.944 13.4863 263.382 13.3066Z" fill="#BDD0FB"/>
<path d="M259.479 108.221C259.906 108.231 260.332 108.238 260.759 108.246C261.231 108.254 261.608 108.646 261.6 109.12C261.596 109.357 261.497 109.569 261.341 109.722C261.183 109.875 260.968 109.968 260.73 109.964C260.302 109.957 259.874 109.949 259.443 109.94C258.971 109.93 258.596 109.536 258.606 109.062C258.615 108.586 259.007 108.212 259.479 108.221Z" fill="#BDD0FB"/>
<path d="M261.329 16.0896C260.946 16.2692 260.567 16.4546 260.19 16.6419C259.768 16.8522 259.254 16.6802 259.042 16.2539C258.833 15.8296 259.004 15.3135 259.429 15.1014C259.817 14.9083 260.207 14.7172 260.601 14.5318C261.03 14.3292 261.538 14.5146 261.74 14.9446C261.9 15.2849 261.816 15.6786 261.561 15.9271C261.494 15.9921 261.416 16.0475 261.329 16.0896Z" fill="#BDD0FB"/>
<path d="M186.829 104.477C187.258 104.481 187.686 104.485 188.116 104.49C188.588 104.496 188.967 104.886 188.961 105.36C188.958 105.597 188.861 105.811 188.703 105.966C188.546 106.119 188.331 106.212 188.095 106.209C187.669 106.203 187.24 106.199 186.814 106.195C186.342 106.191 185.961 105.803 185.967 105.327C185.971 104.853 186.357 104.471 186.829 104.477Z" fill="#BDD0FB"/>
<path d="M208.251 105.257L209.535 105.331C210.007 105.36 210.366 105.767 210.338 106.241C210.325 106.465 210.227 106.662 210.081 106.807C209.915 106.969 209.683 107.063 209.434 107.05L208.154 106.975C207.682 106.948 207.322 106.543 207.349 106.069C207.376 105.591 207.779 105.23 208.251 105.257Z" fill="#BDD0FB"/>
<path d="M199.691 104.821L200.976 104.878C201.448 104.899 201.813 105.301 201.792 105.775C201.783 106.002 201.684 106.205 201.533 106.352C201.37 106.511 201.145 106.606 200.899 106.595L199.618 106.539C199.146 106.518 198.779 106.119 198.8 105.645C198.821 105.171 199.219 104.802 199.691 104.821Z" fill="#BDD0FB"/>
<path d="M203.974 105.024L205.257 105.09C205.729 105.115 206.091 105.52 206.066 105.995C206.055 106.22 205.958 106.421 205.807 106.566C205.642 106.727 205.413 106.82 205.166 106.807L203.884 106.74C203.412 106.715 203.049 106.312 203.073 105.838C203.098 105.364 203.502 104.999 203.974 105.024Z" fill="#BDD0FB"/>
<path d="M233.873 106.973L235.152 107.059C235.624 107.09 235.98 107.499 235.95 107.973C235.935 108.194 235.84 108.389 235.693 108.533C235.525 108.697 235.291 108.791 235.04 108.774L233.759 108.688C233.287 108.655 232.931 108.246 232.963 107.772C232.993 107.3 233.403 106.943 233.873 106.973Z" fill="#BDD0FB"/>
<path d="M195.407 104.658L196.692 104.702C197.164 104.72 197.534 105.117 197.517 105.591C197.509 105.822 197.41 106.029 197.258 106.178C197.096 106.335 196.873 106.428 196.631 106.421L195.35 106.377C194.878 106.361 194.509 105.964 194.524 105.488C194.539 105.014 194.935 104.643 195.407 104.658Z" fill="#BDD0FB"/>
<path d="M191.12 104.542C191.548 104.551 191.977 104.561 192.407 104.572C192.879 104.584 193.252 104.978 193.241 105.454C193.235 105.687 193.136 105.897 192.982 106.048C192.822 106.203 192.603 106.297 192.365 106.291C191.939 106.279 191.51 106.27 191.084 106.26C190.612 106.251 190.237 105.857 190.246 105.383C190.256 104.909 190.646 104.532 191.12 104.542Z" fill="#BDD0FB"/>
<path d="M212.527 105.517L213.808 105.599C214.28 105.629 214.638 106.038 214.608 106.511C214.595 106.732 214.497 106.927 214.351 107.071C214.183 107.235 213.951 107.329 213.7 107.311L212.421 107.229C211.948 107.201 211.59 106.792 211.621 106.318C211.65 105.845 212.057 105.486 212.527 105.517Z" fill="#BDD0FB"/>
<path d="M225.34 106.384L226.621 106.474C227.093 106.507 227.447 106.918 227.415 107.392C227.4 107.612 227.302 107.806 227.158 107.948C226.988 108.112 226.754 108.206 226.501 108.189L225.222 108.099C224.75 108.066 224.395 107.655 224.428 107.181C224.46 106.707 224.869 106.35 225.34 106.384Z" fill="#BDD0FB"/>
<path d="M229.607 106.681L230.887 106.769C231.359 106.801 231.715 107.21 231.682 107.684C231.667 107.904 231.572 108.099 231.425 108.242C231.258 108.407 231.022 108.5 230.771 108.483L229.489 108.395C229.017 108.363 228.663 107.952 228.695 107.478C228.728 107.006 229.137 106.648 229.607 106.681Z" fill="#BDD0FB"/>
<path d="M216.8 105.794L218.082 105.88C218.554 105.912 218.91 106.321 218.877 106.795C218.862 107.015 218.767 107.212 218.62 107.353C218.453 107.518 218.219 107.612 217.967 107.594L216.686 107.508C216.214 107.478 215.858 107.067 215.889 106.595C215.921 106.121 216.328 105.763 216.8 105.794Z" fill="#BDD0FB"/>
<path d="M221.072 106.084L222.351 106.174C222.823 106.207 223.178 106.618 223.145 107.092C223.13 107.311 223.033 107.506 222.888 107.648C222.721 107.812 222.485 107.906 222.233 107.889L220.952 107.799C220.48 107.766 220.126 107.355 220.158 106.881C220.191 106.409 220.6 106.052 221.072 106.084Z" fill="#BDD0FB"/>
<defs>
<linearGradient id="paint0_linear" x1="716.769" y1="103.34" x2="114.965" y2="95.8472" gradientUnits="userSpaceOnUse">
<stop stop-color="#F2F7FF"/>
<stop offset="1" stop-color="#E9EFFD"/>
</linearGradient>
<linearGradient id="paint1_linear" x1="281.476" y1="-0.55543" x2="268.255" y2="53.2626" gradientUnits="userSpaceOnUse">
<stop stop-color="#FE7062" stop-opacity="0.5"/>
<stop offset="1" stop-color="#FF928E" stop-opacity="0.52"/>
</linearGradient>
<linearGradient id="paint2_linear" x1="332.506" y1="82.3008" x2="342.383" y2="82.3008" gradientUnits="userSpaceOnUse">
<stop stop-color="#FE7062" stop-opacity="0.47"/>
<stop offset="1" stop-color="#FF928E" stop-opacity="0.52"/>
</linearGradient>
<linearGradient id="paint3_linear" x1="360.509" y1="-1.28451" x2="369.267" y2="-1.28451" gradientUnits="userSpaceOnUse">
<stop stop-color="#4042E2"/>
<stop offset="1" stop-color="#4F52FF"/>
</linearGradient>
<linearGradient id="paint4_linear" x1="357.926" y1="91.4157" x2="389.268" y2="91.4157" gradientUnits="userSpaceOnUse">
<stop stop-color="#4042E2"/>
<stop offset="1" stop-color="#4F52FF"/>
</linearGradient>
<linearGradient id="paint5_linear" x1="289.239" y1="52.3226" x2="312.519" y2="21.2425" gradientUnits="userSpaceOnUse">
<stop stop-color="#4042E2"/>
<stop offset="1" stop-color="#4F52FF"/>
</linearGradient>
<linearGradient id="paint6_linear" x1="299.293" y1="35.4215" x2="303.954" y2="35.4215" gradientUnits="userSpaceOnUse">
<stop stop-color="#DAE3FE"/>
<stop offset="1" stop-color="#E9EFFD"/>
</linearGradient>
<linearGradient id="paint7_linear" x1="300.54" y1="32.6718" x2="307.983" y2="32.6718" gradientUnits="userSpaceOnUse">
<stop stop-color="#DAE3FE"/>
<stop offset="1" stop-color="#E9EFFD"/>
</linearGradient>
<linearGradient id="paint8_linear" x1="299.939" y1="30.6016" x2="311.568" y2="30.6016" gradientUnits="userSpaceOnUse">
<stop stop-color="#DAE3FE"/>
<stop offset="1" stop-color="#E9EFFD"/>
</linearGradient>
<linearGradient id="paint9_linear" x1="299.338" y1="28.5341" x2="315.134" y2="28.5341" gradientUnits="userSpaceOnUse">
<stop stop-color="#DAE3FE"/>
<stop offset="1" stop-color="#E9EFFD"/>
</linearGradient>
<linearGradient id="paint10_linear" x1="21.0489" y1="235.193" x2="89.3606" y2="143.922" gradientUnits="userSpaceOnUse">
<stop stop-color="#7568EE"/>
<stop offset="1" stop-color="#857BF1"/>
</linearGradient>
<linearGradient id="paint11_linear" x1="123.561" y1="21.4814" x2="237.8" y2="224.129" gradientUnits="userSpaceOnUse">
<stop stop-color="#A6A7FA"/>
<stop offset="1" stop-color="#4F52FF"/>
</linearGradient>
<linearGradient id="paint12_linear" x1="398.15" y1="-28.2722" x2="213.402" y2="97.1889" gradientUnits="userSpaceOnUse">
<stop stop-color="#978DF8"/>
<stop offset="1" stop-color="#534AB6"/>
</linearGradient>
<linearGradient id="paint13_linear" x1="262.955" y1="76.4586" x2="215.771" y2="90.7774" gradientUnits="userSpaceOnUse">
<stop stop-color="#8F90F8"/>
<stop offset="1" stop-color="#4F52FF"/>
</linearGradient>
<linearGradient id="paint14_linear" x1="49.6681" y1="130.925" x2="44.6553" y2="5.2753" gradientUnits="userSpaceOnUse">
<stop stop-color="#645ABF"/>
<stop offset="1" stop-color="#4D3DFB"/>
</linearGradient>
<linearGradient id="paint15_linear" x1="277.167" y1="84.0964" x2="304.225" y2="84.0964" gradientUnits="userSpaceOnUse">
<stop stop-color="#DAE3FE"/>
<stop offset="1" stop-color="#E9EFFD"/>
</linearGradient>
<linearGradient id="paint16_linear" x1="286.457" y1="84.4447" x2="297.334" y2="84.4447" gradientUnits="userSpaceOnUse">
<stop stop-color="#DAE3FE"/>
<stop offset="1" stop-color="#E9EFFD"/>
</linearGradient>
<linearGradient id="paint17_linear" x1="344.335" y1="-9.6435" x2="389.069" y2="124.025" gradientUnits="userSpaceOnUse">
<stop stop-color="#FE7062" stop-opacity="0.43"/>
<stop offset="1" stop-color="#FF928E" stop-opacity="0.31"/>
</linearGradient>
<linearGradient id="paint18_linear" x1="317.829" y1="103.109" x2="344.198" y2="181.899" gradientUnits="userSpaceOnUse">
<stop stop-color="#FE7062" stop-opacity="0.46"/>
<stop offset="1" stop-color="#FF928E" stop-opacity="0.45"/>
</linearGradient>
</defs>
</svg>
