<svg width="39" height="35" viewBox="0 0 39 35" fill="none" xmlns="http://www.w3.org/2000/svg">
<rect x="0.000244141" y="0.000183105" width="39" height="35" rx="4" fill="white"/>
<g clip-path="url(#clip0)">
<path d="M19.3305 18.0279C19.3867 18.03 19.443 18.0314 19.4998 18.0314C19.5524 18.0314 19.6048 18.0303 19.6571 18.0283C20.8462 18.054 22.0157 18.3687 23.049 18.9437C23.3695 19.1221 23.7739 19.0069 23.9522 18.6864C24.1306 18.3659 24.0154 17.9615 23.6949 17.7832C23.2192 17.5185 22.7192 17.3003 22.203 17.1307C23.3026 16.3063 24.0154 14.9927 24.0154 13.5158C24.0154 11.0258 21.9896 9.00018 19.4998 9.00018C17.0098 9.00018 14.9841 11.0258 14.9841 13.5158C14.9841 14.9936 15.6978 16.308 16.7985 17.1322C15.7901 17.4641 14.8438 17.9805 14.0155 18.6616C12.4972 19.9107 11.4414 21.6528 11.0428 23.5671C10.9179 24.167 11.0676 24.7831 11.4533 25.2575C11.8371 25.7295 12.4064 26.0002 13.0149 26.0002H18.2049C18.5715 26.0002 18.8689 25.7029 18.8689 25.3361C18.8689 24.9693 18.5715 24.6721 18.2049 24.6721H13.0149C12.7314 24.6721 12.5604 24.5138 12.4837 24.4195C12.3512 24.2566 12.3 24.0447 12.3431 23.8378C13.0327 20.5254 15.9559 18.1064 19.3305 18.0279ZM16.3123 13.5158C16.3123 11.7582 17.7421 10.3283 19.4998 10.3283C21.2573 10.3283 22.6873 11.7582 22.6873 13.5158C22.6873 15.2205 21.3423 16.6167 19.6579 16.6994C19.6051 16.6984 19.5524 16.6977 19.4998 16.6977C19.4479 16.6977 19.3961 16.6985 19.3444 16.6994C17.6587 16.6182 16.3123 15.2214 16.3123 13.5158ZM27.9998 21.346C28.0004 21.7896 27.827 22.2065 27.5117 22.5201L26.2766 23.7483C26.147 23.8773 25.9776 23.9416 25.8084 23.9416C25.6378 23.9416 25.4673 23.8762 25.3374 23.7457C25.0788 23.4857 25.08 23.0653 25.34 22.8067L26.1679 21.9834H22.4047C21.6633 21.9834 21.0603 22.5865 21.0603 23.3277C21.0603 24.069 21.656 24.6721 22.3884 24.6721C22.7551 24.6721 23.0525 24.9693 23.0525 25.3361C23.0525 25.7029 22.7551 26.0002 22.3884 26.0002C21.6742 26.0002 21.0049 25.7213 20.5042 25.2149C20.0062 24.7114 19.7322 24.0412 19.7322 23.3277C19.7322 21.8541 20.931 20.6553 22.4047 20.6553H26.1069L25.3413 19.8982C25.0806 19.6402 25.0782 19.2197 25.3361 18.959C25.594 18.6983 26.0145 18.6959 26.2753 18.9539L27.5085 20.1733C27.8247 20.486 27.9991 20.9025 27.9998 21.346Z" fill="#637ADC"/>
</g>
<defs>
<clipPath id="clip0">
<rect width="17" height="17" fill="white" transform="translate(11.0002 9.00018)"/>
</clipPath>
</defs>
</svg>
