<svg width="467" height="200" viewBox="0 0 467 200" fill="none" xmlns="http://www.w3.org/2000/svg">
<path d="M218.043 -14.1389C261.941 -25.369 303.552 -39.8437 354.763 -20.1061C405.974 -0.36842 447.545 74.126 454.555 128.649C462.363 189.378 450.783 245.337 349.875 260.647C246.361 276.353 95.5089 246.109 42.5187 190.268C-17.3747 127.153 -7.19701 68.2775 31.2063 34.1834C88.4621 -16.6477 186.492 -6.06735 218.043 -14.1389Z" fill="#F2F7FF"/>
<path d="M278.389 -8.20464C268.367 4.1439 268.711 32.4963 308.812 47.6126C353.876 64.6 380.11 44.5136 380.897 30.0279C381.684 15.5421 367.296 -4.87766 343.873 -14.139C317.153 -24.7037 288.219 -20.3174 278.389 -8.20464Z" fill="#6E6EFF"/>
<path d="M345.971 6.04365C355.684 16.2396 374.021 22.4291 369.683 33.59C365.345 44.751 334.656 49.2805 301.781 35.7362C268.907 22.1919 275.702 -1.08044 291.679 -9.86694C307.656 -18.6534 326.741 -14.1414 345.971 6.04365Z" fill="#4639F7"/>
<path d="M299.853 8.17405C306.922 -4.27458 333.13 1.2694 344.525 11.5053C355.92 21.7408 354.722 35.7272 340.587 37.8644C326.452 40.0017 288.859 27.5345 299.853 8.17405Z" fill="#4F52FF"/>
<path d="M352.814 21.8466C352.679 21.8466 352.542 21.821 352.414 21.7658C351.073 21.1919 349.727 20.6164 348.375 20.0411C347.95 19.8601 347.783 19.4302 348.004 19.0807C348.224 18.732 348.749 18.5963 349.173 18.7765C350.526 19.3525 351.874 19.9278 353.215 20.5027C353.64 20.6847 353.805 21.115 353.584 21.4637C353.43 21.7074 353.127 21.8466 352.814 21.8466Z" fill="#C1DCFB"/>
<path d="M176.531 210.652C176.058 210.652 175.671 210.34 175.663 209.95C175.656 209.557 176.038 209.233 176.517 209.227C179.565 209.187 182.622 209.099 185.602 208.966C186.082 208.947 186.489 209.246 186.515 209.638C186.542 210.032 186.175 210.367 185.697 210.389C182.694 210.523 179.615 210.612 176.545 210.652C176.54 210.652 176.536 210.652 176.531 210.652ZM167.404 210.628C167.398 210.628 167.391 210.628 167.385 210.628C164.329 210.573 161.247 210.468 158.227 210.316C157.748 210.292 157.385 209.954 157.414 209.561C157.443 209.169 157.857 208.871 158.332 208.894C161.331 209.045 164.389 209.149 167.423 209.204C167.902 209.212 168.282 209.538 168.271 209.932C168.261 210.319 167.875 210.628 167.404 210.628ZM149.179 209.707C149.15 209.707 149.12 209.706 149.089 209.704C146.02 209.445 142.959 209.132 139.991 208.774C139.517 208.717 139.189 208.355 139.259 207.965C139.329 207.576 139.768 207.306 140.243 207.364C143.186 207.72 146.222 208.03 149.266 208.286C149.743 208.326 150.09 208.676 150.041 209.067C149.995 209.434 149.619 209.707 149.179 209.707ZM131.119 207.518C131.063 207.518 131.007 207.513 130.951 207.504C127.915 207.016 124.902 206.465 121.996 205.869C121.531 205.773 121.249 205.386 121.365 205.005C121.481 204.623 121.952 204.39 122.417 204.486C125.294 205.077 128.278 205.622 131.284 206.106C131.755 206.182 132.061 206.556 131.969 206.942C131.888 207.282 131.525 207.518 131.119 207.518ZM113.418 203.87C113.332 203.87 113.245 203.859 113.159 203.837C110.207 203.083 107.287 202.255 104.482 201.378C104.034 201.237 103.809 200.826 103.98 200.458C104.151 200.091 104.652 199.907 105.099 200.046C107.871 200.913 110.757 201.731 113.675 202.476C114.133 202.593 114.388 202.993 114.246 203.368C114.13 203.674 113.787 203.87 113.418 203.87ZM96.3773 198.522C96.2558 198.522 96.1322 198.501 96.0142 198.456C93.2039 197.391 90.4456 196.242 87.817 195.042C87.3985 194.851 87.2475 194.417 87.4804 194.073C87.7134 193.729 88.2408 193.605 88.6603 193.797C91.2511 194.979 93.9704 196.112 96.7416 197.163C97.1767 197.328 97.3662 197.751 97.1658 198.108C97.0188 198.369 96.7052 198.522 96.3773 198.522ZM80.4522 191.232C80.2865 191.232 80.1191 191.193 79.9712 191.112C77.4059 189.704 74.9114 188.202 72.5565 186.648C72.1831 186.402 72.1236 185.954 72.4238 185.647C72.724 185.341 73.2701 185.291 73.6435 185.538C75.9589 187.065 78.4123 188.542 80.9355 189.927C81.3336 190.145 81.4408 190.588 81.1745 190.915C81.007 191.121 80.7325 191.232 80.4522 191.232ZM66.2644 181.853C66.0471 181.853 65.8293 181.786 65.6606 181.652C63.4589 179.901 61.3421 178.047 59.3698 176.144C59.0592 175.845 59.103 175.395 59.4683 175.14C59.8331 174.885 60.3809 174.922 60.691 175.221C62.6278 177.089 64.7064 178.909 66.8682 180.629C67.2122 180.903 67.2209 181.354 66.8877 181.637C66.7173 181.781 66.4913 181.853 66.2644 181.853ZM54.4683 170.469C54.1942 170.469 53.9244 170.363 53.7557 170.164C52.018 168.115 50.3741 165.964 48.8689 163.771C48.6338 163.428 48.7818 162.993 49.199 162.8C49.6163 162.607 50.1455 162.728 50.381 163.071C51.8588 165.226 53.4733 167.338 55.1797 169.35C55.4534 169.673 55.3567 170.117 54.9637 170.342C54.8123 170.428 54.6392 170.469 54.4683 170.469ZM45.5255 157.454C45.1941 157.454 44.8779 157.297 44.7335 157.033C43.689 155.119 42.7091 153.13 41.8199 151.12C41.6577 150.753 41.4989 150.387 41.3441 150.022C41.1862 149.65 41.4252 149.244 41.8772 149.114C42.3291 148.985 42.8245 149.181 42.982 149.552C43.1351 149.912 43.2908 150.272 43.4508 150.633C44.3253 152.611 45.2896 154.568 46.3167 156.449C46.5128 156.808 46.3171 157.23 45.8799 157.391C45.765 157.434 45.6439 157.454 45.5255 157.454ZM39.5271 143.329C39.1397 143.329 38.7866 143.114 38.6869 142.792C37.9226 140.327 37.2997 137.837 36.8347 135.39C36.761 135.001 37.085 134.637 37.5582 134.576C38.031 134.514 38.4752 134.782 38.5489 135.17C39.0052 137.573 39.6173 140.019 40.3677 142.441C40.4857 142.822 40.2055 143.21 39.7409 143.307C39.6702 143.322 39.5982 143.329 39.5271 143.329ZM36.741 128.544C36.283 128.544 35.9 128.249 35.8752 127.869C35.7937 126.613 35.7529 125.343 35.7529 124.094C35.7529 122.831 35.795 121.557 35.8783 120.305C35.9043 119.912 36.3164 119.612 36.7918 119.633C37.2702 119.654 37.6367 119.99 37.6107 120.383C37.5292 121.608 37.488 122.857 37.488 124.093C37.488 125.317 37.5283 126.562 37.6077 127.793C37.6333 128.186 37.2659 128.521 36.7874 128.542C36.7718 128.543 36.7562 128.544 36.741 128.544ZM37.7461 113.618C37.6983 113.618 37.6502 113.615 37.6016 113.608C37.1292 113.543 36.81 113.176 36.8889 112.788C37.3951 110.307 38.0787 107.823 38.9224 105.408C39.0543 105.03 39.5357 104.811 39.9955 104.92C40.4562 105.028 40.7225 105.423 40.5902 105.801C39.7652 108.165 39.0955 110.595 38.6006 113.023C38.5299 113.371 38.162 113.618 37.7461 113.618ZM42.7603 99.2495C42.6501 99.2495 42.5374 99.2317 42.4289 99.195C41.986 99.0447 41.7757 98.628 41.9591 98.2647C43.1251 95.9497 44.468 93.655 45.9502 91.4448C46.1814 91.1003 46.7088 90.9745 47.1287 91.1644C47.5481 91.3543 47.7013 91.7874 47.4701 92.1322C46.0191 94.2962 44.7044 96.543 43.5628 98.8096C43.424 99.0835 43.1008 99.2495 42.7603 99.2495ZM112.535 87.7665C112.067 87.7665 111.681 87.4606 111.669 87.0738C111.656 86.6805 112.033 86.3531 112.512 86.3421C115.614 86.2723 118.555 85.8847 121.255 85.1912C121.713 85.0729 122.199 85.2827 122.342 85.6582C122.485 86.034 122.23 86.4337 121.773 86.5509C118.921 87.2843 115.821 87.6932 112.559 87.7665C112.551 87.7665 112.543 87.7665 112.535 87.7665ZM103.463 87.1425C103.409 87.1425 103.356 87.1386 103.301 87.1304C100.386 86.6802 97.3862 85.9913 94.3859 85.0815C93.9365 84.9455 93.7066 84.5358 93.8723 84.1668C94.0385 83.7977 94.5377 83.6086 94.9866 83.745C97.8963 84.6269 100.802 85.2948 103.622 85.7298C104.093 85.8024 104.403 86.175 104.315 86.5615C104.236 86.9038 103.872 87.1425 103.463 87.1425ZM51.537 86.1476C51.3648 86.1476 51.1909 86.1059 51.039 86.0183C50.6469 85.7921 50.5524 85.348 50.8278 85.026C52.5819 82.9742 54.4957 80.972 56.5157 79.0748C56.831 78.7788 57.3789 78.7486 57.7397 79.0075C58.1006 79.2668 58.1375 79.7167 57.8217 80.0127C55.842 81.8721 53.9665 83.8344 52.2475 85.8448C52.0788 86.0421 51.8103 86.1476 51.537 86.1476ZM129.561 83.1459C129.307 83.1459 129.055 83.0547 128.884 82.8794C128.584 82.5731 128.643 82.1246 129.017 81.8778C131.431 80.2859 133.201 78.3425 134.138 76.258C134.303 75.889 134.803 75.6991 135.252 75.8362C135.701 75.9723 135.931 76.3815 135.766 76.7509C134.721 79.0776 132.763 81.2349 130.104 82.9888C129.944 83.0943 129.752 83.1459 129.561 83.1459ZM86.3722 82.052C86.2351 82.052 86.0963 82.0253 85.9666 81.969C83.3532 80.8309 80.7008 79.5137 78.0826 78.054C77.6862 77.8331 77.5834 77.39 77.8523 77.0648C78.1221 76.7388 78.6613 76.654 79.0573 76.8756C81.6234 78.3065 84.2216 79.5967 86.7795 80.7109C87.2028 80.8954 87.3638 81.3264 87.1395 81.674C86.9838 81.9145 86.6832 82.052 86.3722 82.052ZM63.5265 74.884C63.2932 74.884 63.0607 74.8072 62.8898 74.6558C62.5644 74.3669 62.5853 73.9162 62.9366 73.6491C64.3168 72.599 65.7456 71.581 67.2074 70.6057C66.2041 69.7415 65.2512 68.8557 64.3567 67.9541C64.054 67.6492 64.1099 67.2003 64.4812 66.9517C64.8521 66.7038 65.3991 66.7487 65.7014 67.054C66.5997 67.9595 67.5583 68.8482 68.5703 69.7152C69.05 69.4081 69.5328 69.1057 70.0182 68.8083C70.402 68.5732 70.946 68.6377 71.2323 68.9536C71.519 69.2689 71.4396 69.7152 71.0557 69.9507C70.635 70.2086 70.216 70.47 69.7991 70.7353C70.4862 71.2889 71.1954 71.8318 71.9237 72.3629C72.282 72.624 72.3145 73.0746 71.9965 73.3688C71.679 73.6619 71.1303 73.6897 70.772 73.4286C69.967 72.8419 69.1849 72.2403 68.4289 71.6269C66.9519 72.6082 65.5088 73.6345 64.1156 74.6939C63.949 74.8214 63.7373 74.884 63.5265 74.884ZM135 69.8844C134.645 69.8844 134.312 69.7041 134.185 69.4142C133.274 67.3485 131.553 65.4564 129.069 63.7897C128.698 63.5407 128.643 63.0919 128.946 62.7874C129.249 62.4832 129.796 62.4379 130.166 62.6866C132.896 64.5182 134.797 66.6183 135.816 68.9294C135.979 69.2991 135.746 69.7077 135.296 69.842C135.198 69.8701 135.098 69.8844 135 69.8844ZM78.1368 65.9473C77.8388 65.9473 77.5495 65.8212 77.3877 65.5953C77.1453 65.2562 77.2836 64.8195 77.697 64.6207C80.3872 63.3242 83.1515 62.1654 85.9137 61.1763C86.3527 61.0192 86.8641 61.1837 87.0554 61.5442C87.2471 61.905 87.0463 62.3247 86.6069 62.4821C83.908 63.4489 81.2052 64.5819 78.5745 65.8493C78.437 65.9155 78.2856 65.9473 78.1368 65.9473ZM59.932 62.0173C59.6249 62.0173 59.3277 61.8833 59.1703 61.6468C57.673 59.4002 56.4489 57.0417 55.5328 54.6367C55.3896 54.2612 55.6443 53.8616 56.1019 53.7441C56.5595 53.6279 57.0457 53.8363 57.1889 54.2118C58.0711 56.5271 59.2497 58.7986 60.6923 60.9629C60.9222 61.308 60.7683 61.7408 60.3479 61.9296C60.2156 61.9891 60.0725 62.0173 59.932 62.0173ZM121.725 60.2509C121.618 60.2509 121.509 60.2341 121.403 60.1992C121.219 60.1387 121.033 60.0788 120.844 60.0193C118.38 59.2438 115.674 58.727 112.8 58.483C112.323 58.4427 111.977 58.0922 112.026 57.7011C112.076 57.31 112.501 57.0268 112.979 57.066C116.004 57.3232 118.859 57.8693 121.465 58.6896C121.661 58.7512 121.855 58.8139 122.048 58.8769C122.492 59.023 122.708 59.4376 122.53 59.8031C122.395 60.0813 122.069 60.2509 121.725 60.2509ZM94.8422 60.0082C94.4635 60.0082 94.1157 59.8031 94.0076 59.4893C93.8775 59.1106 94.1456 58.717 94.6067 58.6098C97.6825 57.8963 100.738 57.3991 103.688 57.1309C104.164 57.0885 104.593 57.3698 104.646 57.7609C104.699 58.152 104.355 58.504 103.879 58.5474C101.024 58.8067 98.0629 59.2891 95.0786 59.9812C94.9996 59.9994 94.9203 60.0082 94.8422 60.0082ZM54.5286 47.8118C54.0892 47.8118 53.7127 47.5386 53.6667 47.1721C53.5028 45.8588 53.4195 44.5176 53.4195 43.1851C53.4195 41.9857 53.4872 40.7647 53.6195 39.5557C53.6624 39.1635 54.0823 38.88 54.5612 38.9099C55.0383 38.9455 55.3905 39.2914 55.3476 39.6835C55.22 40.8501 55.155 42.0285 55.1545 43.1851C55.1545 44.4692 55.2348 45.7616 55.3927 47.0268C55.4413 47.4183 55.0947 47.768 54.618 47.8079C54.5881 47.8107 54.5581 47.8118 54.5286 47.8118ZM56.1066 32.9724C56.0312 32.9724 55.9548 32.9642 55.8785 32.9471C55.4161 32.8441 55.1433 32.4523 55.2686 32.0729C56.0594 29.6831 57.1112 27.2791 58.3947 24.9267C58.5912 24.5677 59.1048 24.4078 59.5411 24.5681C59.9784 24.7291 60.174 25.1505 59.9779 25.5099C58.7309 27.7942 57.7098 30.128 56.9429 32.4466C56.838 32.7636 56.4879 32.9724 56.1066 32.9724ZM63.4884 19.3333C63.3313 19.3333 63.1721 19.298 63.029 19.2247C62.623 19.0159 62.4998 18.5767 62.754 18.2429C64.3476 16.1513 66.1529 14.0792 68.1205 12.0841C68.4219 11.7785 68.9685 11.7315 69.3406 11.9787C69.7128 12.2263 69.7705 12.6751 69.4686 12.9807C67.5453 14.931 65.7812 16.9556 64.2245 18.9985C64.0601 19.2147 63.7772 19.3333 63.4884 19.3333ZM340.66 16.6942C340.527 16.6942 340.393 16.6692 340.267 16.6162C337.422 15.425 334.759 14.3225 332.126 13.2447C331.697 13.0691 331.522 12.6416 331.736 12.2889C331.95 11.9374 332.471 11.7938 332.9 11.9694C335.537 13.0487 338.205 14.1537 341.054 15.347C341.481 15.5255 341.651 15.9547 341.433 16.3048C341.28 16.5524 340.976 16.6942 340.66 16.6942ZM324.323 10.0125C324.197 10.0125 324.067 9.9897 323.946 9.94125C321.168 8.83559 318.401 7.75269 315.722 6.72254C315.288 6.55548 315.101 6.13163 315.304 5.77507C315.507 5.41886 316.024 5.26529 316.458 5.432C319.144 6.46499 321.917 7.55072 324.702 8.65923C325.133 8.83056 325.313 9.25698 325.105 9.61105C324.954 9.86467 324.645 10.0125 324.323 10.0125ZM74.9149 7.69462C74.6919 7.69462 74.469 7.62443 74.2994 7.48409C73.9619 7.20482 73.9641 6.75391 74.3037 6.47678C76.4369 4.73743 78.7393 3.03763 81.1476 1.42296C81.518 1.17468 82.065 1.21989 82.3682 1.52444C82.6714 1.829 82.6158 2.2778 82.2445 2.52679C79.8797 4.11154 77.6194 5.78073 75.526 7.4873C75.3569 7.62551 75.1361 7.69462 74.9149 7.69462ZM307.801 3.66384C307.682 3.66384 307.561 3.64353 307.445 3.60114C304.631 2.56138 301.826 1.54906 299.109 0.591579C298.669 0.436275 298.465 0.0177498 298.654 -0.344154C298.843 -0.705702 299.352 -0.873144 299.793 -0.717838C302.52 0.242846 305.334 1.25876 308.157 2.30173C308.594 2.46309 308.789 2.8852 308.592 3.24389C308.447 3.50784 308.131 3.66384 307.801 3.66384ZM89.0129 -1.78471C88.7349 -1.78471 88.462 -1.89405 88.2942 -2.09709C88.0252 -2.42266 88.1285 -2.86536 88.5249 -3.08656C91.0165 -4.47505 93.6433 -5.8144 96.3326 -7.06717C96.7495 -7.26165 97.2786 -7.14127 97.5155 -6.79932C97.7519 -6.457 97.6057 -6.02206 97.1889 -5.82793C94.5399 -4.59368 91.9529 -3.27471 89.4996 -1.90725C89.3499 -1.82425 89.1804 -1.78471 89.0129 -1.78471ZM291.034 -2.23814C290.925 -2.23814 290.815 -2.25522 290.708 -2.29084C287.859 -3.24155 285.01 -4.16413 282.239 -5.03256C281.792 -5.1729 281.567 -5.58469 281.738 -5.95194C281.909 -6.31954 282.411 -6.50407 282.858 -6.36337C285.64 -5.49138 288.501 -4.56524 291.361 -3.61026C291.805 -3.46208 292.019 -3.04667 291.838 -2.68227C291.701 -2.40621 291.377 -2.23814 291.034 -2.23814ZM273.99 -7.57799C273.894 -7.57799 273.796 -7.59152 273.7 -7.6193C270.821 -8.45959 267.924 -9.2728 265.088 -10.0351C264.633 -10.1576 264.385 -10.5598 264.534 -10.9334C264.683 -11.3078 265.173 -11.5123 265.628 -11.3887C268.477 -10.6225 271.388 -9.80606 274.281 -8.96185C274.732 -8.83006 274.968 -8.42258 274.807 -8.05177C274.681 -7.7604 274.347 -7.57799 273.99 -7.57799ZM104.857 -9.18413C104.532 -9.18413 104.221 -9.33446 104.073 -9.59199C103.867 -9.94748 104.053 -10.372 104.486 -10.5405C107.204 -11.5974 110.04 -12.6026 112.914 -13.5284C113.36 -13.6716 113.864 -13.4913 114.039 -13.1252C114.213 -12.759 113.994 -12.3454 113.548 -12.2015C110.71 -11.2882 107.911 -10.2954 105.228 -9.25283C105.108 -9.20617 104.981 -9.18413 104.857 -9.18413ZM256.654 -12.2353C256.572 -12.2353 256.489 -12.245 256.406 -12.2653C253.479 -12.9812 250.534 -13.6637 247.652 -14.2946C247.189 -14.3961 246.914 -14.7865 247.037 -15.1666C247.161 -15.547 247.637 -15.7725 248.099 -15.6713C250.997 -15.0369 253.959 -14.3501 256.901 -13.6306C257.36 -13.5184 257.622 -13.1216 257.485 -12.7447C257.373 -12.4355 257.028 -12.2353 256.654 -12.2353ZM121.825 -14.6608C121.458 -14.6608 121.117 -14.8538 120.999 -15.1562C120.853 -15.5309 121.104 -15.9321 121.56 -16.0521C124.423 -16.8058 127.389 -17.5065 130.375 -18.1352C130.839 -18.2338 131.312 -18.0034 131.431 -17.6219C131.55 -17.2411 131.27 -16.8528 130.806 -16.7549C127.853 -16.1336 124.92 -15.4408 122.09 -14.6956C122.002 -14.6718 121.912 -14.6608 121.825 -14.6608ZM239.029 -16.0895C238.963 -16.0895 238.897 -16.0956 238.831 -16.1084C235.876 -16.6762 232.886 -17.2091 229.946 -17.6917C229.476 -17.769 229.171 -18.1441 229.265 -18.5302C229.36 -18.916 229.817 -19.1646 230.287 -19.0887C233.245 -18.6029 236.253 -18.0668 239.226 -17.4955C239.693 -17.4057 239.983 -17.0227 239.873 -16.6395C239.779 -16.311 239.423 -16.0895 239.029 -16.0895ZM139.486 -18.3874C139.08 -18.3874 138.717 -18.6221 138.636 -18.9616C138.543 -19.3477 138.849 -19.7224 139.319 -19.7986C140.546 -19.9977 141.789 -20.1883 143.014 -20.3643C144.777 -20.6186 146.571 -20.8587 148.348 -21.0785C148.82 -21.1397 149.263 -20.869 149.334 -20.4801C149.406 -20.0911 149.08 -19.7281 148.606 -19.6697C146.843 -19.4517 145.062 -19.2134 143.313 -18.9612C142.101 -18.7867 140.87 -18.5983 139.655 -18.4013C139.598 -18.3917 139.542 -18.3874 139.486 -18.3874ZM221.146 -19.0211C221.1 -19.0211 221.052 -19.0242 221.005 -19.0303C218.012 -19.4349 214.987 -19.7987 212.014 -20.1118C211.539 -20.1616 211.202 -20.5186 211.264 -20.9086C211.325 -21.2994 211.76 -21.579 212.234 -21.5245C215.228 -21.2096 218.274 -20.8434 221.286 -20.4359C221.759 -20.3718 222.079 -20.0053 222.001 -19.617C221.931 -19.269 221.563 -19.0211 221.146 -19.0211ZM157.522 -20.6261C157.085 -20.6261 156.709 -20.8965 156.661 -21.2613C156.609 -21.6524 156.953 -22.0039 157.429 -22.0466C160.447 -22.3173 163.516 -22.5407 166.552 -22.7099C167.034 -22.7291 167.444 -22.4399 167.476 -22.0478C167.509 -21.6552 167.147 -21.3154 166.669 -21.2886C163.658 -21.1202 160.612 -20.8986 157.617 -20.6301C157.585 -20.6276 157.553 -20.6261 157.522 -20.6261ZM203.063 -20.9204C203.036 -20.9204 203.01 -20.9214 202.984 -20.9232C199.967 -21.148 196.917 -21.3268 193.918 -21.4554C193.439 -21.476 193.072 -21.8109 193.096 -22.2041C193.121 -22.5974 193.524 -22.9065 194.008 -22.8784C197.029 -22.749 200.102 -22.5685 203.141 -22.3427C203.618 -22.307 203.969 -21.9608 203.926 -21.5686C203.885 -21.1988 203.507 -20.9204 203.063 -20.9204ZM175.723 -21.6438C175.255 -21.6438 174.869 -21.9501 174.856 -22.3366C174.843 -22.7298 175.221 -23.0576 175.7 -23.0683C178.749 -23.1363 181.824 -23.1534 184.857 -23.1224C185.336 -23.1174 185.719 -22.7943 185.713 -22.4011C185.707 -22.0075 185.322 -21.6812 184.835 -21.6976C181.826 -21.7285 178.773 -21.7111 175.747 -21.6442C175.739 -21.6438 175.731 -21.6438 175.723 -21.6438Z" fill="#C1DCFB"/>
<path d="M412.603 117.533C412.595 117.533 412.587 117.534 412.579 117.533C412.1 117.523 411.722 117.195 411.735 116.802C411.774 115.616 411.736 114.383 411.624 113.137C411.589 112.745 411.948 112.403 412.426 112.374C412.904 112.344 413.32 112.64 413.355 113.032C413.471 114.325 413.51 115.606 413.47 116.84C413.457 117.227 413.071 117.533 412.603 117.533Z" fill="#4040D3"/>
<path d="M411.033 106.327C410.641 106.327 410.286 106.108 410.19 105.782C409.511 103.465 408.604 101.062 407.493 98.6411C407.324 98.2731 407.55 97.8618 407.999 97.7235C408.447 97.5839 408.948 97.7706 409.117 98.1389C410.253 100.615 411.182 103.074 411.877 105.449C411.989 105.831 411.702 106.216 411.237 106.308C411.168 106.321 411.1 106.327 411.033 106.327ZM404.617 92.1674C404.298 92.1674 403.99 92.0222 403.839 91.7714C402.531 89.6025 401.051 87.3872 399.439 85.1873C399.191 84.8503 399.324 84.4126 399.735 84.2095C400.145 84.0065 400.678 84.1151 400.925 84.4528C402.562 86.6865 404.066 88.9359 405.394 91.1391C405.606 91.4917 405.431 91.9191 405.001 92.0937C404.878 92.1439 404.746 92.1674 404.617 92.1674ZM395.15 79.1906C394.877 79.1906 394.608 79.0848 394.439 78.8871C392.73 76.8863 390.882 74.8584 388.946 72.8608C388.647 72.553 388.709 72.1049 389.084 71.8598C389.459 71.6148 390.004 71.6657 390.303 71.9735C392.261 73.9935 394.13 76.0446 395.859 78.0686C396.134 78.3906 396.039 78.8347 395.647 79.0609C395.496 79.1485 395.322 79.1906 395.15 79.1906ZM383.688 67.3371C383.449 67.3371 383.21 67.2563 383.039 67.0978C381.053 65.2601 378.947 63.4053 376.78 61.5855C376.445 61.3041 376.451 60.8532 376.793 60.5782C377.136 60.3028 377.685 60.3078 378.02 60.5892C380.206 62.4251 382.331 64.2966 384.337 66.1514C384.654 66.4456 384.622 66.8962 384.264 67.1573C384.099 67.278 383.893 67.3371 383.688 67.3371ZM370.809 56.5057C370.597 56.5057 370.384 56.4419 370.216 56.3133C368.022 54.6245 365.723 52.9276 363.386 51.2695C363.024 51.0119 362.984 50.5624 363.297 50.2646C363.611 49.9668 364.158 49.9344 364.521 50.1912C366.875 51.8618 369.191 53.572 371.402 55.2735C371.752 55.5428 371.77 55.9935 371.442 56.2806C371.272 56.4302 371.041 56.5057 370.809 56.5057ZM356.865 46.5996C356.675 46.5996 356.484 46.5483 356.323 46.4432C353.973 44.8966 351.527 43.3436 349.053 41.8265C348.669 41.5914 348.59 41.1447 348.877 40.8294C349.163 40.5135 349.707 40.4494 350.091 40.6848C352.581 42.2111 355.043 43.7749 357.408 45.3316C357.782 45.5773 357.842 46.0258 357.543 46.3332C357.371 46.5088 357.119 46.5996 356.865 46.5996ZM342.093 37.5378C341.922 37.5378 341.749 37.4965 341.598 37.4099C339.122 35.9922 336.558 34.5706 333.978 33.1853C333.577 32.9701 333.464 32.5284 333.726 32.1993C333.988 31.8695 334.525 31.7776 334.927 31.9928C337.523 33.3855 340.101 34.8153 342.591 36.2412C342.984 36.4663 343.08 36.9105 342.806 37.2332C342.637 37.4313 342.367 37.5378 342.093 37.5378ZM326.661 29.2504C326.506 29.2504 326.349 29.2165 326.208 29.1452C323.631 27.8465 320.971 26.5467 318.304 25.2825C317.889 25.0856 317.747 24.6503 317.987 24.3094C318.226 23.9685 318.757 23.8521 319.172 24.0487C321.852 25.3193 324.525 26.6255 327.115 27.9306C327.523 28.1365 327.651 28.5753 327.401 28.9105C327.237 29.1296 326.953 29.2504 326.661 29.2504ZM310.693 21.6778C310.553 21.6778 310.411 21.6499 310.279 21.5912C307.614 20.4011 304.876 19.2143 302.144 18.0644C301.718 17.8849 301.549 17.4554 301.767 17.1056C301.986 16.7554 302.509 16.6172 302.935 16.7963C305.68 17.9522 308.43 19.1444 311.108 20.3398C311.529 20.5276 311.685 20.9604 311.455 21.3059C311.298 21.5432 311 21.6778 310.693 21.6778ZM294.285 14.7663C294.158 14.7663 294.03 14.7439 293.908 14.6954C291.177 13.6104 288.376 12.5287 285.58 11.4807C285.145 11.3172 284.953 10.8944 285.152 10.5367C285.351 10.1788 285.866 10.0209 286.301 10.1848C289.108 11.2374 291.921 12.3238 294.663 13.4131C295.094 13.5844 295.275 14.0108 295.066 14.3649C294.917 14.6185 294.607 14.7663 294.285 14.7663ZM277.513 8.47222C277.398 8.47222 277.282 8.45332 277.17 8.41343C274.382 7.42603 271.527 6.44219 268.683 5.4897C268.24 5.34116 268.026 4.92548 268.207 4.56144C268.388 4.19705 268.894 4.02138 269.338 4.17063C272.192 5.12632 275.058 6.11373 277.857 7.1054C278.297 7.26142 278.499 7.68038 278.31 8.04157C278.169 8.31086 277.849 8.47222 277.513 8.47222ZM260.439 2.75294C260.335 2.75294 260.23 2.73726 260.127 2.70485C257.29 1.80721 254.389 0.915323 251.507 0.0536642C251.057 -0.0806255 250.825 -0.489544 250.989 -0.859284C251.153 -1.22867 251.651 -1.4207 252.101 -1.28463C254.993 -0.420116 257.903 0.474668 260.751 1.37586C261.198 1.51692 261.42 1.92975 261.248 2.29664C261.116 2.57911 260.787 2.75294 260.439 2.75294ZM243.111 -2.42872C243.017 -2.42872 242.922 -2.44124 242.829 -2.4676C239.949 -3.28046 237.011 -4.08649 234.098 -4.86302C233.642 -4.98448 233.392 -5.38629 233.54 -5.76066C233.688 -6.13503 234.178 -6.33911 234.633 -6.21835C237.557 -5.43933 240.504 -4.6308 243.393 -3.81545C243.846 -3.68757 244.087 -3.28222 243.932 -2.90998C243.808 -2.61469 243.471 -2.42872 243.111 -2.42872ZM225.571 -7.10495C225.487 -7.10495 225.401 -7.11532 225.317 -7.13669C222.392 -7.87154 219.423 -8.59681 216.491 -9.29105C216.031 -9.40041 215.766 -9.79501 215.898 -10.1733C216.031 -10.5516 216.513 -10.7679 216.972 -10.6603C219.912 -9.96356 222.891 -9.2365 225.824 -8.49916C226.282 -8.3841 226.54 -7.98584 226.4 -7.60969C226.286 -7.30264 225.942 -7.10495 225.571 -7.10495ZM207.853 -11.3064C207.777 -11.3064 207.701 -11.3142 207.625 -11.3313C204.695 -11.9853 201.699 -12.634 198.72 -13.2598C198.256 -13.3571 197.976 -13.7454 198.095 -14.1265C198.213 -14.5077 198.685 -14.7388 199.15 -14.6401C202.138 -14.0125 205.142 -13.3617 208.08 -12.706C208.542 -12.603 208.815 -12.2112 208.69 -11.8318C208.584 -11.5148 208.234 -11.3064 207.853 -11.3064Z" fill="#4040D3"/>
<path d="M146.887 200.215C146.767 200.215 146.645 200.194 146.528 200.151C143.684 199.089 140.936 197.894 138.361 196.6C137.952 196.395 137.824 195.956 138.073 195.621C138.323 195.285 138.857 195.18 139.266 195.385C141.782 196.648 144.467 197.815 147.247 198.854C147.682 199.017 147.875 199.439 147.677 199.797C147.532 200.06 147.217 200.215 146.887 200.215ZM131.364 192.37C131.17 192.37 130.975 192.317 130.814 192.208C128.378 190.566 126.132 188.792 124.135 186.936C123.818 186.641 123.852 186.191 124.211 185.93C124.57 185.67 125.118 185.698 125.435 185.993C127.371 187.793 129.55 189.513 131.914 191.107C132.285 191.357 132.339 191.806 132.034 192.11C131.863 192.282 131.614 192.37 131.364 192.37ZM119.375 181.147C119.081 181.147 118.795 181.025 118.632 180.803C117.03 178.63 115.668 176.323 114.587 173.946C114.419 173.577 114.647 173.167 115.096 173.029C115.544 172.891 116.045 173.079 116.212 173.447C117.256 175.742 118.569 177.968 120.116 180.066C120.364 180.402 120.233 180.84 119.823 181.044C119.683 181.114 119.528 181.147 119.375 181.147ZM112.998 167.188C112.586 167.188 112.22 166.946 112.145 166.601C111.613 164.173 111.313 161.628 111.254 159.036C111.245 158.643 111.626 158.318 112.105 158.31C112.111 158.31 112.116 158.31 112.122 158.31C112.593 158.31 112.98 158.621 112.989 159.01C113.046 161.526 113.337 163.996 113.852 166.349C113.937 166.736 113.624 167.106 113.152 167.176C113.101 167.184 113.049 167.188 112.998 167.188ZM112.582 152.248C112.549 152.248 112.515 152.247 112.482 152.243C112.005 152.198 111.664 151.844 111.719 151.453C112.06 149.038 112.592 146.526 113.3 143.99C113.407 143.607 113.872 143.365 114.339 143.455C114.807 143.542 115.098 143.925 114.991 144.308C114.297 146.794 113.776 149.253 113.443 151.618C113.392 151.981 113.017 152.248 112.582 152.248ZM116.596 137.639C116.506 137.639 116.416 137.628 116.327 137.603C115.871 137.482 115.622 137.079 115.771 136.705C116.441 135.016 117.197 133.278 118.017 131.541C118.321 130.895 118.628 130.256 118.938 129.621C119.116 129.256 119.622 129.079 120.065 129.225C120.51 129.372 120.726 129.786 120.548 130.152C120.241 130.781 119.937 131.415 119.635 132.056C118.826 133.769 118.081 135.482 117.421 137.147C117.301 137.448 116.961 137.639 116.596 137.639ZM123.306 123.703C123.187 123.703 123.066 123.683 122.951 123.64C122.514 123.478 122.319 123.057 122.515 122.698C123.77 120.405 125.094 118.119 126.451 115.905C126.666 115.554 127.187 115.412 127.616 115.588C128.044 115.765 128.216 116.193 128.001 116.545C126.656 118.741 125.343 121.008 124.098 123.282C123.953 123.547 123.637 123.703 123.306 123.703ZM131.507 110.324C131.363 110.324 131.217 110.294 131.083 110.232C130.665 110.04 130.516 109.605 130.751 109.262C132.24 107.083 133.81 104.904 135.417 102.787C135.67 102.452 136.205 102.351 136.612 102.559C137.018 102.767 137.143 103.206 136.889 103.54C135.296 105.639 133.74 107.799 132.264 109.959C132.105 110.193 131.81 110.324 131.507 110.324ZM141.155 97.6105C140.986 97.6105 140.814 97.5699 140.664 97.4848C140.27 97.2614 140.17 96.818 140.442 96.4938C142.151 94.4556 143.956 92.4035 145.806 90.3938C146.095 90.0797 146.639 90.0177 147.021 90.2549C147.404 90.4922 147.479 90.9392 147.19 91.253C145.356 93.246 143.566 95.2813 141.871 97.3021C141.702 97.503 141.431 97.6105 141.155 97.6105ZM152.151 85.6539C151.957 85.6539 151.762 85.6008 151.601 85.4918C151.23 85.2421 151.177 84.7929 151.481 84.4891C153.355 82.6172 155.355 80.6926 157.425 78.7677C157.741 78.4728 158.29 78.445 158.649 78.7053C159.008 78.9657 159.042 79.416 158.725 79.7109C156.669 81.6227 154.682 83.5348 152.822 85.3938C152.65 85.5652 152.402 85.6539 152.151 85.6539ZM164.216 74.4056C164.004 74.4056 163.791 74.3422 163.624 74.214C163.273 73.9454 163.255 73.4944 163.582 73.207C165.479 71.5385 167.482 69.8106 169.887 67.7682C170.221 67.4857 170.77 67.4778 171.114 67.7514C171.458 68.0249 171.467 68.4758 171.135 68.7587C168.737 70.7947 166.74 72.517 164.85 74.1794C164.679 74.3297 164.448 74.4056 164.216 74.4056ZM176.88 63.604C176.661 63.604 176.443 63.5368 176.274 63.4018C175.931 63.1271 175.924 62.6758 176.259 62.3944C178.198 60.7626 180.447 58.8669 182.601 57.0129C182.932 56.7279 183.481 56.7176 183.828 56.9894C184.175 57.2612 184.188 57.7121 183.857 57.9967C181.696 59.8561 179.443 61.7553 177.501 63.3896C177.331 63.5324 177.106 63.604 176.88 63.604ZM189.442 52.726C189.235 52.726 189.028 52.6657 188.863 52.5432C188.507 52.2803 188.477 51.8297 188.797 51.5373C190.986 49.5368 192.918 47.6846 194.704 45.8744C195.005 45.5687 195.551 45.5218 195.924 45.769C196.296 46.0165 196.354 46.4653 196.052 46.771C194.248 48.6004 192.297 50.4712 190.088 52.4898C189.916 52.6462 189.679 52.726 189.442 52.726ZM200.864 41.0549C200.693 41.0549 200.521 41.0136 200.37 40.9278C199.977 40.703 199.879 40.2592 200.153 39.9361C201.918 37.8498 203.537 35.7386 204.964 33.6619C205.199 33.3192 205.729 33.1985 206.146 33.3912C206.564 33.5846 206.711 34.0191 206.475 34.3618C205.022 36.4773 203.375 38.6267 201.578 40.7497C201.409 40.9481 201.139 41.0549 200.864 41.0549ZM178.259 36.4781C175.222 36.4781 172.254 36.2575 169.439 35.823C168.969 35.7503 168.659 35.3777 168.747 34.9912C168.836 34.6044 169.288 34.3497 169.76 34.4224C172.47 34.841 175.329 35.0533 178.259 35.0533L178.678 35.0518C178.681 35.0518 178.684 35.0518 178.687 35.0518C179.162 35.0518 179.55 35.3666 179.554 35.7577C179.559 36.151 179.174 36.473 178.695 36.4766L178.259 36.4781ZM187.772 35.8051C187.356 35.8051 186.988 35.5587 186.918 35.2103C186.839 34.822 187.158 34.4548 187.63 34.39C190.481 33.9985 193.435 33.4286 196.411 32.6944C196.872 32.5829 197.354 32.7953 197.492 33.1721C197.63 33.549 197.369 33.9462 196.911 34.0594C193.865 34.81 190.839 35.3941 187.917 35.7952C187.868 35.802 187.819 35.8051 187.772 35.8051ZM160.883 33.648C160.767 33.648 160.649 33.6284 160.536 33.5882C159.65 33.2704 158.77 32.9238 157.922 32.5573C155.999 31.727 154.156 30.8151 152.445 29.8469C152.05 29.6236 151.951 29.1801 152.223 28.8559C152.494 28.5325 153.035 28.4502 153.429 28.6732C155.085 29.6097 156.868 30.492 158.729 31.296C159.541 31.6465 160.382 31.9781 161.23 32.2823C161.67 32.4394 161.87 32.8597 161.679 33.2202C161.536 33.4881 161.217 33.648 160.883 33.648ZM205.256 31.5535C204.916 31.5535 204.593 31.3882 204.455 31.115C204.27 30.7517 204.479 30.3349 204.922 30.1835C207.628 29.2567 210.385 28.1923 213.115 27.019C213.539 26.8377 214.064 26.9713 214.285 27.32C214.507 27.6687 214.343 28.0994 213.919 28.2818C211.144 29.474 208.342 30.5564 205.589 31.4983C205.48 31.5357 205.367 31.5535 205.256 31.5535ZM209.769 28.026C209.654 28.026 209.538 28.0071 209.426 27.9676C208.986 27.8119 208.783 27.3931 208.973 27.0315C210.155 24.7764 211.196 22.4397 212.067 20.0859C212.206 19.7097 212.69 19.4978 213.149 19.6114C213.608 19.7257 213.866 20.1236 213.727 20.5004C212.837 22.9045 211.774 25.2915 210.566 27.595C210.425 27.8647 210.105 28.026 209.769 28.026ZM145.967 25.1479C145.74 25.1479 145.513 25.0752 145.343 24.9306C143.17 23.0836 141.251 21.0536 139.64 18.8965C139.389 18.5613 139.517 18.1224 139.926 17.9166C140.334 17.711 140.868 17.8161 141.118 18.1513C142.664 20.2205 144.505 22.1683 146.591 23.9407C146.924 24.2236 146.914 24.6748 146.57 24.948C146.402 25.0813 146.184 25.1479 145.967 25.1479ZM221.44 24.6275C221.151 24.6275 220.868 24.5089 220.704 24.293C220.45 23.9593 220.573 23.5197 220.979 23.3113C223.512 22.0101 226.043 20.6045 228.5 19.1334C228.887 18.9018 229.43 18.9716 229.712 19.2894C229.994 19.6071 229.909 20.0531 229.522 20.2846C227.031 21.7757 224.466 23.2001 221.899 24.5188C221.756 24.5925 221.597 24.6275 221.44 24.6275ZM236.207 15.7961C235.96 15.7961 235.714 15.7095 235.542 15.5417C235.234 15.2404 235.282 14.7913 235.649 14.5384C237.982 12.929 240.25 11.2506 242.39 9.54828C242.734 9.27507 243.284 9.28145 243.617 9.56428C243.951 9.84711 243.942 10.2981 243.597 10.5717C241.428 12.2971 239.129 13.9987 236.764 15.6291C236.602 15.7416 236.404 15.7961 236.207 15.7961ZM215.072 13.7479C215.018 13.7479 214.963 13.7436 214.908 13.7354C214.438 13.6613 214.129 13.2884 214.219 12.902C214.769 10.5396 215.192 8.07182 215.479 5.56663C215.523 5.17445 215.95 4.88764 216.423 4.92362C216.9 4.96066 217.25 5.30769 217.206 5.69951C216.914 8.24958 216.483 10.7629 215.923 13.1691C215.844 13.5107 215.48 13.7479 215.072 13.7479ZM136.488 12.4677C136.129 12.4677 135.793 12.2828 135.669 11.9886C134.675 9.63869 133.95 7.1428 133.512 4.56993C133.446 4.18025 133.777 3.82045 134.252 3.76595C134.727 3.70861 135.165 3.98328 135.231 4.37296C135.653 6.85428 136.351 9.25934 137.308 11.5209C137.465 11.8928 137.226 12.2989 136.773 12.4278C136.678 12.4549 136.583 12.4677 136.488 12.4677ZM249.307 5.34861C249.104 5.34861 248.899 5.28984 248.734 5.17051C248.374 4.91048 248.34 4.46023 248.657 4.16529C249.719 3.17576 250.747 2.1723 251.712 1.18312C252.631 0.239895 253.535 -0.691212 254.423 -1.60772C254.722 -1.91513 255.267 -1.96716 255.642 -1.72173C256.017 -1.47667 256.08 -1.02855 255.781 -0.720432C254.892 0.197151 253.987 1.12897 253.066 2.07398C252.084 3.08097 251.039 4.10153 249.958 5.10781C249.787 5.26703 249.547 5.34861 249.307 5.34861ZM216.813 -1.13073C216.81 -1.13073 216.806 -1.13073 216.803 -1.13073C216.324 -1.13536 215.94 -1.45815 215.945 -1.8514C215.951 -2.24785 215.954 -2.6471 215.954 -3.04854C215.954 -5.07036 215.879 -7.17307 215.732 -9.29926C215.705 -9.69215 216.071 -10.0284 216.549 -10.0508C217.024 -10.0693 217.437 -9.77295 217.464 -9.3797C217.614 -7.2268 217.689 -5.09708 217.689 -3.04854C217.689 -2.6414 217.686 -2.23677 217.68 -1.83461C217.675 -1.44421 217.288 -1.13073 216.813 -1.13073ZM133.897 -2.29979C133.888 -2.29979 133.879 -2.29977 133.87 -2.30013C133.391 -2.31189 133.015 -2.64033 133.029 -3.03394C133.12 -5.50243 133.444 -8.04504 133.993 -10.5912C134.077 -10.9784 134.529 -11.2349 134.999 -11.1686C135.471 -11.0999 135.785 -10.7305 135.702 -10.3429C135.168 -7.86444 134.852 -5.39099 134.764 -2.99089C134.749 -2.60476 134.364 -2.29979 133.897 -2.29979ZM260.763 -6.33987C260.576 -6.33987 260.387 -6.38939 260.229 -6.49162C259.851 -6.73455 259.786 -7.18233 260.081 -7.49223C261.952 -9.45064 263.838 -11.4411 265.689 -13.4077C265.982 -13.719 266.527 -13.777 266.906 -13.5355C267.285 -13.2951 267.355 -12.8477 267.062 -12.5364C265.209 -10.5666 263.319 -8.57368 261.446 -6.61242C261.275 -6.43324 261.021 -6.33987 260.763 -6.33987ZM215.81 -16.0996C215.375 -16.0996 215 -16.3674 214.949 -16.7308L214.885 -17.1849C214.549 -19.5309 213.993 -21.812 213.235 -23.9642C213.102 -24.3421 213.367 -24.7371 213.828 -24.8465C214.287 -24.9562 214.769 -24.7382 214.902 -24.3603C215.687 -22.1333 216.261 -19.7752 216.608 -17.3516L216.674 -16.8928C216.728 -16.5017 216.386 -16.1487 215.91 -16.1038C215.876 -16.101 215.842 -16.0996 215.81 -16.0996ZM137.022 -17.0353C136.937 -17.0353 136.849 -17.046 136.763 -17.0684C136.305 -17.186 136.051 -17.5856 136.194 -17.961C137.105 -20.348 138.21 -22.7328 139.479 -25.0481C139.675 -25.4071 140.189 -25.5664 140.626 -25.4058C141.063 -25.2441 141.258 -24.8223 141.061 -24.4636C139.821 -22.1996 138.74 -19.8685 137.85 -17.5354C137.734 -17.2304 137.392 -17.0353 137.022 -17.0353ZM271.936 -18.2122C271.753 -18.2122 271.568 -18.2596 271.411 -18.3575C271.03 -18.5962 270.956 -19.0428 271.246 -19.3559C273.128 -21.386 274.978 -23.3989 276.747 -25.3392C277.034 -25.6544 277.578 -25.7177 277.961 -25.4826C278.344 -25.2468 278.423 -24.8002 278.135 -24.4853C276.364 -22.5419 274.511 -20.5258 272.626 -18.4933C272.456 -18.3087 272.197 -18.2122 271.936 -18.2122ZM210.685 -30.4008C210.373 -30.4008 210.071 -30.5394 209.916 -30.782C208.514 -32.9751 206.834 -35.0172 204.925 -36.8509C204.613 -37.1501 204.656 -37.6 205.02 -37.8554C205.384 -38.1108 205.932 -38.0763 206.243 -37.7767C208.237 -35.8621 209.99 -33.7317 211.452 -31.4441C211.675 -31.0957 211.511 -30.6651 211.087 -30.4824C210.959 -30.4268 210.821 -30.4008 210.685 -30.4008ZM144.498 -30.6882C144.346 -30.6882 144.192 -30.721 144.053 -30.7898C143.642 -30.9921 143.509 -31.4299 143.755 -31.7672C145.361 -33.9632 147.119 -36.0641 148.982 -38.0111L149.05 -38.0745C149.344 -38.3228 149.822 -38.3641 150.175 -38.1568C150.565 -37.9281 150.655 -37.4832 150.377 -37.1633C150.366 -37.1508 150.354 -37.138 150.341 -37.1256C148.525 -35.2266 146.809 -33.177 145.243 -31.0337C145.08 -30.8115 144.793 -30.6882 144.498 -30.6882ZM198.893 -41.6797C198.716 -41.6797 198.538 -41.7238 198.385 -41.8154C195.972 -43.2519 193.353 -44.4481 190.6 -45.3699C190.156 -45.5185 189.943 -45.9341 190.124 -46.2982C190.305 -46.6622 190.811 -46.8393 191.255 -46.689C194.136 -45.7244 196.877 -44.4726 199.403 -42.9691C199.791 -42.7383 199.877 -42.293 199.596 -41.9742C199.426 -41.7815 199.161 -41.6797 198.893 -41.6797ZM156.192 -42.0857C155.927 -42.0857 155.665 -42.1851 155.495 -42.3739C155.209 -42.6899 155.29 -43.1361 155.674 -43.3705C158.179 -44.8969 160.932 -46.1397 163.858 -47.0644C164.305 -47.2055 164.807 -47.0227 164.979 -46.6559C165.151 -46.2886 164.928 -45.8765 164.481 -45.7351C161.702 -44.8563 159.087 -43.6762 156.709 -42.2261C156.553 -42.1313 156.372 -42.0857 156.192 -42.0857ZM182.135 -47.2838C182.094 -47.2838 182.052 -47.2863 182.009 -47.2913C179.059 -47.6425 176.038 -47.6927 173.117 -47.4366C172.64 -47.4003 172.214 -47.6789 172.163 -48.0696C172.112 -48.4611 172.457 -48.8119 172.934 -48.8533C175.997 -49.1215 179.165 -49.0698 182.259 -48.7012C182.733 -48.6449 183.062 -48.2829 182.993 -47.8936C182.93 -47.5392 182.559 -47.2838 182.135 -47.2838Z" fill="#00AEFF"/>
<path d="M93.2784 109.699C93.1674 109.699 93.0542 109.682 92.9453 109.644C92.5029 109.493 92.2938 109.076 92.4781 108.713C92.5042 108.661 93.1331 107.426 94.4309 105.284C94.6439 104.931 95.1653 104.789 95.5938 104.963C96.0228 105.138 96.1976 105.566 95.9842 105.918C94.7159 108.013 94.0861 109.249 94.0796 109.261C93.9408 109.534 93.6181 109.699 93.2784 109.699Z" fill="#7374F1"/>
<path d="M315.686 128.143C315.303 128.143 314.953 127.933 314.849 127.615C314.077 125.243 313.234 122.865 312.345 120.548C312.201 120.173 312.455 119.773 312.912 119.655C313.368 119.536 313.856 119.744 314 120.12C314.897 122.457 315.746 124.855 316.525 127.247C316.649 127.627 316.374 128.017 315.911 128.119C315.836 128.136 315.761 128.143 315.686 128.143ZM310.273 114.05C309.919 114.05 309.587 113.871 309.458 113.583C308.43 111.276 307.328 108.973 306.181 106.735C305.995 106.373 306.202 105.955 306.643 105.802C307.086 105.65 307.594 105.82 307.78 106.182C308.937 108.44 310.049 110.765 311.087 113.092C311.252 113.462 311.021 113.871 310.571 114.006C310.472 114.036 310.372 114.05 310.273 114.05ZM303.287 100.431C302.964 100.431 302.654 100.283 302.505 100.028C301.207 97.8084 299.833 95.6063 298.422 93.483C298.193 93.1374 298.347 92.7046 298.768 92.5162C299.188 92.3277 299.715 92.4557 299.945 92.8005C301.37 94.9452 302.757 97.1693 304.068 99.4105C304.276 99.7653 304.094 100.191 303.662 100.361C303.541 100.409 303.414 100.431 303.287 100.431ZM99.481 99.8112C99.3335 99.8112 99.1834 99.7802 99.0468 99.7151C98.6321 99.5174 98.4912 99.0818 98.7315 98.7416C100.223 96.6293 101.824 94.5013 103.491 92.4157C103.753 92.087 104.292 91.9947 104.692 92.2113C105.093 92.4268 105.204 92.8688 104.941 93.198C103.292 95.2615 101.708 97.367 100.232 99.4562C100.071 99.6841 99.7803 99.8112 99.481 99.8112ZM294.66 87.4656C294.37 87.4656 294.086 87.3459 293.922 87.1282C292.342 85.032 290.684 82.9681 288.995 80.9937C288.72 80.6721 288.814 80.2275 289.206 80.0013C289.599 79.7754 290.139 79.8528 290.415 80.1748C292.123 82.1713 293.799 84.2587 295.397 86.3781C295.649 86.7126 295.524 87.1517 295.116 87.3587C294.974 87.431 294.817 87.4656 294.66 87.4656ZM109.357 87.4485C109.179 87.4485 108.999 87.4032 108.843 87.3096C108.458 87.0766 108.375 86.6307 108.659 86.3136C110.449 84.3168 112.321 82.3437 114.221 80.4501C114.526 80.1466 115.072 80.1032 115.442 80.3536C115.812 80.6036 115.865 81.0529 115.56 81.3563C113.68 83.23 111.828 85.1819 110.056 87.1578C109.886 87.348 109.624 87.4485 109.357 87.4485ZM120.81 76.0449C120.599 76.0449 120.388 75.9822 120.221 75.8558C119.869 75.589 119.848 75.1381 120.173 74.8492C122.23 73.0204 124.362 71.2344 126.509 69.5399C126.854 69.2678 127.404 69.2763 127.736 69.5602C128.068 69.8441 128.057 70.2951 127.712 70.5676C125.589 72.2425 123.482 74.0082 121.447 75.8163C121.276 75.9684 121.043 76.0449 120.81 76.0449ZM284.31 75.3828C284.055 75.3828 283.803 75.2913 283.632 75.1153C281.757 73.1893 279.803 71.3113 277.824 69.5342C277.501 69.2442 277.525 68.7933 277.878 68.5279C278.231 68.2619 278.781 68.2821 279.104 68.5728C281.109 70.3731 283.089 72.2753 284.987 74.2255C285.286 74.5329 285.225 74.981 284.851 75.2271C284.691 75.3318 284.5 75.3828 284.31 75.3828ZM133.79 65.8112C133.544 65.8112 133.299 65.7257 133.128 65.5593C132.818 65.2594 132.863 64.8099 133.228 64.5556C135.539 62.9466 137.926 61.3914 140.322 59.9324C140.707 59.6984 141.25 59.7639 141.536 60.0803C141.822 60.3966 141.74 60.8428 141.356 61.0769C138.989 62.5174 136.632 64.0533 134.35 65.642C134.187 65.7556 133.988 65.8112 133.79 65.8112ZM272.161 64.4936C271.947 64.4936 271.732 64.4287 271.565 64.298C269.387 62.6028 267.129 60.975 264.855 59.4597C264.483 59.2121 264.426 58.7633 264.728 58.4577C265.03 58.1521 265.576 58.1054 265.948 58.3533C268.257 59.8911 270.548 61.5435 272.758 63.264C273.106 63.5347 273.12 63.9853 272.791 64.271C272.621 64.4191 272.391 64.4936 272.161 64.4936ZM148.247 57.0215C147.961 57.0215 147.681 56.9057 147.515 56.6931C147.257 56.3615 147.375 55.9208 147.779 55.7088C150.329 54.3688 152.953 53.0954 155.578 51.9242C155.999 51.7357 156.526 51.8643 156.755 52.2098C156.983 52.5557 156.827 52.9882 156.407 53.1759C153.818 54.3315 151.229 55.5874 148.714 56.9089C148.569 56.9855 148.407 57.0215 148.247 57.0215ZM258.19 55.2037C258.022 55.2037 257.852 55.1639 257.702 55.0798C255.227 53.6928 252.677 52.3947 250.123 51.2218C249.705 51.0298 249.556 50.5956 249.79 50.2522C250.024 49.9088 250.552 49.7863 250.971 49.9783C253.568 51.1719 256.162 52.492 258.68 53.9026C259.076 54.1245 259.177 54.5676 258.907 54.8924C258.74 55.0947 258.468 55.2037 258.19 55.2037ZM164.05 49.9757C163.72 49.9757 163.404 49.8197 163.259 49.5561C163.062 49.1974 163.256 48.7757 163.693 48.6136C166.439 47.5959 169.262 46.6517 172.085 45.8078C172.535 45.6717 173.033 45.8638 173.197 46.2332C173.361 46.6029 173.129 47.0118 172.678 47.1461C169.896 47.9782 167.113 48.9086 164.407 49.9123C164.291 49.9551 164.17 49.9757 164.05 49.9757ZM242.504 48.0138C242.387 48.0138 242.268 47.9938 242.154 47.9529C239.43 46.9658 236.633 46.0845 233.841 45.3344C233.385 45.2122 233.137 44.8097 233.286 44.436C233.435 44.0624 233.924 43.8573 234.381 43.9809C237.227 44.7453 240.077 45.6433 242.855 46.6492C243.293 46.8081 243.492 47.2287 243.298 47.5888C243.155 47.8553 242.837 48.0138 242.504 48.0138ZM180.944 44.9273C180.564 44.9273 180.216 44.7213 180.109 44.4068C179.979 44.0282 180.248 43.6346 180.71 43.5285C182.168 43.1929 183.656 42.8748 185.133 42.5838C186.596 42.2953 188.076 42.0324 189.532 41.8022C190.003 41.7271 190.458 41.9811 190.548 42.3673C190.639 42.7534 190.331 43.1271 189.86 43.2015C188.43 43.428 186.975 43.6859 185.538 43.969C184.082 44.2565 182.615 44.57 181.179 44.9005C181.1 44.9187 181.021 44.9273 180.944 44.9273ZM225.435 43.4366C225.374 43.4366 225.312 43.4312 225.251 43.4206C222.36 42.9062 219.405 42.5111 216.468 42.2468C215.992 42.2041 215.648 41.8522 215.7 41.4611C215.752 41.07 216.181 40.7872 216.657 40.8303C219.654 41.1003 222.668 41.5031 225.618 42.0274C226.086 42.1108 226.383 42.4902 226.282 42.8749C226.194 43.2086 225.834 43.4366 225.435 43.4366ZM198.601 42.1603C198.159 42.1603 197.781 41.8842 197.738 41.5152C197.693 41.1234 198.042 40.7757 198.519 40.7383C201.373 40.5153 204.256 40.4024 207.087 40.4024L207.593 40.4034C208.072 40.4056 208.458 40.7258 208.456 41.1194C208.453 41.5119 208.066 41.8283 207.589 41.8283C207.587 41.8283 207.585 41.8283 207.584 41.8283L207.087 41.8272C204.311 41.8272 201.483 41.9384 198.684 42.1571C198.656 42.1592 198.628 42.1603 198.601 42.1603Z" fill="#7374F1"/>
<path d="M318.771 139.027C318.365 139.027 318.003 138.792 317.921 138.453C317.627 137.242 317.313 136.015 316.988 134.807C316.884 134.422 317.179 134.042 317.647 133.957C318.117 133.872 318.578 134.114 318.681 134.498C319.01 135.717 319.327 136.955 319.623 138.175C319.716 138.561 319.411 138.936 318.941 139.013C318.884 139.022 318.827 139.027 318.771 139.027Z" fill="#7374F1"/>
<path d="M424.613 131.784C421.854 146.855 416.398 163.162 411.613 174.582C401.776 198.084 379.949 234.844 379.949 234.844L355.159 232.397L342.646 231.165L343.873 229.434L354.765 214.067C356.721 203.121 359.74 189.503 363.626 175.383C374.722 135.057 392.87 90.6244 413.409 92.5906C427.185 93.9086 428.278 111.758 424.613 131.784Z" fill="white"/>
<path d="M424.612 131.784C421.853 146.855 416.397 163.162 411.612 174.582C401.775 198.084 379.948 234.844 379.948 234.844L355.158 232.397L343.872 229.434L354.764 214.067C356.72 203.121 359.739 189.503 363.625 175.383C378.213 174.583 403.371 162.298 424.612 131.784Z" fill="#F1F1F6"/>
<path d="M371.275 219.054C371.22 219.054 371.166 219.05 371.111 219.041C370.641 218.967 370.332 218.594 370.422 218.208C382.156 167.756 400.065 127.311 400.244 126.908C400.409 126.538 400.908 126.349 401.357 126.484C401.807 126.62 402.038 127.028 401.873 127.398C401.694 127.8 383.832 168.142 372.126 218.475C372.046 218.816 371.682 219.054 371.275 219.054Z" fill="#00AEFF"/>
<path d="M164.08 191.947C164.075 192.164 164.067 192.385 164.054 192.602C164.058 192.613 164.054 192.624 164.054 192.638C164.045 192.852 164.032 193.069 164.019 193.283C164.002 193.539 163.98 193.795 163.958 194.048C163.932 194.33 163.906 194.611 163.871 194.889C163.863 194.985 163.85 195.081 163.837 195.177C163.811 195.391 163.78 195.601 163.75 195.812C163.746 195.865 163.737 195.922 163.728 195.975C163.702 196.146 163.676 196.317 163.646 196.488C163.602 196.748 163.559 197.008 163.507 197.265C163.485 197.382 163.464 197.504 163.442 197.621C163.416 197.749 163.386 197.878 163.36 198.006C163.316 198.22 163.268 198.433 163.216 198.647C163.164 198.868 163.112 199.085 163.056 199.302C162.982 199.609 162.9 199.908 162.817 200.211C162.765 200.396 162.709 200.581 162.653 200.763C162.601 200.944 162.548 201.123 162.492 201.301C162.414 201.539 162.34 201.778 162.258 202.017C162.236 202.084 162.21 202.152 162.188 202.22C162.102 202.473 162.011 202.725 161.92 202.975C161.833 203.21 161.746 203.445 161.655 203.677C161.403 204.328 161.134 204.97 160.848 205.596C160.77 205.775 160.688 205.953 160.605 206.127C160.28 206.825 159.937 207.509 159.582 208.179C159.49 208.357 159.395 208.535 159.295 208.71C158.775 209.657 158.228 210.573 157.664 211.456C157.664 211.456 144.634 211.456 138.054 211.456C117.672 185.414 97.0031 170.863 82.8843 158.784C79.9434 156.266 77.2844 153.858 74.9725 151.475C67.5118 143.777 58.4593 133.244 64.5926 123.933C68.1104 118.593 76.3996 117.404 83.1228 117.992C103.748 119.79 125.766 131.26 143.693 150.876C146.109 153.516 148.486 156.665 150.737 159.963C153.856 164.523 156.732 169.37 159.13 173.567C162.852 180.071 164.218 186.255 164.08 191.947Z" fill="#00AEFF"/>
<path d="M164.079 191.947C164.075 192.164 164.066 192.385 164.053 192.602C164.057 192.613 164.053 192.624 164.053 192.638C164.044 192.852 164.031 193.069 164.018 193.283C164.001 193.539 163.979 193.795 163.958 194.048C163.932 194.33 163.906 194.611 163.871 194.889C163.862 194.985 163.849 195.081 163.836 195.178C163.81 195.391 163.78 195.601 163.75 195.812C163.745 195.865 163.736 195.922 163.728 195.975C163.702 196.146 163.676 196.317 163.645 196.488C163.602 196.748 163.559 197.008 163.507 197.265C163.485 197.382 163.463 197.504 163.442 197.621C163.416 197.749 163.385 197.878 163.359 198.006C163.316 198.22 163.268 198.433 163.216 198.647C163.164 198.868 163.112 199.085 163.056 199.302C162.982 199.609 162.899 199.908 162.817 200.211C162.765 200.396 162.708 200.581 162.652 200.763C162.6 200.945 162.548 201.123 162.492 201.301C162.414 201.539 162.34 201.778 162.257 202.017C162.236 202.084 162.21 202.152 162.188 202.22C162.101 202.473 162.01 202.726 161.919 202.975C161.832 203.21 161.746 203.445 161.654 203.677C161.403 204.328 161.134 204.97 160.848 205.596C160.77 205.775 160.687 205.953 160.605 206.127C160.279 206.825 159.937 207.509 159.581 208.179C159.49 208.357 159.395 208.535 159.295 208.71C158.774 209.657 158.228 210.573 157.664 211.456C157.664 211.456 144.634 211.456 138.054 211.456C117.671 185.414 97.0026 170.863 82.8838 158.784C103.626 170.151 138.587 184.434 150.737 159.963C153.855 164.523 156.731 169.371 159.13 173.567C162.852 180.071 164.218 186.255 164.079 191.947Z" fill="#0092FF"/>
<path d="M158.326 206.47C157.975 206.47 157.644 206.293 157.514 206.007C147.47 184.022 129.706 166.351 116.573 155.397C102.339 143.526 90.3487 136.784 90.2294 136.717C89.8329 136.496 89.7306 136.053 89.9999 135.728C90.2697 135.403 90.8093 135.318 91.2049 135.54C91.3259 135.607 103.457 142.428 117.81 154.398C131.061 165.449 148.987 183.287 159.138 205.507C159.306 205.875 159.079 206.286 158.631 206.424C158.53 206.455 158.427 206.47 158.326 206.47Z" fill="#241B9C"/>
<path d="M288.208 169.809C288.208 169.809 287.256 160.874 306.42 151.613C325.584 142.351 350.127 139.502 350.127 139.502L383.996 149.475C383.996 149.475 349.585 154.937 340.62 168.236C331.656 181.534 288.208 169.809 288.208 169.809Z" fill="#00AEFF"/>
<path d="M350.127 187.708V168.339C350.127 167.036 348.841 165.979 347.254 165.979H285.5C282.213 165.979 279.054 167.046 276.74 168.963C272.417 172.543 265.759 179.149 262.942 187.708C257.516 204.193 350.127 187.708 350.127 187.708Z" fill="#010261"/>
<path d="M361.006 188.955V202.312L293.773 202.697L205.286 203.203V196.093C205.286 194.437 206.678 192.998 208.648 192.624C213.554 191.697 223.04 189.738 231.745 186.995C239.492 184.555 247.309 180.174 251.174 177.852C252.579 177.008 254.539 177.218 255.633 178.333L262.542 185.393H356.668C359.067 185.393 361.006 186.988 361.006 188.955Z" fill="#4040D3"/>
<path d="M284.304 180.317C287.838 180.317 290.702 177.964 290.702 175.063C290.702 172.161 287.838 169.809 284.304 169.809C280.771 169.809 277.906 172.161 277.906 175.063C277.906 177.964 280.771 180.317 284.304 180.317Z" fill="#241B9C"/>
<path d="M361.006 188.955V202.312L293.773 202.697V185.393H356.669C359.067 185.393 361.006 186.988 361.006 188.955Z" fill="#241B9C"/>
<path d="M83.5553 109.606L93.2785 101.063L103.746 111.604L76.7236 132.877L83.5553 109.606Z" fill="#A5CCF2"/>
<path d="M93.2785 101.063L76.7236 132.877L78.5107 104.399L93.2785 101.063Z" fill="white"/>
<path d="M112.284 100.765L128.513 105.432L76.7236 132.877L112.284 100.765Z" fill="#C1DCFB"/>
<path d="M367.514 21.1228L354.501 16.3735L349.874 29.4341L384.864 40.3578L367.514 21.1228Z" fill="#C1DCFB"/>
<path d="M354.502 16.3735L384.865 40.3578L369.684 14.7111L354.502 16.3735Z" fill="#A5CCF2"/>
<path d="M336.861 22.1914L324.138 31.6903L384.864 40.3578L336.861 22.1914Z" fill="white"/>
<path d="M321.649 159.489C321.371 159.489 321.099 159.38 320.931 159.178C320.661 158.853 320.763 158.41 321.16 158.188C321.288 158.116 334.286 150.934 354.387 147.295C354.854 147.21 355.318 147.453 355.421 147.838C355.524 148.222 355.228 148.602 354.761 148.687C334.983 152.267 322.263 159.295 322.137 159.366C321.987 159.45 321.817 159.489 321.649 159.489Z" fill="#241B9C"/>
<path d="M455.674 171.857C452.534 176.135 449.302 179.886 446.014 183.323C440.492 189.09 434.81 193.977 429.115 198.975C422.99 204.353 416.853 209.864 410.901 216.749C400.595 223.859 387.643 229.573 372.288 233.982C373.906 228.269 377.537 216.735 383.77 203.306C387.747 194.739 392.783 185.4 399.034 176.309C410.815 159.169 424.929 146.235 437.222 139.139C445.962 134.096 453.778 131.998 459.183 133.433C472.196 136.888 467.529 155.71 455.674 171.857Z" fill="#00AEFF"/>
<path d="M446.014 183.323C440.492 189.09 434.81 193.977 429.115 198.975C422.99 204.353 416.853 209.864 410.901 216.749C403.727 221.7 395.269 225.971 385.609 229.601C384.824 229.897 384.034 230.185 383.236 230.47C379.736 231.72 376.083 232.892 372.288 233.982C373.906 228.269 377.537 216.735 383.77 203.306C386.754 204.795 391.504 206.077 398.596 205.301C399.303 205.226 400.036 205.126 400.795 205.005C408.78 203.734 419.446 199.965 433.47 191.526C437.382 189.172 441.559 186.454 446.014 183.323Z" fill="#0092FF"/>
<path d="M436.398 162.777C436.172 162.98 419.008 178.596 400.795 205.005C395.698 212.393 390.519 220.625 385.609 229.601C384.824 229.897 384.034 230.185 383.236 230.47C388.186 221.291 393.425 212.867 398.596 205.301C417.178 178.13 434.884 162.026 435.118 161.819C435.439 161.527 435.99 161.509 436.341 161.773C436.697 162.036 436.723 162.489 436.398 162.777Z" fill="#241B9C"/>
</svg>
