<svg width="28" height="28" viewBox="0 0 28 28" fill="none" xmlns="http://www.w3.org/2000/svg">
<path d="M0 13.4167C0 7.09199 -1.19209e-07 3.92965 1.96482 1.96482C3.92965 -1.19209e-07 7.09199 0 13.4167 0H14.5833C20.908 0 24.0704 -1.19209e-07 26.0352 1.96482C28 3.92965 28 7.09199 28 13.4167V14.5833C28 20.908 28 24.0704 26.0352 26.0352C24.0704 28 20.908 28 14.5833 28H13.4167C7.09199 28 3.92965 28 1.96482 26.0352C-1.19209e-07 24.0704 0 20.908 0 14.5833V13.4167Z" fill="black"/>
<path d="M14 4C8.4798 4 4 8.4798 4 14C4 19.5202 8.4798 24 14 24C19.5202 24 24 19.5202 24 14C24 8.4798 19.5202 4 14 4ZM18.0605 18.7137C17.8911 18.7137 17.7863 18.6613 17.629 18.5685C15.1129 17.0524 12.1855 16.9879 9.2944 17.5806C9.1371 17.621 8.9315 17.6855 8.8145 17.6855C8.4234 17.6855 8.1774 17.375 8.1774 17.0484C8.1774 16.6331 8.4234 16.4355 8.7258 16.371C12.0282 15.6411 15.4032 15.7056 18.2823 17.4274C18.5282 17.5847 18.6734 17.7258 18.6734 18.0927C18.6734 18.4597 18.3871 18.7137 18.0605 18.7137ZM19.1452 16.0685C18.9355 16.0685 18.7944 15.9758 18.6492 15.8992C16.129 14.4073 12.371 13.8065 9.0282 14.7137C8.8347 14.7661 8.7298 14.8185 8.5484 14.8185C8.1169 14.8185 7.76613 14.4677 7.76613 14.0363C7.76613 13.6048 7.97581 13.3185 8.3911 13.2016C9.5121 12.8871 10.6573 12.6532 12.3347 12.6532C14.9516 12.6532 17.4798 13.3024 19.4718 14.4879C19.7984 14.6815 19.9274 14.9315 19.9274 15.2823C19.9234 15.7177 19.5847 16.0685 19.1452 16.0685ZM20.3952 12.996C20.1855 12.996 20.0565 12.9435 19.875 12.8387C17.004 11.125 11.871 10.7137 8.5484 11.6411C8.4032 11.6815 8.2218 11.746 8.0282 11.746C7.49597 11.746 7.08871 11.3306 7.08871 10.7944C7.08871 10.246 7.42742 9.9355 7.79032 9.8306C9.2097 9.4153 10.7984 9.2177 12.5282 9.2177C15.4718 9.2177 18.5565 9.8306 20.8105 11.1452C21.125 11.3266 21.3306 11.5766 21.3306 12.0565C21.3306 12.6048 20.8871 12.996 20.3952 12.996Z" fill="#1ED860"/>
</svg>
