<svg width="28" height="28" viewBox="0 0 28 28" fill="none" xmlns="http://www.w3.org/2000/svg">
<path d="M0 13.4167C0 7.09199 -1.19209e-07 3.92965 1.96482 1.96482C3.92965 -1.19209e-07 7.09199 0 13.4167 0H14.5833C20.908 0 24.0704 -1.19209e-07 26.0352 1.96482C28 3.92965 28 7.09199 28 13.4167V14.5833C28 20.908 28 24.0704 26.0352 26.0352C24.0704 28 20.908 28 14.5833 28H13.4167C7.09199 28 3.92965 28 1.96482 26.0352C-1.19209e-07 24.0704 0 20.908 0 14.5833V13.4167Z" fill="#5B79FF"/>
<g clip-path="url(#clip0)">
<path d="M19.7363 6H8.43945C8.19676 6 8 6.19676 8 6.43945V20.5605C8 20.7128 8.07887 20.8543 8.20842 20.9344C8.338 21.0145 8.49978 21.0217 8.63601 20.9536L14.0879 18.2277L19.5398 20.9536C19.6018 20.9846 19.6692 21 19.7363 21C19.8167 21 19.8968 20.978 19.9674 20.9344C20.0969 20.8543 20.1758 20.7128 20.1758 20.5605V6.43945C20.1758 6.19676 19.979 6 19.7363 6ZM17.2189 11.6304L15.9723 12.8455L16.2625 14.5374C16.2697 14.569 16.2735 14.6019 16.2735 14.6356C16.2735 14.878 16.0772 15.0746 15.8349 15.0751C15.8344 15.0751 15.8339 15.0751 15.8334 15.0751C15.7634 15.0751 15.6933 15.0584 15.629 15.0246L14.0879 14.2146L12.5469 15.0246C12.4826 15.0584 12.4124 15.0751 12.3424 15.0751C12.2513 15.0751 12.1607 15.0468 12.0841 14.9912C11.9488 14.8928 11.881 14.7262 11.9093 14.5613L12.2037 12.8455L10.9569 11.6304C10.8371 11.5136 10.794 11.339 10.8457 11.1799C10.8974 11.0208 11.0349 10.9048 11.2004 10.8808L12.9234 10.6304L13.6938 9.06923C13.7678 8.91923 13.9205 8.82425 14.0878 8.82425C14.2551 8.82425 14.4079 8.9192 14.4819 9.0692L15.2524 10.6304L16.9753 10.8808C17.1408 10.9048 17.2784 11.0208 17.33 11.1799C17.3818 11.3389 17.3386 11.5136 17.2189 11.6304Z" fill="white"/>
</g>
<defs>
<clipPath id="clip0">
<rect width="15" height="15" fill="white" transform="translate(6 6)"/>
</clipPath>
</defs>
</svg>
