<svg width="56" height="56" viewBox="0 0 56 56" fill="none" xmlns="http://www.w3.org/2000/svg">
<path d="M51.0781 8.81659H4.92188C2.20795 8.81659 0 11.0245 0 13.7385V42.2615C0 44.9754 2.20795 47.1834 4.92188 47.1834H51.0781C53.792 47.1834 56 44.9754 56 42.2615V13.7385C56 11.0245 53.792 8.81659 51.0781 8.81659ZM50.4358 12.0978L49.7789 12.6448L29.9528 29.154C28.8212 30.0961 27.1786 30.0961 26.0472 29.154L6.22114 12.6448L5.56423 12.0978H50.4358ZM3.28125 14.4667L19.4351 27.9179L3.28125 38.6687V14.4667ZM51.0781 43.9021H4.92188C4.12912 43.9021 3.46609 43.3369 3.31417 42.5884L22.066 30.1086L23.9477 31.6755C25.1217 32.6531 26.561 33.1419 28.0001 33.1419C29.4393 33.1419 30.8784 32.6531 32.0526 31.6755L33.9343 30.1086L52.6859 42.5883C52.5339 43.337 51.8709 43.9021 51.0781 43.9021ZM52.7188 38.6687L36.5649 27.9181L52.7188 14.4667V38.6687Z" fill="white"/>
</svg>
