<svg width="51" height="30" viewBox="0 0 51 30" fill="none" xmlns="http://www.w3.org/2000/svg">
<path d="M42.3194 17.0595C41.4949 16.0183 41.7308 15.555 42.3194 14.6243C42.33 14.6136 49.1364 5.20838 49.8376 2.01875L49.8419 2.01662C50.1904 0.85425 49.8419 0 48.1568 0H42.5808C41.1613 0 40.5067 0.733125 40.1561 1.55338C40.1561 1.55338 37.3171 8.34913 33.3009 12.7543C32.0046 14.0271 31.4054 14.4351 30.6978 14.4351C30.3493 14.4351 29.8074 14.0271 29.8074 12.8648V2.01662C29.8074 0.622625 29.41 0 28.2349 0H19.4671C18.5768 0 18.0476 0.65025 18.0476 1.25588C18.0476 2.57763 20.0558 2.8815 20.264 6.60025V14.6689C20.264 16.4369 19.9431 16.762 19.2313 16.762C17.3358 16.762 12.7351 9.93863 10.0088 2.12925C9.45838 0.614125 8.92075 0.00212485 7.49063 0.00212485H1.9125C0.320875 0.00212485 0 0.73525 0 1.5555C0 3.00475 1.8955 10.2106 8.8145 19.7306C13.4257 26.2289 19.9198 29.75 25.8273 29.75C29.3781 29.75 29.8116 28.968 29.8116 27.6229C29.8116 21.4136 29.4908 20.8271 31.2694 20.8271C32.0939 20.8271 33.5134 21.2351 36.8284 24.3695C40.6172 28.0861 41.2399 29.75 43.3606 29.75H48.9366C50.5261 29.75 51.3315 28.968 50.8682 27.4253C49.8079 24.1804 42.6424 17.5058 42.3194 17.0595V17.0595Z" fill="#5B79FF"/>
</svg>
