<svg width="51" height="44" viewBox="0 0 51 44" fill="none" xmlns="http://www.w3.org/2000/svg">
<path d="M50.2125 1.1813C49.5896 0.419449 48.6565 0 47.585 0C47.0025 0 46.3854 0.122566 45.7511 0.364975L2.58059 16.8445C0.28957 17.7188 -0.0189858 19.0308 0.000858242 19.7351C0.0207023 20.4394 0.403187 21.732 2.74012 22.4755C2.75412 22.4798 2.76813 22.4841 2.78214 22.488L11.7369 25.0506L16.5796 38.8986C17.2399 40.7865 18.722 41.9593 20.448 41.9593C21.5363 41.9593 22.6067 41.5033 23.5437 40.641L29.0825 35.5411L37.1162 42.0099C37.117 42.0106 37.1182 42.011 37.119 42.0118L37.1952 42.0733C37.2022 42.0787 37.2096 42.0846 37.2166 42.09C38.1096 42.7826 39.0843 43.1484 40.0364 43.1488H40.0368C41.8971 43.1488 43.3784 41.7717 43.8099 39.641L50.8833 4.71394C51.1674 3.31201 50.9293 2.05756 50.2125 1.1813V1.1813ZM14.7325 24.5638L32.0089 15.7379L21.2515 27.1685C21.0752 27.3556 20.9503 27.5848 20.8889 27.8342L18.8146 36.2364L14.7325 24.5638ZM21.5192 38.4426C21.4476 38.5084 21.3756 38.5671 21.3036 38.6212L23.2281 30.8268L26.7289 33.6458L21.5192 38.4426ZM47.9546 4.12056L40.8812 39.048C40.8131 39.3823 40.5956 40.1601 40.0364 40.1601C39.7602 40.1601 39.4131 40.0095 39.0578 39.736L29.9545 32.4061C29.9533 32.405 29.9518 32.4038 29.9502 32.403L24.5336 28.0412L40.0901 11.5111C40.5882 10.9819 40.6333 10.1714 40.1971 9.59013C39.7606 9.00881 38.9695 8.82593 38.3225 9.15667L12.7361 22.2281L3.65956 19.6312L46.8169 3.15676C47.1815 3.01746 47.4359 2.98828 47.585 2.98828C47.6764 2.98828 47.839 2.99918 47.8993 3.07349C47.9787 3.17038 48.0799 3.50072 47.9546 4.12056V4.12056Z" fill="#5B79FF"/>
</svg>
