<svg width="297" height="297" viewBox="0 0 297 297" fill="none" xmlns="http://www.w3.org/2000/svg">
<path d="M127.681 217.238C127.681 260.381 162.656 295.356 205.799 295.356C248.942 295.356 283.916 260.382 283.916 217.238C283.916 174.094 248.942 139.121 205.799 139.121C162.655 139.121 127.681 174.095 127.681 217.238ZM175.286 186.73C177.22 184.796 179.903 183.683 182.638 183.683C185.373 183.683 188.056 184.796 190.001 186.73C191.936 188.665 193.038 191.348 193.038 194.083C193.038 196.818 191.936 199.501 190.001 201.436C188.056 203.37 185.384 204.483 182.638 204.483C179.903 204.483 177.22 203.37 175.286 201.436C173.351 199.501 172.238 196.818 172.238 194.083C172.238 191.348 173.351 188.665 175.286 186.73ZM236.309 247.743C234.374 249.678 231.691 250.791 228.956 250.791C226.221 250.791 223.538 249.678 221.604 247.743C219.659 245.809 218.556 243.136 218.556 240.391C218.556 237.655 219.659 234.973 221.604 233.038C223.538 231.103 226.221 229.991 228.956 229.991C231.691 229.991 234.374 231.103 236.309 233.038C238.244 234.973 239.356 237.655 239.356 240.391C239.356 243.137 238.244 245.81 236.309 247.743ZM236.169 186.867C240.23 190.928 240.23 197.513 236.169 201.574L190.136 247.607C188.105 249.637 185.444 250.653 182.782 250.653C180.12 250.653 177.459 249.638 175.428 247.607C171.367 243.546 171.367 236.961 175.428 232.9L221.461 186.867C225.524 182.807 232.107 182.807 236.169 186.867Z" fill="#80B2FF"/>
<path d="M106.882 217.238C106.882 162.696 151.256 118.322 205.798 118.322C207.606 118.322 209.402 118.374 211.186 118.47V10.399C211.186 4.656 206.53 0 200.787 0H23.484C17.741 0 13.085 4.656 13.085 10.399V286.6C13.085 292.343 17.741 296.999 23.484 296.999H147.368C122.837 278.981 106.882 249.94 106.882 217.238ZM71.893 55.241H145.547C151.29 55.241 155.946 59.897 155.946 65.64C155.946 71.383 151.29 76.039 145.547 76.039H71.893C66.15 76.039 61.494 71.383 61.494 65.64C61.494 59.897 66.15 55.241 71.893 55.241ZM71.893 110.481H145.547C151.29 110.481 155.946 115.137 155.946 120.88C155.946 126.623 151.29 131.279 145.547 131.279H71.893C66.15 131.279 61.494 126.623 61.494 120.88C61.493 115.137 66.15 110.481 71.893 110.481ZM90.306 186.519H71.893C66.15 186.519 61.494 181.863 61.494 176.12C61.494 170.377 66.15 165.721 71.893 165.721H90.306C96.049 165.721 100.705 170.377 100.705 176.12C100.705 181.863 96.049 186.519 90.306 186.519Z" fill="#80B2FF"/>
</svg>
