<svg width="28" height="28" viewBox="0 0 28 28" fill="none" xmlns="http://www.w3.org/2000/svg">
<rect width="28" height="28" rx="8" fill="black"/>
<path d="M11.0461 13.8122C9.69807 13.8122 8.60901 14.9012 8.62893 16.236C8.64221 17.0926 9.1137 17.8364 9.80764 18.2514C9.5719 17.8895 9.43245 17.4612 9.42581 16.9997C9.40588 15.6649 10.4949 14.5758 11.843 14.5758C12.1086 14.5758 12.3643 14.619 12.6033 14.6954V12.0225C12.3543 11.986 12.0987 11.9661 11.843 11.9661C11.8297 11.9661 11.8198 11.9661 11.8065 11.9661V13.9317C11.5674 13.8553 11.3117 13.8122 11.0461 13.8122Z" fill="#F00044"/>
<path d="M16.8734 5.79688H16.8535H16.1628C16.3621 6.79629 16.9232 7.66621 17.7068 8.25723C17.1921 7.57656 16.88 6.72656 16.8734 5.79688Z" fill="#F00044"/>
<path d="M20.9373 9.86431C20.675 9.86431 20.4227 9.83774 20.1736 9.79126V11.7071C19.2705 11.7071 18.3939 11.5311 17.5705 11.1792C17.0393 10.9534 16.5445 10.6645 16.0896 10.3159L16.1029 16.2227C16.0963 17.5508 15.5717 18.796 14.6221 19.7356C13.8484 20.4993 12.8689 20.9874 11.8064 21.1434C11.5574 21.1799 11.3018 21.1999 11.0461 21.1999C9.91055 21.1999 8.82813 20.8313 7.94824 20.1506C8.04785 20.2702 8.1541 20.3864 8.27031 20.4993C9.22656 21.4422 10.4949 21.9635 11.8463 21.9635C12.102 21.9635 12.3576 21.9436 12.6066 21.9071C13.6691 21.751 14.6486 21.2629 15.4223 20.4993C16.3719 19.5596 16.8965 18.3145 16.9031 16.9864L16.8533 11.0795C17.3049 11.4282 17.7996 11.7204 18.3342 11.9428C19.1609 12.2915 20.0375 12.4708 20.9373 12.4708" fill="#F00044"/>
<path d="M8.26037 13.437C9.20666 12.4973 10.4651 11.976 11.8065 11.9661V11.2588C11.5574 11.2223 11.3018 11.2024 11.0461 11.2024C9.69142 11.2024 8.41974 11.7237 7.46349 12.6733C6.52384 13.6063 5.98595 14.8813 5.98927 16.2061C5.98927 17.5409 6.5172 18.7926 7.47013 19.7389C7.62287 19.8883 7.77892 20.0278 7.94494 20.154C7.19455 19.2608 6.78615 18.1452 6.78283 16.9698C6.78615 15.645 7.32072 14.37 8.26037 13.437Z" fill="#08FFF9"/>
<path d="M20.1736 9.79131V9.08076H20.167C19.2439 9.08076 18.3939 8.77529 17.71 8.25732C18.3043 9.04092 19.1742 9.59873 20.1736 9.79131Z" fill="#08FFF9"/>
<path d="M11.7068 19.3504C12.0223 19.367 12.3244 19.3238 12.6033 19.2342C13.5662 18.9188 14.2601 18.0223 14.2601 16.9664L14.2635 13.0152V5.79688H16.1627C16.1129 5.54785 16.0863 5.29551 16.083 5.0332H13.4666V12.2482L13.4633 16.1994C13.4633 17.2553 12.7693 18.1518 11.8064 18.4672C11.5275 18.5602 11.2254 18.6033 10.91 18.5834C10.5082 18.5602 10.133 18.4406 9.80762 18.248C10.216 18.8789 10.9133 19.3072 11.7068 19.3504Z" fill="#08FFF9"/>
<path d="M11.8065 21.1434C12.869 20.9873 13.8485 20.4992 14.6221 19.7355C15.5717 18.7959 16.0963 17.5508 16.1029 16.2227L16.0897 10.3158C16.5412 10.6645 17.036 10.9566 17.5705 11.1791C18.3973 11.5277 19.2738 11.707 20.1736 11.707V9.79121C19.1742 9.59863 18.3043 9.04082 17.71 8.25723C16.9264 7.66621 16.3619 6.79629 16.166 5.79688H14.2635V13.0119L14.2602 16.9631C14.2602 18.0189 13.5662 18.9154 12.6033 19.2309C12.3244 19.3238 12.0223 19.367 11.7069 19.3471C10.91 19.3039 10.216 18.8756 9.80763 18.248C9.11369 17.8363 8.6422 17.0893 8.62892 16.2326C8.609 14.8979 9.69806 13.8088 11.0461 13.8088C11.3117 13.8088 11.5674 13.852 11.8065 13.9283V11.9627C10.4651 11.9727 9.20666 12.4939 8.26037 13.4336C7.32072 14.3666 6.78283 15.6416 6.78615 16.9631C6.78615 18.1385 7.19455 19.2541 7.94826 20.1473C8.83146 20.8279 9.91056 21.1965 11.0461 21.1965C11.3018 21.1998 11.5574 21.1799 11.8065 21.1434Z" fill="white"/>
</svg>
