<svg width="32" height="32" viewBox="0 0 32 32" fill="none" xmlns="http://www.w3.org/2000/svg">
<path d="M2 15.4167C2 9.09199 2 5.92965 3.96482 3.96482C5.92965 2 9.09199 2 15.4167 2H16.5833C22.908 2 26.0704 2 28.0352 3.96482C30 5.92965 30 9.09199 30 15.4167V16.5833C30 22.908 30 26.0704 28.0352 28.0352C26.0704 30 22.908 30 16.5833 30H15.4167C9.09199 30 5.92965 30 3.96482 28.0352C2 26.0704 2 22.908 2 16.5833V15.4167Z" fill="#2787F5"/>
<path d="M2 15.4167C2 9.09199 2 5.92965 3.96482 3.96482C5.92965 2 9.09199 2 15.4167 2H16.5833C22.908 2 26.0704 2 28.0352 3.96482C30 5.92965 30 9.09199 30 15.4167V16.5833C30 22.908 30 26.0704 28.0352 28.0352C26.0704 30 22.908 30 16.5833 30H15.4167C9.09199 30 5.92965 30 3.96482 28.0352C2 26.0704 2 22.908 2 16.5833V15.4167Z" fill="#25AAF7"/>
<path d="M25 10.2747C24.3375 10.5759 23.6266 10.7801 22.8798 10.8713C23.6424 10.4028 24.2261 9.6597 24.5028 8.77694C23.7875 9.21081 22.9978 9.52585 22.1565 9.69663C21.4828 8.95928 20.5244 8.5 19.4615 8.5C17.4223 8.5 15.7688 10.1963 15.7688 12.2872C15.7688 12.5838 15.8014 12.8734 15.8644 13.1504C12.796 12.9923 10.0752 11.4841 8.25412 9.19234C7.9358 9.75086 7.75471 10.4016 7.75471 11.0963C7.75471 12.4107 8.40709 13.5704 9.39692 14.2489C8.79177 14.2281 8.22262 14.0573 7.72435 13.7735V13.8208C7.72435 15.6555 8.99762 17.1868 10.6859 17.5353C10.3766 17.6207 10.0504 17.668 9.71297 17.668C9.47453 17.668 9.24394 17.6438 9.01786 17.5976C9.488 19.1035 10.8513 20.1986 12.4665 20.2286C11.2033 21.2441 9.61062 21.8476 7.88071 21.8476C7.58265 21.8476 7.28906 21.8291 7 21.7956C8.63433 22.8723 10.5746 23.5 12.6599 23.5C19.4525 23.5 23.1655 17.728 23.1655 12.7223L23.1531 12.2318C23.8786 11.701 24.5062 11.034 25 10.2747Z" fill="white"/>
</svg>
