<svg width="19" height="19" viewBox="0 0 19 19" fill="none" xmlns="http://www.w3.org/2000/svg">
<g clip-path="url(#clip0)">
<path d="M9.50051 3.95874C4.62312 3.95874 0.276937 9.02851 0.0940644 9.24463C-0.0310293 9.39188 -0.0310293 9.608 0.0940644 9.75602C0.203313 9.88505 1.80088 11.7399 4.1046 13.2171L6.58565 10.7361C6.42416 10.3561 6.33391 9.93886 6.33391 9.50031C6.33391 7.75393 7.75414 6.3337 9.50051 6.3337C9.9391 6.3337 10.3563 6.42395 10.7363 6.58545L12.7764 4.54536C11.782 4.18989 10.6904 3.95874 9.50051 3.95874Z" fill="white"/>
<path d="M18.9299 9.27473C18.8286 9.12827 17.1479 6.7628 14.3225 5.23808L16.5098 3.05074C16.6642 2.89636 16.6642 2.6454 16.5098 2.49102C16.3554 2.33665 16.1045 2.33665 15.9501 2.49102L2.492 15.9492C2.33763 16.1036 2.33763 16.3545 2.492 16.5089C2.56878 16.5865 2.67012 16.6253 2.77147 16.6253C2.87281 16.6253 2.97412 16.5865 3.05171 16.5097L5.53355 14.0279C6.75665 14.6247 8.10563 15.042 9.50052 15.042C14.3779 15.042 18.7241 9.97219 18.907 9.75607C19.0217 9.6191 19.032 9.42198 18.9299 9.27473ZM9.50052 12.667C8.76981 12.667 8.10563 12.4081 7.56889 11.9917L11.9919 7.56877C12.4082 8.10551 12.6671 8.76972 12.6671 9.50039C12.6671 11.2468 11.2469 12.667 9.50052 12.667Z" fill="white"/>
</g>
<defs>
<clipPath id="clip0">
<rect width="19" height="19" fill="white" transform="translate(0.000244141 0.000244141)"/>
</clipPath>
</defs>
</svg>
