<svg width="28" height="28" viewBox="0 0 28 28" fill="none" xmlns="http://www.w3.org/2000/svg">
<rect width="28" height="28" rx="8" fill="#5587C0"/>
<path d="M19.9368 14.7343C19.6458 14.3843 19.729 14.2286 19.9368 13.9157C19.9405 13.9121 22.3428 10.7507 22.5904 9.67857L22.5919 9.67786C22.7149 9.28714 22.5919 9 21.9971 9H20.029C19.528 9 19.297 9.24643 19.1732 9.52214C19.1732 9.52214 18.1712 11.8064 16.7537 13.2871C16.2961 13.715 16.0846 13.8521 15.8349 13.8521C15.7119 13.8521 15.5206 13.715 15.5206 13.3243V9.67786C15.5206 9.20929 15.3804 9 14.9656 9H11.871C11.5567 9 11.37 9.21857 11.37 9.42214C11.37 9.86643 12.0787 9.96857 12.1522 11.2186V13.9307C12.1522 14.525 12.039 14.6343 11.7877 14.6343C11.1187 14.6343 9.49491 12.3407 8.53262 9.71571C8.33837 9.20643 8.14861 9.00071 7.64384 9.00071H5.67502C5.11325 9.00071 5 9.24714 5 9.52286C5 10.01 5.66902 12.4321 8.11111 15.6321C9.73866 17.8164 12.0307 19 14.1158 19C15.3691 19 15.5221 18.7371 15.5221 18.285C15.5221 16.1979 15.4089 16.0007 16.0366 16.0007C16.3276 16.0007 16.8287 16.1379 17.9987 17.1914C19.336 18.4407 19.5558 19 20.3043 19H22.2723C22.8334 19 23.1176 18.7371 22.9541 18.2186C22.5799 17.1279 20.0508 14.8843 19.9368 14.7343Z" fill="white"/>
</svg>
